<?xml version="1.0" encoding="utf-8"?>
<!-- Generator: Adobe Illustrator 19.1.0, SVG Export Plug-In . SVG Version: 6.00 Build 0)  -->
<svg version="1.1" id="Layer_1" xmlns="http://www.w3.org/2000/svg" xmlns:xlink="http://www.w3.org/1999/xlink" x="0px" y="0px"
	 viewBox="-2604.7 1370.2 73.6 60.9" style="enable-background:new -2604.7 1370.2 73.6 60.9;" xml:space="preserve">
<style type="text/css">
	.st0{fill:#78909C;}
</style>
<path class="st0" d="M-2536.5,1421.5c0-0.3-0.2-0.7-0.4-0.9c-0.3-0.3-0.6-0.4-0.9-0.4h-0.4v-6.6h0.4c0.3,0,0.7-0.2,0.9-0.4
	c0.3-0.3,0.4-0.6,0.4-0.9v-4c0-0.3-0.2-0.7-0.4-0.9c-0.3-0.3-0.6-0.4-0.9-0.4h-3.8l-4.3-15.9c0.4-0.3,0.8-0.5,1.1-0.9
	c1-1,1.6-2.4,1.6-4s-0.6-2.9-1.6-4c-1-1-2.4-1.6-4-1.6c-1.6,0-2.9,0.6-4,1.6c-1,1-1.6,2.4-1.6,4s0.6,2.9,1.6,4
	c0.3,0.3,0.7,0.6,1.1,0.9l-4.3,15.9h-3.5l-5.9-21.8c0.4-0.3,0.8-0.5,1.1-0.9c1-1,1.6-2.4,1.6-4s-0.6-2.9-1.6-4c-1-1-2.4-1.6-4-1.6
	c-1.6,0-2.9,0.6-4,1.6c-1,1-1.6,2.4-1.6,4s0.6,2.9,1.6,4c0.3,0.3,0.7,0.6,1.1,0.9l-5.9,21.8h-2.5l-4.1-15.3c0.4-0.3,0.8-0.5,1.1-0.9
	c1-1,1.6-2.4,1.6-4s-0.6-2.9-1.6-4c-1-1-2.4-1.6-4-1.6c-1.6,0-2.9,0.6-4,1.6c-1,1-1.6,2.4-1.6,4s0.6,2.9,1.6,4
	c0.3,0.3,0.6,0.5,0.9,0.7l-4.3,15.4h-4.6c-0.3,0-0.7,0.2-0.9,0.4c-0.3,0.3-0.4,0.6-0.4,0.9v4c0,0.3,0.2,0.7,0.4,0.9
	c0.3,0.3,0.6,0.4,0.9,0.4h0.4v6.5h-0.4c-0.3,0-0.7,0.2-0.9,0.4c-0.3,0.3-0.4,0.6-0.4,0.9v4.3c0,0.3,0.2,0.7,0.4,0.9
	c0.3,0.3,0.6,0.4,0.9,0.4h5.1h50.5h5.1c0.3,0,0.7-0.2,0.9-0.4c0.3-0.3,0.4-0.6,0.4-0.9V1421.5z M-2543,1424.4h-50.5h-3.7v-1.3h57.9
	v1.3H-2543z M-2596.8,1410.9h-0.4v-1.3h3.7h0.5c0.6,0,1.1-0.4,1.3-1l4.4-16.3c0.2,0,0.3,0,0.5,0c0.1,0,0.2,0,0.3,0l4.4,16.2
	c0.2,0.6,0.7,1,1.3,1h4.7c0.6,0,1.1-0.4,1.3-1l6.2-22.8c0.1,0,0.2,0,0.3,0s0.1,0,0.2,0l6.2,22.8c0.2,0.6,0.7,1,1.3,1h5.7
	c0.6,0,1.1-0.4,1.3-1l4.6-16.8c0.1,0,0.2,0,0.2,0c0.1,0,0.2,0,0.3,0l4.7,16.9c0.2,0.6,0.7,1,1.3,1h3.4v1.3h-0.4
	c-0.2,0-0.3,0-0.4,0.1h-56.1C-2596.4,1410.9-2596.6,1410.9-2596.8,1410.9z M-2588.7,1384.7c0.5-0.5,1.2-0.9,2-0.9s1.5,0.3,2,0.9
	c0.5,0.5,0.9,1.2,0.9,2c0,0.8-0.3,1.5-0.9,2c-0.5,0.5-1.2,0.9-2,0.9s-1.5-0.3-2-0.9c-0.5-0.5-0.9-1.2-0.9-2
	C-2589.6,1385.9-2589.3,1385.3-2588.7,1384.7z M-2570.3,1378.2c0.5-0.5,1.2-0.9,2-0.9s1.5,0.3,2,0.9c0.5,0.5,0.9,1.2,0.9,2
	c0,0.8-0.3,1.5-0.9,2c-0.5,0.5-1.2,0.9-2,0.9s-1.5-0.3-2-0.9c-0.5-0.5-0.9-1.2-0.9-2C-2571.1,1379.4-2570.8,1378.7-2570.3,1378.2z
	 M-2550.8,1384.1c0.5-0.5,1.2-0.9,2-0.9c0.8,0,1.5,0.3,2,0.9c0.5,0.5,0.9,1.2,0.9,2c0,0.8-0.3,1.5-0.9,2s-1.2,0.9-2,0.9
	c-0.8,0-1.5-0.3-2-0.9s-0.9-1.2-0.9-2C-2551.7,1385.4-2551.3,1384.7-2550.8,1384.1z M-2546.7,1416.9c0,0.3-0.2,0.6-0.3,0.9
	c-0.3,0.3-0.5,0.3-0.9,0.3c-0.3,0-0.6-0.2-0.9-0.3c-0.3-0.3-0.3-0.5-0.3-0.9c0-0.3,0.2-0.6,0.3-0.9c0.3-0.3,0.5-0.3,0.9-0.3
	c0.3,0,0.6,0.2,0.9,0.3C-2546.8,1416.2-2546.7,1416.6-2546.7,1416.9z M-2550.7,1414.1c-0.7,0.7-1.1,1.7-1.1,2.8
	c0,1.1,0.4,2.1,1.1,2.8c0.3,0.3,0.6,0.5,0.9,0.7h-6.6c0.3-0.2,0.7-0.4,0.9-0.7c0.7-0.7,1.1-1.7,1.1-2.8c0-1.1-0.4-2.1-1.1-2.8
	c-0.2-0.2-0.3-0.3-0.5-0.4h5.7C-2550.4,1413.8-2550.5,1413.9-2550.7,1414.1z M-2579.3,1416c0.3-0.3,0.5-0.3,0.9-0.3
	c0.3,0,0.6,0.2,0.9,0.3c0.3,0.3,0.3,0.5,0.3,0.9c0,0.3-0.2,0.6-0.3,0.9c-0.3,0.3-0.5,0.3-0.9,0.3c-0.3,0-0.6-0.2-0.9-0.3
	c-0.3-0.3-0.3-0.5-0.3-0.9C-2579.7,1416.6-2579.5,1416.2-2579.3,1416z M-2575.6,1419.7c0.7-0.7,1.1-1.7,1.1-2.8
	c0-1.1-0.4-2.1-1.1-2.8c-0.2-0.2-0.3-0.3-0.5-0.4h5.7c-0.2,0.2-0.3,0.3-0.5,0.4c-0.7,0.7-1.1,1.7-1.1,2.8c0,1.1,0.4,2.1,1.1,2.8
	c0.3,0.3,0.6,0.5,0.9,0.7h-6.6C-2576.2,1420.2-2575.9,1419.9-2575.6,1419.7z M-2567,1416.9c0,0.3-0.2,0.6-0.3,0.9
	c-0.3,0.3-0.5,0.3-0.9,0.3s-0.6-0.2-0.9-0.3c-0.3-0.3-0.3-0.5-0.3-0.9c0-0.3,0.2-0.6,0.3-0.9c0.3-0.3,0.5-0.3,0.9-0.3
	s0.6,0.2,0.9,0.3C-2567.2,1416.2-2567,1416.6-2567,1416.9z M-2565.5,1419.7c0.7-0.7,1.1-1.7,1.1-2.8c0-1.1-0.4-2.1-1.1-2.8
	c-0.2-0.2-0.3-0.3-0.5-0.4h5.7c-0.2,0.2-0.3,0.3-0.5,0.4c-0.7,0.7-1.1,1.7-1.1,2.8c0,1.1,0.4,2.1,1.1,2.8c0.3,0.3,0.6,0.5,0.9,0.7
	h-6.6C-2566.1,1420.2-2565.7,1419.9-2565.5,1419.7z M-2556.8,1416.9c0,0.3-0.2,0.6-0.3,0.9c-0.3,0.3-0.5,0.3-0.9,0.3
	s-0.6-0.2-0.9-0.3c-0.3-0.3-0.3-0.5-0.3-0.9c0-0.3,0.2-0.6,0.3-0.9c0.3-0.3,0.5-0.3,0.9-0.3s0.6,0.2,0.9,0.3
	C-2557,1416.2-2556.8,1416.6-2556.8,1416.9z M-2589.4,1416c0.3-0.3,0.5-0.3,0.9-0.3s0.6,0.2,0.9,0.3c0.3,0.3,0.3,0.5,0.3,0.9
	c0,0.3-0.2,0.6-0.3,0.9c-0.3,0.3-0.5,0.3-0.9,0.3s-0.6-0.2-0.9-0.3c-0.3-0.3-0.3-0.5-0.3-0.9
	C-2589.9,1416.6-2589.7,1416.2-2589.4,1416z M-2585.8,1419.7c0.7-0.7,1.1-1.7,1.1-2.8c0-1.1-0.4-2.1-1.1-2.8
	c-0.2-0.2-0.3-0.3-0.5-0.4h5.7c-0.2,0.2-0.3,0.3-0.5,0.4c-0.7,0.7-1.1,1.7-1.1,2.8c0,1.1,0.4,2.1,1.1,2.8c0.3,0.3,0.6,0.5,0.9,0.7
	h-6.6C-2586.4,1420.2-2586.1,1419.9-2585.8,1419.7z M-2546.1,1420.4c0.3-0.2,0.7-0.4,0.9-0.7c0.7-0.7,1.1-1.7,1.1-2.8
	c0-1.1-0.4-2.1-1.1-2.8c-0.2-0.2-0.3-0.3-0.5-0.4h4.6v6.7L-2546.1,1420.4L-2546.1,1420.4z M-2590.9,1413.6c-0.2,0.2-0.3,0.3-0.5,0.4
	c-0.7,0.7-1.1,1.7-1.1,2.8c0,1.1,0.4,2.1,1.1,2.8c0.3,0.3,0.6,0.5,0.9,0.7h-4.9v-6.7L-2590.9,1413.6L-2590.9,1413.6z"/>
</svg>
