<?xml version="1.0" encoding="utf-8"?>
<!-- Generator: Adobe Illustrator 19.1.0, SVG Export Plug-In . SVG Version: 6.00 Build 0)  -->
<svg version="1.1" id="Layer_1" xmlns="http://www.w3.org/2000/svg" xmlns:xlink="http://www.w3.org/1999/xlink" x="0px" y="0px"
	 viewBox="-2524.6 1399.2 38 36.8" style="enable-background:new -2524.6 1399.2 38 36.8;" xml:space="preserve">
<style type="text/css">
	.st0{fill:#FFFFFF;}
</style>
<g>
	<path class="st0" d="M-2524.6,1400.7c0,0.3,0.1,0.7,0.4,1.1l15.4,15.3l0.5,0.5l-0.5,0.5l-15.4,15.4c-0.3,0.4-0.4,0.8-0.4,1.1
		c0,0.4,0.2,0.7,0.4,1c0.2,0.2,0.6,0.5,1.1,0.5c0.4,0,0.8-0.2,1.1-0.4l16.9-16.9c0.3-0.3,0.5-0.7,0.5-1.1c0-0.4-0.2-0.8-0.5-1.1
		l-16.9-16.9c-0.3-0.3-0.7-0.4-1.1-0.4C-2524,1399.2-2524.6,1400-2524.6,1400.7z"/>
	<path class="st0" d="M-2506.6,1400.7c0,0.3,0.1,0.7,0.4,1.1l15.4,15.3l0.5,0.5l-0.5,0.5l-15.4,15.4c-0.3,0.4-0.4,0.8-0.4,1.1
		c0,0.4,0.2,0.7,0.4,1c0.2,0.2,0.6,0.5,1.1,0.5c0.4,0,0.8-0.2,1.1-0.4l16.9-16.9c0.3-0.3,0.5-0.7,0.5-1.1c0-0.4-0.2-0.8-0.5-1.1
		l-16.9-16.9c-0.3-0.3-0.7-0.4-1.1-0.4C-2506,1399.2-2506.6,1400-2506.6,1400.7z"/>
</g>
</svg>
