<?xml version="1.0" encoding="utf-8"?>
<!-- Generator: Adobe Illustrator 19.1.0, SVG Export Plug-In . SVG Version: 6.00 Build 0)  -->
<svg version="1.1" id="Layer_1" xmlns="http://www.w3.org/2000/svg" xmlns:xlink="http://www.w3.org/1999/xlink" x="0px" y="0px"
	 viewBox="-2505 1365 91.9 105.7" style="enable-background:new -2505 1365 91.9 105.7;" xml:space="preserve">
<style type="text/css">
	.st0{fill:#8D6E63;stroke:#FFFFFF;stroke-width:0.5;stroke-miterlimit:10;}
</style>
<g>
	<path class="st0" d="M-2472,1453.9c0.2-0.1,0.4-0.4,1-0.6c0,0.6,0,1.7,0.8,2.7c0.6,0.9,1.7,1.3,2.8,1.3h0.3l0.3-0.1
		c0.2,0,1.2-0.3,2.6-0.4l16-2.5c0.9-0.2,1.8-0.4,2.5-0.6c1.8-0.6,2.8-1.8,3-3.3c0.1-0.4,0.4-2.5,0.4-4c0-0.5-0.1-1.5-0.3-2.8
		c-0.3-1.3-0.4-2.2-0.6-2.8c-0.4-1.2-1.2-2.8-1.6-3.6l-0.2-0.4c-0.4-1.1-0.8-2.2-1.1-3.5c-0.2-1.2-0.2-2.5,0-3.6l0.1-0.4
		c0.3-1.1,0.4-2.8,0.4-4c0-0.4,0-0.7-0.1-1.2c0.7-0.7,1.4-1.3,2.2-1.9l0.4-0.3c0.9-0.4,2.3-1.4,3.4-2.1c0.4-0.4,1.2-1.1,2-2
		c0.9-1,1.5-1.8,1.8-2.2c0.6-1.2,1.4-2.7,1.9-3.6l0.2-0.4c0.4-1.1,1.2-2,2-2.9c0.6-0.7,1-1.1,1.1-1.2c1.2-0.8,2.8-2,4-2.9l0,0
		c1.3-1.1,2.1-2.6,2.2-4.3s-0.6-3.3-2-4.4l-12-10.9c-1.1-0.9-2-1.7-2-1.8l-1.1-0.9h-1.3c-1.2,0-2,0.4-4.2,2.1l0,0
		c-1.2,0.8-2.8,2.1-4,2.9c-0.4,0.4-1.2,1-2,2c0-0.1,0-0.2,0-0.2c0.2-1.3,0.3-3.6,0.3-4.9l0,0c0.1-1.6-0.4-3-1.5-4.2
		c-1.1-1.1-2.5-1.7-4-1.7c-0.4,0-0.6,0-0.9,0.1l-16,2.5l-0.9,0.2c-1,0.2-1.6,0.3-1.7,0.3c-0.4,0.1-2.7,0.5-3,3.2
		c0,0.2-0.1,0.4-0.1,0.7c-0.1,0.4-0.1,1.2-0.1,2v0.1c-0.1,1.3-0.2,3.6-0.3,5c0,0.5,0.1,1.5,0.3,2.8c0.4,2,0.8,3.7,1.6,5.3l0.3,0.5
		l0.1,0.2l0.1,0.2c0.2,0.3,0.6,1.3,1.2,2.7c0,0.2,0.2,0.5,0.3,1.5c0.2,0.9,0.2,1.3,0.2,1.5c-0.1,1.3-0.3,2.6-0.4,2.8l-0.1,0.2v0.2
		l-0.1,0.5c-0.3,1.8-0.2,3.6,0.1,5.6c0.1,0.4,0.2,0.9,0.3,1.2v0.1c-1.5,1-2.9,2.1-4.4,3.6c-1.2,1.4-2.4,3-3.2,4.6l-0.3,0.5l-0.1,0.2
		l-0.1,0.2c-0.1,0.3-0.6,1.3-1.2,2.6c-0.1,0.1-0.4,0.4-1,1.2s-1,1-1.1,1.2c-1,0.7-1.8,1.2-2,1.3c-0.4,0.2-0.7,0.4-0.9,0.5
		c-0.4,0.4-1.6,1.2-1.9,2.8c-0.2,1.2,0.3,2.3,1.2,3.1l0.4,0.4l1.6,1.4l12,10.8c2.6,2.3,4.1,2.3,4.6,2.3
		C-2473.1,1454.1-2472.7,1454.2-2472,1453.9z M-2489.3,1436.2c0.4-0.2,1.4-1,2.6-1.8c0,0,0.4-0.4,1.5-1.5c1.1-1.2,1.3-1.7,1.3-1.7
		c0.7-1.2,1.4-2.7,1.6-3.2c0,0,0,0,0.3-0.5c0.6-1.2,1.5-2.6,2.7-3.8c1-1.1,2-2,2.9-2.7c0.2-0.2,0.4-0.3,0.5-0.4
		c0.4-0.4,0.4-0.4,0.4-0.4c0.4-0.2,1.2-0.6,2-1.2c0.4-0.3,0.7-0.4,1.1-0.7c0,0,0.4-0.4,1.5-1.5s1.3-1.7,1.3-1.7
		c0.7-1.2,1.4-2.7,1.6-3.2c0,0,0,0,0.3-0.5c0.2-0.4,0.4-0.6,0.5-1c0.5-1,1.2-2,2-2.8c0.1-0.1,0.1-0.1,0.2-0.2c0.6-0.7,1.2-1.2,2-1.9
		c0.4-0.4,1-0.7,1.3-1c0.4-0.4,0.4-0.4,0.4-0.4c0.5-0.3,2-1.2,3-2c0,0,0.3-0.2,0.7-0.7c0.3-0.3,0.4-0.4,0.8-0.8
		c1.2-1.2,1.3-1.7,1.3-1.7c0.4-0.5,0.6-1.2,1-1.7c0.4-0.6,0.5-1.2,0.7-1.5c0,0,0,0,0.3-0.5c0.4-0.6,0.6-1.2,1.1-1.9
		c0.4-0.6,1-1.2,1.5-2c1.2-1.2,1.5-1.5,1.5-1.5c1.2-0.8,2.9-2.1,4-2.9l0,0c1.1-0.8,2-1.4,2-1.4l0,0c0.1,0,0.9,0.8,2,1.8l3.5,3.1
		l-3.4,2.6c-1.2,0.8-2.6,2-3.7,3.1c-1.2,1.2-2,2.7-2.8,4.1c-0.3,0.5-0.4,1.2-0.6,1.7c-0.4,0.6-0.6,1.2-1.1,1.8
		c-0.4,0.6-0.9,1.2-1.4,1.8c-0.8,0.9-1.7,1.7-2.6,2.3c-0.3,0.2-0.4,0.4-0.7,0.4c-0.5,0.3-1.1,0.4-1.6,0.9c-0.6,0.4-1.2,0.9-2,1.3
		c-0.6,0.5-1.2,1.2-1.9,1.8c-1.2,1.2-2,2.7-2.8,4.1c-0.1,0.3-0.3,0.4-0.4,0.6c-0.2,0.4-0.3,0.7-0.4,1.1c-0.2,0.4-0.4,0.7-0.5,1.1
		c-0.4,0.5-0.7,1.2-1.2,1.6c-0.3,0.4-0.4,0.6-0.8,1c-1.1,1.2-2.1,2-3.4,2.8c-0.5,0.3-1.1,0.4-1.6,0.9c-0.3,0.2-0.4,0.4-0.6,0.4
		c-1.2,0.7-2.1,1.7-3.1,2.8c-0.1,0.1-0.2,0.2-0.3,0.4c-1.1,1.2-2,2.5-2.6,3.7c-0.3,0.5-0.4,1.2-0.6,1.7c-0.6,1.2-1.4,2.5-2.5,3.6
		s-2.1,2-3.4,2.8c-0.4,0.3-1.1,0.4-1.5,0.8l-3.6-3.2c-0.9-0.9-1.8-1.7-1.9-1.7C-2490.2,1436.8-2489.5,1436.3-2489.3,1436.2z
		 M-2449.7,1410.2c-0.6,0.4-1.2,1-1.9,1.3c-0.4,0.3-1,0.4-1.5,0.8l0,0c-1.2,0.7-2.4,1.8-3.6,2.9l-0.1,0.1c-1.1,1.2-2,2.5-2.6,3.6
		c-0.3,0.5-0.4,1.1-0.6,1.6c-0.2,0.4-0.4,0.6-0.4,1c-0.4,0.6-0.9,1.3-1.3,2c-0.3,0.4-0.4,0.5-0.7,0.9c-0.3,0.4-0.4,0.5-0.8,0.8
		c-0.9,0.9-1.9,1.6-2.8,2.1c-0.4,0.3-1.1,0.4-1.5,0.8c-1.2,0.7-2.2,1.6-3.3,2.8c-0.1,0.1-0.2,0.2-0.3,0.3c-1.2,1.2-2,2.6-2.7,3.8
		c-0.3,0.5-0.4,1.1-0.6,1.6c-0.1,0.2-0.2,0.3-0.2,0.4c-0.6,1.2-1.4,2.3-2.4,3.5c-1.2,1.2-2.3,2.2-3.6,2.9c-0.4,0.3-1.1,0.4-1.5,0.8
		l-1.3-1.2c0.4-0.2,0.6-0.4,1-0.4h0.1h0.1c1.3-0.8,2.7-2,3.7-3.2c1.2-1.2,2-2.7,2.8-4.1v-0.1v-0.1c0.2-0.4,0.4-1,0.6-1.5
		c0.2-0.4,0.4-0.6,0.4-1c0.5-1,1.2-1.9,2-2.8c0.6-0.7,1.2-1.3,2-2c0.4-0.4,0.9-0.6,1.3-1s1-0.5,1.4-0.7h0.1h0.1
		c1.3-0.8,2.7-2,3.7-3.2c0.1-0.1,0.1-0.1,0.2-0.2c0.4-0.5,0.9-1.2,1.2-1.7c0.4-0.5,0.8-1.2,1.2-1.8c0.1-0.2,0.2-0.4,0.3-0.4v-0.1
		v-0.1c0.2-0.4,0.4-1,0.6-1.5c0.6-1.2,1.4-2.5,2.5-3.6c0.3-0.3,0.4-0.4,0.7-0.8c0.8-0.8,1.8-1.5,2.7-2c0.4-0.3,0.9-0.4,1.2-0.7
		c0,0,0.1,0,0.1-0.1l0.1-0.1c1.2-0.8,2.5-1.8,3.6-2.9c0.1-0.1,0.2-0.2,0.2-0.3c1.2-1.2,2-2.7,2.8-4.1v-0.1v-0.1
		c0.2-0.4,0.4-1,0.6-1.5c0.6-1.2,1.4-2.5,2.5-3.6c1.1-1.2,2.2-2.1,3.4-2.8l3.7-2.8l1.5,1.3l-4,3c-1.2,0.7-2.4,1.8-3.6,2.9
		c-1.2,1.2-2,2.6-2.7,3.8c-0.3,0.5-0.4,1.1-0.6,1.6c-0.6,1.2-1.5,2.6-2.7,3.8C-2448.6,1409.1-2449.1,1409.6-2449.7,1410.2z
		 M-2475.8,1447.4c1.2-0.7,2.4-1.8,3.6-2.9c0.1-0.1,0.2-0.2,0.3-0.4c1-1.2,1.8-2.2,2.3-3.4c0-0.1,0.1-0.1,0.1-0.2
		c0.2-0.4,0.4-1.1,0.6-1.6c0.6-1.2,1.5-2.6,2.7-3.8c0.9-1.1,2-1.9,2.8-2.6c0.3-0.2,0.4-0.4,0.6-0.4c0.4-0.3,0.8-0.4,1.2-0.6
		c0.1-0.1,0.3-0.1,0.4-0.2c0.5-0.4,1.2-0.7,1.7-1.2c0.6-0.5,1.2-1.2,1.9-1.8c1.2-1.2,2-2.6,2.7-3.8c0.2-0.4,0.4-1.1,0.6-1.6
		c0.3-0.4,0.4-0.8,0.7-1.2c0.5-0.9,1.2-1.8,2-2.6c0.4-0.4,0.7-0.7,1.1-1.1c0.8-0.7,1.6-1.3,2.5-2c0.2-0.1,0.3-0.2,0.4-0.3
		c0.4-0.3,0.7-0.4,1.2-0.5c1.2-0.7,2.4-1.8,3.6-2.9c1.2-1.2,2-2.6,2.7-3.8c0.2-0.4,0.4-1.1,0.6-1.6c0.6-1.2,1.5-2.6,2.7-3.8
		s2.3-2.2,3.6-2.9l4-3l-4.5-3.8l-0.2-0.1l5.7,5.1c1.1,1,1,2.3-0.2,3.2l0,0c-1.2,0.8-2.8,2.1-4,2.9c0,0-0.4,0.4-1.5,1.5
		c-1.2,1.2-2,2.6-2.7,3.8c-0.3,0.5-0.3,0.5-0.3,0.5c-0.3,0.5-1,2-1.6,3.2c0,0-0.3,0.4-1.3,1.7c-1.2,1.2-1.5,1.5-1.5,1.5
		c-1.2,0.8-2.5,1.7-3,2c0,0,0,0-0.4,0.4c-0.4,0.3-0.7,0.4-1.2,0.7c-0.8,0.6-1.7,1.3-2.4,2.2c-0.3,0.3-0.4,0.4-0.5,0.6
		c-0.9,1.1-1.5,2-2,3.1c-0.3,0.5-0.3,0.5-0.3,0.5c-0.3,0.5-1,2-1.6,3.2c0,0-0.1,0.2-0.4,0.6c-0.3,0.3-0.4,0.5-0.9,1
		c-1.2,1.2-1.5,1.5-1.5,1.5c-1.2,0.8-2.5,1.7-3,2c0,0,0,0-0.4,0.4c0,0,0,0-0.1,0c-0.5,0.4-1.2,0.7-1.7,1.2c-0.4,0.4-1.1,0.9-1.5,1.3
		c-0.1,0.2-0.3,0.3-0.4,0.4c-1.2,1.2-2,2.6-2.7,3.8c-0.3,0.5-0.3,0.5-0.3,0.5c-0.2,0.5-0.9,1.9-1.5,3c-0.1,0.1-0.1,0.2-0.1,0.3
		c0,0-0.3,0.4-1.3,1.7c-1.2,1.2-1.5,1.5-1.5,1.5l0,0c-1.2,0.8-2.8,1.9-3,2h-0.1c-0.4,0-1.3-0.5-2.2-1.4l-1.2-1.2
		C-2476.9,1448-2476.5,1447.7-2475.8,1447.4z M-2464.9,1453.3c-1.3,0.3-2.6,0.4-2.7,0.4l0,0c-0.1,0,0-0.8,0.1-1.2
		c0.1-0.3,0.2-1.2,0.3-2.2c0.2-0.2,0.4-0.4,0.5-0.6c0.9-1,1.5-1.8,1.8-2.2c0.6-1.2,1.4-2.7,1.9-3.6l0.2-0.4c0.4-0.6,0.7-1.3,1.2-2
		c0.2,0.4,0.4,0.5,0.4,0.8c0.5,1.2,1.1,2.8,1.2,4.2c0.3,1.5,0.3,3,0.1,4.4c-0.2,0.5-0.3,1.2-0.4,1.7L-2464.9,1453.3z
		 M-2458.2,1446.2c-0.3-1.7-0.7-3.3-1.4-4.7v-0.1v-0.1c-0.3-0.4-0.5-0.9-0.7-1.3c0.4-0.4,1-0.9,1.4-1.2c0.2,0.4,0.3,0.7,0.4,1.1
		c0.3,0.5,0.5,1.1,0.8,1.5c0.5,1.2,1.1,2.8,1.2,4.4c0.3,1.6,0.3,3.2,0.1,4.6c-0.2,0.5-0.3,1.2-0.4,1.7l-1.8,0.3
		c0.1-0.4,0.2-0.6,0.3-1v-0.1v-0.1C-2457.9,1449.7-2457.9,1447.9-2458.2,1446.2z M-2446.3,1444.2c0.3,1.6,0.3,2,0.3,2
		c-0.1,1.3-0.4,3.3-0.4,3.6c-0.1,0.4-1.2,0.7-2.6,1l-1.7,0.3c0.1-0.5,0.2-1.2,0.4-1.7c0.2-1.4,0.2-2.9-0.1-4.6
		c-0.3-1.6-0.7-3.1-1.2-4.4c-0.4-0.4-0.5-1-0.8-1.5c-0.4-1.1-0.9-2.3-1.2-3.6c0.4-0.4,0.9-0.9,1.4-1.5c0.9-1,1.5-1.8,1.8-2.2
		c0.2-0.4,0.4-0.6,0.5-1c0,1.1,0,2.1,0.3,3.3c0.3,1.6,0.7,3.1,1.2,4.4c0.3,0.5,0.3,0.5,0.3,0.5c0.4,0.5,1,2,1.4,3.3
		C-2446.6,1442-2446.5,1442.5-2446.3,1444.2z M-2458.7,1381.9c0.2,0,0.3,0,0.4,0c1.2,0,2,0.9,2,2.1v0.1c-0.1,1.3-0.2,3.6-0.3,5
		c0,0,0,0.4,0.3,2c0.1,0.7,0.3,1.4,0.4,2c-0.2,0.3-0.3,0.4-0.4,0.7l-0.3,0.5l-0.1,0.2l-0.1,0.2c-0.1,0.3-0.6,1.3-1.2,2.6
		c-0.1,0.1-0.2,0.2-0.4,0.4c0,0,0-0.1-0.1-0.1c-0.4-0.4-0.5-1-0.8-1.5c-0.5-1.2-1.1-2.8-1.2-4.4c-0.3-1.6-0.3-3.2-0.1-4.6l0.2-5.1
		l-0.5,0.2L-2458.7,1381.9z M-2466.4,1392.8c0.3,1.6,0.7,3.1,1.2,4.4c0.3,0.5,0.5,1.1,0.8,1.5c0.4,0.9,0.8,2,1.1,3
		c-0.5,0.4-1.2,0.7-1.7,1.2c-0.3-1.6-0.7-3.2-1.3-4.5v-0.1v-0.1c-0.3-0.4-0.5-0.9-0.8-1.4c-0.5-1.2-1.1-2.8-1.2-4.3
		c-0.3-1.5-0.3-3-0.1-4.4l0.2-4.7l2-0.4l-0.2,5.1C-2466.7,1389.6-2466.7,1391.2-2466.4,1392.8z M-2477.5,1394.5
		c-0.3-1.6-0.3-2-0.3-2c0.1-1.3,0.2-3.6,0.3-5v-0.1c0.1-1.3,0.2-2.5,0.2-2.5c0.1,0,1.2-0.2,2.6-0.4l4.6-0.7l-0.1,4.2
		c-0.2,1.5-0.2,3.2,0.1,4.9c0.3,1.7,0.7,3.3,1.4,4.7c0.3,0.5,0.5,1.2,0.9,1.6c0.5,1.2,1.1,2.8,1.2,4.2c0.1,0.4,0.1,0.6,0.2,1
		c-0.4,0.4-0.6,0.6-1.1,1.1c-1.2,1.4-2.4,3-3.2,4.6l-0.3,0.5l-0.1,0.2l-0.1,0.2c-0.1,0.3-0.6,1.3-1.2,2.6c-0.1,0.1-0.4,0.4-1,1.2
		c-0.4,0.4-0.7,0.7-0.9,0.9c-0.3-1.5-0.3-2.9-0.1-4.3c0.1-0.5,0.1-0.5,0.1-0.5c0.2-0.5,0.4-2.2,0.4-3.6c0,0,0-0.4-0.3-2
		s-0.4-2-0.4-2c-0.4-1.2-1.2-2.8-1.4-3.3c0,0,0,0-0.3-0.5C-2476.7,1397.6-2477.3,1396.1-2477.5,1394.5z"/>
</g>
</svg>
