<?xml version="1.0" encoding="utf-8"?>
<!-- Generator: Adobe Illustrator 19.1.0, SVG Export Plug-In . SVG Version: 6.00 Build 0)  -->
<svg version="1.1" id="Layer_1" xmlns="http://www.w3.org/2000/svg" xmlns:xlink="http://www.w3.org/1999/xlink" x="0px" y="0px"
	 viewBox="-2495 1379.6 55.6 78.2" style="enable-background:new -2495 1379.6 55.6 78.2;" xml:space="preserve">
<style type="text/css">
	.st0{fill:#673AB7;}
</style>
<g>
	<path class="st0" d="M-2445.5,1418.2c-0.3-0.9-0.7-1.8-1.1-2.6c-1-2.2-2-4.3-2.2-6.7l-0.7-12.6c0.2-0.1,0.4-0.1,0.6-0.3
		c0.2-0.2,0.3-0.5,0.3-0.8l-0.5-3.2c-0.1-0.5-0.5-0.9-1-0.9h-6c-0.5,0-0.9,0.4-1,0.9l-0.4,3.2c-0.1,0.3,0.1,0.6,0.3,0.8
		c0.1,0.1,0.3,0.3,0.5,0.3l-0.7,12.7c-0.1,2.3-1.1,4.5-2.2,6.7c-0.3,0.5-0.5,1-0.7,1.6c-0.3-0.7-0.6-1.4-0.9-2.2
		c-1.1-2.5-2.2-4.9-2.4-7.5l-0.7-14.4c0.3,0,0.5-0.1,0.7-0.3c0.2-0.2,0.3-0.5,0.3-0.8l-0.5-3.6c-0.1-0.5-0.5-0.9-1-0.9h-6.8
		c-0.5,0-0.9,0.4-1,0.9l-0.5,3.6c-0.1,0.3,0.1,0.6,0.3,0.8c0.1,0.2,0.3,0.3,0.6,0.3l-0.7,14.3c-0.1,2.6-1.2,5-2.4,7.5
		c-0.3,0.7-0.7,1.4-0.9,2.2c-0.2-0.5-0.5-1.1-0.7-1.6c-1-2.2-2-4.3-2.2-6.7l-0.7-12.6c0.2-0.1,0.4-0.1,0.6-0.3
		c0.2-0.2,0.3-0.5,0.3-0.8l-0.5-3.2c-0.1-0.5-0.5-0.9-1-0.9h-6c-0.5,0-0.9,0.4-1,0.9l-0.5,3.2c-0.1,0.3,0.1,0.6,0.3,0.8
		c0.1,0.1,0.3,0.3,0.5,0.3l-0.7,12.7c-0.1,2.3-1.1,4.5-2.2,6.7c-0.4,0.8-0.8,1.7-1.1,2.6c-0.3,0.9-0.5,2-0.5,3.1v25.5
		c0,1.9,1.5,3.4,3.4,3.4h9.7c0.5,0,0.9-0.1,1.4-0.3v0.1c0,2,1.6,3.6,3.6,3.6h10.9c2,0,3.6-1.6,3.6-3.6v-0.1c0.4,0.2,0.9,0.3,1.4,0.3
		h9.7c1.9,0,3.4-1.5,3.4-3.4v-25.5C-2444.9,1420.2-2445.1,1419.2-2445.5,1418.2z M-2446.9,1441.4c-2.2-0.5-3.8-2.5-3.8-4.9v-4.9
		c0-2.4,1.6-4.3,3.8-4.9V1441.4z M-2454.8,1395.5h3.2l0.3,4.9h-3.7L-2454.8,1395.5z M-2451,1393.1l0.1,1h-4.5l0.1-1H-2451z
		 M-2459.4,1421.4c0-0.8,0.1-1.6,0.5-2.4c0.3-0.8,0.7-1.7,1.1-2.5c1.1-2.3,2.2-4.7,2.3-7.4l0.4-7.3h3.9l0.4,7.3
		c0.1,2.7,1.2,5.1,2.3,7.4c0.4,0.8,0.7,1.6,1.1,2.5c0.3,0.7,0.5,1.6,0.5,2.4v4c-2.9,0.6-5.1,3.2-5.1,6.3v4.9c0,3.1,2.2,5.7,5.1,6.3
		v3.2h-12.4V1421.4L-2459.4,1421.4z M-2470.4,1392.5h3.9l0.3,5.9h-4.5L-2470.4,1392.5z M-2465.9,1389.7l0.2,1.6h-5.4l0.2-1.6
		H-2465.9z M-2473.8,1415.9c1.2-2.6,2.4-5.3,2.6-8.2l0.4-7.9h4.6l0.4,7.8c0.1,3,1.4,5.7,2.6,8.2c0.4,0.9,0.9,1.8,1.2,2.8
		c0.3,0.9,0.5,1.8,0.5,2.8v25.5v2.5h-14.1v-2.5v-25.4c0-0.9,0.2-1.9,0.5-2.8C-2474.6,1417.7-2474.2,1416.8-2473.8,1415.9z
		 M-2485.4,1395.5h3.2l0.3,4.9h-3.7L-2485.4,1395.5z M-2481.6,1393.1l0.1,1h-4.5l0.1-1H-2481.6z M-2489.5,1418.9
		c0.3-0.8,0.7-1.7,1.1-2.5c1.1-2.3,2.2-4.7,2.3-7.4l0.4-7.3h3.9l0.4,7.3c0.1,2.7,1.2,5.1,2.3,7.4c0.4,0.8,0.7,1.6,1.1,2.5
		c0.3,0.7,0.5,1.6,0.5,2.4v0.1v24.5h-12.4v-3.1c3-0.5,5.4-3.1,5.4-6.3v-4.9c0-3.2-2.4-5.8-5.4-6.3v-4.1
		C-2490,1420.5-2489.9,1419.7-2489.5,1418.9z M-2490,1426.7c2.3,0.5,4.1,2.5,4.1,4.9v4.9c0,2.4-1.8,4.5-4.1,4.9V1426.7z
		 M-2478.9,1448.3h-9.7c-0.6,0-1.1-0.4-1.3-0.9h12.3C-2477.8,1447.9-2478.3,1448.3-2478.9,1448.3z M-2463,1451.7h-10.9
		c-0.7,0-1.2-0.4-1.5-0.9h13.9C-2461.8,1451.3-2462.3,1451.7-2463,1451.7z M-2448.3,1448.3h-9.7c-0.6,0-1.1-0.4-1.3-0.9h12.3
		C-2447.2,1447.9-2447.7,1448.3-2448.3,1448.3z"/>
	<path class="st0" d="M-2465.1,1419.7v5.5c0,0.4,0.3,0.7,0.7,0.7s0.7-0.3,0.7-0.7v-5.5c0-1-0.2-2-0.5-2.9c-0.1-0.3-0.5-0.5-0.9-0.4
		c-0.3,0.1-0.5,0.5-0.4,0.9C-2465.2,1418.1-2465.1,1418.9-2465.1,1419.7z"/>
	<path class="st0" d="M-2468.5,1444.9c3.5,0,6.4-2.8,6.4-6.4v-4.9c0-3.5-2.8-6.4-6.4-6.4c-3.5,0-6.4,2.8-6.4,6.4v4.9
		C-2474.8,1442-2472,1444.9-2468.5,1444.9z M-2473.5,1433.6c0-2.8,2.2-5.1,5.1-5.1c2.8,0,5.1,2.2,5.1,5.1v4.9c0,2.8-2.2,5.1-5.1,5.1
		c-2.8,0-5.1-2.2-5.1-5.1V1433.6z"/>
</g>
</svg>
