<?xml version="1.0" encoding="utf-8"?>
<!-- Generator: Adobe Illustrator 19.1.0, SVG Export Plug-In . SVG Version: 6.00 Build 0)  -->
<svg version="1.1" id="Layer_1" xmlns="http://www.w3.org/2000/svg" xmlns:xlink="http://www.w3.org/1999/xlink" x="0px" y="0px"
	 viewBox="-7473.7 4073.6 99.8 124.4" style="enable-background:new -7473.7 4073.6 99.8 124.4;" xml:space="preserve">
<style type="text/css">
	.st0{fill:#FDC113;}
</style>
<path class="st0" d="M-7407.1,4096.5c-12-7.7-26.3-9.8-40.3-7.3c-19.5,1.1-24.4,17.2-24.5,17.5l0.7,0.9c0,0,0.9-1.4,2.8-3.4
	c9.7-10.2,13.2-10.1,25.1-10.2c-15.5,5.2-32.7,18.8-29.3,44.3l1.9,0.1c1-5.5-2.8-8.1,0.9-13.4c-1.9,5.7-3.4,12.1-3.9,17.3l1.9,0.4
	c0.6-2,1.3-4.1,2.2-6c-1.2,5.9-1.6,12.1-1.6,16.3l1.9,0.2c0.9-4.5,2.4-8.9,4.9-13.1c-3.1,8.5-4.5,20.1-3.6,31.5h2
	c0.5-4.6,1.8-8.9,3.5-13.1l0.1,0.1c1.9,5.4,5.6,7.4,8.2,8l2.5,11.4c2.1,4.9,4.8,9.1,9.2,12.4c0.8,0.8,1.8,1.2,2.4,2.1
	c4.7,5.3,6.9,5.5,14.8,5.6h0.1h0.1c8-0.1,10.1-0.3,14.8-5.6c0.7-0.9,1.6-1.4,2.4-2.1c4.4-3.3,7.2-7.4,9.2-12.4l2.5-11.4
	c2.6-0.6,6.3-2.7,8.2-8c0.2-0.1,0.4-0.2,0.6-0.4c-0.1,1.8-0.3,3.6-0.5,5.3l1.8,0.7c5-7,7.7-17.7,8.2-25.7c1.4,2.8,1.4,5.8,2.1,8.8
	l1.9-0.3c-0.5-11.8-0.3-23.5-9.4-32.6c2.9,0.3,4.7,0.9,7.4,1.9l0.8-1.8c-5.8-3.4-10.9-6.6-17.4-8.3c11.1-0.8,15.4,3.5,15.5,3.6
	l2-3.5C-7381.9,4087.8-7393.1,4091.6-7407.1,4096.5z M-7460.1,4159.4L-7460.1,4159.4c1.4,0,1.4-2,0.1-2c-0.3,0-0.6,0-1-0.2
	c-0.3,0-0.6-0.2-0.9-0.3c1.2-2.5,2.5-4.9,4-7.2c0,3.2,0.6,5.7,1.6,7.7c0.1,0.6,0.2,1.2,0.4,2l1.1,5
	C-7456.5,4163.9-7458.7,4162.4-7460.1,4159.4z M-7400.5,4177.5c-1.8,4.4-4.2,7.9-7.9,10.9c0.1-1.6,0-2.7-0.1-3.1
	c2-4.3,2.4-10.6,2.6-15.2c1.2-2.5,4.2-4.8,6.4-6.4c0.8-0.6,1.7-1.3,2.5-2.2L-7400.5,4177.5z M-7390.6,4157.4h-0.2
	c-1.3,0-1.4,1.9,0,2h0.2h0.2c-1.4,3-3.5,4.5-5.3,5.1l1.1-5c0.2-0.8,0.3-1.5,0.4-2.1c1.2-2.6,1.8-5.9,1.4-10.4
	c-0.2,0.4-0.6,0.7-1.1,0.8c0.6,8.5-2.9,12.4-6.3,14.9c-2.3,1.7-4.5,3.5-6,5.6c-0.1,0.2-0.4,0.6-0.6,1c-0.9-1.6-2-3.1-3.1-4.4
	c-0.6,0-1.2-0.1-1.7-0.2c1.6,1.5,3.2,3.5,4.2,5.7c0.1,0.3,0.3,0.6,0.4,0.8c-0.1,1.6-0.3,4.6-0.7,7.4c-0.6,4.1-1.8,6.4-1.8,6.4
	s-0.1,0.3-0.1,0.4c0,0,0.2,1.5,0,4.1c-0.8,0.6-1.6,1.2-2.2,2.1c-0.4,0.4-0.8,0.9-1.1,1.2c-3.4,3.8-7.2,3.6-12.3,3.7
	c-4.9-0.1-7.5-0.5-9.2-1.2c-1.8-0.8-3-2.3-4.3-3.7c-0.6-0.9-1.5-1.5-2.4-2.2v-0.1c-0.5-1.6-0.8-3.5-0.8-5.3c0.1,0,0.1,0,0.2,0
	c0.8,0.1,1-1,0.2-1.1c-1.2-0.2-2.3-1.4-2.3-2.6c0-0.8-1.1-0.8-1.2,0c0,1,0.4,1.9,1.2,2.6c0,0.1,0,0.3,0,0.5c0,1.3,0.1,2.6,0.4,3.9
	c-2.9-2.8-4.9-5.9-6.5-9.7l-3.5-16c0.8,0.8,1.6,1.5,2.5,2.2c2.3,1.7,4.3,3.4,5.7,5.3c1.1,1.5,1.4,2.6,1.4,5.5c0,0.8,1.1,0.8,1.2,0
	c0-3.1-0.4-4.5-1.6-6.2c-1.5-2-3.6-3.8-6-5.6c-3.4-2.5-6.8-6.4-6.3-14.7c0.3-0.4,0.6-0.8,0.9-1.2c0.7,0.2,1.9,0.7,1.9,2
	c0,1.9,0,2.2,0,2.2c0,7,5.7,12.7,12.7,12.7c2.3,0,4.4-0.6,6.3-1.7v0.2c0.3,1.3,1.1,2.4,2.7,2.4c0.7,0,1.2-0.2,1.8-0.7l0.2-0.1
	c0.3,0.1,0.6,0,0.9-0.2l0.2-0.1c0.2,0.2,0.4,0.4,0.5,0.5c1.4,2.2,5.3,2.2,6.7,0c0.2-0.2,0.4-0.3,0.5-0.5l0.2,0.2
	c0.3,0.3,0.6,0.3,0.9,0.2l0.2,0.1c0.6,0.5,1.2,0.7,1.8,0.7c1.6,0,2.4-1,2.7-2.4c0-0.1,0-0.1,0-0.2c1.9,1.1,4,1.7,6.3,1.7
	c7,0,12.7-5.7,12.7-12.7c0,0,0-0.3,0-2.2c0-1.7,2-2.1,2.3-2.2c0.3,0,0.6-0.3,0.6-0.6v-2.1c0-0.3-0.2-0.6-0.5-0.6h-1.8
	c0,0-1-0.1-2-0.7c-0.6-0.4-1.6-0.8-2.8-1.3c0.1-0.4,0.1-0.8,0.2-1.1l-0.3-0.2c0.5-3.7,0.6-7.8,0.6-11.9c3.1,4.1,5.1,8.7,6.3,13.4
	l1.9-0.3c-0.4-4.5-1.5-10-3-15.2c5.3,8.8,7.5,18.9,7.4,29.1C-7388.2,4156.5-7389.4,4157.4-7390.6,4157.4z M-7427.7,4135.8
	c5.7-1.4,15-5.6,20.4-11c2.2,4.2,3.4,8.8,3.9,13.5c-1.8-0.9-4-1.5-6.3-1.7c-9.9-0.7-11.7,2.9-11.9,6.3h0.1c1.7-2.2,6.3-4,11-4.2
	c2.8-0.1,5.2,0.2,7.3,0.7c0,0.4,0,0.8,0,1.2c-2-0.5-4.4-0.8-7.3-0.7c-4.5,0.2-8.7,1.9-10.1,3.8c-1,1.3-1.1-0.5-4.6-0.5
	c-3.6,0-3.6,1.8-4.6,0.5c-1.4-1.8-5.5-3.6-10.1-3.8c-6-0.2-10.3,1.6-12.3,2.6c10.4-11.8,25.2-20.5,39.2-25.8
	c-3.3,7.9-9,13.5-15.4,17.3L-7427.7,4135.8z M-7430.1,4157c1-1.8,1.5-3.9,1.5-6.1v-3.6c0,0-0.2-1.8,3.3-1.8s3.3,1.8,3.3,1.8v3.6
	c0,2.2,0.6,4.2,1.5,6c-0.2,0.3-0.1,0.8,0.4,0.9c3,0.5,4.6,5.5,1.7,5.5c-0.4,0-0.7-0.1-1.1-0.4l-0.1-0.1c0-0.3-0.1-0.6-0.3-0.8
	c-0.3-0.3-0.8-0.8-1.6-0.9c-1.1-0.3-1.3,1.7-3.5,1.9c-0.1,0-0.2,0-0.2,0h-0.1h-0.1c-1,0-2.2-0.5-2.6-1.5c-0.2-0.5-0.8-0.5-1.1-0.4
	c-0.7,0.2-1.2,0.6-1.5,0.9c-0.4,0.3-0.4,0.6-0.4,0.8l-0.1,0.1c-0.4,0.3-0.7,0.4-1.1,0.4c-2.9,0-1.2-5,1.7-5.5
	C-7430.1,4157.9-7429.9,4157.4-7430.1,4157z M-7419,4157c-1.1-1.7-1.7-3.8-1.7-6c0-6.3,5.1-9.6,11.4-9.6c2.1,0,4,0.4,5.7,1.1
	c0.2,0.1,0.6,0.3,1.1,0.6c2.8,1.6,4.6,4.3,4.6,8c0,6.3-5.1,11.4-11.4,11.4c-2.5,0-4.7-0.8-6.6-2.1
	C-7416.5,4159-7417.6,4157.6-7419,4157z M-7441.2,4141.4c6.3,0,11.4,3.4,11.4,9.6c0,2.2-0.6,4.3-1.7,6c-1.4,0.6-2.6,2-3.1,3.3
	c-1.9,1.3-4.1,2.1-6.5,2.1c-6.3,0-11.4-5.1-11.4-11.4C-7452.6,4144.8-7447.5,4141.4-7441.2,4141.4z M-7397.8,4105.5l0.2,1.9
	c5.3,0.7,11.1,3.1,15.9,5.5c-2.5-0.4-5.1-0.5-7.6-0.6c9.9,7.9,13,15.6,14,27.6c-1.6-3.8-3.8-7.5-6.8-10.7l-1.5,1.3
	c1.4,1.5,2.7,3.2,3.7,4.9v1c-0.1,6.6-2,16-5.7,23.2c0.9-11.7-1.3-20.9-4-27.5c-1.9-4.7-4.3-8.3-7.3-12.4l-1.7,0.9
	c1.3,3.6,2.5,7.7,3.4,11.7c-1.9-3.6-4.3-6.5-6.9-9.5c0.1,3.5,0.2,7,0,10.5c-0.9-4.3-2.6-8.1-4.7-11.8c-4.2,4.7-9.2,7.8-14.9,10.2
	c6.2-5.2,9.3-10.6,12-18.2c-9.9,3.2-19.7,8.2-28.2,14c-11.5,7.9-23.6,19.5-28.4,35.6c0.3-12.4,3.2-23.8,7.9-30.1l0.3-0.4
	c2.7-2.4,5.9-4.6,9.7-6.5l-0.9-1.8c-10.3,4.9-16.2,12.2-19.5,20.1c0.5-5,1.5-10.4,3.3-14.8c5.3-6.9,13.6-12.5,26.6-14.8l-0.3-1.9
	c-16.3,3-25.7,10.9-30.9,20.3c1-4,2.2-8,3.6-11.6l0.5-1.2c8.2-8.5,21.7-14.8,43.4-15v-2c-34.2,0.4-43,12.5-48.3,28.2
	c1.2-24.4,22.6-36.2,35.1-37.3v-2c-10.5-1-20.8,0.5-29.9,4.7c6.1-2.9,12.7-4.7,18.7-5.8c14-2.6,27.8-0.3,39.7,7.5
	c16-6.2,26.2-5.9,31.9,8.7C-7385.9,4100.9-7392.1,4104-7397.8,4105.5z M-7415.3,4179.6c0,0-0.1,0.1-0.3,0.3
	c-0.8,0.6-1.8,0.9-2.8,0.9c0.1,0.6-0.3,1.3-1.2,1.1c-1.7-0.3-3.6-0.5-5.5-0.5s-3.8,0.2-5.5,0.5c-0.8,0.2-1.3-0.6-1.2-1.2
	c-1.2,0.1-2.6-0.3-3.5-1.2c-0.5-0.5,0.3-1.4,0.8-0.8c0,0,0.1,0.1,0.2,0.2c0.8,0.6,1.8,0.8,2.8,0.6c2-0.4,4.1-0.5,6.1-0.5
	s4.2,0.1,6.1,0.5c1,0.2,2.2,0,3-0.8C-7415.6,4178.4-7414.8,4179.1-7415.3,4179.6z M-7447.2,4145.8c3.9-2.5,10.1-2.5,14.4-0.1
	c1.3,0.8,0.2,2.8-1.1,2c-0.7-0.4-1.5-0.7-2.4-1c-0.4,1.2-1.5,2.1-2.9,2.1c-1.5,0-2.7-1.1-3-2.5c-1.4,0.2-2.7,0.7-3.8,1.4
	C-7447.2,4148.5-7448.5,4146.5-7447.2,4145.8z M-7414.2,4146.6c-0.8,0.2-1.7,0.6-2.4,1c-1.3,0.8-2.5-1.2-1.1-2
	c4.3-2.4,10.5-2.4,14.4,0.1c1.3,0.8,0.1,2.8-1.2,1.9c-1.1-0.7-2.4-1.1-3.8-1.4c-0.3,1.4-1.5,2.5-3,2.5
	C-7412.7,4148.8-7413.8,4147.9-7414.2,4146.6z M-7428.9,4143L-7428.9,4143c-1.8-2.2-6.4-4-11-4.2c-4.2-0.2-7.6,0.6-10,1.5
	c2.2-2,5.5-3.4,9.1-3.6C-7430.9,4135.9-7429.1,4139.5-7428.9,4143z M-7414.8,4176.1c-0.9-0.2-1.7-0.2-3.5-1c-2.2,0-4.6,0-6,0.1
	c-0.3,0.1-0.7,0.1-1,0.1s-0.7,0-1-0.1c-0.6,0-3.6-0.1-6.1-0.1c-1,0.3-2,0.7-2.7,0.8c-0.6,0.1-1,0.2-1.7,0.6c-1.1,0.7-2.1-1-1-1.7
	s8.3-2.7,9.2-2.7c0.8,0,1.3,0,1.9,0.6c0.4,0.4,1,0.6,1.6,0.6s1.2-0.3,1.6-0.7l0.2-0.2c0,0,0.1-0.1,0.5-0.2c1.6-0.4,4,0.5,5.4,1.1
	c1.7,0.7,2.5,0.7,3.3,0.9C-7413,4174.6-7413.5,4176.5-7414.8,4176.1z"/>
</svg>
