<?xml version="1.0" encoding="utf-8"?>
<!-- Generator: Adobe Illustrator 19.1.0, SVG Export Plug-In . SVG Version: 6.00 Build 0)  -->
<svg version="1.1" id="Layer_1" xmlns="http://www.w3.org/2000/svg" xmlns:xlink="http://www.w3.org/1999/xlink" x="0px" y="0px"
	 viewBox="-2504 1358.5 93.3 111.2" style="enable-background:new -2504 1358.5 93.3 111.2;" xml:space="preserve">
<style type="text/css">
	.st0{fill:#8C8C8C;}
</style>
<g transform="translate(485.000000, 393.000000)">
	<path class="st0" d="M-2943.4,1024.4l2.8,3.3c0.5,0.7,0.9,1.4,1,2.2c6.9-8.7,21.5-27.4,21.7-27.7c2.4-3.3,4.3-6.9,5.7-10.8l-6.9,4
		L-2943.4,1024.4z M-2941.6,1037.3l-1.1-0.8c-1.3-1-0.3-4.1-0.1-4.5c0.4-0.8,0.3-1.7-0.2-2.3l-4.4-5.2l26.4-31.4l11.4-6.6l1.7,1.2
		l-0.3,1c-1.5,5.6-3.9,10.7-7.4,15.3c-25.1,32.1-25.2,32.1-25.2,32.2L-2941.6,1037.3z"/>
	<path class="st0" d="M-2962.1,1054.2c0.8,0.4,1.6,1,2.3,1.7l12.5-16l-1.4-1.7L-2962.1,1054.2z M-2959.7,1060.5l-1.2-1.5
		c-1-1.3-2.4-2.3-4.1-2.9l-2-0.7l16.2-19.6c0.2-0.2,0.3-0.4,0.3-0.9l0.7-3.1l6.3,8L-2959.7,1060.5z"/>
	<path class="st0" d="M-2946.2,1032.4c-0.3,0-0.8-0.2-1-0.4l-2.3-2.3c-0.6-0.6-0.6-1.6,0-2.1c0.6-0.5,1.6-0.6,2.1,0l2.3,2.3
		c0.6,0.6,0.6,1.6,0,2.1C-2945.4,1032.2-2945.8,1032.4-2946.2,1032.4"/>
	<path class="st0" d="M-2967.9,1055.6c-5,0-9,4.1-9,9c0,5,4.1,9,9,9c5,0,9-4.1,9-9C-2959,1059.6-2963,1055.6-2967.9,1055.6
		 M-2967.9,1076.7c-6.6,0-12-5.4-12-12s5.4-12,12-12c6.6,0,12,5.4,12,12C-2956,1071.3-2961.3,1076.7-2967.9,1076.7"/>
	<path class="st0" d="M-2922.9,1055.6c-5,0-9,4.1-9,9c0,5,4.1,9,9,9s9-4.1,9-9C-2913.9,1059.6-2917.9,1055.6-2922.9,1055.6
		 M-2922.9,1076.7c-6.6,0-12-5.4-12-12s5.4-12,12-12s12,5.4,12,12C-2910.9,1071.3-2916.3,1076.7-2922.9,1076.7"/>
	<path class="st0" d="M-2978.6,991.5c1.4,3.8,3.3,7.5,5.8,10.8l41.9,53.5c0.7-0.6,1.5-1.1,2.3-1.7l-13.6-16.4
		c-1.3-1.7-1.5-3.9-0.4-5.7c0.4-0.8,0.3-1.7-0.2-2.3l-28.7-34.2L-2978.6,991.5z M-2931.1,1060.5l-44.1-56.5
		c-3.4-4.6-5.9-9.8-7.4-15.3l-0.3-1l1.7-1.3l1,0.5l10.5,6.1l29.2,34.7c1.3,1.7,1.5,3.9,0.4,5.7c-0.4,0.8-0.3,1.7,0.2,2.3l16.2,19.5
		l-2.1,0.7c-1.7,0.5-3,1.6-4.1,2.9L-2931.1,1060.5z"/>
	<path class="st0" d="M-2903.4,1075.2c-5.8,0-10.5-4.7-10.5-10.5c0-0.9,0.7-1.5,1.5-1.5c0.9,0,1.5,0.7,1.5,1.5
		c0,4.2,3.4,7.5,7.5,7.5c0.9,0,1.5,0.7,1.5,1.5C-2901.8,1074.5-2902.5,1075.2-2903.4,1075.2"/>
</g>
</svg>
