<?xml version="1.0" encoding="utf-8"?>
<!-- Generator: Adobe Illustrator 19.1.0, SVG Export Plug-In . SVG Version: 6.00 Build 0)  -->
<svg version="1.1" id="Layer_1" xmlns="http://www.w3.org/2000/svg" xmlns:xlink="http://www.w3.org/1999/xlink" x="0px" y="0px"
	 viewBox="0 0 255.3 57.7" style="enable-background:new 0 0 255.3 57.7;" xml:space="preserve">
<style type="text/css">
	.st0{fill:#FFFFFF;}
</style>
<g>
	<g>
		<path class="st0" d="M28.4,8.7c0.1,0.3,0.1,0.5,0.1,0.7c0,0.2,0.1,0.5,0.2,0.7c0.1,1.3,0.1,2.4,0.2,3.3c0.1,0.9,0.1,2,0.2,3.1
			c0.1,1.1,0.1,2.1,0.1,3c0,0.9,0,2,0,3.3c0.1,0.1,0.1,0.6,0.1,1.3s0,1.8,0,2.9c0,1.2,0,2.4,0,3.8c0,1.4,0,2.7,0,3.9
			c0,1.3,0.1,2.4,0.1,3.3c0.1,1,0.1,1.6,0.2,2c0.1,0.7,0.3,1.4,0.6,2.2c0.2,0.4,0.5,0.7,0.7,1c0.3,0.3,0.6,0.6,0.9,0.9l-0.2,0.2
			c-0.4,0-0.7,0.2-0.8,0.6c-0.4,0-0.7,0.2-0.9,0.5c-0.2,0.1-0.4,0.1-0.7,0.2c-0.3,0.1-0.5,0.2-0.7,0.3c-1.9,0.4-3.3,0.1-4.4-0.9
			c-1-1-1.8-2.3-2.2-4.1c-0.5-1.7-0.7-3.7-0.8-5.8c-0.1-2.2-0.1-4.2,0-6.2c0.1-2,0.1-3.7,0.1-5.2c0-1.5-0.1-2.4-0.4-2.8
			c0-1.5,0-2.9,0.1-4.2c0-1,0-2,0-2.9c0-0.9,0-1.4,0-1.5c-0.3,0.7-0.7,1.6-1.1,2.5s-0.8,1.9-1.1,2.8c-0.4,1-0.8,2-1.2,3.1
			c-0.1,0.2-0.1,0.4-0.3,0.7c-0.1,0.2-0.1,0.5,0,0.8c-0.3,0.2-0.5,0.5-0.6,0.8c-0.1,0.3-0.3,0.6-0.6,0.9c-0.2,0.1-0.4,0.1-0.6,0.2
			c-0.2,0.1-0.4,0.1-0.5,0.2c-0.4-0.3-0.8-0.4-1.2-0.5c-0.4-0.1-0.7-0.4-1-1c-0.8-2-1.4-3.6-1.8-4.6c-0.4-1-0.8-1.7-1-1.9
			c-0.2-0.3-0.4-0.2-0.5,0.1s-0.1,0.7-0.1,1.3c0,0.5,0.1,1.1,0.1,1.7c0.1,0.6,0.1,1,0.1,1.3c0,0.1,0,0.2-0.1,0.3
			c-0.1,0.1-0.1,0.2-0.1,0.3c0.2,0.7,0.3,2.1,0.3,4c0.1,1.9,0.1,4.1,0.1,6.6c0,2.5,0,5.1,0,7.8c0,2.7-0.1,5.2-0.1,7.4
			c0,2.3-0.1,4.1-0.1,5.6c-0.1,1.5-0.1,2.2-0.1,2.3c-0.4,0.3-0.6,0.6-0.6,0.9c-0.1,0.1-0.2,0.1-0.3,0.1c-0.1,0-0.2,0.1-0.2,0.2
			C8.5,56,8.5,56,8.4,56c0-0.1-0.1-0.1-0.2-0.1c-0.1,0.1-0.1,0.2-0.1,0.3c0,0.1,0,0.2-0.2,0.2c-0.1,0.1-0.1,0.1-0.1,0
			c0.1-0.1,0-0.1-0.1-0.2c-1.5,0.5-2.6,0.9-3.3,1.1c-0.7,0.2-1.2,0.3-1.5,0.4c-0.3,0.1-0.4,0.1-0.3,0c-0.4-0.1-0.7-0.1-0.9-0.2
			c-0.2-0.1-0.5-0.2-0.7-0.4c0.1-0.2,0.1-0.4,0-0.6c-0.1-0.2-0.2-0.4-0.2-0.6c-0.1-0.1-0.1-0.2,0-0.3c0-0.1,0-0.2,0-0.3
			c-0.1-0.1-0.1-0.2-0.2-0.3c-0.1-0.1-0.1-0.2,0-0.3c0-0.1,0.1-0.1,0.2-0.1c-0.1-1.1-0.1-2.1-0.1-3.1c-0.1-0.8-0.1-1.6-0.1-2.3
			c0-0.8,0-1.3-0.1-1.5c0.1-0.3,0.2-0.6,0.4-0.9c0.1-0.3,0.1-0.6-0.2-0.9c0.1-0.4,0.1-0.9,0.1-1.7s0-1.6,0-2.4c0-0.8,0-1.6,0-2.4
			c0-0.7,0-1.3,0-1.6c0.1-0.1,0.2-0.7,0.2-1.7c0-1,0.1-2.3,0.1-3.9c0-1.5,0-3.2,0-5c0-1.8-0.1-3.4-0.1-4.9c-0.1-1.5-0.1-2.7-0.1-3.7
			c0-1-0.1-1.5-0.1-1.5L0.3,10C0,8.1-0.1,6.2,0,4.6c0.1-1.7,0.4-3.2,1-4.6c0.1,0,0.2,0,0.3,0.1c0.1,0.1,0.2,0.2,0.3,0.3
			c0-0.1,0.1-0.1,0.3-0.1c0.5,0.3,1.1,0.5,1.9,0.6c0.8,0.1,1.6,0.2,2.3,0.6c0.8,0.3,1.4,0.9,2,1.7C8.7,4,9,5.3,9,7.2h0.2
			C9.1,7.6,9.2,8,9.5,8.3C9.8,8.6,10,9,10,9.4c0.4,0.4,0.7,0.9,0.7,1.4c0.1,0.5,0.3,1,0.6,1.4c0.2,0.8,0.4,1.5,0.9,2.1
			c0.4,0.6,0.7,1.2,0.8,1.9c0.3,0.3,0.6,0.7,0.7,1.2c0.2,0.5,0.4,0.9,0.8,1.1c0.1,0.3,0.2,0.6,0.3,0.9c0.1,0.3,0.2,0.6,0.2,0.8
			c0.3-0.5,0.5-1,0.6-1.5c0.2-0.5,0.3-1,0.6-1.6c0.3-0.3,0.5-0.7,0.5-1c0.6-1,1.1-2.1,1.7-3c0.5-1,1.1-2,1.7-3
			c0.1-0.3,0.2-0.7,0.5-1.3c0.3-0.6,0.6-1.1,0.8-1.8c0.2-0.6,0.4-1.3,0.5-2C22,4.4,21.9,3.7,21.7,3c0-0.1,0-0.2-0.1-0.4
			c-0.1-0.1,0-0.2,0.1-0.4c0.4-0.1,0.8-0.1,1.1,0c0.3,0.1,0.6,0,0.8-0.3c0.3-0.1,0.5-0.1,0.7,0c0.2,0.1,0.4,0,0.5-0.1
			c0.4,0.1,0.8,0.3,1.1,0.5c0.3,0.2,0.6,0.6,0.7,1C26.7,3.5,27,4.1,27.4,5C27.8,5.9,28.2,7.2,28.4,8.7z"/>
		<path class="st0" d="M51.1,23.1C51,23.1,51,23.1,51,23.1c0,0,0,0.1,0,0.2c-0.1-0.1-0.2,0-0.2,0c0,0.1-0.1,0.1-0.3,0
			c-0.1,0.2-0.3,0.3-0.6,0.5c-0.3,0.2-0.6,0.2-0.7,0.2c-0.3,0-0.5,0-0.6,0c-0.2,0-0.4,0-0.6-0.1c-0.2-0.1-0.5-0.1-0.9-0.2
			c-0.3-0.1-0.9-0.2-1.5-0.4c-0.2,0.2-0.1,0.3,0.2,0.4c0,0.1,0,0.2,0,0.4c0,0.2,0.1,0.4,0.1,0.7c0.1,0.3,0.1,0.7,0.2,1L46,25.9
			c0.1,0.2,0.1,0.5,0.1,1.1c-0.1,0.6-0.1,1,0,1.1C46,28.3,46,28.5,46,28.7c0.1,0.3,0,0.5-0.1,0.6c0,0.1,0,0.1,0.1,0.1
			c-0.3,0.6-0.4,1.4-0.5,2.2c-0.1,0.8-0.3,1.5-0.6,2.1c0.1,0.1,0,0.1,0,0.1c-0.1,0-0.1,0.1,0,0.2h-0.1c0,0.1,0,0.1-0.1,0.1
			c0,0.1-0.1,0.2-0.2,0.5c-0.1,0.3-0.2,0.5-0.4,0.8c-0.2,0.3-0.4,0.6-0.6,1.1c0,0.2-0.1,0.3-0.2,0.5c-0.1,0.2-0.2,0.3-0.2,0.4
			c0,0.2-0.2,0.5-0.6,0.9c-0.4,0.4-0.8,0.7-1.2,1.1c-0.4,0.4-0.9,0.7-1.3,0.9c-0.4,0.2-0.6,0.3-0.7,0.2c-0.5,0.3-1.1,0.4-1.7,0.3
			c-0.6-0.1-1.2-0.3-1.8-0.6c-0.6-0.3-1-0.5-1.4-0.8c-0.4-0.3-0.6-0.4-0.6-0.3c0-0.1-0.1-0.2-0.4-0.5c-0.3-0.3-0.4-0.5-0.4-0.5
			c-0.1-0.1-0.1-0.1-0.1,0c0,0.1,0,0.1,0,0.1l-1-2c-0.3-0.9-0.4-2-0.5-3.1c-0.1-1.1,0-2.2,0.2-3.3c0-0.1,0.1-0.4,0.2-1
			c0.1-0.6,0.2-0.9,0.4-1.1c0.1-0.7,0.3-1.4,0.5-2c0.2-0.6,0.5-1.2,0.7-1.7c0-0.1,0.1-0.2,0.2-0.6c0.1-0.3,0.3-0.7,0.5-1l0.8-1.4
			c0.5-1.2,1-2,1.4-2.6c0.4-0.6,0.8-0.9,1.2-1.1c0.4-0.1,0.8-0.1,1.2,0.1c0.4,0.2,0.8,0.4,1.3,0.7L39.9,18c0.1,0.1,0.2,0.2,0.2,0.2
			c0.1,0,0.1,0.1,0.2,0.2c0,0.1,0,0.1-0.1,0.1c0.1,0.1,0.2,0.1,0.2,0.1c0.1,0,0.1,0.1,0.2,0.3c-0.2-0.1-0.2,0-0.1,0.1
			c0.1,0.1,0.1,0.1,0.1,0c0.2,0.2,0.3,0.4,0.4,0.7c0.1,0.3,0.2,0.6,0.2,0.9c0,0.3-0.1,0.6-0.2,0.8c-0.1,0.2-0.3,0.4-0.6,0.4l0.2,0.1
			L40.5,22c-0.1,0-0.1,0-0.1-0.1c0.1,0.2,0.2,0.4,0.2,0.6c0.1,0.2,0.1,0.5,0.1,0.7c0,0.3,0,0.6-0.1,0.9c0,0.1-0.1,0.2-0.2,0.4
			c-0.1,0.2-0.3,0.4-0.5,0.6c-0.2,0.2-0.4,0.4-0.5,0.6c-0.2,0.2-0.3,0.3-0.3,0.3c-0.1,0-0.1,0,0,0c0,0,0,0,0,0
			c0.3,0.3,0.4,0.8,0.2,1.3c-0.2,0.6-0.5,0.9-1,0.9c0.1,0.1,0.1,0.5,0.1,1.3c-0.1,0.8-0.1,1.6-0.2,2.6c-0.1,0.9-0.2,1.8-0.3,2.5
			c-0.1,0.8-0.1,1.1,0,1.1c0.1,0.1,0,0.3-0.1,0.6c-0.1,0.3-0.2,0.6-0.2,1c0,0.3,0.1,0.7,0.2,1c0.2,0.3,0.6,0.5,1.3,0.6
			c0.4,0.1,0.8-0.1,1.2-0.6c0.4-0.4,0.7-0.8,0.9-1.1c0.2-0.3,0.4-0.6,0.5-0.9c0.1-0.3,0.2-0.6,0.3-0.9c0.2-0.4,0.4-0.9,0.5-1.3
			c0.1-0.4,0.2-0.8,0.4-1.1c-0.1-0.2-0.1-0.3,0.1-0.3c-0.1-0.1-0.1-0.2,0-0.3c0.1-0.1,0.1-0.1,0.2-0.1c0-0.3,0.1-0.6,0.4-0.9
			c0.2-0.7,0.4-1.5,0.5-2.4H44V29v-0.2c0-0.1,0-0.3,0.1-0.7c0.1-0.3,0.1-0.7,0.1-1c0-0.3,0.1-0.6,0.1-0.7c0.1-0.2,0.1-0.1,0.1,0.1
			c-0.1-0.4-0.2-0.7-0.2-0.9c0-0.2,0-0.4,0-0.6c0-0.2,0.1-0.3,0.2-0.3c-0.4-0.2-0.6-0.5-0.6-0.9c0-0.4,0-0.7-0.2-0.9
			c-0.1,0.1-0.1,0.1-0.1,0.3s0,0,0-0.3h0.1l-1-1.8h0.2c0-0.1,0-0.1-0.1-0.1s-0.1,0,0,0.1L42.4,21c0-0.1,0-0.1,0-0.1
			c0,0.1,0.1,0.1,0.1,0.1h0.1c-0.2-0.3-0.3-0.3-0.3-0.2v-0.1l0.1-0.1l-0.1-0.1c0,0.1,0,0.1-0.1,0c-0.1,0-0.1-0.1-0.1-0.2
			c0,0.1,0,0.1,0.1,0c-0.1,0-0.1,0-0.1-0.1l-0.5-0.6c-0.2-0.2-0.3-0.4-0.5-0.7l0.2-0.1c-0.1-0.1-0.2-0.1-0.2,0c0,0,0-0.1,0-0.3h0.7
			c-0.1-0.1-0.1-0.2-0.1-0.2c0-0.1-0.1-0.1-0.1-0.2c0.1,0.1,0.2,0.1,0.2,0.2c0.1,0.1,0.1,0.2,0.2,0.2c0,0.2-0.1,0.2-0.2,0.1
			c0.2,0.2,0.4,0.4,0.7,0.5c0.3,0.1,0.5,0.2,0.7,0.3c0.3,0.4,0.4,0.7,0.5,0.9c0.5,0.6,1,1.1,1.5,1.7c0.5,0.5,1.2,0.8,2.1,0.8
			c0,0.1,0.1,0.1,0.3,0.1c0.2,0,0.4,0,0.5,0c0.6-0.1,1.1-0.3,1.6-0.5c0.5-0.2,0.9-0.5,1.4-0.7c0.1,0.1,0.1,0.2,0.2,0.2
			c0.1,0,0.1,0.1,0.2,0.2l0.2,0.2v0.2c0.1,0,0.1,0.1,0.1,0.2h-0.1c0,0.1-0.1,0.2-0.3,0.3C51.2,22.9,51.1,23,51.1,23.1z M34.3,22.2
			c0.1,0.1,0.1,0.1,0.1,0.1c0,0,0,0.1,0.1,0.1h-0.1v0.2C34.5,22.3,34.4,22.2,34.3,22.2z M36.9,22.1C36.8,22.1,36.8,22.1,36.9,22.1
			L36.6,22h-0.1C36.8,22.1,36.9,22.2,36.9,22.1z M40.6,21.4c-0.1,0.1-0.1,0.1-0.1,0.2c0-0.2,0-0.2-0.1-0.2c-0.1,0.1,0,0.1,0.1,0.2
			C40.5,21.5,40.5,21.5,40.6,21.4C40.6,21.5,40.6,21.5,40.6,21.4z"/>
		<path class="st0" d="M49.4,15.6h0.2c-0.1-1,0.2-2.2,0.6-3.6c0.4,0.3,0.8,0.5,1.2,0.8c0,0.1,0,0.1,0,0.1c0,0,0,0,0,0.1
			c0.1-0.1,0.1,0,0.1,0.1l0.2-0.2c0.4,0.3,0.6,0.6,0.8,0.9c0.1,0,0.1-0.1,0.1-0.2c0.1,0.1,0.1,0.1,0.2,0.1c-0.1,0.1,0,0.1,0.1,0.2
			c0.1,0.3,0.2,0.5,0.4,0.6c0.2,0.2,0.4,0.3,0.5,0.5c0.2,0.6,0.3,1.3,0.3,2c0.1,0.5,0.2,1,0.3,1.5c0.1,0.5,0.2,1,0.2,1.5
			c0,0.3,0,0.5,0,0.7c0,0.2,0.1,0.5,0.1,0.7c0.1,0.3,0.2,0.5,0.3,0.8c0.1,0.3,0.1,0.5,0,0.6v5.6c-0.1,0-0.2,0.1-0.4,0.2
			c0-0.1,0-0.1,0-0.1c0,0,0,0,0-0.1c-0.1,0-0.1,0,0,0.1c0,0.1,0,0.1,0,0.2c0.1-0.1,0.1-0.1,0.1-0.1c0,0.1,0,0.1,0.1,0
			c0.1,0.1,0,0.1,0,0.2c-0.1,0.1-0.1,0.1,0,0.2v-0.1l-0.1-0.1h0.2c0.1,0.1,0.1,0.1,0,0.1c-0.1,0-0.1,0,0,0.1c0.1,0,0.2,0,0.2,0.1
			c0.4-0.6,0.8-1.2,1.1-1.8c0.3-0.6,0.7-1.2,1.2-1.7c0.1-0.4,0.3-0.7,0.7-0.9c0.4-0.2,0.6-0.6,0.4-1c0-0.1,0-0.1,0,0
			c0,0.1,0,0.1,0,0c0.2-0.4,0.5-0.5,0.9-0.4s0.8,0.1,1.1,0c0.3,0.2,0.5,0.4,0.7,0.5c0.2,0.1,0.5,0.3,0.7,0.6c-0.1,0.4-0.1,1,0,1.7
			c0.1,0.7,0,1.3-0.2,1.7c0.1,0,0.1,0,0.1-0.1c0.1,0.3,0.1,0.6,0,0.9c-0.1,0.3-0.1,0.5,0,0.6c-0.1,0.4-0.1,0.8-0.1,1.2
			c0.1,0.4,0.1,0.9,0.2,1.3c0.1,0.5,0.2,1,0.3,1.5c0.1,0.1,0.2,0.2,0.2,0.3c0,0.1,0.1,0.2,0.2,0.3h-0.1c0.4,0.5,0.7,0.7,1,0.7
			c0.3,0,0.6-0.1,1-0.3c0.3-0.2,0.7-0.5,1-0.8c0.3-0.3,0.7-0.6,1.2-0.8c0.1-0.2,0.2-0.3,0.6-0.6c0.1-0.1,0.1-0.2,0.2-0.2
			c0.1-0.1,0.1-0.2,0.1-0.3c0.1,0.1,0.2,0.1,0.2,0.2c0,0.1,0.1,0.1,0.2,0.2c-0.1,0.1-0.1,0.2-0.2,0.3c-0.1,0.1-0.1,0.2,0,0.4
			c-0.1,0-0.1,0-0.2,0.1c-0.1,0.1-0.1,0-0.1-0.1c-0.1,0-0.1,0,0,0.1s0.1,0.1,0.2,0c0.1,0,0,0,0,0s-0.1,0.1,0,0.1
			c-0.1-0.1-0.2-0.1-0.2,0c0,0.1-0.1,0.1-0.2,0.1c0.1,0.1,0.1,0.1,0.1,0c0-0.1,0.1-0.1,0.1,0c-0.1,0-0.1,0.1-0.2,0.2
			c-0.1,0.1-0.1,0.1-0.2,0c-0.1,0-0.1,0,0,0c0,0,0,0,0,0l0.1,0.1c0,0.1,0,0.2-0.1,0.2c-0.1,0-0.1,0.1-0.2,0.2c-0.1,0-0.1,0-0.1-0.1
			c0-0.1,0-0.1-0.1-0.2c0,0.2,0.1,0.3,0.2,0.3c-0.1,0.2-0.2,0.4-0.4,0.6c-0.2,0.3-0.5,0.5-0.7,0.7c-0.3,0.2-0.6,0.5-1,0.9l-2.1,0.2
			c-0.7-0.1-1.4-0.4-2.1-0.8c-0.7-0.4-1.1-0.9-1.4-1.4c-0.3-0.3-0.5-0.6-0.7-0.9c-0.2-0.4-0.4-0.7-0.5-1c-0.5-1-0.6-2.1-0.4-3.1
			c0.2-1,0.4-2,0.7-3c-0.3,0.2-0.4,0.4-0.6,0.7L57,26.5c-0.1,0.3-0.3,0.7-0.5,1.2c-0.2,0.5-0.4,0.9-0.6,1.3h-0.2
			c0.1,0.1,0.1,0.2,0,0.4c-0.1,0.2-0.2,0.3-0.3,0.3c0.1,0.3,0.1,0.4,0,0.5c-0.1,0.1-0.2,0.1-0.3,0.2c-0.1,0.2-0.2,0.5-0.4,0.8
			c-0.1,0.3-0.2,0.6-0.3,0.9c0,0.1,0,0.2,0,0.4c0,0.2-0.1,0.3-0.2,0.4c0,0.2,0,0.3,0.1,0.4c-0.1-0.1-0.1,0-0.1,0s0,0.1-0.1,0
			c0,0.1,0.1,0.1,0.2,0.2h-0.1c-0.1,0-0.1,0.3,0,0.8c0,0.5,0.1,1.1,0.1,1.7c0.1,0.7,0.1,1.5,0.1,2.4c-0.1,0-0.2,0-0.2,0.1
			c0,0.1,0,0-0.1-0.1c0.1,0.4,0.1,0.8,0.1,1.1c0,0.3,0,0.5,0,0.8c0,0.3,0,0.4,0.1,0.5c-0.1-0.1-0.2,0-0.2,0c0,0.1,0,0.1,0.1,0.2
			c-0.1,0.1-0.1,0.1,0,0.1h-0.1c0,0.1,0,0.2,0.1,0.2c-0.1,0.1-0.2,0.3-0.2,0.5c-0.1,0.2-0.1,0.5-0.2,0.7c-0.1,0.3-0.1,0.6-0.1,0.9
			L54,43.3c-0.1,0.1-0.1,0.1-0.1,0.2c0,0.1-0.1,0.1-0.2,0.1c0-0.1,0.1,0,0.2,0.1c-0.1,0.1-0.1,0.1-0.2,0c-0.1,0-0.1,0-0.2,0
			c0,0.1,0,0.1,0.1,0c0.1,0,0.1,0,0.2,0c-0.1,0-0.1,0-0.1,0.1l-0.2-0.1c-0.7,0.8-1.3,1.3-1.7,1.6c-0.4,0.3-0.7,0.4-0.9,0.4
			c-0.3,0-0.5-0.1-0.8-0.2c-0.3-0.1-0.7-0.2-1.2-0.2c0-0.2-0.1-0.2-0.2-0.2c0.1,0.1,0.1,0.1,0.1,0c0,0,0,0,0.1,0c0,0.1,0,0.1,0,0.1
			c0-0.1-0.1-0.1-0.2-0.1V45h-0.2v-0.2c0-0.1,0-0.1,0.1-0.2c-0.1,0-0.2,0.1-0.2,0.2v0.1c-0.4-0.1-0.8-0.3-1.1-0.7s-0.6-0.8-0.8-1.1
			h0.2c-0.1,0-0.1-0.1-0.2-0.2c0.2-0.3,0.2-0.7,0.1-1.1c0.1,0.1,0.1,0,0.1-0.1c0-0.1,0-0.2,0-0.3h0.2c-0.1,0-0.1-0.2-0.1-0.5
			c0.1,0,0.1,0,0.1,0c-0.1,0-0.1,0.1,0,0.2c0-0.1,0-0.1,0.1-0.1c0-0.1-0.1-0.1-0.2-0.1c0.1-0.2,0.1-0.3,0.1-0.4c0-0.1,0-0.3,0-0.5
			c0,0.1,0,0.1,0.1,0C47,40,47,40,46.9,40c0.1-0.1,0.1-0.1,0.1,0c0,0.1,0.1,0.1,0.1,0L47,39.9c0.1-0.6,0.1-1.2,0.2-1.8
			c0.1-0.5,0.1-1,0.1-1.5c0-0.5,0-0.9,0-1.1l0.8-3.7c-0.1,0-0.2,0-0.2-0.1c0-0.1,0-0.1,0,0c0.1-0.4,0.1-0.8,0.2-1.2l0.2-1.3l0.6-6.3
			L48.8,23c0-0.2,0-0.7,0.1-1.4c0.1-0.7,0.1-1.5,0.2-2.3c0.1-0.8,0.2-1.6,0.2-2.3C49.4,16.3,49.4,15.8,49.4,15.6z M49.9,43
			c0.1,0.1,0.2,0.1,0.2,0c0-0.1,0-0.1,0.1-0.1L50,42.7c0,0.1,0,0.1,0,0.1C50,42.9,49.9,42.9,49.9,43z"/>
		<path class="st0" d="M93.6,22.5c-0.1,0.3-0.1,0.6-0.2,0.9c-0.1,0.3-0.1,0.6-0.2,0.9c-0.1,0.2-0.2,0.3-0.2,0.5
			c0,0.2-0.1,0.3-0.2,0.3c-0.1,0.6-0.2,1-0.5,1.3c-0.3,0.3-0.6,0.6-1,0.9c-0.4,0.3-0.7,0.6-1.1,0.8c-0.3,0.3-0.6,0.6-0.7,0.9
			c-0.5,0.2-0.8,0.5-0.8,0.9c-0.3,0.1-0.4,0.2-0.6,0.3c0,0.1-0.2,0.5-0.7,1.1c-0.4,0.7-1,1.4-1.5,2.1c-0.6,0.7-1.1,1.4-1.7,2
			c-0.5,0.6-0.9,0.9-1.1,0.9c-1.1,0.5-1.8,0.8-2,0.9c-0.2,0.1-0.3,0.2-0.3,0.2c0,0-0.1,0.1-0.2,0.3c-0.1,0.2-0.6,0.6-1.3,1.2
			c-0.7,0.3-1.4,0.7-2.1,1c-0.7,0.4-1.4,0.6-2.2,0.6c-0.5-0.1-1-0.1-1.5-0.2c-0.4-0.1-0.9-0.1-1.5-0.2c-1.2-0.7-2.3-1.6-3.2-2.6
			c-0.9-1-1.5-2.2-1.8-3.7c-0.1-0.2-0.1-0.4-0.1-0.6c0-0.2,0-0.4-0.1-0.6v-0.1v-0.1v-0.1c-0.2-1.3-0.1-2.5,0.1-3.7
			c0.2-1.2,0.6-2.3,0.9-3.3c0.4-1,0.8-1.8,1.2-2.5c0.4-0.7,0.7-1.1,0.8-1.2l0.1-0.2c0.1-0.1,0.2-0.3,0.5-0.6
			c0.1-0.2,0.2-0.3,0.4-0.5c0.1-0.2,0.3-0.3,0.4-0.4c0.4-0.6,1-1.2,1.9-1.8c0.8-0.6,1.7-1,2.4-1.4c0.2-0.1,0.4-0.1,0.7,0l0.2,0.2
			c0.1,0.1,0.1,0.1,0.2,0c0.1,0.1,0.2,0.2,0.3,0.2c0.1,0.1,0.2,0.1,0.3,0.2c0.1,0.2,0.3,0.3,0.6,0.4c0,0.2,0.1,0.3,0.2,0.3
			c0.2,0,0.3,0,0.4,0.1c0.2,0.1,0.4,0.2,0.6,0.4c0.3,0.2,0.4,0.4,0.6,0.6l-0.1,0.1l0.2,0.1c0.3,0.3,0.4,0.8,0.3,1.5
			c-0.1,0.7-0.3,1.4-0.6,2.2c-0.3,0.7-0.6,1.4-0.9,2c-0.3,0.6-0.5,0.9-0.5,0.9c-0.1,0-0.1,0-0.1,0c0,0,0,0-0.1,0
			c-0.1,0.2-0.1,0.4-0.3,0.6c-0.1,0.2-0.3,0.4-0.4,0.6c-0.2,0.2-0.4,0.4-0.6,0.6c-0.3,0.3-0.5,0.6-0.7,0.8c-0.1,0.1-0.2,0.2-0.2,0.3
			c-0.1,0.1-0.1,0.2-0.2,0.3c-0.1,0.1-0.2,0.2-0.2,0.3h-0.1c0,0.1,0,0.1,0,0.1c0,0,0,0,0,0.1C75,29.8,75,29.9,74.9,30
			c-0.1,0.1-0.1,0.2-0.2,0.3c-0.1,0-0.1,0-0.1,0c0,0,0,0-0.1,0l-0.2,0.2c-0.2,0.1-0.3,0.2-0.5,0.4c-0.2,0.1-0.3,0.2-0.3,0.3
			c0.1,0.1,0.1,0.1,0,0.1c-0.1,0-0.1,0-0.2,0c-0.1,0.2-0.2,0.2-0.4,0.2c-0.2,0-0.3,0.1-0.4,0.4c0-0.1,0-0.1,0,0c0,0,0,0,0,0
			c-0.1,0.1-0.1,0.2-0.1,0.6c0,0.3-0.1,0.7-0.1,1.1c-0.1,0.4-0.1,0.8-0.1,1.2s0,0.6,0.1,0.7h-0.1c0.1,0.2,0.1,0.3,0,0.3
			c0,0.1,0,0.1,0,0.3c0,0.1,0.1,0.3,0.2,0.6c0.1,0.2,0.4,0.6,0.8,1.1c0.4,0.1,0.8,0.2,1.1,0.3c0.3,0.1,0.7,0.1,1.1,0
			c0.4-0.1,0.9-0.2,1.3-0.3c0.4-0.2,0.9-0.3,1.3-0.5c0.4-0.3,0.8-0.5,1.2-0.8c0.4-0.3,0.7-0.5,1-0.8c0.3-0.3,0.6-0.6,0.9-0.9
			c0.1,0,0.1,0,0.2-0.1c0.1-0.1,0.1-0.1,0.2-0.1c0.1,0,0.1-0.1,0.2-0.1c0.3-0.2,0.6-0.5,1-0.8c0.4-0.3,0.7-0.6,0.9-0.7
			c0.3-0.2,0.5-0.4,0.7-0.6c0.2-0.2,0.4-0.3,0.6-0.6c0.5-0.4,0.9-0.9,1.4-1.3c0.5-0.4,0.9-0.9,1.3-1.4c0.5-0.5,0.9-0.9,1.4-1.4
			c0.5-0.4,0.9-0.9,1.4-1.4c0.1-0.1,0.1-0.2,0-0.2c-0.1,0-0.1-0.1,0-0.2c0.4-0.3,0.8-0.6,1.1-1.1c0.3-0.4,0.7-0.8,1.1-1.1
			c0-0.2,0-0.3-0.1-0.3C93.1,23,93.4,22.7,93.6,22.5z M75.2,24.2c0.1,0.1,0.1,0.2,0,0.2c0,0,0,0.1,0,0.2c-0.3,0.3-0.5,0.6-0.7,0.9
			c-0.1,0.3-0.3,0.7-0.6,1.1v0.3h-0.2c-0.2,0.2-0.2,0.4-0.2,0.6c0,0.2-0.1,0.4-0.3,0.6v0.2c-0.1,0.3-0.1,0.5-0.2,0.7
			c-0.1,0.2-0.2,0.5-0.2,0.7c0.1-0.3,0.2-0.5,0.4-0.7c0.2-0.2,0.3-0.4,0.4-0.7c0.2-0.2,0.4-0.4,0.6-0.6c0.2-0.2,0.3-0.4,0.4-0.6
			c0-0.1,0.1-0.1,0.2-0.2c0.2-0.2,0.3-0.3,0.5-0.6c0.2-0.2,0.3-0.4,0.4-0.6c0.1-0.2,0.2-0.3,0.3-0.3c0-0.1,0-0.2,0-0.2
			c0,0,0,0,0-0.1c0.3-0.3,0.5-0.5,0.6-0.8c0.1-0.3,0.3-0.5,0.5-0.8c0.3-0.4,0.6-0.9,0.8-1.4c0.2-0.5,0.4-1.1,0.4-1.8v-0.1
			c-0.2-0.1-0.4-0.1-0.4-0.3c-0.1-0.1-0.2-0.2-0.5-0.1L75.2,24.2z"/>
		<path class="st0" d="M122.1,0.7c1,0.1,2.1,0.1,3.3,0.1s2.3,0,3.3,0.1c0.6,0.1,1.2,0.1,1.8,0.2c0.6,0.1,1.2,0.1,1.9,0.2
			c0.9,0.1,1.9,0.2,2.8,0.4c0.9,0.2,1.8,0.4,2.7,0.7c0.1,0.2,0.1,0.3,0,0.4c-0.1,0.1-0.2,0.2-0.4,0.3c-0.1,0.1-0.3,0.1-0.4,0.2
			c-0.1,0.1-0.2,0.2-0.2,0.3c-0.1-0.1-0.2-0.1-0.2,0c-0.1,0.1-0.1,0-0.1-0.1c-0.1,0.2-0.3,0.3-0.7,0.4c-0.3,0-0.6,0.1-0.7,0.3h-0.2
			c-0.2,0.1-0.4,0.2-0.6,0.2c-0.2,0.1-0.4,0.1-0.5,0.2c-0.3,0.3-0.7,0.5-1.1,0.6c-0.4,0.1-0.9,0.2-1.4,0.3c-0.5,0.1-1,0.1-1.5,0.1
			c-0.5,0-1,0.1-1.4,0.1c0.3,0.6,0.6,1.2,0.7,1.8c0.2,0.6,0.3,1.3,0.4,2.1c0.1,0.5,0.3,0.9,0.5,1.3c0.2,0.4,0.4,0.8,0.4,1.1
			c0,0.3,0,0.7,0.1,1.1c0.1,0.4,0,0.8-0.1,1.2c0.4,3.4,0.6,6.1,0.7,8.2c0.1,2.1,0.2,3.8,0.2,5c0,1.2,0,2.1-0.1,2.6
			c-0.1,0.5-0.1,0.8-0.1,0.8l0.9,18.3c-0.2,0.1-0.2,0.4-0.2,0.7c0.1,0.4,0,0.7-0.1,0.8c0,0.1,0,0.2,0.1,0.2c0.1,0.1,0.1,0.1,0,0.2
			c-0.1-0.1-0.1,0-0.1,0.1c0,0.1,0.1,0.2,0.2,0.4c0.5,0,1-0.1,1.6-0.2c0.5-0.1,1-0.2,1.5-0.4c0.5-0.1,1-0.2,1.5-0.2
			c0.5,0,1.1,0.1,1.7,0.2c0.1,0.1,0.2,0.1,0.2,0c0-0.1,0.1-0.1,0.2-0.1c0.2,0.1,0.3,0.3,0.6,0.5c0.2,0.2,0.4,0.4,0.5,0.7
			c0.1,0.2,0.2,0.5,0.2,0.7s-0.2,0.4-0.5,0.5c0.1,0.2-0.1,0.4-0.4,0.7c-0.3,0.3-0.7,0.6-1.2,0.9c-0.5,0.3-0.9,0.5-1.4,0.7
			c-0.4,0.2-0.7,0.2-0.7,0.1c-0.2,0.1-0.3,0.1-0.3,0.1c0,0.1-0.1,0.2-0.3,0.2c-0.2,0-0.4,0.1-0.7,0.1c-0.2,0-0.5,0-0.7,0
			c-0.2,0-0.3,0-0.3-0.1c0,0.2-0.1,0.2-0.2,0.1v0.2c-0.3-0.1-0.7,0-1.4,0c-0.7,0.1-1.3,0.2-2,0.2c-0.7,0.1-1.3,0.1-1.8,0.2
			c-0.6,0-0.8,0-0.8-0.2l-8.8,0.7c-0.3,0.1-0.6,0.1-1.1,0.1c-0.5,0-0.9-0.1-1.3-0.2c-1.2-0.1-2.4-0.4-3.7-0.9
			c-1.3-0.5-2.1-1.4-2.5-2.7c0.2,0,0.4,0.1,0.6,0.2c0.2,0.1,0.4,0.2,0.6,0.1c-0.1-0.1-0.1-0.2-0.1-0.3c0-0.1,0-0.2-0.1-0.4
			c0.6,0.4,1.2,0.4,1.9,0.2c0.7-0.2,1.4-0.4,2.2-0.5c0.1,0,0.2,0,0.3,0c0.1,0,0.2,0,0.3-0.1c0.7-0.1,1.4-0.1,2.2-0.2
			c0.8-0.1,1.6-0.1,2.6-0.2c0.7-0.1,1.4-0.1,2,0c0.7,0,1.4,0,2.1-0.1c0-0.1,0-0.1,0-0.1c0,0,0,0,0,0c0-0.3,0-0.5,0-0.7
			c0-0.2,0-0.4-0.1-0.6h0.2c-0.1-0.2-0.1-0.3-0.1-0.3c0,0,0-0.1,0-0.4c0.1,0,0.1,0,0,0.1c0,0.1,0,0.1,0,0.2c0-0.1,0-0.4,0-1.2
			c0-0.7-0.1-1.5-0.1-2.4c-0.1-0.9-0.1-1.7-0.2-2.4c-0.1-0.7-0.1-1.2-0.1-1.3c0-0.1,0-0.6,0-1.6c0-1,0-2.3,0-3.8
			c0-1.5-0.1-3.1-0.1-4.8c0-1.7-0.1-3.3-0.1-4.8c-0.1-1.5-0.1-2.8-0.2-3.8c-0.1-1-0.1-1.6-0.2-1.6c0.1-0.1,0.1-0.4,0.1-0.7
			c0-0.4,0-0.6,0-0.7c0.1-0.1,0.1-0.3,0-0.7c-0.1-0.4-0.1-0.5-0.2-0.4c0-0.2,0-0.7,0-1.5c0-0.9-0.1-1.8-0.1-2.8
			c-0.1-1-0.1-2-0.2-2.9c-0.1-0.9-0.1-1.4-0.1-1.6c-0.2,0-0.2,0-0.1,0.1c0.1,0.1,0.1,0.1,0,0c-0.1,0.1-0.1,0.1-0.1,0
			c0-0.1,0.1-0.2,0.1-0.2c-0.3-0.7-0.3-1.5-0.2-2.4c0.1-0.9,0.2-1.8,0.2-2.6c-0.6,0.1-1.5,0.2-2.5,0.2c-1,0-2.1,0-3.1-0.2
			c-1.1-0.1-2.1-0.4-3-0.7c-0.9-0.3-1.6-0.7-2-1.3c-0.7-0.4-1.3-0.8-1.8-1.4c-0.5-0.6-0.9-1.1-1.4-1.7c0-0.1,0-0.2,0.1-0.2
			c-0.1-0.1-0.1-0.1-0.2-0.1c-0.1,0-0.1-0.1-0.1-0.2c0.3,0,0.4,0,0.3,0.1c-0.1,0.1-0.2-0.3-0.5-1c0.4,0.2,1.2,0.3,2.6,0.4
			c1.4,0.1,2.8,0.1,4.3,0.2c1.5,0,2.9,0.1,4.3,0.1C120.9,0.6,121.8,0.7,122.1,0.7z"/>
		<path class="st0" d="M157.6,52.8c0.2,0.1,0.2,0.2,0,0.6c-0.1,0.3-0.1,0.6,0,0.7c-0.1,0.5-0.1,0.9-0.1,1.4c0,0.5,0,0.9-0.1,1.4
			c-0.1-0.1-0.2-0.1-0.2,0c-0.1,0.1-0.1,0.2-0.2,0.2v-0.1c-0.1-0.1-0.1,0-0.1,0.1c0,0.1,0,0.2-0.1,0.2c-0.3,0.3-0.7,0.4-1.3,0.4
			c-0.6,0-1.2-0.1-1.8-0.2c-0.6-0.1-1.2-0.2-1.7-0.4c-0.5-0.1-0.8-0.1-0.9,0c-0.6-0.2-1-0.5-1.4-0.9c-0.3-0.5-0.6-1.2-0.7-2.1
			c-0.2-0.9-0.2-2.1-0.2-3.5s0-3.1,0.1-5.2h0.2c-0.1-0.4-0.1-0.9,0-1.4s0.1-1,0-1.5c-0.3,0.2-0.6,0.3-1,0.5
			c-0.4,0.2-0.9,0.3-1.3,0.4c-0.1-0.1-0.2-0.1-0.3-0.1c-0.2,0-0.3,0-0.3-0.1c-0.5,0.1-0.9,0.1-1.2-0.2c-0.3-0.2-0.7-0.4-1.1-0.6
			c-0.4-0.3-0.8-0.6-1.1-0.8c-0.3-0.2-0.6-0.5-0.9-0.8c-0.3-0.3-0.5-0.7-0.7-1.3c-0.2-0.5-0.4-1.3-0.5-2.3l-0.1,0.1v-0.5
			c0-0.4,0-0.8,0.1-1.3c0.1-0.4,0.1-0.8,0.2-1.3c0.1-0.3,0.1-0.6,0-0.7c0.3-0.4,0.4-0.9,0.6-1.5c0.1-0.6,0.3-1,0.5-1.5h0.2l-0.1-0.3
			c1-1.5,1.8-2.5,2.5-3.2c0.7-0.7,1.2-1.2,1.6-1.4c0.4-0.3,0.7-0.4,1-0.4c0.2,0,0.4-0.1,0.6-0.3c1.4-0.2,2.4-0.5,3.1-0.9
			c0.6-0.4,1.1-0.9,1.3-1.6c0.2-0.7,0.3-1.5,0.2-2.5c-0.1-1-0.1-2.2-0.2-3.5c0-1.3,0.1-2.9,0.2-4.6c0.2-1.7,0.6-3.7,1.3-5.9
			c0.3-0.7,0.6-1.6,1-2.5s0.5-1.9,0.4-3c0-0.1,0-0.1-0.1-0.1c-0.1,0-0.1-0.1-0.1-0.2c0-0.1,0-0.2,0.1-0.2c0.1,0,0.1-0.1,0-0.2
			c0.1,0,0.2,0.1,0.4,0.2c1.5,0.2,2.5,0.9,2.9,2.3c-0.1,0.3-0.1,1.2-0.1,2.8c0,1.6-0.1,3.6-0.1,5.9c-0.1,2.4-0.1,5.1-0.1,8.1
			c0,3,0,6,0,9.1C157.7,35.7,157.7,43.8,157.6,52.8z M150.6,29c0.1-0.1,0.1-0.3,0.1-0.6c-0.4-0.3-0.8-0.4-1.2-0.4s-0.8,0.1-1.1,0.2
			c-0.4,0.2-0.7,0.3-1,0.6c-0.3,0.2-0.5,0.4-0.7,0.6c0,0.3-0.1,0.5-0.3,0.6c-0.2,0.2-0.3,0.3-0.4,0.5c0.1,0.3,0,0.5-0.2,0.7
			c-0.3,0.2-0.3,0.4-0.2,0.7c-0.4,0.1-0.4,0.3-0.2,0.7c-0.3,0.4-0.5,0.9-0.6,1.5c-0.1,0.6-0.2,1-0.5,1.5c0,0.3,0,0.5,0,0.8
			c0,0.3,0,0.6,0,0.9c-0.1,0.2-0.1,0.4-0.2,0.6s-0.1,0.3-0.1,0.4c0,0.2,0.1,0.4,0.2,0.5c0.1,0.1,0.1,0.3,0.1,0.5
			c0.1,0.1,0.1,0.1,0.2,0.1c0.1,0,0.1,0,0.1,0.1c0.1,0.6,0.4,1.1,0.8,1.5c0.4,0.4,1,0.5,1.5,0.5c0.2-0.1,0.4-0.1,0.7-0.3
			c0.2-0.1,0.5-0.2,0.7-0.4c0.3-0.2,0.6-0.4,0.8-0.6c0.2-0.2,0.5-0.4,0.7-0.5l0.6-8.7c0.1-0.1,0.2-0.3,0.3-0.6c-0.1-0.1-0.1,0-0.1,0
			c0,0.1,0,0.1-0.1,0c0.1-0.2,0.2-0.4,0.2-0.7c0.1-0.3,0.2-0.6,0.3-0.7c0-0.1,0-0.1,0-0.1C150.7,29,150.7,29,150.6,29z"/>
		<path class="st0" d="M187.4,22.5c-0.1,0.3-0.1,0.6-0.2,0.9c-0.1,0.3-0.1,0.6-0.2,0.9c-0.1,0.2-0.2,0.3-0.2,0.5
			c0,0.2-0.1,0.3-0.2,0.3c-0.1,0.6-0.2,1-0.5,1.3c-0.3,0.3-0.6,0.6-1,0.9c-0.4,0.3-0.7,0.6-1.1,0.8c-0.3,0.3-0.6,0.6-0.7,0.9
			c-0.5,0.2-0.8,0.5-0.8,0.9c-0.3,0.1-0.4,0.2-0.6,0.3c0,0.1-0.2,0.5-0.7,1.1c-0.4,0.7-1,1.4-1.5,2.1c-0.6,0.7-1.1,1.4-1.7,2
			c-0.5,0.6-0.9,0.9-1.1,0.9c-1.1,0.5-1.8,0.8-2,0.9c-0.2,0.1-0.3,0.2-0.3,0.2c0,0-0.1,0.1-0.2,0.3c-0.1,0.2-0.6,0.6-1.3,1.2
			c-0.7,0.3-1.4,0.7-2.1,1c-0.7,0.4-1.4,0.6-2.2,0.6c-0.5-0.1-1-0.1-1.5-0.2c-0.4-0.1-0.9-0.1-1.5-0.2c-1.2-0.7-2.3-1.6-3.2-2.6
			c-0.9-1-1.5-2.2-1.8-3.7c-0.1-0.2-0.1-0.4-0.1-0.6c0-0.2,0-0.4-0.1-0.6v-0.1v-0.1v-0.1c-0.2-1.3-0.1-2.5,0.1-3.7
			c0.2-1.2,0.6-2.3,0.9-3.3c0.4-1,0.8-1.8,1.2-2.5c0.4-0.7,0.7-1.1,0.8-1.2l0.1-0.2c0.1-0.1,0.2-0.3,0.5-0.6
			c0.1-0.2,0.2-0.3,0.4-0.5c0.1-0.2,0.3-0.3,0.4-0.4c0.4-0.6,1-1.2,1.9-1.8c0.8-0.6,1.7-1,2.4-1.4c0.2-0.1,0.4-0.1,0.7,0l0.2,0.2
			c0.1,0.1,0.1,0.1,0.2,0c0.1,0.1,0.2,0.2,0.3,0.2c0.1,0.1,0.2,0.1,0.3,0.2c0.1,0.2,0.3,0.3,0.6,0.4c0,0.2,0.1,0.3,0.2,0.3
			c0.2,0,0.3,0,0.4,0.1c0.2,0.1,0.4,0.2,0.6,0.4c0.3,0.2,0.4,0.4,0.6,0.6l-0.1,0.1l0.2,0.1c0.3,0.3,0.4,0.8,0.3,1.5
			c-0.1,0.7-0.3,1.4-0.6,2.2c-0.3,0.7-0.6,1.4-0.9,2c-0.3,0.6-0.5,0.9-0.5,0.9c-0.1,0-0.1,0-0.1,0c0,0,0,0-0.1,0
			c-0.1,0.2-0.1,0.4-0.3,0.6c-0.1,0.2-0.3,0.4-0.4,0.6c-0.2,0.2-0.4,0.4-0.6,0.6c-0.3,0.3-0.5,0.6-0.7,0.8c-0.1,0.1-0.2,0.2-0.2,0.3
			c-0.1,0.1-0.1,0.2-0.2,0.3c-0.1,0.1-0.2,0.2-0.2,0.3H169c0,0.1,0,0.1,0,0.1c0,0,0,0,0,0.1c-0.1,0.1-0.2,0.2-0.2,0.3
			c-0.1,0.1-0.1,0.2-0.2,0.3c-0.1,0-0.1,0-0.1,0c0,0,0,0-0.1,0l-0.2,0.2c-0.2,0.1-0.3,0.2-0.5,0.4c-0.2,0.1-0.3,0.2-0.3,0.3
			c0.1,0.1,0.1,0.1,0,0.1c-0.1,0-0.1,0-0.2,0c-0.1,0.2-0.2,0.2-0.4,0.2c-0.2,0-0.3,0.1-0.4,0.4c0-0.1,0-0.1,0,0c0,0,0,0,0,0
			c-0.1,0.1-0.1,0.2-0.1,0.6c0,0.3-0.1,0.7-0.1,1.1c-0.1,0.4-0.1,0.8-0.1,1.2s0,0.6,0.1,0.7H166c0.1,0.2,0.1,0.3,0,0.3
			c0,0.1,0,0.1,0,0.3c0,0.1,0.1,0.3,0.2,0.6c0.1,0.2,0.4,0.6,0.8,1.1c0.4,0.1,0.8,0.2,1.1,0.3c0.3,0.1,0.7,0.1,1.1,0
			c0.4-0.1,0.9-0.2,1.3-0.3c0.4-0.2,0.9-0.3,1.3-0.5c0.4-0.3,0.8-0.5,1.2-0.8c0.4-0.3,0.7-0.5,1-0.8c0.3-0.3,0.6-0.6,0.9-0.9
			c0.1,0,0.1,0,0.2-0.1c0.1-0.1,0.1-0.1,0.2-0.1c0.1,0,0.1-0.1,0.2-0.1c0.3-0.2,0.6-0.5,1-0.8c0.4-0.3,0.7-0.6,0.9-0.7
			c0.3-0.2,0.5-0.4,0.7-0.6c0.2-0.2,0.4-0.3,0.6-0.6c0.5-0.4,0.9-0.9,1.4-1.3c0.5-0.4,0.9-0.9,1.3-1.4c0.5-0.5,0.9-0.9,1.4-1.4
			c0.5-0.4,0.9-0.9,1.4-1.4c0.1-0.1,0.1-0.2,0-0.2c-0.1,0-0.1-0.1,0-0.2c0.4-0.3,0.8-0.6,1.1-1.1c0.3-0.4,0.7-0.8,1.1-1.1
			c0-0.2,0-0.3-0.1-0.3C186.9,23,187.2,22.7,187.4,22.5z M169,24.2c0.1,0.1,0.1,0.2,0,0.2c0,0,0,0.1,0,0.2c-0.3,0.3-0.5,0.6-0.7,0.9
			c-0.1,0.3-0.3,0.7-0.6,1.1v0.3h-0.2c-0.2,0.2-0.2,0.4-0.2,0.6c0,0.2-0.1,0.4-0.3,0.6v0.2c-0.1,0.3-0.1,0.5-0.2,0.7
			c-0.1,0.2-0.2,0.5-0.2,0.7c0.1-0.3,0.2-0.5,0.4-0.7c0.2-0.2,0.3-0.4,0.4-0.7c0.2-0.2,0.4-0.4,0.6-0.6c0.2-0.2,0.3-0.4,0.4-0.6
			c0-0.1,0.1-0.1,0.2-0.2c0.2-0.2,0.3-0.3,0.5-0.6c0.2-0.2,0.3-0.4,0.4-0.6c0.1-0.2,0.2-0.3,0.3-0.3c0-0.1,0-0.2,0-0.2
			c0,0,0,0,0-0.1c0.3-0.3,0.5-0.5,0.6-0.8c0.1-0.3,0.3-0.5,0.5-0.8c0.3-0.4,0.6-0.9,0.8-1.4c0.2-0.5,0.4-1.1,0.4-1.8v-0.1
			c-0.2-0.1-0.4-0.1-0.4-0.3c-0.1-0.1-0.2-0.2-0.5-0.1L169,24.2z"/>
		<path class="st0" d="M205.2,27c0.1,0.5,0,0.9-0.1,1.2c-0.1,0.3-0.3,0.6-0.5,0.9c-0.2,0.3-0.4,0.5-0.6,0.8
			c-0.2,0.3-0.3,0.6-0.4,0.9c-0.3,0.3-0.4,0.6-0.4,0.9c-0.5,0.3-0.8,0.8-1.1,1.6c-0.2,0.7-0.5,1.5-0.8,2.4c-0.3,0.9-0.7,1.8-1.3,2.6
			c-0.5,0.9-1.3,1.5-2.3,2c-0.1,0.1-0.2,0.1-0.3,0.2c-0.1,0.1-0.2,0.1-0.4,0c-0.1,0.1-0.3,0.1-0.8,0.1c-0.5,0-1.1-0.2-1.7-0.4
			c-0.6-0.3-1.2-0.7-1.8-1.2c-0.6-0.6-1-1.3-1.3-2.3c-0.1-0.1-0.1-0.3-0.1-0.6c-0.1-0.7-0.1-1.5,0-2.3s0.2-1.6,0.4-2.4
			c-0.1,0.1-0.5,0.5-1.2,1.1c-0.7,0.6-1.5,1.2-2.4,1.9c-0.9,0.7-1.8,1.2-2.8,1.7c-0.9,0.4-1.6,0.5-2.2,0.3c-1.6-0.6-2.5-1.8-2.8-3.5
			c0-1.6,0.3-2.9,0.9-4.1c0.6-1.1,1.3-2.2,2.2-3.1c0.9-0.9,1.9-1.8,2.9-2.6c1-0.8,2-1.6,2.9-2.5c0-0.2,0.1-0.3,0.2-0.4
			c0.1-0.1,0.2-0.2,0.2-0.3c0.4-0.1,0.7-0.1,0.9,0.2c0.2,0.2,0.4,0.3,0.7,0.4c0.3,0.3,0.6,0.5,0.9,0.7c0.3,0.2,0.6,0.4,0.9,0.7
			c-0.2,0.5-0.5,0.8-0.9,1c-0.5,0.2-0.8,0.5-1,0.9c-0.1,0-0.2,0-0.3,0.1c-0.1,0.1-0.2,0.1-0.3,0.2c-0.1,0.1-0.5,0.4-1.1,1
			c-0.7,0.6-1.4,1.3-2.1,2.1c-0.8,0.8-1.5,1.6-2.2,2.5c-0.7,0.8-1.1,1.5-1.1,2.1c-0.3,0.4-0.4,0.9-0.6,1.4c-0.1,0.5-0.1,1,0,1.5
			c1.4-0.6,2.8-1.5,4.2-2.7c1.4-1.2,2.7-2.3,3.7-3.3c0.2-0.2,0.4-0.3,0.6-0.4c0.3-0.1,0.4-0.3,0.6-0.5c0.1-0.1,0.1-0.2,0-0.3
			c0-0.1,0-0.2,0-0.3c0.1-0.2,0.1-0.4,0.3-0.6c0.1-0.2,0.2-0.4,0.1-0.7c0-0.1,0-0.2,0.1-0.2c0.1,0,0.1-0.1,0.1-0.2
			c0.2-0.7,0.4-1.5,0.6-2.3c0.2-0.8,0.4-1.6,0.6-2.3c0.2-0.6,0.4-1.2,0.7-1.8c0.2-0.6,0.3-1.2,0.3-2c0.3,0.3,0.7,0.4,1,0.4
			c0.4-0.1,0.7,0,0.9,0.2c0.1,0.1,0.1,0,0.1,0c0-0.1,0-0.1,0.1,0c0.4,0.6,0.8,1.1,1.4,1.5c0.2,0.4,0.3,1.2,0.4,2.4
			c0.1,1.2,0.2,2.5,0.2,4.1s-0.1,3.3-0.2,5.2c-0.2,1.9-0.4,3.8-0.7,5.8c0.9-1.3,1.8-2.6,2.6-4s1.6-2.8,2.4-4.2c0-0.1,0-0.1,0-0.1
			c0,0,0,0,0-0.1c0.3-0.3,0.5-0.7,0.6-1.1c0.2-0.4,0.4-0.8,0.6-1.1c-0.1-0.1-0.1-0.2-0.2-0.2c0.2-0.2,0.4-0.5,0.6-0.8
			c0,0.3,0,0.5,0,0.8c0,0.3,0,0.5,0.1,0.8c-0.1,0.1-0.1,0.2-0.1,0.4C205.2,26.9,205.2,26.9,205.2,27z"/>
		<path class="st0" d="M202.8,38.3c0.3-0.2,0.3-0.4,0.2-0.9l6.8-8c-0.1-0.3-0.3-0.6-0.6-0.7c-0.3-0.2-0.6-0.4-0.8-0.5
			c-0.3-0.3-0.6-0.6-1.1-0.9c-0.4-0.3-0.9-0.5-1.4-0.8c-0.5-0.3-0.9-0.6-1.3-1c-0.4-0.4-0.6-0.8-0.7-1.3c-0.1-0.1-0.1-0.1-0.2-0.1
			c-0.1,0.1-0.1,0-0.1-0.1h0.2c-0.2-0.5-0.2-1,0-1.5c0.1-0.4,0.3-0.9,0.6-1.3c0.3-0.4,0.6-0.8,0.9-1.1c0.3-0.4,0.5-0.7,0.7-1
			c0.4-0.2,0.7-0.5,0.9-0.8c0.2-0.3,0.6-0.5,1-0.6c0.1-0.1,0.2-0.2,0.2-0.3c0.1-0.1,0.2-0.2,0.3-0.2c0.1,0,0.2,0,0.2,0.1
			c0,0.1,0.1,0.1,0.2,0.2c0.3-0.1,0.5-0.2,0.5-0.2c0.3,0.3,0.6,0.4,1.1,0.4c0.4,0,0.8,0.2,1,0.7c0,0.1,0,0.2-0.1,0.2
			c-0.1,0.1-0.1,0.2,0,0.3c-0.6,0.4-1.2,0.9-1.7,1.5c-0.5,0.6-1.1,1.1-1.8,1.5c-0.3,0.5-0.5,0.9-0.8,1.3c-0.3,0.4-0.4,0.8-0.6,1.2
			c0.1,0.5,0.3,0.9,0.7,1.2c0.4,0.3,0.8,0.6,1.3,0.8c0.5,0.2,0.9,0.5,1.4,0.7c0.5,0.3,0.9,0.6,1.2,0.9c0.2-0.3,0.6-0.7,1.2-1.3
			c0.6-0.6,1.2-1.3,1.8-2c0.6-0.7,1.2-1.4,1.7-2.1c0.5-0.7,0.9-1.1,1-1.5c0.2-0.1,0.3-0.1,0.4-0.3c0.1-0.1,0.2-0.2,0.3-0.3
			c0.3-0.5,0.6-0.9,1-1.3c0.4-0.4,0.7-0.7,1.1-1.1c0,0.3,0,0.5,0,0.8c0,0.3,0,0.5-0.1,0.8c-1.2,1.6-2,2.7-2.4,3.3
			c-0.5,0.6-0.9,1-1.2,1.3c-0.3,0.3-0.8,0.7-1.3,1.3c-0.5,0.5-1.3,1.6-2.5,3.1c0.3,0.2,0.5,0.4,0.8,0.7c0.3,0.2,0.5,0.5,0.7,0.7
			c-0.1,0.2,0,0.4,0.1,0.5c0.1,0.1,0.2,0.2,0.4,0.3c0.2,0.2,0.3,0.5,0.3,0.7c0.1,0.3,0.1,0.6,0.2,0.8c-0.1,0.1-0.1,0.1-0.1,0.2
			c0,0.1,0,0.1-0.1,0.2c0.1,0.6,0,1.4-0.4,2.2c-0.4,0.8-0.9,1.6-1.6,2.4c-0.7,0.8-1.5,1.4-2.3,2c-0.9,0.6-1.7,1-2.6,1.2
			c-0.9,0.2-1.7,0.2-2.6-0.2C204,40.1,203.3,39.4,202.8,38.3z M210.4,30.5L210.4,30.5c-0.3,0.2-0.5,0.4-0.7,0.7
			c-0.1,0.2-0.4,0.5-0.8,0.7c-0.1,0.1-0.1,0.1,0,0.1c0.1,0,0.1,0.1,0,0.2l-4,5.7c0.1,0,0.1,0.1,0.1,0.2c-0.2,0.1-0.2,0.3-0.2,0.6
			c0.2,0.2,0.4,0.2,0.6,0.1c0.2-0.2,0.3-0.3,0.4-0.4c0.1-0.1,0.2-0.2,0.2-0.2c0.1,0,0.1,0,0.2-0.1c0.9-0.7,1.8-1.5,2.5-2.4
			c0.6-0.7,1-1.5,1.4-2.3C210.3,32.6,210.5,31.6,210.4,30.5z"/>
		<path class="st0" d="M255.2,8c-0.1,0.3-0.1,0.6,0,0.9c0.1,0.3,0.1,0.7,0.1,1.1c0,0.5,0,1-0.1,1.5c-0.1,0.5-0.1,1-0.1,1.4
			c-0.2,0.1-0.3,0.2-0.2,0.2c0.1,0.5,0.1,0.8-0.2,1.1c-0.2,0.2-0.3,0.6-0.2,1c-0.1,0-0.2,0-0.2,0.1c0,0.1,0,0.1-0.1,0.2
			c0,0.1,0,0.1,0,0.1c0,0,0,0,0,0.1c0,0.1-0.1,0.2-0.2,0.4c-0.1,0.2-0.1,0.3,0.1,0.4c-0.1,0.1-0.2,0.2-0.2,0.2c0,0.1,0,0.2,0,0.2
			c0,0,0,0.1,0,0.1c-0.1,0.1-0.2,0.2-0.2,0.4c0,0.1-0.1,0.2-0.2,0.4c0,0.1,0,0.1-0.1,0.1c-0.1,0,0,0.1,0.1,0.1
			c-0.3,0.6-0.5,1.2-0.8,1.8c-0.3,0.6-0.6,1.1-1.1,1.5c0.1,0.1,0.1,0.2,0,0.2c-0.1,0.1-0.1,0.1,0,0.2c-0.3,0.3-0.6,0.6-0.7,1
			c-0.2,0.4-0.4,0.7-0.6,1c0,0.2,0,0.3-0.1,0.3c-0.1,0.1-0.1,0.1-0.1,0.2h-0.1c0,0.4-0.1,0.6-0.3,0.6c-0.3,1-0.9,1.8-1.7,2.5
			c-0.1,0.5-0.4,0.9-0.7,1.2c-0.4,0.3-0.7,0.7-0.8,1.2c-0.2,0.1-0.2,0.3-0.2,0.5s-0.1,0.4-0.3,0.5c-0.2,0.6-0.4,1.1-0.7,1.5
			c-0.3,0.4-0.5,1-0.6,1.7c-0.1,0-0.1,0-0.1,0.1c0,0.1,0,0.1-0.1,0.2c0.1,0.3,0,0.5,0,0.7c-0.1,0.2-0.1,0.4-0.1,0.7
			c-0.1,0.6-0.1,1.2-0.1,1.9c0.1,0.7,0.1,1.4,0.2,2.1c-0.1,0-0.2,0-0.2,0.1s0,0.2-0.1,0.3c-0.1,0-0.1,0-0.1-0.1c0-0.1-0.1,0-0.1,0.1
			v-0.2c-0.3,0.1-0.4,0.3-0.3,0.5c0.1,0.2,0.1,0.5,0.1,0.7c0.1,0.1,0.2,0,0.2-0.1c0-0.1,0.1-0.1,0.2-0.1c0.1,0.1,0.1,0.2,0.1,0.4
			c-0.1,0.2-0.1,0.3-0.1,0.4c-0.9,0.9-1.8,1.6-2.6,1.9c-0.8,0.3-1.6,0.5-2.4,0.4c-0.7-0.1-1.4-0.3-1.9-0.7c-0.6-0.4-0.9-0.9-1.1-1.4
			c0.3-0.3,0.4-0.7,0.5-1.1c0.1-0.4,0-0.6-0.1-0.7c0.1,0,0-0.2-0.1-0.5c0.1-1,0.1-1.9,0.2-2.8c0.1-0.7,0.2-1.3,0.2-1.9
			c0-0.6,0.1-0.9,0.1-0.9c-0.1,0-0.2,0-0.2,0.1c-0.1-0.1-0.1-0.2-0.1-0.2c0.1-0.1,0.1-0.1,0.1-0.2c-0.1,0.1-0.1,0.1-0.1,0.2
			c0,0.1,0,0.1,0,0.2c-0.1-0.1-0.1-0.1,0,0c0,0.1,0,0.1-0.1,0.1c0-0.2,0-0.4,0.1-0.6c0.1-0.2,0.1-0.3,0.2-0.6
			c0.1,0.1,0.1,0.1,0.1,0.1c-0.1,0-0.1,0.1,0,0.1c0.1,0,0.1-0.1,0.1-0.2c-0.1-0.1,0-0.2,0.1-0.2c0,0.1,0,0.2,0,0.4
			c0,0.2,0,0.4,0,0.6c0.1-0.5,0.2-0.9,0.2-1c0-0.1,0-0.2,0-0.2c0,0,0-0.1,0-0.2c0-0.1,0.1-0.4,0.2-0.7c0.1-0.4,0.3-1,0.6-1.9
			c0.3-0.9,0.7-2.2,1.3-3.8h0.1c0.4-1.2,1-2.2,1.7-3c0.7-0.9,1.3-1.8,1.8-2.9c0.1,0,0.1-0.1,0.2-0.2c0.5-1,1.1-2.1,1.9-3.1
			c0.8-1,1.4-2.1,1.8-3.3c0.1,0,0.2-0.1,0.2-0.2s0.1-0.2,0.2-0.4l-0.1-0.1c-0.1-0.1,0-0.1,0.1-0.1c0.1,0.1,0.1,0,0.1-0.1
			c-0.1,0.1-0.1,0,0-0.2s0.2-0.3,0.3-0.4c0-0.1,0-0.1,0-0.1c0,0,0-0.1,0-0.2c0.2-0.6,0.4-1.1,0.5-1.7c0.1-0.6,0.2-1.1,0.4-1.8
			l-0.1,0.2c0-0.1,0-0.2,0.1-0.4c0.1-0.1,0.1-0.2,0.1-0.4c0-0.1,0-0.1-0.1,0c0.1-0.4,0.2-0.9,0.3-1.5c0.1-0.6,0.1-1.2,0-1.7
			c0.1-0.1,0.1-0.3,0-0.7c0-0.4-0.1-0.7-0.3-0.9c-0.3-0.1-0.6,0-0.9,0c-0.3,0.1-0.6,0.1-0.9,0.2c-0.1,0-0.1,0-0.1-0.1
			c-0.3,0.1-0.6,0.1-0.9,0.1c-0.3,0-0.5,0-0.8,0.1c-0.1,0.1-0.3,0.1-0.6,0.2c-0.5,0.4-0.9,0.7-1.3,1.1c-0.4,0.4-0.8,0.8-1.3,1.1
			c-0.1,0.4-0.3,0.7-0.6,0.9c-0.3,0.2-0.4,0.5-0.5,0.9c-0.1-0.1-0.1,0-0.1,0c0.1,0.1,0,0.1-0.1,0c0,0.1,0,0.2,0,0.2c0,0,0,0.1,0,0.2
			c-0.2,0.1-0.3,0.3-0.3,0.5c-0.1,0.2-0.2,0.4-0.3,0.5c-0.1,0.1-0.3,0.2-0.5,0.2c-0.2,0.1-0.4,0.2-0.4,0.4c-0.1,0-0.2,0-0.2,0.1
			c-0.2,0.1-0.3,0.3-0.3,0.5c-0.1,0.2-0.1,0.4-0.2,0.7c-0.1,0.1-0.1,0.2-0.2,0.2c-0.1,0-0.1,0.1-0.1,0.2c-0.1,0.2-0.1,0.3-0.1,0.5
			c0,0.2,0,0.4-0.1,0.5c-0.1,0.3-0.2,0.7-0.4,1.1c-0.2,0.4-0.2,0.7,0,1.1H237c0,0.3,0,0.6-0.1,1.1c-0.1,0.4-0.1,0.8-0.1,1.1
			l-0.2-0.2c-0.3,0.3-0.4,0.6-0.4,1s0,0.7,0,1c-0.1,0-0.2,0.1-0.3,0.2c0.1,0.3,0,0.5-0.1,0.7c-0.1,0.2-0.3,0.2-0.6,0.1
			c-0.1-0.4-0.1-0.8-0.2-1.2c-0.1-0.4-0.1-0.8-0.2-1.3c-0.1-0.1-0.2-0.2-0.2-0.3s0-0.3,0-0.5c0-0.2,0-0.4,0-0.5s-0.1-0.3-0.2-0.4
			c0.1-0.7,0.1-1.5,0.2-2.2c0.1-0.7,0.1-1.4,0.2-2.1c0.1-0.2,0.1-0.3,0-0.5c-0.1-0.2-0.1-0.4,0-0.5c0-0.1,0-0.1,0.1-0.1l0.1-0.1
			c0-0.1,0-0.1,0-0.1c0,0,0-0.1,0-0.2c0-0.3,0.1-0.5,0.2-0.7c0.2-0.2,0.2-0.4,0.2-0.7l0.2-0.2c0.6-1.3,1.4-2.4,2.3-3.4
			c0.9-1,1.9-1.9,3-2.8c0.7-0.3,1.4-0.6,2.2-0.9c0.8-0.3,1.6-0.6,2.4-0.7S247,0,247.7,0c0.6,0.1,1.1,0.2,1.7,0.5
			c0.5,0.3,1,0.5,1.5,0.7c0.1,0.1,0.1,0.1,0.1,0.2c0.2,0.1,0.4,0.2,0.6,0.3c0.2,0.1,0.4,0.2,0.5,0.4c0.4,0.2,0.8,0.5,1.1,0.9
			c0.1,0.1,0.2,0.3,0.4,0.5c0.2,0.2,0.3,0.4,0.4,0.7c0.1,0.3,0.2,0.7,0.4,1.1c0.2,0.4,0.3,0.8,0.4,1.1c0.1,0.3,0.2,0.5,0.2,0.7
			C255.1,7.5,255.1,7.8,255.2,8z M240.3,47.2c1.5,0.4,2.6,1.1,3.3,2.2s1.1,2.1,1.1,3.2c0,1.1-0.2,2.2-0.8,3.1
			c-0.6,0.9-1.4,1.6-2.4,1.9c-0.3,0.1-0.6,0.1-1,0.1c-0.4,0-0.8-0.1-1-0.1c-0.4-0.1-0.8-0.3-1.3-0.5c-0.4-0.2-0.8-0.5-1-0.9
			c-0.1-0.3-0.2-0.6-0.4-0.7c-0.2-0.2-0.3-0.4-0.5-0.6c-0.1-0.5-0.2-1-0.4-1.5c-0.2-0.6-0.1-1,0.2-1.5c-0.1-0.5,0-1,0.2-1.4
			c0.2-0.4,0.3-0.8,0.4-1.3c-0.1-0.2-0.2-0.3-0.2-0.4c0-0.1,0-0.2,0-0.2c0-0.1,0-0.1,0-0.2c0.1,0,0.1,0,0.1,0c0,0,0.1,0,0.2,0
			c0-0.1,0-0.2-0.1-0.2c-0.1,0-0.1-0.1-0.1-0.2c0.2,0,0.3,0,0.4-0.1c0.1-0.1,0.2-0.1,0.3,0c-0.1-0.3,0-0.4,0.2-0.6
			c0.2-0.1,0.3-0.3,0.3-0.6h0.1c0.1-0.1,0.2,0,0.2,0c0,0.1,0.1,0.1,0.2,0.1c0.1,0,0.2-0.1,0.3-0.3c0.3-0.1,0.5-0.1,0.7-0.1
			c0.2,0,0.5,0.1,0.8,0.2c-0.1,0.1,0,0.2,0.2,0.2S240.2,47.1,240.3,47.2z M237.1,33.6C237.1,33.6,237,33.6,237.1,33.6
			c-0.1,0.1-0.2,0-0.2-0.1c0-0.1,0-0.2,0.1-0.2c0,0.1,0,0.1,0,0.1c0,0,0,0,0,0.1V33.6z"/>
	</g>
</g>
</svg>
