<?xml version="1.0" encoding="utf-8"?>
<!-- Generator: Adobe Illustrator 19.1.0, SVG Export Plug-In . SVG Version: 6.00 Build 0)  -->
<svg version="1.1" id="Layer_1" xmlns="http://www.w3.org/2000/svg" xmlns:xlink="http://www.w3.org/1999/xlink" x="0px" y="0px"
	 viewBox="0 0 31.9 35.2" style="enable-background:new 0 0 31.9 35.2;" xml:space="preserve">
<style type="text/css">
	.st0{fill:#FFFFFF;}
</style>
<g>
	<path class="st0" d="M28.7,3.1C28.7,3.1,28.8,3.1,28.7,3.1l0.1,20.8c0,0,0,0,0,0L16,32c0,0,0,0-0.1,0L3.1,24c0,0,0,0,0,0V3.2
		c0,0,0-0.1,0.1-0.1H28.7 M28.7,0H3.2C1.4,0,0,1.4,0,3.2l0,0v20.7C0,25,0.6,26,1.5,26.6l12.8,8.1c1,0.7,2.4,0.7,3.4,0l12.8-8.1
		c0.9-0.6,1.5-1.6,1.5-2.7V3.2C31.9,1.4,30.5,0,28.7,0z"/>
	<path class="st0" d="M19.2,22.9v2.5h-6.3v-2.5h1.4V15h-1.7v-2.5h5.1v10.4H19.2z M15.9,10.5c1.3,0,2.3-1,2.3-2.3s-1-2.3-2.3-2.3
		c-1.3,0-2.3,1-2.3,2.3l0,0C13.6,9.5,14.7,10.5,15.9,10.5z"/>
</g>
</svg>
