<?xml version="1.0" encoding="utf-8"?>
<!-- Generator: Adobe Illustrator 19.1.0, SVG Export Plug-In . SVG Version: 6.00 Build 0)  -->
<svg version="1.1" id="Layer_1" xmlns="http://www.w3.org/2000/svg" xmlns:xlink="http://www.w3.org/1999/xlink" x="0px" y="0px"
	 viewBox="0 0 164.2 164.6" style="enable-background:new 0 0 164.2 164.6;" xml:space="preserve">
<style type="text/css">
	.st0{fill:#617D8C;}
</style>
<g>
	<path class="st0" d="M1.7,111.6c0.1,0.3,0.3,0.5,0.7,0.6c0-0.1-0.1-0.2-0.1-0.3c0-0.1,0-0.2,0.1-0.3c0.4,0.3,0.8,0.7,1.3,1.1
		c0.5,0.4,0.9,0.8,1.3,1.2c1.4,1.4,2.3,2.7,2.7,3.8c0.4,1.1,0.6,2.1,0.6,3c0,0.9-0.1,1.8-0.3,2.5c-0.2,0.8-0.1,1.5,0.1,2.2
		c-0.1,0.3-0.1,1.1-0.1,2.5c0,1.4,0,3,0.1,5c0.1,1.9,0.2,4,0.4,6.1c0.2,2.1,0.4,4.1,0.6,6c0.2,1.9,0.5,3.4,0.7,4.7
		c0.3,1.3,0.5,1.9,0.8,2c0.1,0.1,0.1,0.3,0,0.4c-0.1,0.1-0.1,0.3,0,0.5c0,0,0.1,0,0.1,0c0,0,0,0,0.1,0c-0.1,0.1-0.1,0.2,0,0.4
		c0.1,0.2,0.1,0.3,0,0.4c0.1,0,0.2,0.1,0.3,0.3c0,0.2,0,0.4-0.1,0.5c0,0,0,0.1,0,0.1c0,0,0,0,0,0.1c0.1,0,0.1-0.1,0.1-0.1
		c0,0,0,0,0-0.1c0.1,0,0.1,0.1,0.1,0.2c0,0.1,0,0.2-0.1,0.2c0,0,0.1,0,0.1,0.1c0,0.1,0,0.1-0.1,0.1c0.1,0.1,0.2,0.2,0.1,0.3l0.1,0.1
		c0.1,0,0.1-0.1,0.1-0.3c0-0.1,0-0.2,0.1-0.1l1.8-11.9c0,0,0.1,0,0.1,0c0,0,0,0-0.1,0c0,0,0.1,0,0.1,0s0.1-0.1,0.1,0
		c0,0.1,0,0.2,0.1,0c0.1-0.1,0-0.2-0.1-0.3c0,0.1,0.1,0.2,0.1,0.2c-0.1-0.1-0.1-0.1-0.1,0s0,0.1-0.1,0.1l2.9-12.8h-0.1
		c0-0.1,0-0.2,0-0.3c0-0.1,0.1-0.2,0.1-0.2c0-0.4,0.1-0.9,0.1-1.4c0-0.6,0.1-1,0.3-1.2v0.1c0.2-0.8,0.5-1.6,0.9-2.3
		c0.4-0.7,0.6-1.6,0.8-2.6h0.1c0-0.4,0.1-1,0.1-1.6c0-0.7,0.1-1.3,0.2-1.9c0.1-0.6,0.2-1.2,0.4-1.7c0.2-0.5,0.5-0.9,0.9-1.2
		c0.7,0,1.3,0.4,1.8,1.1c0.5,0.7,1,1.5,1.4,2.4c0.4,0.9,0.6,1.8,0.8,2.7c0.2,0.9,0.3,1.6,0.4,2.2l0.1,8.7c0,0-0.1,0-0.1,0.1
		c0,0,0,0,0-0.1c0.1,0.2,0.1,0.4,0,0.6c-0.1,0.2-0.1,0.3,0,0.4c-0.1,0.1-0.2,0.7-0.3,1.8c0,1.1,0,2.2,0,3.4c0,1.4,0.1,3,0.1,4.8v0.1
		c0,0,0.1,0,0.1,0c0,0,0,0,0.1,0c-0.1,0-0.1,0.1,0,0.2s0.1,0.1,0.1,0c0.1,0,0.1,0.1,0.1,0.3c0,0.1,0,0.3,0,0.4c0,0,0-0.1-0.1-0.1
		c0,0.1,0,0.1,0.1,0.1c0,0.1,0,0.1,0,0.1c-0.1,0-0.1,0-0.1,0c0,0.1,0,0.1,0.1,0.1c0.1,0,0.1,0,0,0.1h0.1c0.1,0,0.1,0,0.1,0.1
		c0,0,0,0.1,0,0.1c0,0,0,0.1-0.1,0.1c0,0,0.1,0.1,0.2,0.1l-0.1,0.1c0,0,0.1,0,0.1,0c0,0,0,0,0,0c0,0.1,0,0.1-0.1,0.1
		c0,0-0.1,0-0.1,0.1c0,0,0.1,0.1,0.1,0c0,0,0,0.1-0.2,0.3h0.1c0,2,0,3.4,0.1,4.2c0.1,0.7,0.2,1.1,0.4,1c0.2-0.1,0.3-0.5,0.5-1.2
		c0.2-0.7,0.3-1.4,0.5-2.2s0.3-1.5,0.4-2.2c0.1-0.7,0.1-1,0.1-1c0,0,0.1,0,0.1,0c0,0,0,0-0.1-0.1c0.3-1.1,0.6-2,0.8-2.8
		c0.2-0.8,0.5-1.7,0.7-2.6c0.3-0.9,0.5-1.8,0.7-2.6c0.2-0.8,0.4-1.5,0.5-2.1s0.2-0.9,0.2-0.9c0.1,0,0.1,0,0.1,0c0,0,0,0-0.1,0
		l4.3-19.2c0.1,0,0.1,0,0.1,0c0,0,0,0,0.1,0c-0.1-0.2,0-0.4,0.2-0.4c0.2,0,0.3,0.1,0.2,0.2c0-0.1,0.1-0.1,0.1,0
		c0,0.1,0.1,0.1,0.2,0.1c0,0.1-0.1,0.2,0,0.2c0,0,0,0.1,0,0.1h0.1c0,0.1,0,0.1,0,0.1c0,0,0.1,0,0.1,0.1c0,0.1,0,0.3,0,0.7
		c0,0.3-0.1,0.7-0.1,1.1c0,0.5-0.1,1-0.1,1.5c0,0-0.1,0-0.1,0c0,0.1,0,0.2-0.1,0.4c-0.1,0.2-0.1,0.4-0.2,0.7
		c-0.1,0.3-0.1,0.5-0.2,0.8c0,0.2,0,0.4,0,0.6c-0.4,1.4-0.7,2.7-0.9,3.6c-0.2,1-0.4,1.9-0.6,2.9c-0.2,0.9-0.3,1.6-0.3,2
		c0,0-0.1,0-0.1,0c0,0,0,0-0.1,0c0,0.1,0,0.4-0.1,1c-0.1,0.6-0.2,1.2-0.4,1.9c-0.1,0.7-0.3,1.3-0.5,1.8c-0.2,0.6-0.3,0.9-0.3,0.9
		c0,0,0,0.2-0.1,0.5c-0.1,0.3-0.1,0.6-0.2,0.9c-0.1,0.3-0.1,0.6-0.1,0.9c0,0.3,0,0.4,0,0.4c0,0-0.1,0.1-0.1,0.1c0,0,0,0.1,0.1,0.2
		c0,0.1,0,0.1-0.1,0c0,0.1,0,0.3,0,0.6s-0.2,0.6-0.3,0.9c-0.1,0.3-0.2,0.6-0.3,0.9c-0.1,0.3-0.1,0.5-0.1,0.5c-0.1,0-0.1,0-0.1,0
		c0,0,0,0.1-0.1,0.1c0.1,0.1,0.1,0.2,0,0.2c-0.1,0-0.1,0.1-0.1,0.2l0.1,0.1c0,0,0,0.3-0.1,0.8c-0.1,0.5-0.2,1.1-0.4,1.7
		c-0.1,0.7-0.3,1.4-0.5,2.2c-0.2,0.8-0.3,1.5-0.5,2.1c-0.2,0.7-0.3,1.2-0.4,1.6c-0.1,0.4-0.2,0.7-0.3,0.7c-0.2,2.2-0.7,3.9-1.3,5.2
		c-0.6,1.3-1.2,2.3-1.8,3c-0.6,0.7-1.2,1.1-1.6,1.3c-0.5,0.2-0.7,0.2-0.6,0c-0.1,0.1-0.1,0.2-0.1,0.2c-0.1,0-0.2,0-0.2-0.1
		c0,0-0.1-0.1-0.2-0.1c0,0,0,0.1,0.1,0.1c0,0,0.1,0.1,0.1,0.1c-0.1,0-0.3,0-0.5,0c-0.2,0-0.3,0.1-0.4,0.2c-0.2,0-0.5,0-0.7-0.1
		c-0.2-0.1-0.3-0.3-0.3-0.5c0,0-0.1,0-0.1,0c0,0,0,0-0.1,0c0-0.1,0-0.1,0.1-0.1c0.1,0,0.1,0,0.1-0.1c-0.1-0.5-0.3-0.9-0.5-1.3
		c-0.2-0.4-0.4-0.9-0.4-1.3H19c-0.1-0.2-0.2-0.6-0.3-1.2c-0.1-0.6-0.2-1.2-0.3-1.8c-0.1-0.6-0.1-1.1-0.1-1.6c0-0.5,0-0.7,0-0.7
		c-0.1,0-0.2-0.1-0.1-0.3c0,0,0,0,0.1,0c-0.1,0-0.2-0.5-0.2-1.3c0-0.8-0.1-1.7-0.1-2.7c0-1-0.1-1.9-0.1-2.8c0-0.9-0.1-1.3-0.1-1.4
		c0.1-0.1,0.1-0.1,0.1-0.1c0,0,0,0-0.1,0l0.1-0.1c0,0,0,0-0.1-0.1v-0.1l0.1-0.1l-0.2-4.8h0.2c0,0,0-0.1,0-0.1c0,0,0,0,0,0.1
		c0-0.1,0-0.3,0-0.7c0-0.4,0-0.8,0-1.2c0-0.4,0-0.8,0-1.2c0-0.4,0.1-0.6,0.2-0.6c0,0-0.1-0.2-0.1-0.7c0-0.5,0-0.9,0.1-1.4
		c0-0.5,0.1-1.2,0.1-2.1c0,0-0.1,0.1-0.1,0.1c0,0-0.1,0-0.1-0.1c0,0.2-0.2,0.9-0.4,2c-0.2,1.1-0.4,2.3-0.6,3.5
		c-0.2,1.2-0.4,2.3-0.6,3.2c-0.2,0.9-0.3,1.2-0.4,1c0,0.1,0,0.2,0,0.4s0,0.2-0.1,0.3l0.1,0.1c0,0-0.1,0-0.1,0.1c0,0.1,0,0.1,0.1,0.1
		c0,0-0.1,0.1-0.1,0.4c0,0.2-0.1,0.5-0.1,0.8c0,0.3,0,0.6-0.1,0.8c0,0.2,0,0.4,0,0.4c-0.1,0-0.2,0-0.2,0.1c0,0.1,0,0.1,0.1,0
		c-0.3,1.3-0.5,2.5-0.7,3.6c-0.2,1-0.4,1.9-0.5,2.7c-0.1,0.8-0.2,1.3-0.2,1.6c-0.1-0.1-0.1-0.1-0.1,0s0,0.1,0.1,0.2H14
		c0,0.1,0,0.1,0,0.1c0,0,0,0,0,0.1c-0.1,0-0.2,0.1-0.1,0.4c0,0-0.1,0.2-0.2,0.5c-0.1,0.3-0.2,0.7-0.3,1.1c-0.1,0.4-0.2,0.8-0.3,1.1
		c-0.1,0.3-0.2,0.5-0.3,0.6c0,0.4,0,0.7-0.1,1.1c-0.1,0.3-0.2,0.7-0.3,0.9c0,0-0.1,0-0.1,0.1c0,0,0,0.1-0.1,0.1c0,0.1,0,0.2,0,0.3
		c0,0.1,0,0.2,0,0.3c0,0.2,0,0.4-0.1,0.6c-0.1,0.2-0.1,0.4-0.2,0.6c0,0.2-0.1,0.4-0.1,0.5c0,0.2,0.1,0.3,0.3,0.4
		c-0.1,0.1-0.1,0.1-0.1,0.1c0,0,0,0.1,0.1,0.1c0,0-0.1,0-0.1,0.1c0,0,0,0,0.1,0c0.2,0.2,0.4,0.6,0.4,0.9c0,0.4,0,0.8,0,1.2
		c-0.1,0.4-0.2,0.7-0.3,1c-0.1,0.3-0.1,0.4-0.1,0.5c-0.7,0.3-1.3,0.6-2,0.8c-0.6,0.2-1.2,0.3-1.9,0.4c-0.7,0-1.4,0-2.1-0.3l0.1-0.1
		c-0.4,0.1-0.8-0.3-1.1-1.2c-0.4-0.9-0.7-2-1.1-3.4s-0.7-2.9-1-4.6s-0.6-3.2-0.8-4.6c-0.2-1.4-0.4-2.6-0.5-3.6
		c-0.1-1-0.2-1.5-0.2-1.6H1.6l-1.4-10.7c0.1-0.2,0.1-0.7,0.1-1.2c0-0.6,0-1.2-0.1-1.9c0-0.8-0.1-1.6-0.1-2.5c0,0,0-0.1-0.1-0.2
		l0.1-6c0,0.1-0.1-0.2-0.1-0.9c0-0.7,0-1.5,0-2.3c0-0.9,0.1-1.7,0.1-2.5c0-0.8,0.1-1.3,0.3-1.5c-0.1-0.1-0.1-0.4,0-0.9
		c0.1-0.4,0.2-0.8,0.2-1.2c0-0.3,0-0.6,0-0.9s0-0.5-0.1-0.7c0.2-0.2,0.3-0.3,0.4,0c0.1,0.2,0.3,0.3,0.5,0.2c0-0.1,0-0.2,0-0.2
		C1.6,111.7,1.6,111.6,1.7,111.6L1.7,111.6z M6.2,163.8c0,0-0.1-0.1-0.1,0c0,0-0.1,0-0.1,0l-0.1,0.1c0,0,0.1,0,0.1,0
		S6.2,163.9,6.2,163.8z M6.1,156.7L6.1,156.7L6.1,156.7c0,0.1,0,0.1,0,0.1c-0.1,0-0.1,0.1,0,0.1c0-0.1,0-0.2,0-0.2
		C6.1,156.8,6.1,156.7,6.1,156.7z M8.2,136.9C8.2,136.8,8.2,136.8,8.2,136.9c0.1-0.1,0.1-0.1,0.1-0.1l-0.1-0.1
		C8,136.6,8,136.7,8.2,136.9z"/>
	<path class="st0" d="M65.6,146.8c0,0-0.1,0.2-0.1,0.5c0,0.3-0.1,0.7-0.2,1c-0.1,0.5-0.2,1-0.3,1.5c0,0.2-0.1,0.4-0.1,0.5
		c0,0.2,0,0.3-0.1,0.4c0,0.1-0.1,0.4-0.2,0.8c-0.1,0.4-0.3,1-0.6,1.6c-0.2,0.7-0.5,1.3-0.8,2.1c-0.3,0.7-0.6,1.4-1,2
		c-0.3,0.5-0.7,1-1.1,1.3c-0.4,0.3-0.8,0.5-1.3,0.5c-0.5,0-1-0.1-1.5-0.4c-0.5-0.3-1.1-0.9-1.7-1.6c-0.7-0.8-1.1-1.9-1.3-3.1
		c-0.2-1.3-0.2-2.5-0.2-3.6c0-1,0.1-2.1,0.2-3.1c0.1-1.1,0.2-2.1,0.4-3.1c0.1-0.9,0.2-1.8,0.2-2.9c0-0.3,0-0.6,0-0.8
		c0-0.3,0-0.5,0-0.8c-0.1-0.5-0.3-1-0.5-1.3c-0.3-0.4-0.7-0.5-1.2-0.5c-0.2,0-0.4,0-0.6,0.1c-0.2,0.1-0.4,0.2-0.6,0.2
		c-0.1,0-0.2,0.1-0.3,0.1c-0.1,0-0.2,0-0.3,0.1c-0.3,0.2-0.6,0.5-0.7,0.8s-0.4,0.6-0.7,0.7c0,0.2-0.1,0.4-0.3,0.6
		c-0.2,0.1-0.3,0.3-0.4,0.4c-0.7,2-1.2,3.5-1.5,4.6c-0.3,1.1-0.6,1.9-0.7,2.6c-0.1,0.6-0.2,1.1-0.3,1.5s-0.1,0.8-0.1,1.2
		c0,0,0,0.1-0.1,0.1s-0.1,0-0.1,0.1c0,0.5,0,1,0,1.3c-0.1,0.4-0.1,0.7,0,1.1c-0.1,0.1-0.2,0.3-0.1,0.5c-0.1,0-0.1,0.1-0.1,0.3
		c0,0.1,0,0.2-0.1,0.1c0.1,0.2,0.1,0.4,0,0.6s-0.1,0.4-0.1,0.7c0,0,0,0.1-0.1,0c0,0-0.1,0-0.1,0c0.1,0.4,0.1,0.8-0.1,1
		c0.1,0.2,0.1,0.5,0.1,0.7c0,0.2,0,0.6,0,0.9c0,0.5-0.1,0.9-0.1,1.2c0,0.3,0,0.6,0,1c0,0.3,0.1,0.6,0.1,0.7
		c-0.2,0.2-0.2,0.7-0.1,1.2c-0.2,0.3-0.3,0.7-0.1,1.1c-0.1-0.1-0.2-0.1-0.2-0.1c-0.1,0.1-0.2,0.3-0.3,0.4c-0.1,0.1-0.2,0.2-0.3,0.4
		c-0.1,0.1-0.4,0.2-0.8,0.3c-0.4,0.1-1,0.2-1.7,0.2c-0.7,0-1.8,0.1-3.1,0.1c0-0.1-0.1-0.3-0.2-0.3c-0.1-0.1-0.2-0.2-0.4-0.3
		c0-0.1,0-0.3,0-0.7c0-0.3-0.1-0.7-0.1-1.1c-0.1-0.4-0.2-0.7-0.3-1c-0.1-0.3-0.2-0.5-0.3-0.5c0-0.1,0.1-0.2,0.1-0.2
		c0,0,0-0.1-0.1-0.3c0,0,0.1-0.1,0.1-0.1c0,0,0.1,0,0.1-0.1c0,0-0.1,0-0.1,0.1c0,0-0.1-0.2,0-0.3c0-0.2,0-0.2-0.1-0.2
		c0-6,0.1-11.5,0.2-16.6c0-2.2,0.1-4.3,0.1-6.5c0-2.1,0-4.2,0.1-6c0-1.9,0-3.5,0.1-4.9c0-1.4,0-2.4,0-3c0-1.2,0-2.4-0.1-3.5
		c0-1.1-0.1-2.3-0.3-3.5c-0.1-0.4-0.1-1-0.1-1.6c0-0.7-0.1-1.2-0.4-1.6c-0.1-0.1-0.2-0.2-0.3-0.3c-0.1-0.1-0.2-0.2-0.3-0.3
		c-0.1,0-0.2,0-0.4-0.1c0.2,0,0.4,0,0.6,0c0.2,0,0.4,0,0.7,0.1c0.1,0,0.2,0.1,0.3,0.1c0.1,0,0.2,0.1,0.3,0.1H40c0,0,0.1,0.1,0.1,0.1
		c0,0,0,0.1,0.1,0.1c0.2,0.1,0.4,0.2,0.6,0.2c0.1,0,0.3,0.1,0.5,0.3l0.1,0.1v0.1c0.1,0.1,0.2,0.1,0.3,0.1s0.1,0,0.2,0.1l0.1,0.1v0.1
		c0.1,0.1,0.3,0.2,0.4,0.3c0.1,0.1,0.2,0.2,0.3,0.4c0.1,0,0.1,0,0.1,0c0,0,0,0,0.1,0c0.5,0.7,1,1.9,1.5,3.5c0.5,1.6,0.9,3.4,1.3,5.4
		c0.4,2,0.7,4,1,6.1c0.3,2.1,0.5,4,0.6,5.8s0.2,3.2,0.2,4.3c0,1.1-0.1,1.7-0.2,1.7c0.2,0.1,0.2,0.2,0.1,0.4c0.2,0.2,0.3,0.5,0.3,0.8
		c0,0.3-0.1,0.6-0.1,0.9h-0.1c0.1,0.2,0.2,0.5,0.2,0.8c0,0.3,0,0.5,0.1,0.8c0.1-0.6,0.3-1.2,0.5-1.8c0.2-0.6,0.4-1.1,0.5-1.8
		c0.3-0.6,0.7-1.1,1.2-1.7c0.5-0.6,1.1-1,1.7-1.4c0.6-0.4,1.3-0.7,2-0.8c0.7-0.1,1.5-0.1,2.3,0.1c0.3,0.2,0.7,0.5,1,0.8
		c0.3,0.3,0.6,0.6,0.9,0.9v0.4c0.5,0.7,0.8,1.4,0.8,2.2c0,0.8,0,1.6,0.1,2.4v0.1l-0.1,0.1c0.1,0.4,0.1,0.9,0,1.3
		c-0.1,0.4-0.2,0.8-0.3,1.2c0,0,0,0.1,0,0.1c0,0,0,0.1,0,0.2c0,0,0,0.2-0.1,0.4c0.1,0.3,0.1,0.7,0,1c-0.1,0.3-0.2,0.7-0.3,1
		c0,0.3-0.1,0.7,0,1c0,0.3,0,0.7,0,1c0,0.3-0.1,0.6-0.1,0.8c0,0.3-0.1,0.6-0.1,0.9v1.4c0,0.3,0,0.7,0.1,1.1c0,0.4,0.1,0.8,0.3,1.2
		c0.1,0.4,0.4,0.7,0.7,0.9c0.3,0.2,0.7,0.3,1.1,0.2c0.4-0.1,0.8-0.3,1.3-0.6c0.5-0.3,0.9-0.7,1.2-1.2c0.1-0.1,0.3-0.5,0.5-1
		c0.2-0.5,0.3-1.1,0.5-1.7c0.2-0.6,0.4-1.2,0.5-1.7c0.1-0.5,0.2-0.9,0.2-1c0.1-0.6,0.2-1,0.3-1.2l0.6-1.7c0.2-0.5,0.4-1.1,0.5-1.7
		c0.1,0,0.2-0.2,0.2-0.4c0-0.2,0.1-0.4,0.1-0.4c0,0.1,0.1,0.4,0.2,0.8c0,0-0.1,0.2-0.1,0.5C65.6,146.5,65.6,146.7,65.6,146.8z
		 M39.3,159.8C39.3,159.8,39.3,159.8,39.3,159.8c0.1,0,0.1,0,0.1-0.1C39.3,159.7,39.3,159.7,39.3,159.8
		C39.3,159.8,39.3,159.8,39.3,159.8z"/>
	<path class="st0" d="M86.8,132.2c0,0.3-0.1,0.6-0.1,0.9c0,0.3-0.1,0.6-0.2,0.9c-0.1,0.1-0.2,0.3-0.2,0.4c0,0.1-0.1,0.2-0.2,0.3
		c0,0.5-0.2,0.9-0.5,1.2s-0.6,0.6-0.9,0.8c-0.3,0.3-0.7,0.5-1,0.8c-0.3,0.2-0.5,0.5-0.7,0.9c-0.5,0.2-0.7,0.5-0.7,0.8
		c-0.2,0.1-0.4,0.2-0.5,0.3c0,0.1-0.2,0.4-0.6,1c-0.4,0.6-0.9,1.2-1.4,1.9c-0.5,0.7-1,1.3-1.5,1.8c-0.5,0.6-0.8,0.8-1,0.8
		c-1,0.5-1.6,0.8-1.8,0.9c-0.2,0.1-0.3,0.2-0.3,0.2c0,0,0,0.1-0.1,0.3s-0.5,0.5-1.2,1.1c-0.7,0.3-1.3,0.6-1.9,0.9
		c-0.6,0.3-1.3,0.5-2,0.5c-0.5,0-0.9-0.1-1.3-0.2c-0.4-0.1-0.9-0.1-1.3-0.2c-1.1-0.7-2.1-1.5-3-2.4c-0.9-0.9-1.4-2-1.7-3.4
		c0-0.2-0.1-0.4-0.1-0.5c0-0.2,0-0.3-0.1-0.5v-0.1v-0.1v-0.1c-0.1-1.2-0.1-2.3,0.1-3.4c0.2-1.1,0.5-2.1,0.9-3
		c0.4-0.9,0.7-1.7,1.1-2.3c0.4-0.6,0.6-1,0.8-1.1l0.1-0.1c0-0.1,0.2-0.3,0.4-0.5c0.1-0.1,0.2-0.3,0.3-0.4c0.1-0.1,0.3-0.3,0.4-0.4
		c0.4-0.6,1-1.1,1.7-1.7c0.8-0.5,1.5-1,2.2-1.3c0.2-0.1,0.4-0.1,0.7,0l0.1,0.1c0,0,0.1,0,0.1,0c0.1,0.1,0.2,0.2,0.3,0.2
		c0.1,0,0.2,0.1,0.3,0.1c0.1,0.2,0.3,0.3,0.5,0.4c0,0.2,0.1,0.3,0.2,0.3c0.1,0,0.3,0,0.4,0.1c0.1,0,0.3,0.2,0.6,0.4
		c0.2,0.2,0.4,0.4,0.5,0.5l-0.1,0.1l0.1,0.1c0.3,0.3,0.4,0.8,0.3,1.4c-0.1,0.7-0.3,1.3-0.5,2c-0.3,0.7-0.5,1.3-0.8,1.8
		c-0.3,0.5-0.4,0.8-0.4,0.9c0,0-0.1,0-0.1,0c0,0,0,0-0.1,0c0,0.2-0.1,0.4-0.3,0.5c-0.1,0.2-0.3,0.4-0.4,0.5
		c-0.2,0.2-0.4,0.4-0.5,0.6c-0.2,0.3-0.5,0.5-0.7,0.7c-0.1,0.1-0.2,0.2-0.2,0.3c0,0.1-0.1,0.2-0.2,0.3c-0.1,0.1-0.2,0.2-0.2,0.3H70
		c0,0,0,0.1,0,0.1c0,0,0,0,0,0.1c-0.1,0.1-0.2,0.2-0.2,0.3c0,0.1-0.1,0.2-0.2,0.3c0,0-0.1,0-0.1,0c0,0,0,0-0.1,0l-0.1,0.1
		c-0.1,0.1-0.3,0.2-0.5,0.3c-0.2,0.1-0.3,0.2-0.3,0.3c0,0,0,0.1,0,0.1c0,0-0.1,0-0.1,0c-0.1,0.1-0.2,0.2-0.4,0.2s-0.3,0.1-0.4,0.4
		c0,0,0-0.1,0,0c0,0,0,0,0,0c0,0-0.1,0.2-0.1,0.5c0,0.3-0.1,0.7-0.1,1c0,0.4-0.1,0.8-0.1,1.1c0,0.4,0,0.6,0.1,0.6h-0.1
		c0,0.1,0.1,0.2,0,0.3c0,0,0,0.1,0,0.3c0,0.1,0.1,0.3,0.2,0.5c0.1,0.2,0.4,0.5,0.8,1c0.4,0.1,0.7,0.2,1,0.3c0.3,0.1,0.6,0.1,1,0
		c0.4,0,0.8-0.1,1.2-0.3c0.4-0.1,0.8-0.3,1.2-0.4c0.4-0.2,0.8-0.5,1.1-0.7c0.4-0.2,0.7-0.5,0.9-0.7c0.3-0.2,0.6-0.5,0.9-0.9
		c0,0,0.1,0,0.1-0.1c0,0,0.1-0.1,0.1-0.1c0,0,0.1-0.1,0.1-0.1c0.2-0.2,0.5-0.4,0.9-0.8c0.4-0.3,0.6-0.5,0.8-0.7
		c0.2-0.2,0.4-0.4,0.6-0.5s0.3-0.3,0.5-0.5c0.4-0.4,0.9-0.8,1.3-1.2c0.4-0.4,0.8-0.8,1.2-1.3c0.4-0.4,0.9-0.9,1.3-1.3
		c0.4-0.4,0.9-0.8,1.3-1.3c0-0.1,0-0.1,0-0.1c0,0,0,0,0-0.1c0.4-0.2,0.7-0.6,1-1c0.3-0.4,0.7-0.8,1-1c0-0.1,0-0.2-0.1-0.3
		C86.4,132.6,86.7,132.4,86.8,132.2z M70,133.8c0,0.1,0.1,0.1,0,0.1c0,0,0,0,0,0.1c-0.3,0.2-0.5,0.5-0.6,0.8c-0.1,0.3-0.3,0.6-0.5,1
		v0.3h-0.1c-0.1,0.2-0.2,0.4-0.2,0.6c0,0.2-0.1,0.4-0.3,0.5v0.1c0,0.2-0.1,0.5-0.2,0.7c-0.1,0.2-0.1,0.4-0.1,0.7
		c0.1-0.2,0.2-0.4,0.4-0.6c0.1-0.2,0.3-0.4,0.4-0.6c0.2-0.2,0.4-0.4,0.5-0.6c0.1-0.2,0.3-0.4,0.4-0.6c0,0,0-0.1,0.1-0.2
		c0.1-0.1,0.3-0.3,0.4-0.5c0.1-0.2,0.3-0.4,0.4-0.6c0.1-0.2,0.2-0.3,0.3-0.3c0-0.1,0-0.1,0-0.1c0,0,0,0,0-0.1
		c0.2-0.2,0.4-0.5,0.5-0.7c0.1-0.2,0.3-0.5,0.5-0.7c0.3-0.4,0.5-0.8,0.8-1.3c0.2-0.5,0.3-1,0.4-1.6v-0.1c-0.2,0-0.3-0.1-0.4-0.3
		c-0.1-0.1-0.2-0.2-0.5-0.1L70,133.8z"/>
	<path class="st0" d="M84.8,125.8h0.1c0-0.9,0.1-2,0.6-3.3c0.4,0.2,0.7,0.5,1.1,0.7c0,0,0,0.1,0,0.1c0,0,0,0,0,0.1
		c0,0,0.1,0,0.1,0.1l0.1-0.1c0.3,0.2,0.6,0.5,0.7,0.8c0,0,0.1-0.1,0.1-0.2c0,0,0.1,0.1,0.1,0.1c0,0,0,0.1,0.1,0.1
		c0,0.2,0.2,0.4,0.3,0.6s0.3,0.3,0.5,0.4c0.2,0.6,0.3,1.2,0.3,1.9c0.1,0.4,0.2,0.9,0.3,1.3c0.1,0.5,0.2,0.9,0.2,1.4
		c0,0.2,0,0.5,0,0.7c0,0.2,0.1,0.4,0.1,0.7c0.1,0.2,0.2,0.5,0.3,0.7c0.1,0.2,0.1,0.4,0,0.6v5.1c0,0-0.2,0-0.4,0.1c0,0,0-0.1,0-0.1
		c0,0,0,0,0-0.1c0,0-0.1,0,0,0.1c0,0,0,0.1,0,0.1c0-0.1,0.1-0.1,0.1-0.1c0,0,0,0,0.1,0c0,0,0,0.1,0,0.1c-0.1,0-0.1,0.1,0,0.2V138
		l-0.1-0.1h0.2c0,0,0,0.1,0,0.1c0,0,0,0,0,0.1c0.1,0,0.1,0,0.1,0.1c0.4-0.5,0.7-1.1,1-1.7c0.3-0.6,0.6-1.1,1.1-1.5
		c0-0.3,0.3-0.6,0.7-0.8c0.4-0.2,0.5-0.5,0.4-0.9c0,0,0,0,0,0c0,0,0,0,0,0c0.2-0.3,0.5-0.4,0.8-0.3c0.4,0.1,0.7,0.1,1,0
		c0.2,0.2,0.5,0.4,0.7,0.5c0.2,0.1,0.4,0.3,0.6,0.5c-0.1,0.4-0.1,0.9,0,1.5c0.1,0.6,0,1.2-0.2,1.6c0,0,0.1,0,0.1-0.1
		c0.1,0.3,0.1,0.6,0,0.8c-0.1,0.2-0.1,0.4,0,0.6c-0.1,0.3-0.1,0.7-0.1,1.1c0,0.4,0.1,0.8,0.2,1.2c0.1,0.5,0.2,0.9,0.3,1.4
		c0.1,0.1,0.1,0.2,0.1,0.3s0.1,0.2,0.2,0.3h-0.1c0.3,0.4,0.7,0.7,0.9,0.7s0.6-0.1,0.9-0.3c0.3-0.2,0.6-0.4,0.9-0.7
		c0.3-0.3,0.7-0.5,1.1-0.7c0-0.1,0.2-0.3,0.5-0.5c0-0.1,0.1-0.2,0.1-0.2c0,0,0.1-0.1,0.1-0.3c0.1,0,0.2,0.1,0.2,0.1
		c0,0,0.1,0.1,0.2,0.2c0,0.1-0.1,0.2-0.2,0.3s-0.1,0.2,0,0.3c0,0-0.1,0-0.1,0.1c0,0-0.1,0-0.1-0.1c-0.1,0-0.1,0,0,0.1s0.1,0.1,0.2,0
		c0,0,0,0,0,0c-0.1,0-0.1,0.1,0,0.1c-0.1-0.1-0.1-0.1-0.1,0s0,0.1-0.1,0.1c0,0,0.1,0,0.1,0c0,0,0.1,0,0.1,0c0,0-0.1,0.1-0.1,0.2
		c0,0.1-0.1,0.1-0.2,0c0,0-0.1,0,0,0c0,0,0,0,0,0l0.1,0.1c0,0.1,0,0.1-0.1,0.1c0,0-0.1,0-0.1,0.1c-0.1,0-0.1,0-0.1-0.1
		c0,0,0-0.1-0.1-0.1c0,0.1,0,0.2,0.1,0.3c0,0.1-0.2,0.3-0.4,0.6c-0.2,0.2-0.4,0.5-0.7,0.7c-0.2,0.2-0.6,0.5-0.9,0.8l-2,0.2
		c-0.7-0.1-1.3-0.3-1.9-0.7c-0.6-0.4-1-0.8-1.3-1.3c-0.2-0.2-0.5-0.5-0.7-0.9c-0.2-0.3-0.4-0.7-0.5-0.9c-0.4-1-0.6-1.9-0.4-2.9
		c0.2-0.9,0.4-1.8,0.7-2.7c-0.2,0.1-0.4,0.4-0.5,0.7l-0.1-0.1c-0.1,0.3-0.3,0.7-0.5,1.1c-0.2,0.5-0.4,0.9-0.5,1.2h-0.1
		c0.1,0.1,0.1,0.2,0,0.4c-0.1,0.2-0.2,0.3-0.3,0.3c0.1,0.2,0.1,0.4,0,0.4c-0.1,0-0.2,0.1-0.3,0.2c-0.1,0.2-0.2,0.4-0.3,0.8
		c-0.1,0.3-0.2,0.6-0.3,0.8c0,0.1,0,0.2,0,0.4c0,0.2,0,0.3-0.1,0.3c0,0.2,0,0.3,0.1,0.4c0,0-0.1,0-0.1,0s0,0.1-0.1,0
		c0,0,0.1,0.1,0.2,0.1h-0.1c0,0-0.1,0.2,0,0.7c0,0.5,0.1,1,0.1,1.5c0,0.6,0.1,1.3,0.1,2.2c-0.1,0-0.1,0-0.1,0.1c0,0,0,0-0.1-0.1
		c0,0.4,0.1,0.7,0.1,1c0,0.2,0,0.5,0,0.7c0,0.2,0,0.4,0.1,0.4c-0.1,0-0.2,0-0.2,0c0,0.1,0,0.1,0.1,0.2c0,0,0,0.1,0,0.1h-0.1
		c0,0.1,0,0.1,0.1,0.1c-0.1,0.1-0.2,0.3-0.2,0.5c0,0.2-0.1,0.4-0.1,0.7c0,0.3-0.1,0.6-0.1,0.9l-0.1-0.1c0,0-0.1,0.1-0.1,0.1
		c0,0,0,0.1-0.1,0.1c0,0,0,0,0.1,0.1c0,0-0.1,0.1-0.1,0c0,0-0.1,0-0.1,0c0,0,0,0.1,0.1,0c0,0,0.1,0,0.1,0c0,0-0.1,0-0.1,0.1
		l-0.1-0.1c-0.7,0.7-1.2,1.2-1.5,1.4c-0.3,0.2-0.6,0.4-0.9,0.4c-0.2,0-0.5-0.1-0.7-0.2c-0.2-0.1-0.6-0.2-1.1-0.2
		c0-0.1-0.1-0.2-0.2-0.2c0,0,0.1,0.1,0.1,0c0,0,0,0,0.1,0c0,0.1,0,0.1,0,0.1c0,0-0.1-0.1-0.2-0.1v-0.1H84v-0.1c0,0,0-0.1,0.1-0.1
		c-0.1,0-0.1,0-0.1,0.1v0.1c-0.4,0-0.7-0.3-1-0.6c-0.3-0.4-0.5-0.7-0.7-1h0.1c0,0-0.1,0-0.2-0.1c0.1-0.3,0.2-0.6,0.1-1
		c0,0,0.1,0,0.1-0.1c0-0.1,0-0.2,0-0.3h0.1c0,0-0.1-0.1-0.1-0.4c0.1,0,0.1,0,0.1,0c0,0,0,0,0,0.1c0,0,0-0.1,0.1-0.1
		c0,0-0.1-0.1-0.2-0.1c0.1-0.1,0.1-0.3,0.1-0.4c0-0.1,0-0.3,0-0.5c0,0.1,0,0.1,0.1,0c0-0.1,0-0.1-0.1-0.1c0,0,0.1,0,0.1,0
		c0,0,0.1,0,0.1,0l-0.1-0.1c0-0.6,0.1-1.1,0.1-1.7c0-0.4,0.1-0.9,0.1-1.3c0-0.5,0-0.8,0-1l0.7-3.4c-0.1,0-0.1,0-0.1-0.1s0-0.1,0,0
		c0-0.4,0.1-0.7,0.1-1.1l0.1-1.2l0.6-5.8l-0.1,0.1c0-0.2,0-0.6,0.1-1.3c0-0.7,0.1-1.3,0.2-2.1c0.1-0.7,0.2-1.4,0.2-2.1
		C84.8,126.5,84.8,126.1,84.8,125.8z M85.3,151c0.1,0,0.1,0,0.1,0c0,0,0-0.1,0.1-0.1l-0.1-0.1c0,0,0,0.1,0,0.1
		C85.3,150.9,85.3,150.9,85.3,151z"/>
	<path class="st0" d="M125.3,132.2c0,0.3-0.1,0.6-0.1,0.9c0,0.3-0.1,0.6-0.2,0.9c-0.1,0.1-0.2,0.3-0.2,0.4c0,0.1-0.1,0.2-0.2,0.3
		c0,0.5-0.2,0.9-0.5,1.2s-0.6,0.6-0.9,0.8c-0.3,0.3-0.7,0.5-1,0.8c-0.3,0.2-0.5,0.5-0.7,0.9c-0.5,0.2-0.7,0.5-0.7,0.8
		c-0.2,0.1-0.4,0.2-0.5,0.3c0,0.1-0.2,0.4-0.6,1c-0.4,0.6-0.9,1.2-1.4,1.9c-0.5,0.7-1,1.3-1.5,1.8c-0.5,0.6-0.8,0.8-1,0.8
		c-1,0.5-1.6,0.8-1.8,0.9c-0.2,0.1-0.3,0.2-0.3,0.2c0,0,0,0.1-0.1,0.3s-0.5,0.5-1.2,1.1c-0.7,0.3-1.3,0.6-1.9,0.9
		c-0.6,0.3-1.3,0.5-2,0.5c-0.5,0-0.9-0.1-1.3-0.2c-0.4-0.1-0.9-0.1-1.3-0.2c-1.1-0.7-2.1-1.5-3-2.4c-0.9-0.9-1.4-2-1.7-3.4
		c0-0.2-0.1-0.4-0.1-0.5c0-0.2,0-0.3-0.1-0.5v-0.1v-0.1v-0.1c-0.1-1.2-0.1-2.3,0.1-3.4c0.2-1.1,0.5-2.1,0.9-3
		c0.4-0.9,0.7-1.7,1.1-2.3c0.4-0.6,0.6-1,0.8-1.1l0.1-0.1c0-0.1,0.2-0.3,0.4-0.5c0.1-0.1,0.2-0.3,0.3-0.4c0.1-0.1,0.3-0.3,0.4-0.4
		c0.4-0.6,1-1.1,1.7-1.7c0.8-0.5,1.5-1,2.2-1.3c0.2-0.1,0.4-0.1,0.7,0l0.1,0.1c0,0,0.1,0,0.1,0c0.1,0.1,0.2,0.2,0.3,0.2
		c0.1,0,0.2,0.1,0.3,0.1c0.1,0.2,0.3,0.3,0.5,0.4c0,0.2,0.1,0.3,0.2,0.3c0.1,0,0.3,0,0.4,0.1c0.1,0,0.3,0.2,0.6,0.4
		c0.2,0.2,0.4,0.4,0.5,0.5l-0.1,0.1l0.1,0.1c0.3,0.3,0.4,0.8,0.3,1.4c-0.1,0.7-0.3,1.3-0.5,2c-0.3,0.7-0.5,1.3-0.8,1.8
		c-0.3,0.5-0.4,0.8-0.4,0.9c0,0-0.1,0-0.1,0c0,0,0,0-0.1,0c0,0.2-0.1,0.4-0.3,0.5c-0.1,0.2-0.3,0.4-0.4,0.5
		c-0.2,0.2-0.4,0.4-0.5,0.6c-0.2,0.3-0.5,0.5-0.7,0.7c-0.1,0.1-0.2,0.2-0.2,0.3c0,0.1-0.1,0.2-0.2,0.3c-0.1,0.1-0.2,0.2-0.2,0.3
		h-0.1c0,0,0,0.1,0,0.1c0,0,0,0,0,0.1c-0.1,0.1-0.2,0.2-0.2,0.3c0,0.1-0.1,0.2-0.2,0.3c0,0-0.1,0-0.1,0c0,0,0,0-0.1,0l-0.1,0.1
		c-0.1,0.1-0.3,0.2-0.5,0.3c-0.2,0.1-0.3,0.2-0.3,0.3c0,0,0,0.1,0,0.1c0,0-0.1,0-0.1,0c-0.1,0.1-0.2,0.2-0.4,0.2s-0.3,0.1-0.4,0.4
		c0,0,0-0.1,0,0c0,0,0,0,0,0c0,0-0.1,0.2-0.1,0.5c0,0.3-0.1,0.7-0.1,1c0,0.4-0.1,0.8-0.1,1.1c0,0.4,0,0.6,0.1,0.6h-0.1
		c0,0.1,0.1,0.2,0,0.3c0,0,0,0.1,0,0.3c0,0.1,0.1,0.3,0.2,0.5c0.1,0.2,0.4,0.5,0.8,1c0.4,0.1,0.7,0.2,1,0.3c0.3,0.1,0.6,0.1,1,0
		c0.4,0,0.8-0.1,1.2-0.3c0.4-0.1,0.8-0.3,1.2-0.4c0.4-0.2,0.8-0.5,1.1-0.7c0.4-0.2,0.7-0.5,0.9-0.7c0.3-0.2,0.6-0.5,0.9-0.9
		c0,0,0.1,0,0.1-0.1c0,0,0.1-0.1,0.1-0.1c0,0,0.1-0.1,0.1-0.1c0.2-0.2,0.5-0.4,0.9-0.8c0.4-0.3,0.6-0.5,0.8-0.7
		c0.2-0.2,0.4-0.4,0.6-0.5s0.3-0.3,0.5-0.5c0.4-0.4,0.9-0.8,1.3-1.2c0.4-0.4,0.8-0.8,1.2-1.3c0.4-0.4,0.9-0.9,1.3-1.3
		c0.4-0.4,0.9-0.8,1.3-1.3c0-0.1,0-0.1,0-0.1c0,0,0,0,0-0.1c0.4-0.2,0.7-0.6,1-1c0.3-0.4,0.7-0.8,1-1c0-0.1,0-0.2-0.1-0.3
		C124.9,132.6,125.2,132.4,125.3,132.2z M108.5,133.8c0,0.1,0.1,0.1,0,0.1c0,0,0,0,0,0.1c-0.3,0.2-0.5,0.5-0.6,0.8
		c-0.1,0.3-0.3,0.6-0.5,1v0.3h-0.1c-0.1,0.2-0.2,0.4-0.2,0.6c0,0.2-0.1,0.4-0.3,0.5v0.1c0,0.2-0.1,0.5-0.2,0.7
		c-0.1,0.2-0.1,0.4-0.1,0.7c0.1-0.2,0.2-0.4,0.4-0.6c0.1-0.2,0.3-0.4,0.4-0.6c0.2-0.2,0.4-0.4,0.5-0.6c0.1-0.2,0.3-0.4,0.4-0.6
		c0,0,0-0.1,0.1-0.2c0.1-0.1,0.3-0.3,0.4-0.5c0.1-0.2,0.3-0.4,0.4-0.6c0.1-0.2,0.2-0.3,0.3-0.3c0-0.1,0-0.1,0-0.1c0,0,0,0,0-0.1
		c0.2-0.2,0.4-0.5,0.5-0.7c0.1-0.2,0.3-0.5,0.5-0.7c0.3-0.4,0.5-0.8,0.8-1.3c0.2-0.5,0.3-1,0.4-1.6v-0.1c-0.2,0-0.3-0.1-0.4-0.3
		c-0.1-0.1-0.2-0.2-0.5-0.1L108.5,133.8z"/>
	<path class="st0" d="M150.6,134.3c0,0.5,0,1-0.1,1.3c-0.1,0.4-0.3,0.7-0.6,1c-0.2,0.3-0.5,0.6-0.7,0.9c-0.2,0.3-0.3,0.6-0.4,1
		c-0.1,0.1-0.2,0.2-0.3,0.4c-0.1,0.2-0.2,0.4-0.1,0.5c-0.3,0.2-0.6,0.7-0.7,1.2c-0.1,0.6-0.4,1-0.7,1.2c-0.1,0.3-0.3,0.7-0.4,0.9
		c-0.2,0.5-0.4,1-0.6,1.5c-0.2,0.5-0.3,1-0.5,1.3c-0.1,0.3-0.3,0.6-0.6,0.9c-0.4,1.3-1,2.1-1.8,2.3c-0.8,0.2-1.5-0.2-2.1-1.2
		c-0.7-1-1.1-2.7-1.5-5c-0.3-2.3-0.3-5.3,0.1-9c0-0.1,0-0.2,0.1-0.3c0,0-0.1,0-0.1-0.2c0-0.2,0-0.3,0.1-0.3c0,0-0.1-0.1,0-0.1
		c0,0,0,0,0-0.1c0,0,0.1,0,0.1-0.1c0,0-0.1-0.2-0.1-0.3c0-0.2,0-0.3,0.1-0.4c0,0.1,0,0.1,0,0c0.1-0.1,0.1-0.1,0,0
		c0-0.8,0.2-1.6,0.4-2.4c0.2-0.8,0.4-1.6,0.5-2.4h0.1c0.2,0.2,0.4,0.3,0.6,0.2c0.1,0,0.2,0,0.2,0.1c0,0.1,0.1,0.1,0.1,0v0.1
		c0,0,0.1,0,0.1,0c0.1,0.1,0.3,0.2,0.5,0.3c0.2,0.1,0.3,0.2,0.4,0.4c0.2,0.1,0.5,0.4,0.8,0.9c0.3,0.5,0.5,0.8,0.6,0.9
		c0,0,0,0.5,0,1.5c0,0.9,0,2,0,3.1c0,1.3-0.1,2.8-0.1,4.6c0,0-0.1,0.2-0.1,0.5c0,0.3-0.1,0.7-0.2,1.1c-0.1,0.4-0.2,0.8-0.3,1.2
		c-0.1,0.4-0.2,0.6-0.2,0.6c0,0,0,0.1,0.1,0.1c0,0-0.1,0.2-0.2,0.6c-0.1,0.3-0.2,0.6-0.2,0.9c0,0.3,0,0.4,0.2,0.5
		c0.1,0,0.4-0.2,0.9-0.7c0.4-0.5,1.1-1.4,1.9-2.7c0.8-1.3,1.9-3.1,3.2-5.5c0-0.1,0-0.1,0-0.1s-0.1,0-0.1-0.1
		c0.3-0.3,0.6-0.7,0.8-1.2c0.2-0.4,0.4-0.8,0.6-1.2l-0.1-0.3c0.2-0.2,0.4-0.5,0.6-0.8c0,0.1,0,0.3,0,0.5c0,0.2,0,0.5,0,0.8
		c0,0.3,0,0.5,0,0.7C150.7,134.1,150.7,134.2,150.6,134.3z M139.9,132.7c0.1,0,0.1,0,0.1,0.1c0,0.1,0,0.1,0,0
		C140,132.6,139.9,132.6,139.9,132.7z M141,123.6L141,123.6c0-0.1,0-0.2,0.1-0.4c0-0.1,0.1-0.3,0.1-0.4c-0.1,0-0.1-0.1-0.1-0.1
		c0,0,0-0.1-0.1-0.1c0,0,0.1,0,0.1,0c0-0.1,0-0.1,0.1-0.1c0,0,0-0.1,0-0.1l-0.1-0.1c0-0.1,0-0.2,0.1-0.2c0,0,0-0.1,0-0.2h0.1
		c0-0.2,0-0.3,0.1-0.4c0.2-0.5,0.4-1.2,0.5-1.9l0.1,0.1c0.1,0,0.3,0,0.6,0s0.5,0.2,0.7,0.3c0.3,0.2,0.7,0.5,1,0.9
		c0.3,0.3,0.6,0.7,0.8,1.1v0.3c0.2,1,0,1.7-0.6,2.1c-0.6,0.4-1.2,0.6-1.9,0.7c-0.7,0-1.3-0.1-1.7-0.3c-0.4-0.2-0.3-0.5,0.3-0.8
		C141.1,123.9,141.1,123.8,141,123.6z"/>
	<path class="st0" d="M149,146.6c0.2-0.1,0.3-0.4,0.2-0.8l6.2-7.4c-0.1-0.3-0.3-0.5-0.5-0.7c-0.3-0.2-0.5-0.3-0.8-0.5
		c-0.2-0.3-0.6-0.6-1-0.8c-0.4-0.2-0.8-0.5-1.3-0.8c-0.5-0.3-0.9-0.6-1.2-0.9c-0.4-0.3-0.6-0.7-0.7-1.2c0-0.1-0.1-0.1-0.1-0.1
		c0,0-0.1,0-0.1-0.1h0.1c-0.1-0.5-0.2-0.9,0-1.3c0.1-0.4,0.3-0.8,0.6-1.2c0.3-0.4,0.5-0.7,0.8-1c0.3-0.3,0.5-0.7,0.6-0.9
		c0.4-0.2,0.7-0.4,0.9-0.7c0.2-0.3,0.5-0.5,0.9-0.6c0.1-0.1,0.2-0.2,0.2-0.3c0-0.1,0.1-0.2,0.3-0.2c0.1,0,0.2,0,0.2,0.1
		c0,0.1,0.1,0.1,0.2,0.2c0.3-0.1,0.4-0.2,0.4-0.2c0.2,0.2,0.6,0.4,1,0.4c0.4,0,0.7,0.2,0.9,0.6c0,0.1,0,0.2-0.1,0.2c0,0,0,0.1,0,0.3
		c-0.6,0.4-1.1,0.9-1.5,1.4c-0.4,0.6-1,1-1.7,1.4c-0.2,0.4-0.5,0.8-0.7,1.2c-0.2,0.4-0.4,0.7-0.5,1.1c0,0.4,0.3,0.8,0.6,1.1
		c0.4,0.3,0.8,0.5,1.2,0.8s0.9,0.4,1.3,0.7c0.4,0.2,0.8,0.5,1.1,0.8c0.2-0.2,0.6-0.7,1.1-1.2c0.5-0.6,1.1-1.2,1.6-1.9
		c0.6-0.7,1.1-1.3,1.6-1.9c0.5-0.6,0.8-1,0.9-1.3c0.2,0,0.3-0.1,0.4-0.3c0-0.1,0.1-0.2,0.3-0.3c0.2-0.4,0.5-0.8,0.9-1.2
		c0.4-0.3,0.7-0.7,1-1c0,0.2,0,0.5,0,0.7c0,0.2,0,0.5-0.1,0.7c-1.1,1.5-1.8,2.5-2.2,3s-0.8,0.9-1.1,1.2c-0.3,0.3-0.7,0.7-1.2,1.2
		c-0.5,0.5-1.2,1.4-2.3,2.9c0.2,0.2,0.5,0.4,0.7,0.6c0.2,0.2,0.5,0.4,0.7,0.6c0,0.2,0,0.3,0.1,0.4c0.1,0.1,0.2,0.2,0.3,0.3
		c0.1,0.2,0.2,0.4,0.3,0.7c0,0.3,0.1,0.5,0.2,0.8c0,0-0.1,0.1-0.1,0.1c0,0,0,0.1-0.1,0.1c0.1,0.6,0,1.3-0.4,2
		c-0.3,0.8-0.8,1.5-1.4,2.2c-0.6,0.7-1.3,1.3-2.1,1.8c-0.8,0.5-1.6,0.9-2.4,1.1c-0.8,0.2-1.6,0.1-2.3-0.1
		C150.1,148.3,149.5,147.7,149,146.6z M155.9,139.6L155.9,139.6c-0.3,0.2-0.5,0.4-0.6,0.6c-0.1,0.2-0.4,0.4-0.8,0.6c0,0,0,0.1,0,0.1
		c0,0,0,0.1,0,0.2l-3.7,5.2c0,0,0.1,0,0.1,0.1c-0.1,0.1-0.2,0.3-0.2,0.6c0.2,0.2,0.4,0.2,0.5,0.1c0.1-0.1,0.3-0.3,0.4-0.4
		c0.1-0.1,0.2-0.1,0.2-0.1c0,0,0.1,0,0.2-0.1c0.9-0.6,1.6-1.3,2.3-2.2c0.5-0.7,1-1.4,1.3-2.1C155.9,141.5,156,140.6,155.9,139.6z"/>
</g>
<g>
	<path class="st0" d="M83.8,115.6c0.1-1.3,0-1.2-1.5-4.3c-4.5-9.3-7.7-18.3-9.4-27c0.2-0.2-0.2-2.4-1.4-6.6c-1.8-10-3.3-19-4.3-27
		c-0.6-12.2-0.3-20.3,0.9-24.3c1.5-6.3,3-10.4,4.3-12.2c0.1-1.8,1.6-4.1,4.4-6.9c7.4-7.4,15.6-9.2,24.5-5.4c2,1.1,3.7,2.4,5.2,3.9
		l0.9,0.9c3.9,3.9,5.9,12.8,6.1,26.6c-1.4,10.1-5,23.1-10.8,38.9l-7.4,18.3 M101.9,7.6C95.8,3.8,92,2.7,90.6,4.1
		c-0.4-0.4-1.5,0-3.3,1.1l-0.3,0.3c0.2,0.2,2.2,0.2,5.9-0.2c1.7-0.3,3.8,0.8,6.3,3.3l2.6,2.6c0.9,0.9,2.3,2.4,4.1,4.5
		c-0.9-3.2-2.1-5.6-3.5-7C102.7,8.5,102.5,8.1,101.9,7.6z M104.7,38.2l0.9-0.9l1.1-0.2c-0.8-8.5-3.1-16.2-7-23.1L98.6,13
		c-1.7-1.1-2.7-1.8-2.8-1.9l-0.2,0.2c2,2.3,3.3,5.4,4.1,9.3l0.5,0.5c0.6-0.6,1.1-0.6,1.5-0.2l0.7,0.7c0.8,4.3,1.2,10.2,1.2,17.8
		c0.1,0.1,0.1,0.3-0.2,0.6l0.5,0.5C103.9,39.5,104.2,38.7,104.7,38.2z M90.3,13.9c-4.4-3.5-8.1-3.7-11.1-0.7l-1.1,0.7
		c-4.9,4.9-7.1,16.8-6.6,35.6c1.1,9.2,2.3,16.4,3.6,21.5c-0.6,0.6-0.4,2.1,0.7,4.6c1.6,10.1,4.7,20.1,9.3,30.2l0.2,0.2
		c1.2-1.2,2.1-6.2,2.8-15c0.9-1.6,1.8-5.8,2.9-12.4c1.2-4.3,2.3-10.3,3.3-18.1c0.3-0.3,0.7-4,1.3-11.3c0.5-1.8,0.6-4.7,0.2-8.5
		C96.7,27.4,94.8,18.4,90.3,13.9z M99.6,65.5l-0.7-0.7c-0.7,0.7-1,2.1-0.9,4.3l0.2-0.2C98.7,67,99.2,65.9,99.6,65.5z"/>
</g>
</svg>
