<?xml version="1.0" encoding="utf-8"?>
<!-- Generator: Adobe Illustrator 19.1.0, SVG Export Plug-In . SVG Version: 6.00 Build 0)  -->
<svg version="1.1" id="Layer_1" xmlns="http://www.w3.org/2000/svg" xmlns:xlink="http://www.w3.org/1999/xlink" x="0px" y="0px"
	 viewBox="-2435 1371.5 231.5 93.2" style="enable-background:new -2435 1371.5 231.5 93.2;" xml:space="preserve">
<style type="text/css">
	.st0{enable-background:new    ;}
	.st1{fill:#FFFFFF;}
</style>
<g class="st0">
	<path class="st1" d="M-2430.8,1388.5c0.1,0.4,0.3,0.6,0.7,0.6c-0.1-0.1-0.1-0.2-0.2-0.3c-0.1-0.1,0-0.2,0.1-0.3
		c0.4,0.4,0.9,0.8,1.4,1.2c0.5,0.4,1,0.9,1.4,1.3c1.5,1.5,2.4,2.9,2.9,4.1c0.4,1.2,0.6,2.3,0.6,3.3c0,1-0.1,1.9-0.3,2.7
		c-0.2,0.8-0.2,1.6,0.1,2.4c-0.1,0.3-0.2,1.2-0.2,2.7c0,1.5,0,3.3,0.1,5.3c0.1,2.1,0.2,4.3,0.3,6.6c0.2,2.3,0.3,4.5,0.6,6.5
		c0.2,2,0.5,3.7,0.7,5c0.3,1.4,0.6,2.1,0.9,2.2c0.1,0.2,0.1,0.3,0,0.4c-0.1,0.1-0.1,0.3,0,0.5c0.1,0,0.1,0,0.1,0c0,0,0,0,0.1,0
		c-0.1,0.1-0.1,0.2,0,0.4c0.1,0.2,0.1,0.3,0,0.4c0.2,0,0.2,0.1,0.3,0.3c0,0.2,0,0.4-0.1,0.5c0,0.1,0,0.1,0,0.1c0,0,0,0,0,0.1
		c0.1-0.1,0.1-0.1,0.1-0.1c-0.1,0-0.1,0,0-0.1c0.1,0.1,0.2,0.1,0.2,0.2s-0.1,0.2-0.2,0.2c0.1-0.1,0.1,0,0.2,0.1
		c0.1,0.1,0,0.2-0.1,0.2c0.2,0.1,0.2,0.2,0.1,0.3l0.1,0.1c0.1,0,0.1-0.1,0.1-0.3c0-0.1,0-0.2,0.1-0.1l2.1-12.8c0.1,0,0.1,0,0.1,0
		s0,0-0.1,0c0.1,0.1,0.1,0,0.1,0c0-0.1,0.1-0.1,0.1,0c0,0.2,0,0.2,0.1,0c0.1-0.1,0-0.2-0.1-0.4c0,0.1,0.1,0.2,0.1,0.2
		c-0.1-0.1-0.2-0.1-0.2,0c0,0.1-0.1,0.1-0.2,0.1l3.3-13.8l-0.2,0c-0.1-0.1-0.1-0.2,0-0.3c0.1-0.1,0.1-0.2,0.1-0.2
		c0.1-0.4,0.1-0.9,0.1-1.5c0-0.6,0.1-1,0.3-1.3l0,0.1c0.3-0.9,0.6-1.7,1-2.5c0.4-0.8,0.7-1.7,0.8-2.8l0.2,0c0.1-0.5,0.1-1.1,0.2-1.8
		c0.1-0.7,0.1-1.4,0.2-2.1c0.1-0.7,0.2-1.3,0.5-1.9c0.2-0.6,0.5-1,1-1.3c0.7,0.1,1.4,0.5,2,1.2c0.6,0.8,1,1.6,1.4,2.6
		c0.4,1,0.7,2,0.9,3c0.2,1,0.3,1.8,0.4,2.3l0.1,9.3c-0.1,0-0.1,0-0.1,0.1c0,0.1,0,0,0-0.1c0.1,0.2,0.1,0.4,0,0.6
		c-0.1,0.2-0.1,0.4,0,0.5c-0.2,0.2-0.3,0.8-0.3,1.9c0,1.1,0,2.4,0,3.7c0,1.6,0.1,3.3,0.1,5.1l0,0.1c0.1,0,0.1,0,0.1,0c0,0,0,0,0.1,0
		c-0.1,0.1-0.1,0.1,0,0.2c0.1,0.1,0.1,0.1,0.1,0c0.1,0.1,0.1,0.2,0.1,0.3c0,0.2,0,0.3,0,0.4c0-0.1,0-0.1-0.1-0.1
		c-0.1,0.1,0,0.2,0.1,0.2c0.1,0.1,0,0.1,0,0.1c-0.1,0-0.1,0-0.1,0c-0.1,0.1,0,0.2,0.1,0.2c0.1,0,0.1,0,0,0.1l0.1,0
		c0.1,0,0.1,0,0.1,0.1c0,0.1,0,0.1,0,0.1c0,0.1-0.1,0.1-0.2,0.1c0.1,0.1,0.1,0.1,0.2,0.1l-0.2,0.2c0.1,0.1,0.1,0.1,0.1,0
		c0-0.1,0-0.1,0,0c0,0.1,0,0.2-0.1,0.2c-0.1,0-0.1,0-0.1,0.1c0.1,0.1,0.1,0.1,0.2,0c0.1,0,0,0.1-0.2,0.3l0.2,0c0,2.2,0,3.7,0.1,4.5
		c0.1,0.8,0.2,1.2,0.4,1.1c0.2-0.1,0.4-0.5,0.6-1.2c0.2-0.7,0.4-1.5,0.5-2.4c0.2-0.9,0.3-1.6,0.4-2.3c0.1-0.7,0.2-1.1,0.2-1.1
		c0.1-0.1,0.1-0.1,0.1,0c0,0.1,0,0-0.1-0.1c0.4-1.1,0.7-2.1,0.9-3c0.2-0.9,0.5-1.8,0.8-2.8c0.3-1,0.6-2,0.8-2.8
		c0.2-0.9,0.4-1.6,0.6-2.3c0.2-0.6,0.2-1,0.2-1c0.1,0,0.2,0,0.2,0c0,0-0.1,0-0.2,0l4.9-20.6c0.1,0,0.2,0,0.2,0c0,0,0.1,0,0.2,0
		c-0.1-0.3,0-0.4,0.2-0.4c0.3,0,0.3,0.1,0.2,0.2c0.1-0.1,0.1-0.1,0.1,0c0,0.1,0.1,0.1,0.2,0.1c-0.1,0.1-0.1,0.2,0,0.2
		c0,0,0,0.1,0,0.1l0.2,0c-0.1,0.1-0.1,0.2,0,0.2c0.1,0,0.1,0,0.1,0.1c0,0.1,0,0.3,0,0.7c0,0.4-0.1,0.8-0.1,1.2
		c-0.1,0.5-0.1,1.1-0.2,1.6c-0.1,0.1-0.1,0.1-0.2,0c0,0.1,0,0.3-0.1,0.5c-0.1,0.2-0.2,0.5-0.2,0.7c-0.1,0.3-0.1,0.6-0.2,0.8
		c-0.1,0.3-0.1,0.5,0,0.6c-0.4,1.6-0.8,2.8-1,3.9c-0.2,1-0.5,2.1-0.7,3.1c-0.2,1-0.3,1.7-0.3,2.1c-0.1,0-0.1,0-0.1,0c0,0,0,0-0.1,0
		c0,0.1,0,0.5-0.1,1.1c-0.1,0.6-0.2,1.3-0.4,2c-0.2,0.7-0.3,1.4-0.5,2c-0.2,0.6-0.3,0.9-0.4,1c0,0.1,0,0.2-0.1,0.5
		c-0.1,0.3-0.2,0.6-0.2,0.9c-0.1,0.3-0.1,0.6-0.2,0.9c0,0.3,0,0.4,0,0.4c-0.1,0.1-0.1,0.1-0.2,0.1c-0.1,0,0,0.1,0.1,0.2
		c0,0.1-0.1,0.1-0.2,0c0.1,0.1,0,0.3,0,0.6c-0.1,0.3-0.2,0.6-0.3,1c-0.1,0.3-0.2,0.7-0.3,1c-0.1,0.3-0.1,0.5-0.1,0.6
		c-0.1-0.1-0.1-0.1-0.1,0c0.1,0.1,0,0.1-0.1,0.1c0.1,0.1,0.1,0.2,0,0.2c-0.1,0-0.1,0.1-0.1,0.2l0.1,0.1c0,0.1-0.1,0.3-0.2,0.9
		c-0.1,0.5-0.2,1.1-0.4,1.9c-0.2,0.7-0.3,1.5-0.5,2.3c-0.2,0.8-0.4,1.6-0.6,2.3c-0.2,0.7-0.4,1.3-0.5,1.7c-0.1,0.5-0.2,0.7-0.3,0.7
		c-0.3,2.3-0.8,4.2-1.4,5.6c-0.7,1.4-1.3,2.5-2,3.2c-0.7,0.7-1.3,1.2-1.8,1.4c-0.5,0.2-0.7,0.2-0.7,0c-0.1,0.1-0.2,0.2-0.2,0.2
		c-0.1,0-0.2,0-0.2-0.1c-0.1-0.1-0.1-0.1-0.2-0.2c0,0.1,0,0.1,0.1,0.2c0.1,0.1,0.1,0.1,0.1,0.2c-0.2,0-0.3,0-0.6,0
		c-0.2,0-0.4,0.1-0.5,0.2c-0.3,0-0.5,0-0.7-0.1c-0.2-0.1-0.3-0.3-0.3-0.5c-0.1,0-0.1,0-0.1,0c0,0,0,0-0.1,0c0-0.1,0-0.1,0.1-0.1
		c0.1,0,0.1,0,0.1-0.1c-0.2-0.5-0.3-1-0.6-1.4c-0.2-0.4-0.4-0.9-0.4-1.4l0.2,0c-0.1-0.2-0.2-0.6-0.3-1.2c-0.1-0.6-0.2-1.3-0.3-1.9
		c-0.1-0.6-0.1-1.2-0.1-1.7c0-0.5,0-0.7,0-0.7c-0.2,0-0.2-0.1-0.1-0.3c0,0.1,0,0.1,0.1,0c-0.1-0.1-0.2-0.5-0.2-1.4
		c0-0.9-0.1-1.9-0.1-2.9c0-1.1-0.1-2.1-0.1-3c0-0.9-0.1-1.5-0.1-1.6c0.1-0.1,0.2-0.1,0.2-0.1c0,0-0.1,0-0.2,0l0.2-0.1
		c0,0.1-0.1,0-0.2-0.1l0-0.1l0.2-0.1l-0.2-5.1l0.2,0c0-0.1,0-0.1,0-0.1c0,0,0,0,0,0.1c0-0.1,0-0.4,0-0.8c0-0.4,0-0.9,0-1.3
		s0-0.9,0.1-1.3c0-0.4,0.1-0.6,0.2-0.7c-0.1,0-0.1-0.2-0.1-0.7c0-0.5,0-1,0.1-1.6c0.1-0.5,0.1-1.3,0.2-2.3c-0.1,0.1-0.1,0.1-0.1,0.2
		c-0.1,0.1-0.1,0-0.1-0.1c-0.1,0.3-0.2,1-0.4,2.2c-0.2,1.2-0.5,2.4-0.7,3.8c-0.2,1.3-0.5,2.5-0.7,3.4c-0.2,1-0.4,1.3-0.4,1
		c0,0.1,0,0.2,0,0.4c0,0.2,0,0.3-0.1,0.3l0.1,0.1c-0.1,0-0.1,0-0.1,0.1c0,0.1,0,0.1,0.1,0.1c-0.1,0-0.1,0.1-0.2,0.4
		c-0.1,0.3-0.1,0.5-0.1,0.9c0,0.3-0.1,0.6-0.1,0.9c0,0.3,0,0.4,0,0.5c-0.1,0-0.2,0.1-0.2,0.2c0,0.1,0,0.1,0.1,0
		c-0.3,1.4-0.6,2.7-0.8,3.9c-0.2,1-0.4,2-0.5,2.9c-0.1,0.9-0.2,1.5-0.2,1.7c-0.1-0.1-0.2-0.1-0.2,0c0,0.1,0,0.1,0.2,0.2l-0.2,0
		c0,0.1,0,0.2,0,0.2c0,0,0,0.1,0,0.2c-0.2,0-0.2,0.2-0.1,0.5c-0.1,0-0.1,0.2-0.2,0.5c-0.1,0.4-0.2,0.8-0.3,1.2
		c-0.1,0.4-0.2,0.8-0.4,1.2c-0.1,0.4-0.2,0.6-0.3,0.6c0,0.4,0,0.8-0.1,1.2c-0.1,0.4-0.2,0.7-0.3,1c-0.1,0-0.1,0-0.1,0.1
		c0,0.1,0,0.1-0.1,0.1c0,0.1,0,0.2,0,0.3c0,0.1,0,0.2,0,0.3c0,0.2,0,0.4-0.1,0.6c-0.1,0.2-0.1,0.4-0.2,0.6c-0.1,0.2-0.1,0.4-0.1,0.6
		c0,0.2,0.1,0.3,0.3,0.4c-0.1,0.1-0.1,0.2-0.1,0.2c0,0.1,0.1,0.1,0.2,0.1c-0.1,0-0.1,0-0.1,0.1c0,0.1,0.1,0.1,0.2,0
		c0.3,0.3,0.4,0.6,0.5,1c0,0.4,0,0.8-0.1,1.2c-0.1,0.4-0.2,0.8-0.3,1c-0.1,0.3-0.2,0.5-0.2,0.5c-0.7,0.4-1.5,0.6-2.2,0.8
		c-0.6,0.2-1.3,0.3-2.1,0.4c-0.8,0-1.5-0.1-2.2-0.3l0.1-0.1c-0.4,0.1-0.8-0.3-1.2-1.3c-0.4-1-0.8-2.2-1.1-3.7
		c-0.4-1.5-0.7-3.1-1-4.9c-0.3-1.8-0.6-3.5-0.8-5c-0.2-1.5-0.4-2.8-0.5-3.9c-0.1-1.1-0.2-1.6-0.2-1.7l-0.2,0l-1.4-11.5
		c0.1-0.3,0.2-0.7,0.2-1.3c0-0.6,0-1.3-0.1-2c0-0.8-0.1-1.7-0.1-2.7c0.1,0,0-0.1-0.2-0.2l0.1-6.5c-0.1,0.1-0.1-0.2-0.1-1
		c0-0.8,0-1.6,0.1-2.5c0-0.9,0.1-1.8,0.1-2.7c0.1-0.9,0.2-1.4,0.3-1.6c-0.1-0.2-0.1-0.5,0-0.9c0.1-0.5,0.2-0.9,0.2-1.3
		c0-0.3,0-0.6,0-0.9s0-0.6-0.1-0.8c0.2-0.3,0.4-0.3,0.5,0c0.1,0.2,0.3,0.3,0.5,0.2c-0.1-0.1,0-0.2,0-0.2
		C-2430.9,1388.6-2430.8,1388.5-2430.8,1388.5L-2430.8,1388.5z M-2426.5,1444.8c-0.1-0.1-0.1-0.1-0.1,0c0,0-0.1,0-0.1,0l-0.1,0.1
		c0.1-0.1,0.1,0,0.2,0C-2426.6,1444.9-2426.5,1444.9-2426.5,1444.8z M-2426.6,1437.1L-2426.6,1437.1L-2426.6,1437.1
		c0,0.1,0,0.1,0,0.2c-0.1,0.1-0.1,0.1,0,0.2c-0.1-0.1-0.1-0.2,0-0.2C-2426.5,1437.2-2426.5,1437.2-2426.6,1437.1z M-2424.1,1415.8
		C-2424.1,1415.7-2424.1,1415.7-2424.1,1415.8c0.1-0.1,0.1-0.1,0.1-0.2l-0.2-0.2C-2424.2,1415.5-2424.2,1415.6-2424.1,1415.8z"/>
	<path class="st1" d="M-2362.3,1427.1c-0.1,0-0.1,0.2-0.1,0.5c0,0.3-0.1,0.7-0.2,1.1c-0.1,0.5-0.2,1.1-0.3,1.6
		c-0.1,0.2-0.1,0.4-0.1,0.6c0,0.2,0,0.3-0.1,0.4c0,0.1-0.1,0.4-0.2,0.9c-0.2,0.5-0.4,1-0.6,1.7c-0.3,0.7-0.6,1.4-0.9,2.2
		c-0.3,0.8-0.7,1.5-1.1,2.2c-0.4,0.6-0.8,1-1.2,1.3c-0.4,0.3-0.9,0.5-1.4,0.6c-0.5,0-1-0.1-1.6-0.4c-0.6-0.3-1.2-0.9-1.8-1.8
		c-0.7-0.9-1.2-2-1.3-3.4c-0.2-1.4-0.2-2.7-0.2-3.9c0.1-1.1,0.1-2.2,0.2-3.4c0.1-1.2,0.2-2.3,0.5-3.3c0.2-0.9,0.3-2,0.3-3.1
		c0-0.3,0-0.6,0-0.9c0-0.3,0-0.6,0-0.8c-0.1-0.6-0.3-1.1-0.6-1.4c-0.3-0.4-0.7-0.6-1.3-0.6c-0.2,0-0.4,0-0.6,0.1
		c-0.2,0.1-0.4,0.2-0.6,0.2c-0.1,0.1-0.2,0.1-0.3,0.1c-0.1,0-0.2,0-0.3,0.1c-0.4,0.2-0.6,0.5-0.8,0.9c-0.2,0.4-0.4,0.6-0.8,0.7
		c0,0.3-0.1,0.5-0.3,0.6c-0.2,0.2-0.3,0.3-0.4,0.5c-0.8,2.1-1.3,3.8-1.7,4.9c-0.4,1.2-0.6,2.1-0.8,2.8c-0.2,0.7-0.3,1.2-0.3,1.6
		c-0.1,0.4-0.1,0.8-0.2,1.3c0,0.1,0,0.1-0.1,0.1c-0.1,0-0.1,0-0.1,0.1c0,0.6,0,1.1-0.1,1.4c-0.1,0.4-0.1,0.8,0,1.2
		c-0.2,0.2-0.2,0.3-0.2,0.5c-0.1,0.1-0.1,0.1-0.1,0.3c0,0.1,0,0.2-0.1,0.1c0.1,0.2,0.1,0.4,0,0.7c-0.1,0.2-0.1,0.5-0.1,0.7
		c0,0.1,0,0.1-0.1,0c-0.1,0-0.1,0-0.1,0c0.1,0.5,0.1,0.8-0.1,1.1c0.1,0.3,0.1,0.5,0.1,0.8c0,0.3,0,0.6,0,1c-0.1,0.5-0.1,0.9-0.1,1.3
		c0,0.3,0,0.7,0,1.1c0,0.4,0.1,0.6,0.1,0.8c-0.2,0.3-0.3,0.7-0.2,1.3c-0.3,0.3-0.3,0.7-0.2,1.2c-0.1-0.1-0.2-0.2-0.2-0.2
		c-0.1,0.2-0.2,0.3-0.3,0.4c-0.1,0.1-0.2,0.2-0.3,0.4c-0.1,0.1-0.4,0.2-0.9,0.3c-0.4,0.1-1,0.2-1.8,0.2c-0.8,0-1.9,0.1-3.4,0
		c-0.1-0.2-0.1-0.3-0.2-0.4c-0.1-0.1-0.2-0.2-0.4-0.3c0-0.1,0-0.3,0-0.7c0-0.4-0.1-0.8-0.1-1.2c-0.1-0.4-0.2-0.8-0.3-1.1
		c-0.1-0.3-0.2-0.5-0.3-0.6c0.1-0.1,0.1-0.2,0.2-0.2c0.1-0.1,0-0.2-0.1-0.3c0.1-0.1,0.1-0.1,0.2-0.1c0.1,0,0.1-0.1,0.1-0.2
		c-0.1,0-0.1,0.1-0.1,0.2c-0.1-0.1-0.1-0.2,0-0.4c0-0.2,0-0.2-0.1-0.2c0.1-6.4,0.3-12.4,0.4-17.9c0.1-2.3,0.1-4.7,0.2-7
		c0-2.3,0.1-4.5,0.1-6.5c0-2,0.1-3.8,0.1-5.3c0-1.5,0.1-2.6,0.1-3.3c0-1.3,0-2.6,0-3.8c0-1.2-0.1-2.5-0.3-3.8
		c-0.1-0.5-0.1-1.1-0.1-1.8c0.1-0.7-0.1-1.3-0.4-1.7c-0.1-0.1-0.2-0.2-0.3-0.3c-0.1-0.1-0.2-0.2-0.3-0.4c-0.1,0-0.3-0.1-0.5-0.2
		c0.2,0,0.4,0,0.6,0c0.2,0,0.4,0,0.7,0.1c0.1,0.1,0.2,0.1,0.3,0.2c0.1,0.1,0.2,0.1,0.3,0.2l0.5,0c0.1,0.1,0.1,0.1,0.1,0.1
		c0,0,0,0.1,0.1,0.1c0.3,0.1,0.5,0.2,0.6,0.2c0.2,0.1,0.3,0.2,0.5,0.3l0.1,0.1l0,0.1c0.1,0.1,0.2,0.2,0.3,0.2c0.1,0,0.1,0,0.2,0.1
		l0.1,0.1l0,0.1c0.2,0.1,0.3,0.2,0.4,0.3c0.1,0.1,0.2,0.2,0.3,0.4c0.1,0,0.2,0,0.2,0c0,0,0,0,0.1,0c0.6,0.8,1.1,2,1.6,3.8
		c0.5,1.7,0.9,3.7,1.3,5.8c0.4,2.1,0.7,4.3,1,6.6c0.3,2.3,0.5,4.4,0.6,6.2c0.1,1.9,0.2,3.4,0.2,4.6c0,1.2-0.1,1.8-0.3,1.8
		c0.2,0.1,0.2,0.2,0.1,0.4c0.3,0.3,0.4,0.5,0.3,0.9c-0.1,0.3-0.1,0.6-0.1,1l-0.2,0c0.2,0.3,0.2,0.5,0.2,0.8c0,0.3,0,0.6,0.1,0.8
		c0.2-0.7,0.4-1.3,0.6-1.9c0.2-0.6,0.4-1.2,0.6-1.9c0.3-0.6,0.8-1.2,1.3-1.8c0.6-0.6,1.2-1.1,1.8-1.5c0.7-0.4,1.4-0.7,2.2-0.8
		c0.8-0.1,1.6-0.1,2.5,0.1c0.4,0.3,0.7,0.5,1.1,0.8c0.4,0.3,0.7,0.6,0.9,1l0,0.4c0.6,0.7,0.8,1.5,0.8,2.3c0,0.8,0,1.7,0.1,2.6l0,0.1
		l-0.1,0.2c0.1,0.5,0.1,0.9-0.1,1.4c-0.1,0.4-0.3,0.9-0.4,1.3c0,0.1,0,0.1,0,0.1c0,0,0,0.1,0,0.2c0,0.1-0.1,0.2-0.2,0.4
		c0.1,0.4,0.1,0.7,0,1.1c-0.1,0.3-0.2,0.7-0.3,1.1c-0.1,0.4-0.1,0.7,0,1.1c0,0.3,0,0.7-0.1,1.1c-0.1,0.3-0.1,0.6-0.1,0.9
		c0,0.3-0.1,0.6-0.1,1l0,1.6c0,0.3,0,0.7,0.1,1.2c0,0.5,0.1,0.9,0.3,1.3c0.2,0.4,0.4,0.8,0.7,1c0.3,0.3,0.7,0.3,1.2,0.2
		c0.4-0.1,0.9-0.3,1.4-0.6c0.5-0.3,1-0.7,1.3-1.3c0.2-0.2,0.3-0.5,0.5-1c0.2-0.5,0.4-1.1,0.6-1.8c0.2-0.6,0.4-1.3,0.6-1.8
		c0.2-0.6,0.2-0.9,0.2-1.1c0.2-0.6,0.3-1,0.3-1.2l0.6-1.9c0.2-0.6,0.4-1.2,0.6-1.9c0.1,0,0.2-0.2,0.2-0.5c0-0.3,0.1-0.4,0.1-0.5
		c0,0.2,0.1,0.4,0.2,0.9c-0.1,0.1-0.1,0.2-0.1,0.6C-2362.3,1426.8-2362.3,1427-2362.3,1427.1z M-2390.8,1440.8
		C-2390.8,1440.8-2390.7,1440.8-2390.8,1440.8c0.1,0.1,0.2,0,0.2-0.1C-2390.8,1440.8-2390.8,1440.8-2390.8,1440.8
		C-2390.8,1440.8-2390.8,1440.8-2390.8,1440.8z"/>
	<path class="st1" d="M-2339.3,1411.6c-0.1,0.3-0.1,0.6-0.2,0.9c-0.1,0.3-0.1,0.6-0.2,0.9c-0.1,0.2-0.2,0.3-0.2,0.5
		c0,0.2-0.1,0.3-0.2,0.3c-0.1,0.6-0.2,1-0.5,1.3c-0.3,0.3-0.6,0.6-1,0.9c-0.4,0.3-0.7,0.6-1.1,0.8c-0.3,0.3-0.6,0.6-0.7,0.9
		c-0.5,0.2-0.8,0.5-0.8,0.8c-0.3,0.1-0.4,0.2-0.5,0.3c0,0.1-0.2,0.5-0.7,1.1c-0.4,0.6-1,1.3-1.5,2c-0.6,0.7-1.1,1.4-1.7,2
		c-0.5,0.6-0.9,0.9-1.1,0.9c-1.1,0.5-1.7,0.8-2,0.9c-0.2,0.1-0.3,0.2-0.3,0.2c0,0-0.1,0.1-0.2,0.3c-0.1,0.2-0.6,0.5-1.3,1.2
		c-0.7,0.3-1.4,0.6-2.1,1c-0.7,0.4-1.4,0.5-2.1,0.5c-0.5-0.1-1-0.1-1.4-0.2c-0.4-0.1-0.9-0.2-1.4-0.2c-1.2-0.7-2.2-1.6-3.2-2.6
		c-0.9-1-1.5-2.2-1.8-3.7c-0.1-0.2-0.1-0.4-0.1-0.6c0-0.2,0-0.4-0.1-0.6l0-0.1l0-0.1l0-0.1c-0.1-1.2-0.1-2.5,0.2-3.7
		c0.2-1.2,0.6-2.3,1-3.3c0.4-1,0.8-1.8,1.2-2.5c0.4-0.7,0.7-1.1,0.8-1.2l0.1-0.2c0.1-0.1,0.2-0.3,0.5-0.5c0.1-0.2,0.2-0.3,0.4-0.5
		c0.1-0.2,0.3-0.3,0.4-0.4c0.4-0.6,1.1-1.2,1.9-1.8c0.8-0.6,1.6-1,2.4-1.4c0.2-0.1,0.4-0.1,0.7,0l0.2,0.2c0.1,0.1,0.1,0.1,0.2,0
		c0.1,0.1,0.2,0.2,0.3,0.2c0.1,0.1,0.2,0.1,0.3,0.2c0.1,0.2,0.3,0.3,0.5,0.4c0,0.2,0.1,0.3,0.2,0.3c0.2,0,0.3,0,0.4,0.1
		c0.2,0.1,0.4,0.2,0.6,0.4c0.3,0.2,0.4,0.4,0.5,0.6l-0.1,0.1l0.2,0.1c0.3,0.3,0.4,0.8,0.3,1.5c-0.1,0.7-0.3,1.4-0.6,2.1
		c-0.3,0.7-0.6,1.4-0.9,1.9c-0.3,0.6-0.5,0.9-0.5,0.9c-0.1,0-0.1,0-0.1,0c0,0,0,0-0.1,0c-0.1,0.2-0.1,0.4-0.3,0.6
		c-0.1,0.2-0.3,0.4-0.4,0.6c-0.2,0.2-0.4,0.4-0.6,0.6c-0.3,0.3-0.5,0.6-0.7,0.8c-0.1,0.1-0.2,0.2-0.2,0.3c-0.1,0.1-0.1,0.2-0.2,0.3
		c-0.1,0.1-0.2,0.2-0.2,0.3l-0.1,0c0,0.1,0,0.1,0,0.1c0,0,0,0,0,0.1c-0.1,0.1-0.2,0.2-0.2,0.3c-0.1,0.1-0.1,0.2-0.2,0.3
		c-0.1,0-0.1,0-0.1,0c0,0,0,0-0.1,0l-0.2,0.2c-0.2,0.1-0.3,0.2-0.5,0.3c-0.2,0.1-0.3,0.2-0.3,0.3c0.1,0.1,0.1,0.1,0,0.1
		c-0.1,0-0.1,0-0.2,0c-0.1,0.2-0.2,0.2-0.4,0.2c-0.2,0-0.3,0.1-0.4,0.4c0-0.1,0-0.1,0,0c0,0,0,0,0,0c-0.1,0.1-0.1,0.2-0.1,0.6
		c0,0.3-0.1,0.7-0.1,1.1c-0.1,0.4-0.1,0.8-0.1,1.2c0,0.4,0,0.6,0.1,0.7l-0.1,0c0,0.2,0.1,0.3,0,0.3c0,0.1,0,0.1,0,0.3
		c0,0.1,0.1,0.3,0.2,0.5c0.1,0.2,0.4,0.6,0.8,1.1c0.4,0.1,0.8,0.2,1.1,0.3c0.3,0.1,0.7,0.1,1.1,0c0.4,0,0.8-0.1,1.3-0.3
		c0.4-0.2,0.9-0.3,1.3-0.5c0.4-0.3,0.8-0.5,1.2-0.8s0.7-0.5,1-0.8c0.3-0.3,0.6-0.6,0.9-0.9c0.1,0,0.1,0,0.2-0.1
		c0.1-0.1,0.1-0.1,0.2-0.1c0.1,0,0.1-0.1,0.2-0.1c0.3-0.2,0.6-0.5,1-0.8c0.4-0.3,0.7-0.6,0.9-0.7c0.3-0.2,0.5-0.4,0.7-0.5
		c0.2-0.2,0.4-0.3,0.6-0.5c0.5-0.4,0.9-0.8,1.4-1.3c0.5-0.4,0.9-0.9,1.3-1.3c0.5-0.5,0.9-0.9,1.4-1.3c0.5-0.4,0.9-0.9,1.4-1.3
		c0.1-0.1,0.1-0.2,0-0.2c-0.1,0-0.1-0.1,0-0.2c0.4-0.3,0.8-0.6,1.1-1c0.3-0.4,0.7-0.8,1.1-1.1c0-0.2,0-0.3-0.1-0.3
		C-2339.7,1412.1-2339.4,1411.8-2339.3,1411.6z M-2357.4,1413.2c0.1,0.1,0.1,0.2,0,0.2c0,0,0,0.1,0,0.2c-0.3,0.3-0.5,0.6-0.7,0.9
		c-0.1,0.3-0.3,0.7-0.6,1l0,0.3l-0.2,0c-0.2,0.2-0.2,0.4-0.2,0.6c0,0.2-0.1,0.4-0.3,0.5l0,0.2c-0.1,0.3-0.1,0.5-0.2,0.7
		c-0.1,0.2-0.2,0.5-0.2,0.7c0.1-0.3,0.2-0.5,0.4-0.7c0.2-0.2,0.3-0.4,0.4-0.7c0.2-0.2,0.4-0.4,0.6-0.6c0.2-0.2,0.3-0.4,0.4-0.6
		c0-0.1,0.1-0.1,0.2-0.2c0.2-0.2,0.3-0.3,0.5-0.5c0.2-0.2,0.3-0.4,0.4-0.6c0.1-0.2,0.2-0.3,0.3-0.3c0-0.1,0-0.2,0-0.2c0,0,0,0,0-0.1
		c0.3-0.3,0.5-0.5,0.6-0.8c0.1-0.3,0.3-0.5,0.5-0.8c0.3-0.4,0.6-0.9,0.8-1.4c0.2-0.5,0.4-1.1,0.4-1.7l0-0.1
		c-0.2-0.1-0.3-0.1-0.4-0.3c-0.1-0.1-0.2-0.2-0.5-0.1L-2357.4,1413.2z"/>
	<path class="st1" d="M-2341.4,1404.8l0.2,0c0-1,0.2-2.2,0.7-3.6c0.4,0.3,0.8,0.5,1.2,0.8c0,0.1,0,0.1,0,0.1c0,0,0,0,0,0.1
		c0.1-0.1,0.1,0,0.1,0.1l0.2-0.2c0.4,0.3,0.6,0.6,0.8,0.9c0.1,0,0.1-0.1,0.1-0.2c0.1,0.1,0.1,0.1,0.2,0.1c-0.1,0.1,0,0.1,0.1,0.2
		c0,0.3,0.2,0.5,0.3,0.6c0.2,0.2,0.3,0.3,0.5,0.5c0.2,0.6,0.3,1.3,0.3,2c0.1,0.5,0.2,1,0.3,1.4c0.1,0.5,0.2,1,0.2,1.5
		c0,0.3,0,0.5,0,0.7c0,0.2,0.1,0.5,0.1,0.7c0.1,0.3,0.2,0.5,0.3,0.8c0.1,0.3,0.1,0.5,0,0.6l-0.1,5.5c-0.1,0-0.2,0.1-0.4,0.2
		c0-0.1,0-0.1,0-0.1c0,0,0,0,0-0.1c-0.1,0-0.1,0,0,0.1c0,0.1,0,0.1,0,0.2c0.1-0.1,0.1-0.1,0.1-0.1c0,0.1,0,0.1,0.1,0
		c0.1,0.1,0,0.1,0,0.2c-0.1,0.1-0.1,0.1,0,0.2l0-0.1l-0.1-0.1l0.2,0c0.1,0.1,0.1,0.1,0,0.1c-0.1,0-0.1,0,0,0.1c0.1,0,0.2,0,0.2,0.1
		c0.4-0.6,0.8-1.2,1.1-1.8c0.3-0.6,0.7-1.2,1.2-1.6c0.1-0.4,0.3-0.6,0.7-0.8c0.4-0.2,0.6-0.5,0.4-1c0-0.1,0-0.1,0,0c0,0.1,0,0.1,0,0
		c0.2-0.4,0.5-0.5,0.9-0.3c0.4,0.1,0.8,0.2,1.1,0.1c0.3,0.2,0.5,0.4,0.7,0.5c0.2,0.1,0.5,0.3,0.7,0.6c-0.1,0.4-0.1,1-0.1,1.6
		c0.1,0.7,0,1.2-0.2,1.7c0.1,0,0.1,0,0.1-0.1c0.1,0.3,0.1,0.6,0,0.9c-0.1,0.3-0.1,0.5,0,0.6c-0.1,0.4-0.1,0.8-0.1,1.2
		c0,0.4,0.1,0.9,0.2,1.3c0.1,0.5,0.2,1,0.3,1.5c0.1,0.1,0.2,0.2,0.2,0.3c0,0.1,0.1,0.2,0.2,0.3l-0.1,0c0.4,0.5,0.7,0.7,1,0.7
		c0.3,0,0.6-0.1,1-0.3c0.3-0.2,0.7-0.5,1-0.8c0.3-0.3,0.7-0.6,1.2-0.8c0.1-0.2,0.2-0.3,0.6-0.5c0.1-0.1,0.1-0.2,0.2-0.2
		c0.1-0.1,0.1-0.2,0.1-0.3c0.1,0.1,0.2,0.1,0.2,0.2c0,0.1,0.1,0.1,0.2,0.2c-0.1,0.1-0.1,0.2-0.2,0.3s-0.1,0.2,0,0.3
		c-0.1,0-0.1,0-0.2,0.1c-0.1,0.1-0.1,0-0.1-0.1c-0.1,0-0.1,0,0,0.1c0.1,0.1,0.1,0.1,0.2,0c0.1,0,0,0,0,0c-0.1,0-0.1,0.1,0,0.1
		c-0.1-0.1-0.2-0.1-0.2,0s-0.1,0.1-0.2,0.1c0.1,0.1,0.1,0.1,0.1,0c0-0.1,0.1-0.1,0.1,0c-0.1,0-0.1,0.1-0.2,0.2
		c-0.1,0.1-0.1,0.1-0.2,0c-0.1,0-0.1,0,0,0c0,0,0,0,0,0l0.1,0.1c0,0.1,0,0.2-0.1,0.2c-0.1,0-0.1,0.1-0.2,0.2c-0.1,0-0.1,0-0.1-0.1
		c0-0.1,0-0.1-0.1-0.2c0,0.2,0,0.3,0.2,0.3c-0.1,0.2-0.2,0.4-0.4,0.6c-0.2,0.3-0.5,0.5-0.7,0.7c-0.3,0.2-0.6,0.5-1,0.8l-2.1,0.2
		c-0.7-0.1-1.4-0.4-2.1-0.8c-0.6-0.4-1.1-0.9-1.3-1.4c-0.3-0.3-0.5-0.6-0.7-0.9c-0.2-0.4-0.4-0.7-0.5-1c-0.5-1-0.6-2.1-0.4-3.1
		c0.2-1,0.4-2,0.8-2.9c-0.3,0.2-0.4,0.4-0.6,0.7l-0.1-0.1c-0.1,0.3-0.3,0.7-0.5,1.2c-0.2,0.5-0.4,0.9-0.6,1.3l-0.2,0
		c0.1,0.1,0.1,0.2,0,0.4c-0.1,0.2-0.2,0.3-0.3,0.3c0.1,0.3,0.1,0.4,0,0.5c-0.1,0.1-0.2,0.1-0.3,0.2c-0.1,0.2-0.2,0.5-0.4,0.8
		c-0.1,0.3-0.2,0.6-0.3,0.9c0,0.1,0,0.2,0,0.4c0,0.2-0.1,0.3-0.2,0.3c0,0.2,0,0.3,0.1,0.4c-0.1-0.1-0.1,0-0.1,0c0,0.1,0,0.1-0.1,0
		c0,0.1,0.1,0.1,0.2,0.2l-0.1,0c-0.1,0-0.1,0.3,0,0.8c0,0.5,0.1,1.1,0.1,1.6c0,0.7,0.1,1.5,0.1,2.3c-0.1,0-0.2,0-0.2,0.1
		c0,0.1,0,0-0.1-0.1c0,0.4,0.1,0.8,0.1,1.1c0,0.3,0,0.5,0,0.8c0,0.3,0,0.4,0.1,0.5c-0.1-0.1-0.2,0-0.2,0c0,0.1,0,0.1,0.1,0.2
		c-0.1,0.1-0.1,0.1,0,0.1l-0.1,0c0,0.1,0,0.2,0.1,0.2c-0.1,0.1-0.2,0.3-0.2,0.5c-0.1,0.2-0.1,0.5-0.2,0.7c-0.1,0.3-0.1,0.6-0.1,0.9
		l-0.1-0.1c-0.1,0.1-0.1,0.1-0.1,0.2s-0.1,0.1-0.2,0.1c0-0.1,0.1,0,0.2,0.1c-0.1,0.1-0.1,0.1-0.2,0c-0.1,0-0.1,0-0.2,0
		c0,0.1,0,0.1,0.1,0c0.1,0,0.1,0,0.2,0c-0.1,0-0.1,0-0.1,0.1l-0.2-0.1c-0.7,0.8-1.3,1.3-1.7,1.5c-0.4,0.3-0.7,0.4-0.9,0.4
		c-0.3,0-0.5-0.1-0.8-0.2c-0.3-0.1-0.6-0.2-1.2-0.2c0-0.2-0.1-0.2-0.2-0.2c0.1,0.1,0.1,0.1,0.1,0c0,0,0,0,0.1,0c0,0.1,0,0.1,0,0.1
		c0-0.1-0.1-0.1-0.2-0.1l0-0.2l-0.2,0l0-0.2c0-0.1,0-0.1,0.1-0.2c-0.1,0-0.2,0.1-0.2,0.2l0,0.1c-0.4-0.1-0.8-0.3-1.1-0.7
		c-0.3-0.4-0.6-0.8-0.8-1.1l0.2,0c-0.1,0-0.1-0.1-0.2-0.2c0.2-0.3,0.2-0.7,0.1-1.1c0.1,0.1,0.1,0,0.1-0.1c0-0.1,0-0.2,0-0.3l0.2,0
		c-0.1,0-0.1-0.2-0.1-0.5c0.1,0,0.1,0,0.1,0c-0.1,0-0.1,0.1,0,0.2c0-0.1,0-0.1,0.1-0.1c0-0.1-0.1-0.1-0.2-0.1
		c0.1-0.2,0.1-0.3,0.1-0.4c0-0.1,0-0.3,0-0.5c0,0.1,0,0.1,0.1,0c0.1-0.1,0-0.1-0.1-0.1c0.1,0,0.1,0,0.1,0c0,0.1,0.1,0.1,0.1,0
		l-0.2-0.1c0.1-0.6,0.1-1.2,0.2-1.8c0.1-0.5,0.1-0.9,0.1-1.4c0-0.5,0-0.9,0.1-1.1l0.8-3.7c-0.1,0-0.2,0-0.2-0.1c0-0.1,0-0.1,0,0
		c0.1-0.4,0.1-0.8,0.2-1.2l0.2-1.2l0.7-6.2l-0.1,0.1c0-0.2,0-0.7,0.1-1.4c0.1-0.7,0.1-1.5,0.3-2.3c0.1-0.8,0.2-1.6,0.3-2.3
		C-2341.4,1405.5-2341.4,1405-2341.4,1404.8z M-2341.1,1431.9c0.1,0.1,0.2,0.1,0.2,0s0-0.1,0.1-0.1l-0.2-0.2c0,0.1,0,0.1,0,0.1
		C-2341.1,1431.8-2341.1,1431.8-2341.1,1431.9z"/>
	<path class="st1" d="M-2297.8,1412.1c-0.1,0.3-0.1,0.6-0.2,0.9c-0.1,0.3-0.1,0.6-0.2,0.9c-0.1,0.2-0.2,0.3-0.2,0.5
		c0,0.2-0.1,0.3-0.2,0.3c-0.1,0.6-0.2,1-0.5,1.3c-0.3,0.3-0.6,0.6-1,0.9c-0.4,0.3-0.7,0.6-1.1,0.8c-0.3,0.3-0.6,0.6-0.7,0.9
		c-0.5,0.2-0.8,0.5-0.8,0.8c-0.3,0.1-0.4,0.2-0.5,0.3c0,0.1-0.2,0.5-0.7,1.1c-0.4,0.6-1,1.3-1.5,2c-0.6,0.7-1.1,1.4-1.7,2
		c-0.5,0.6-0.9,0.9-1.1,0.9c-1.1,0.5-1.7,0.8-2,0.9c-0.2,0.1-0.3,0.2-0.3,0.2c0,0-0.1,0.1-0.2,0.3c-0.1,0.2-0.6,0.5-1.3,1.2
		c-0.7,0.3-1.4,0.6-2.1,1c-0.7,0.4-1.4,0.5-2.1,0.5c-0.5-0.1-1-0.1-1.4-0.2c-0.4-0.1-0.9-0.2-1.4-0.2c-1.2-0.7-2.2-1.6-3.2-2.6
		c-0.9-1-1.5-2.2-1.8-3.7c-0.1-0.2-0.1-0.4-0.1-0.6c0-0.2,0-0.4-0.1-0.6l0-0.1l0-0.1l0-0.1c-0.1-1.2-0.1-2.5,0.2-3.7
		c0.2-1.2,0.6-2.3,1-3.3c0.4-1,0.8-1.8,1.2-2.5c0.4-0.7,0.7-1.1,0.8-1.2l0.1-0.2c0.1-0.1,0.2-0.3,0.5-0.5c0.1-0.2,0.2-0.3,0.4-0.5
		c0.1-0.2,0.3-0.3,0.4-0.4c0.4-0.6,1.1-1.2,1.9-1.8c0.8-0.6,1.6-1,2.4-1.4c0.2-0.1,0.4-0.1,0.7,0l0.2,0.2c0.1,0.1,0.1,0.1,0.2,0
		c0.1,0.1,0.2,0.2,0.3,0.2c0.1,0.1,0.2,0.1,0.3,0.2c0.1,0.2,0.3,0.3,0.5,0.4c0,0.2,0.1,0.3,0.2,0.3c0.2,0,0.3,0,0.4,0.1
		c0.2,0.1,0.4,0.2,0.6,0.4c0.3,0.2,0.4,0.4,0.5,0.6l-0.1,0.1l0.2,0.1c0.3,0.3,0.4,0.8,0.3,1.5c-0.1,0.7-0.3,1.4-0.6,2.1
		c-0.3,0.7-0.6,1.4-0.9,1.9c-0.3,0.6-0.5,0.9-0.5,0.9c-0.1,0-0.1,0-0.1,0c0,0,0,0-0.1,0c-0.1,0.2-0.1,0.4-0.3,0.6
		c-0.1,0.2-0.3,0.4-0.4,0.6c-0.2,0.2-0.4,0.4-0.6,0.6c-0.3,0.3-0.5,0.6-0.7,0.8c-0.1,0.1-0.2,0.2-0.2,0.3s-0.1,0.2-0.2,0.3
		c-0.1,0.1-0.2,0.2-0.2,0.3l-0.1,0c0,0.1,0,0.1,0,0.1c0,0,0,0,0,0.1c-0.1,0.1-0.2,0.2-0.2,0.3c-0.1,0.1-0.1,0.2-0.2,0.3
		c-0.1,0-0.1,0-0.1,0c0,0,0,0-0.1,0l-0.2,0.2c-0.2,0.1-0.3,0.2-0.5,0.3c-0.2,0.1-0.3,0.2-0.3,0.3c0.1,0.1,0.1,0.1,0,0.1
		c-0.1,0-0.1,0-0.2,0c-0.1,0.2-0.2,0.2-0.4,0.2c-0.2,0-0.3,0.1-0.4,0.4c0-0.1,0-0.1,0,0c0,0,0,0,0,0c-0.1,0.1-0.1,0.2-0.1,0.6
		c0,0.3-0.1,0.7-0.1,1.1c-0.1,0.4-0.1,0.8-0.1,1.2c0,0.4,0,0.6,0.1,0.7l-0.1,0c0,0.2,0.1,0.3,0,0.3c0,0.1,0,0.1,0,0.3
		c0,0.1,0.1,0.3,0.2,0.5c0.1,0.2,0.4,0.6,0.8,1.1c0.4,0.1,0.8,0.2,1.1,0.3s0.7,0.1,1.1,0c0.4,0,0.8-0.1,1.3-0.3s0.9-0.3,1.3-0.5
		c0.4-0.3,0.8-0.5,1.2-0.8c0.4-0.3,0.7-0.5,1-0.8c0.3-0.3,0.6-0.6,0.9-0.9c0.1,0,0.1,0,0.2-0.1c0.1-0.1,0.1-0.1,0.2-0.1
		c0.1,0,0.1-0.1,0.2-0.1c0.3-0.2,0.6-0.5,1-0.8c0.4-0.3,0.7-0.6,0.9-0.7c0.3-0.2,0.5-0.4,0.7-0.5c0.2-0.2,0.4-0.3,0.6-0.5
		c0.5-0.4,0.9-0.8,1.4-1.3c0.5-0.4,0.9-0.9,1.3-1.3c0.5-0.5,0.9-0.9,1.4-1.3c0.5-0.4,0.9-0.9,1.4-1.3c0.1-0.1,0.1-0.2,0-0.2
		c-0.1,0-0.1-0.1,0-0.2c0.4-0.3,0.8-0.6,1.1-1c0.3-0.4,0.7-0.8,1.1-1.1c0-0.2,0-0.3-0.1-0.3
		C-2298.2,1412.5-2297.9,1412.3-2297.8,1412.1z M-2315.9,1413.6c0.1,0.1,0.1,0.2,0,0.2c0,0,0,0.1,0,0.2c-0.3,0.3-0.5,0.6-0.7,0.9
		c-0.1,0.3-0.3,0.7-0.6,1l0,0.3l-0.2,0c-0.2,0.2-0.2,0.4-0.2,0.6c0,0.2-0.1,0.4-0.3,0.5l0,0.2c-0.1,0.3-0.1,0.5-0.2,0.7
		c-0.1,0.2-0.2,0.5-0.2,0.7c0.1-0.3,0.2-0.5,0.4-0.7c0.2-0.2,0.3-0.4,0.4-0.7c0.2-0.2,0.4-0.4,0.6-0.6c0.2-0.2,0.3-0.4,0.4-0.6
		c0-0.1,0.1-0.1,0.2-0.2c0.2-0.2,0.3-0.3,0.5-0.5c0.2-0.2,0.3-0.4,0.4-0.6c0.1-0.2,0.2-0.3,0.3-0.3c0-0.1,0-0.2,0-0.2c0,0,0,0,0-0.1
		c0.3-0.3,0.5-0.5,0.6-0.8c0.1-0.3,0.3-0.5,0.5-0.8c0.3-0.4,0.6-0.9,0.8-1.4c0.2-0.5,0.4-1.1,0.4-1.7v-0.1c-0.2-0.1-0.3-0.1-0.4-0.3
		c-0.1-0.1-0.2-0.2-0.5-0.1L-2315.9,1413.6z"/>
	<path class="st1" d="M-2270.5,1414.6c0,0.6,0,1.1-0.2,1.4c-0.2,0.4-0.4,0.7-0.6,1c-0.3,0.3-0.5,0.6-0.8,1c-0.2,0.3-0.4,0.7-0.4,1
		c-0.1,0.1-0.2,0.2-0.4,0.4c-0.1,0.2-0.2,0.4-0.1,0.6c-0.4,0.3-0.6,0.7-0.8,1.3c-0.1,0.6-0.4,1.1-0.8,1.3c-0.2,0.4-0.3,0.7-0.5,1
		c-0.3,0.6-0.5,1.1-0.6,1.6c-0.2,0.6-0.4,1-0.5,1.4c-0.1,0.4-0.4,0.7-0.7,0.9c-0.5,1.4-1.1,2.2-2,2.4s-1.6-0.2-2.3-1.3
		s-1.2-2.9-1.5-5.4c-0.3-2.5-0.3-5.7,0.2-9.7c0-0.2,0-0.3,0.1-0.3c-0.1,0.1-0.1,0-0.1-0.2c0-0.2,0.1-0.3,0.2-0.3
		c-0.1-0.1-0.1-0.1,0-0.1c0,0,0,0,0-0.1c0.1,0,0.1,0,0.1-0.1c-0.1-0.1-0.1-0.2-0.1-0.4c0-0.2,0-0.3,0.1-0.4c-0.1,0.1,0,0.1,0,0
		c0.1-0.1,0.1-0.1,0,0c0.1-0.9,0.2-1.8,0.5-2.6c0.3-0.9,0.5-1.7,0.6-2.6l0.2,0c0.2,0.2,0.4,0.3,0.6,0.2c0.1,0,0.2,0,0.2,0.1
		c0,0.1,0.1,0.1,0.2,0v0.1c0,0.1,0.1,0.1,0.1,0c0.2,0.1,0.3,0.2,0.5,0.3c0.2,0.1,0.3,0.2,0.4,0.4c0.3,0.1,0.5,0.4,0.8,0.9
		c0.3,0.5,0.5,0.9,0.6,1c0,0.1,0,0.6-0.1,1.6c0,1-0.1,2.1-0.1,3.3c-0.1,1.4-0.1,3-0.1,4.9c-0.1,0-0.1,0.2-0.2,0.5
		c-0.1,0.4-0.1,0.8-0.2,1.2c-0.1,0.4-0.2,0.9-0.3,1.2c-0.1,0.4-0.2,0.6-0.2,0.7c0,0.1,0,0.1,0.2,0.1c-0.1,0.1-0.1,0.3-0.2,0.6
		c-0.1,0.4-0.2,0.7-0.2,1s0,0.5,0.2,0.5c0.2,0.1,0.5-0.2,0.9-0.8c0.5-0.6,1.2-1.5,2.1-2.9c0.9-1.4,2.1-3.3,3.5-5.8
		c0.1-0.1,0.1-0.2,0-0.2c-0.1,0-0.1-0.1-0.1-0.2c0.4-0.4,0.6-0.8,0.8-1.2c0.2-0.5,0.4-0.9,0.7-1.3l-0.2-0.3c0.3-0.3,0.5-0.5,0.6-0.9
		c0,0.1,0,0.3,0,0.5c0,0.3,0,0.5,0,0.8c0,0.3,0,0.5,0,0.8C-2270.5,1414.4-2270.5,1414.6-2270.5,1414.6z M-2282.1,1412.8
		c0.1,0,0.2,0,0.2,0.1c0.1,0.1,0.1,0.1,0,0C-2282,1412.7-2282.1,1412.7-2282.1,1412.8z M-2280.9,1403L-2280.9,1403
		c0-0.1,0-0.2,0.1-0.4s0.1-0.3,0.2-0.5c-0.1-0.1-0.1-0.1-0.1-0.1c0.1,0,0-0.1-0.1-0.1c0.1-0.1,0.1-0.1,0.2,0c0-0.1,0-0.2,0.1-0.2
		c-0.1-0.1-0.1-0.1,0-0.2l-0.2-0.1c0-0.1,0-0.2,0.1-0.2c0.1,0,0.1-0.1,0-0.2l0.1,0c0-0.2,0-0.3,0.1-0.4c0.2-0.6,0.4-1.2,0.6-2
		l0.1,0.1c0.2,0,0.4,0,0.6,0s0.5,0.2,0.7,0.3c0.4,0.3,0.7,0.6,1.1,0.9c0.4,0.4,0.6,0.8,0.8,1.2l0,0.3c0.2,1.1,0,1.9-0.6,2.3
		c-0.6,0.4-1.3,0.7-2.1,0.7c-0.8,0-1.3-0.1-1.8-0.4c-0.4-0.3-0.3-0.5,0.3-0.9C-2280.7,1403.3-2280.8,1403.2-2280.9,1403z"/>
	<path class="st1" d="M-2272.5,1427.9c0.3-0.2,0.3-0.4,0.2-0.9l6.8-7.9c-0.1-0.3-0.3-0.6-0.6-0.7c-0.3-0.2-0.6-0.4-0.8-0.5
		c-0.3-0.3-0.6-0.6-1-0.9c-0.4-0.3-0.9-0.5-1.4-0.8c-0.5-0.3-0.9-0.6-1.3-1c-0.4-0.4-0.6-0.8-0.7-1.3c-0.1-0.1-0.1-0.1-0.2-0.1
		c-0.1,0.1-0.1,0-0.1-0.1l0.2,0c-0.2-0.5-0.2-1,0-1.4c0.1-0.4,0.3-0.9,0.6-1.2s0.6-0.8,0.9-1.1c0.3-0.4,0.5-0.7,0.7-1
		c0.4-0.2,0.7-0.5,0.9-0.8c0.2-0.3,0.6-0.5,1-0.6c0.1-0.1,0.2-0.2,0.2-0.3c0.1-0.1,0.2-0.2,0.3-0.2c0.1,0,0.2,0,0.2,0.1
		s0.1,0.1,0.2,0.2c0.3-0.1,0.5-0.2,0.5-0.2c0.3,0.3,0.6,0.4,1,0.4c0.4,0,0.8,0.3,1,0.7c0,0.1,0,0.2-0.1,0.2c-0.1,0.1-0.1,0.2,0,0.3
		c-0.6,0.4-1.2,0.9-1.7,1.5c-0.5,0.6-1.1,1.1-1.8,1.5c-0.3,0.5-0.5,0.9-0.8,1.3c-0.3,0.4-0.5,0.8-0.6,1.2c0,0.5,0.3,0.9,0.7,1.2
		c0.4,0.3,0.8,0.6,1.3,0.8s0.9,0.5,1.4,0.8c0.5,0.3,0.9,0.6,1.2,0.9c0.2-0.3,0.6-0.7,1.2-1.3c0.6-0.6,1.2-1.3,1.8-2
		c0.6-0.7,1.2-1.4,1.7-2c0.5-0.6,0.9-1.1,1-1.4c0.2,0,0.3-0.1,0.4-0.3c0.1-0.1,0.2-0.2,0.3-0.3c0.3-0.5,0.6-0.9,1-1.2
		c0.4-0.4,0.7-0.7,1.1-1.1c0,0.3,0,0.5,0,0.8c0,0.3,0,0.5-0.1,0.8c-1.2,1.6-2,2.7-2.4,3.2c-0.5,0.5-0.9,1-1.2,1.3
		c-0.3,0.3-0.8,0.7-1.3,1.2c-0.5,0.5-1.3,1.5-2.5,3.1c0.3,0.2,0.5,0.4,0.8,0.7c0.3,0.2,0.5,0.5,0.7,0.7c-0.1,0.2,0,0.4,0.1,0.5
		c0.1,0.1,0.2,0.2,0.3,0.3c0.2,0.2,0.3,0.5,0.3,0.7c0,0.3,0.1,0.6,0.2,0.8c-0.1,0.1-0.1,0.1-0.1,0.2s0,0.1-0.1,0.2
		c0.1,0.6,0,1.4-0.4,2.2c-0.4,0.8-0.9,1.6-1.6,2.4c-0.7,0.7-1.5,1.4-2.3,2c-0.9,0.6-1.7,0.9-2.6,1.1c-0.9,0.2-1.7,0.1-2.5-0.2
		C-2271.3,1429.7-2272,1429-2272.5,1427.9z M-2264.9,1420.4L-2264.9,1420.4c-0.3,0.2-0.5,0.4-0.7,0.7c-0.1,0.2-0.4,0.5-0.8,0.7
		c-0.1,0.1-0.1,0.1,0,0.1c0.1,0,0.1,0.1,0,0.2l-4,5.6c0.1,0,0.1,0.1,0.1,0.2c-0.2,0.1-0.2,0.3-0.2,0.6c0.2,0.2,0.4,0.2,0.5,0.1
		c0.2-0.2,0.3-0.3,0.4-0.4c0.1-0.1,0.2-0.2,0.2-0.2c0.1,0,0.1,0,0.2-0.1c0.9-0.7,1.8-1.4,2.5-2.3c0.6-0.7,1-1.5,1.4-2.3
		C-2265,1422.4-2264.8,1421.5-2264.9,1420.4z"/>
</g>
<g>
	<path class="st1" d="M-2217.3,1444.8c0-0.6,0-0.5-0.7-2c-2.1-4.3-3.5-8.5-4.4-12.5c0.1-0.1-0.1-1.1-0.6-3c-0.9-4.6-1.5-8.8-2-12.5
		c-0.3-5.6-0.1-9.4,0.4-11.2c0.7-2.9,1.4-4.8,2-5.7c0.1-0.8,0.7-1.9,2-3.2c3.4-3.4,7.2-4.2,11.3-2.5c0.9,0.5,1.7,1.1,2.4,1.8
		l0.4,0.4c1.8,1.8,2.8,5.9,2.8,12.3c-0.7,4.7-2.3,10.7-5,18l-3.4,8.4 M-2208.9,1394.9c-2.8-1.7-4.6-2.3-5.2-1.6
		c-0.2-0.2-0.7,0-1.5,0.5l-0.1,0.1c0.1,0.1,1,0.1,2.7-0.1c0.8-0.1,1.8,0.4,2.9,1.5l1.2,1.2c0.4,0.4,1.1,1.1,1.9,2.1
		c-0.4-1.5-1-2.6-1.6-3.2C-2208.5,1395.3-2208.6,1395.1-2208.9,1394.9z M-2207.6,1409.1l0.4-0.4l0.5-0.1c-0.4-3.9-1.5-7.5-3.2-10.7
		l-0.5-0.5c-0.8-0.5-1.2-0.8-1.3-0.9l-0.1,0.1c0.9,1.1,1.5,2.5,1.9,4.3l0.2,0.2c0.3-0.3,0.5-0.3,0.7-0.1l0.3,0.3
		c0.4,2,0.6,4.7,0.6,8.2c0.1,0.1,0,0.2-0.1,0.3l0.2,0.2C-2208,1409.6-2207.8,1409.3-2207.6,1409.1z M-2214.2,1397.8
		c-2-1.6-3.7-1.7-5.1-0.3l-0.5,0.3c-2.3,2.3-3.3,7.8-3,16.5c0.5,4.3,1.1,7.6,1.7,10c-0.3,0.3-0.2,1,0.3,2.1c0.7,4.6,2.2,9.3,4.3,14
		l0.1,0.1c0.5-0.5,1-2.9,1.3-6.9c0.4-0.8,0.9-2.7,1.3-5.7c0.5-2,1-4.8,1.5-8.4c0.1-0.1,0.3-1.9,0.6-5.2c0.2-0.8,0.3-2.2,0.1-3.9
		C-2211.3,1404-2212.2,1399.9-2214.2,1397.8z M-2210,1421.7l-0.3-0.3c-0.3,0.3-0.4,1-0.4,2l0.1-0.1
		C-2210.3,1422.4-2210.1,1421.9-2210,1421.7z"/>
</g>
</svg>
