<?xml version="1.0" encoding="utf-8"?>
<!-- Generator: Adobe Illustrator 19.1.0, SVG Export Plug-In . SVG Version: 6.00 Build 0)  -->
<svg version="1.1" id="Layer_1" xmlns="http://www.w3.org/2000/svg" xmlns:xlink="http://www.w3.org/1999/xlink" x="0px" y="0px"
	 viewBox="-2494 1335 114.1 143.7" style="enable-background:new -2494 1335 114.1 143.7;" xml:space="preserve">
<style type="text/css">
	.st0{fill:#8C8C8C;}
</style>
<g>
	<path class="st0" d="M-2469.3,1398.9c-1.9-0.9-4-1.1-6.2-0.7c-1.1-1.9-2.7-3.3-4.6-4.2c-0.6-0.3-1.2,0-1.5,0.6
		c-0.3,0.6,0,1.2,0.6,1.5c1.7,0.8,3,2.1,3.9,3.9c0.1,0.2,0.3,0.4,0.5,0.5c0.2,0.1,0.5,0.1,0.8,0.1c2-0.5,3.9-0.3,5.5,0.4
		c0.6,0.3,1.2,0,1.5-0.6S-2468.7,1399.2-2469.3,1398.9z M-2486.9,1376.8c1.8-0.3,3.7,0,5.5,0.9c0.2,0.1,0.5,0.2,0.7,0.1
		c0.3,0,0.5-0.2,0.7-0.4c1.3-1.5,3-2.5,4.7-2.9c0.6-0.1,1-0.7,0.9-1.3c-0.1-0.6-0.7-1-1.3-0.9c-2,0.4-3.9,1.4-5.5,3
		c-2-0.9-4.1-1.1-6.2-0.7c-0.6,0.1-1,0.7-0.9,1.3C-2488.1,1376.5-2487.5,1377-2486.9,1376.8z M-2462.1,1386.2
		c1.4,0.5,2.6,1.5,3.5,2.8c0.1,0.2,0.3,0.4,0.6,0.5c0.2,0.1,0.5,0.1,0.8,0c1.5-0.5,3.1-0.6,4.5-0.1c0.6,0.2,1.2-0.1,1.4-0.7
		c0.2-0.6-0.1-1.2-0.7-1.4c-1.6-0.6-3.4-0.6-5.2-0.2c-1.1-1.4-2.5-2.5-4.2-3.1c-0.6-0.2-1.2,0.1-1.4,0.7
		C-2463,1385.4-2462.7,1386-2462.1,1386.2z M-2387.3,1407.7c-1.2,0-2.3,0.4-3.3,1c-1-0.7-2.1-1-3.3-1c-0.3,0-0.6,0.3-0.6,0.6
		c0,0.3,0.3,0.6,0.6,0.6c1,0,2,0.4,2.9,1.1c0.1,0.1,0.3,0.1,0.4,0.1c0.1,0,0.3,0,0.4-0.1c0.9-0.7,1.9-1.1,2.9-1.1
		c0.3,0,0.6-0.3,0.6-0.6C-2386.7,1408-2387,1407.7-2387.3,1407.7z M-2391.6,1404.5c0.3,0,0.6-0.3,0.6-0.6s-0.3-0.6-0.6-0.6
		c-1.2,0-2.3,0.4-3.3,1c-1-0.7-2.1-1-3.3-1c-0.3,0-0.6,0.3-0.6,0.6s0.3,0.6,0.6,0.6c1,0,2,0.4,2.9,1.1c0.1,0.1,0.3,0.1,0.4,0.1
		c0.1,0,0.3,0,0.4-0.1C-2393.6,1404.8-2392.6,1404.5-2391.6,1404.5z M-2396.6,1381.3c-11.2-11.3-26.4-17.3-42.4-16.7
		c-0.6,0-1.1,0.6-1.1,1.2s0.6,1.1,1.2,1.1c0.7,0,1.4,0,2,0c22.3,0,41.6,13.4,50.1,32.6h-4.2l-5.4-5.6c-0.1-0.1-0.1-0.1-0.2-0.2
		l-7.1-4.3l-4.9-8c-0.2-0.3-0.4-0.4-0.7-0.5l-10.5-2.5l-7.2-8c-0.4-0.4-1-0.5-1.5-0.2l-6.9,4.7l-6-7.9c-0.1-0.1-0.2-0.2-0.3-0.3
		l-14-8.2c-0.3-0.2-0.9-0.1-1.3,0.3l-21.3,23.5c-10.1,10.7-15.7,24.6-15.7,39.3c0,14.9,5.8,28.5,15.2,38.7c0.1,0.1,0.1,0.2,0.2,0.2
		c10.4,11.1,25.2,18.1,41.7,18.1c31.5,0,57.1-25.6,57.1-57.1C-2379.8,1406.4-2385.8,1392-2396.6,1381.3z M-2456.9,1362l5.9,11.2
		c0.2,0.4,0.6,0.6,1,0.6c0.2,0,0.4,0,0.5-0.1c0.3-0.2,0.5-0.5,0.6-0.8l3,5.7c0.2,0.4,0.6,0.6,1,0.6c0.2,0,0.4,0,0.5-0.1
		c0.6-0.3,0.8-1,0.5-1.5l-3.2-6.2c-0.3-0.6-1-0.8-1.5-0.5c-0.3,0.2-0.5,0.5-0.6,0.8l-5.1-9.8l11.3,6.7l6.5,8.5
		c1.2,1.9,2.5,4.2,3.1,5.6l-0.7-0.1c-0.6-0.1-1.2,0.3-1.3,0.9c-0.1,0.6,0.3,1.2,0.9,1.3l2.3,0.5l3.4,1.9c0.2,0.1,0.4,0.2,0.6,0.2
		c0.4,0,0.8-0.2,1-0.6c0.3-0.5,0.1-1.2-0.4-1.6l-3-1.7c-0.3-1.8-2.1-4.8-3.3-6.7l6-4.1l6.8,7.5c0.2,0.2,0.4,0.3,0.6,0.3l10.3,2.4
		l4.1,6.6l-1.9-0.3c-0.6-0.1-1.2,0.3-1.3,0.9c-0.1,0.6,0.3,1.2,0.9,1.3l5.6,1.1l4.9,3l3.8,4h-22v-4.2c0-0.6-0.5-1.1-1.1-1.1
		c-0.6,0-1.1,0.5-1.1,1.1v4.2h-11.7c-0.5,0-0.9,0.3-1.1,0.8c-0.1,0.5,0,0.9,0.4,1.2h-24.8l-2.3-4c-0.2-0.3-0.5-0.5-0.8-0.6l-4.2-0.7
		l-3.5-7.5c-0.1-0.2-0.2-0.3-0.4-0.4l-8.4-6.2L-2456.9,1362z M-2404.6,1406.4h1.6v4.5c-0.5,0-1.1,0-1.7,0L-2404.6,1406.4
		C-2404.6,1406.5-2404.6,1406.4-2404.6,1406.4z M-2400.3,1413.1l-0.9,2.2c-0.2-0.1-0.3-0.3-0.4-0.5c-0.1-0.2-0.2-0.4-0.4-0.5
		c-0.4-0.3-1-0.3-1.4,0c-0.2,0.1-0.3,0.3-0.4,0.5c-0.2,0.4-0.6,0.6-1.1,0.6s-0.9-0.3-1.1-0.7c-0.1-0.2-0.2-0.4-0.4-0.5
		c-0.4-0.3-1-0.3-1.4,0c-0.2,0.1-0.3,0.3-0.4,0.5c-0.2,0.4-0.6,0.6-1.1,0.6s-0.9-0.3-1.1-0.7c-0.1-0.2-0.2-0.4-0.4-0.5
		c-0.4-0.3-1-0.3-1.4,0c-0.2,0.1-0.3,0.3-0.4,0.5c-0.2,0.4-0.6,0.6-1.1,0.6s-0.9-0.3-1.1-0.7c-0.1-0.2-0.2-0.4-0.4-0.5
		c-0.4-0.3-1-0.3-1.4,0c-0.2,0.1-0.3,0.3-0.4,0.5c-0.2,0.4-0.6,0.6-1.1,0.6s-0.9-0.3-1.1-0.7c-0.1-0.2-0.2-0.4-0.4-0.5
		c-0.4-0.3-1-0.3-1.4,0c-0.2,0.1-0.3,0.3-0.4,0.5c-0.2,0.4-0.6,0.6-1.1,0.6s-0.9-0.3-1.1-0.7c0,0,0,0,0-0.1l-1.6-3.8
		c2,0.5,5.4,1.2,10.7,2C-2408.6,1413.4-2403.1,1413.3-2400.3,1413.1z M-2420.1,1409.2l1.7-1.2v1.5
		C-2419,1409.4-2419.6,1409.3-2420.1,1409.2z M-2476.7,1383.9L-2476.7,1383.9C-2476.7,1383.9-2476.6,1383.9-2476.7,1383.9
		L-2476.7,1383.9l8.4,6.1l3.6,7.8c0.2,0.3,0.5,0.6,0.8,0.6l4.3,0.7l4.1,7h-34C-2487.1,1397.9-2482.7,1390.3-2476.7,1383.9z
		 M-2477.6,1458.2c-2-2.2-3.8-4.5-5.4-7c1.9-2.5,1.4-4.6,0.9-7.5c-0.4-1.9-0.9-4.3-0.9-7.8c-0.1-6.1,2.8-12.2,7.7-16.7
		c0,0,0,0,0.1-0.1c6-5.4,14.2-7.4,21.5-5c3.3,1.1,5.9,2.8,7.7,5.1c-2.2-1.4-5.4-2.5-10.1-2.8c-5.7-0.3-8.4,0.4-22.1,7.9
		c-0.4,0.2-0.7,0.7-0.6,1.2c0.2,1.4,1.4,6.3,5.5,11.4c5.2,6.3,13,10.3,23.1,11.8c0.3,0,1.2,0.2,1.2,0.2c0.5,1,1.1,2.7,0.4,3.8
		c-0.6,1-2.3,1.6-4.9,1.6c-0.7,0-1.4,0-2,0C-2463.6,1454.6-2471.1,1454.7-2477.6,1458.2z M-2456.6,1429.6c2.1,0,3.8-1.7,3.8-3.8
		c0-1.5-0.8-2.7-2-3.4l0.1-0.6c0-0.2,0-0.3,0-0.5c0-0.5-0.4-0.9-1-1c-0.6-0.1-1.2,0.3-1.3,1c-0.4,2.5-3.2,4.7-5.8,4.4l0,0
		c-0.9-0.2-2-0.4-3.1-0.6c-2.3-0.3-5-0.7-7.3-0.7c10.5-5.6,12.6-5.8,17-5.5c11.2,0.5,12.9,6.4,13.1,8.1c0.3,3.6-0.4,7.2-1.5,9.5
		c-3.1,6.4-10,7.8-12.8,8.2c0,0,0,0-0.1,0c-5.8-2-10.5-5-14-9.2c-2.8-3.5-4.1-6.8-4.7-8.8c0.1,0,0.2,0,0.3,0
		c1.6-0.3,5.1-0.1,9.6,0.6c4.2,0.6,6.9,1.5,7.8,1.8C-2457.9,1429.4-2457.3,1429.6-2456.6,1429.6z M-2458,1426.5
		c0.8-0.6,1.5-1.3,2.1-2.1c0.5,0.3,0.8,0.8,0.8,1.4c0,0.9-0.7,1.5-1.5,1.5C-2457.2,1427.3-2457.7,1427-2458,1426.5z M-2441,1466.1
		c-0.1,4.2-0.6,7.6-1.1,10c-13.2-1.3-25.1-7.2-33.9-16.2c5.9-3,12.7-3.1,20.5-3.3c0.7,0,1.4,0,2,0c3.5-0.1,5.8-1,6.8-2.7
		c0.5-0.8,0.7-1.7,0.6-2.8C-2443.9,1454-2440.9,1459.3-2441,1466.1z M-2444.5,1449.3c1.2,0.1,2.4,0.1,3.7,0.1c0,0.9,0,1.8,0,2.8
		c0,1.2,0,2.3,0.1,3.4C-2442,1452.9-2443.4,1450.7-2444.5,1449.3z M-2440.8,1447.1c-0.4,0-0.8,0-1.2,0c0.4-0.2,0.8-0.5,1.2-0.8
		C-2440.8,1446.6-2440.8,1446.9-2440.8,1447.1z M-2440.7,1443.4c-2.7,2.3-5.5,3.4-8,3.3c-1.4-0.2-2.8-0.4-4.1-0.7
		c3.1-1,6.7-2.9,9.1-6.6c0,0,1.2,0.8,3.1,2.1C-2440.6,1442-2440.7,1442.6-2440.7,1443.4z M-2440.8,1426.8c4,5.8,3.6,11.3,2.7,13.6
		c-2.6-1.8-4.4-2.9-4.4-2.9C-2441.3,1434.8-2440.4,1430.8-2440.8,1426.8z M-2437.6,1452.2c0,4.6-0.2,7.6-0.5,9.4
		c-0.3-1.8-0.5-4.8-0.5-9.4c0-4,0.1-7.2,0.2-9.3c0.2,0.1,0.4,0.3,0.6,0.4v0.1C-2437.7,1445.5-2437.6,1448.4-2437.6,1452.2z
		 M-2405.4,1466.4c-0.4-1.7-0.9-4.5-1-7.9c-0.1-4.5,1.8-8.1,3.2-10.2c0,0.4,0.1,0.8,0.3,1.2c0.7,1.5,2.5,2.2,5.3,2.3
		c0.5,0,0.9,0,1.4,0c1.7,0,3.3,0.1,4.9,0.2C-2395.1,1457.6-2399.9,1462.5-2405.4,1466.4z M-2410.6,1440.6c-0.3,0.2-0.5,0.3-0.8,0.5
		c-0.9,0.6-1.8,1.2-2.9,2c0-1.4,0.2-2.7,0.7-4.1c0.6-2,1.6-3.7,2.8-5.2C-2411.6,1436.6-2411.3,1439-2410.6,1440.6z M-2410.1,1443
		c0.3-0.2,0.5-0.4,0.8-0.5c0.7,0.8,1.5,1.4,2.4,1.9c-1.6,0-3.2,0-5-0.1C-2411.3,1443.8-2410.7,1443.4-2410.1,1443z M-2407.3,1431.1
		c0,2.4,0.5,4.7,1.2,6.4c-0.8,0.5-1.7,1.1-2.6,1.7C-2409.2,1437.6-2409.3,1434.5-2407.3,1431.1z M-2407.4,1441.1
		c0.9-0.6,1.7-1.2,2.5-1.7c1.6,2.2,3.7,3.5,5.6,4.3c-0.6,0.1-1.3,0.2-1.9,0.3c-0.1,0-0.2-0.1-0.3-0.1
		C-2401.5,1444-2405,1443.6-2407.4,1441.1z M-2389.9,1449.8c-2-0.2-4.1-0.2-6.2-0.2c-0.5,0-0.9,0-1.4,0c-1.8,0-3-0.4-3.3-1
		c-0.3-0.6,0.1-1.6,0.5-2.2c7.1-0.9,11.4-3,14.8-5.5C-2386.7,1443.9-2388.2,1446.9-2389.9,1449.8z M-2384.2,1436.6
		c-2.5,2.3-5.4,4.6-10.1,6.1c-1.1-0.1-7.1-0.8-9.5-5.8c-0.8-1.6-1.3-3.9-1.1-6.3l0,0c0-0.1,3.8-6.7,9.8-6.3c3.6,0.2,5,0.9,10.2,3.4
		c0.1,0.1,0.3,0.1,0.4,0.2c-1.2,0.1-2.3,0.3-3.3,0.4c-0.9,0.1-1.8,0.3-2.5,0.4l0,0c-1.9,0.3-4.1-1.4-4.4-3.3c-0.1-0.6-0.7-1.1-1.3-1
		c-0.3,0-0.6,0.2-0.8,0.5c-0.1,0.1-0.1,0.2-0.1,0.3c0,0.1-0.1,0.2-0.1,0.4c0,0.1,0,0.1,0,0.2v0.5c-1,0.6-1.6,1.6-1.6,2.8
		c0,1.8,1.5,3.3,3.3,3.3c0.4,0,0.9-0.1,1.2-0.2l0,0c0.3-0.1,2.3-1,6.5-1.6c1.8-0.3,3.4-0.4,4.7-0.5
		C-2383.1,1432.2-2383.6,1434.4-2384.2,1436.6z M-2394.4,1429.7c-0.2,0.2-0.5,0.4-0.8,0.4c-0.6,0-1-0.5-1-1c0-0.3,0.2-0.6,0.4-0.8
		C-2395.5,1428.8-2395,1429.3-2394.4,1429.7z M-2382.3,1426.3c-0.6-0.3-1.1-0.5-1.6-0.8c-5.3-2.6-6.9-3.4-11-3.6
		c-3.3-0.2-5.9,1.2-7.9,2.8c1.3-1.7,3.1-2.9,5.5-3.7c5.1-1.7,10.9-0.3,15.2,3.5C-2382.2,1425.1-2382.3,1425.7-2382.3,1426.3z
		 M-2398.1,1418.9c-3.9,1.3-6.7,3.7-8.1,7c-0.1,0.3-0.3,0.6-0.4,1c0,0-0.1,0-0.1,0.1c-2.7,1.8-7.4,5.7-9.2,11.4
		c-0.7,2.3-0.9,4.4-0.7,7c0,0.2,0.1,0.3,0.1,0.4l0.1,0.1l0,0c0.2,0.3,0.5,0.4,0.8,0.5c2.8,0.2,5.4,0.3,7.7,0.3c1,0,2,0,2.9-0.1
		c-1.7,2.3-4,6.5-3.9,12c0.1,4.2,0.8,7.5,1.2,9.2c-8.5,5.5-18.6,8.6-29.5,8.6c-1,0-2,0-3-0.1c0.5-2.5,1-6,1.1-10.1
		c0-0.1,0-0.1,0-0.2c0.2,0.1,0.4,0.2,0.7,0.2c1.2,0,1.8-1.3,2.1-3.4c0.1,0.9,0.2,1.7,0.3,2.4c0.4,2.5,0.9,4.2,2.3,4.2
		c1.4,0,1.9-1.7,2.3-4.2c0.3-2.4,0.5-5.7,0.5-9.7c0-2.6,0-4.7-0.1-6.4c0.8-0.1,1.6-0.1,1.6-0.1c0.6-0.1,1.1-0.4,1.1-1
		c0.3-3.6,0-6.3-0.9-9.4c-2.3-7.8-8.8-13-12.4-15.5c-0.1-0.1-0.2-0.1-0.3-0.1c-0.2-0.5-0.3-1-0.5-1.5c-1.9-4.5-5.6-7.7-10.9-9.4
		c-7.7-2.7-16.8-0.6-23.4,5.3c0,0,0,0-0.1,0c-5.4,5-8.5,11.8-8.5,18.6c0,3.6,0.5,6.2,0.9,8.2c0.4,2.3,0.7,3.6,0,4.9
		c-4.6-8.1-7.3-17.5-7.3-27.5c0-4.5,0.5-8.9,1.6-13.2h36.6c0.4,0,0.8-0.2,1-0.6s0.2-0.8,0-1.1l-1.7-3h27.1c0.5,0,0.9-0.3,1.1-0.8
		c0.1-0.5,0-0.9-0.4-1.2h8v3.4l-4.7,3.4c-2.6-0.6-3.7-1-3.7-1c-0.4-0.2-0.9-0.1-1.2,0.3c-0.3,0.3-0.4,0.8-0.2,1.2l3,6.6
		c0,0,0,0,0,0.1c0.6,1.2,1.8,2,3.2,2c0.8,0,1.6-0.3,2.2-0.7c0.6,0.5,1.4,0.7,2.2,0.7c0.8,0,1.6-0.3,2.2-0.7c0.6,0.5,1.4,0.7,2.2,0.7
		s1.6-0.3,2.2-0.7c0.6,0.5,1.4,0.7,2.2,0.7s1.6-0.3,2.2-0.7c0.6,0.5,1.4,0.7,2.2,0.7c0.8,0,1.5-0.3,2.2-0.7c0.6,0.5,1.4,0.7,2.2,0.7
		h3c0.6,0,1.1-0.5,1.1-1.1c0-0.6-0.5-1.1-1.1-1.1h-1.3l1.3-3.2c0.2-0.4,0.1-0.8-0.1-1.1c-0.2-0.3-0.6-0.5-1-0.5c0,0-0.8,0.1-2.1,0.1
		v-5.6c0-0.6-0.5-1.1-1.1-1.1h-3.9c-0.3,0-0.6,0.1-0.8,0.4l-1.2,1.3c-0.3,0.3-0.4,0.8-0.2,1.2c0.2,0.4,0.6,0.7,1,0.7h0.1v3.2
		c-2.2-0.1-4.7-0.3-7.2-0.7c-0.7-0.1-1.4-0.2-2-0.3v-8.2h30.3c2.4,6.2,3.7,12.9,3.7,19.9l0,0
		C-2386.8,1418.2-2392.8,1417.1-2398.1,1418.9z M-2432.9,1455.5c0,4.6-0.2,7.6-0.5,9.4c-0.3-1.8-0.5-4.8-0.5-9.4
		c0-4.1,0.1-7.2,0.2-9.4c0.2,0.1,0.4,0.2,0.6,0.4c0,0.1,0,0.1,0,0.2C-2433,1448.7-2432.9,1451.4-2432.9,1455.5z M-2436.3,1441.6
		c1.2-2.3,1.7-6.6-0.2-11.4c2.2,2.4,4.3,5.4,5.3,9c0.7,2.2,1,4.2,0.9,6.6C-2432.3,1444.3-2434.4,1442.9-2436.3,1441.6z"/>
</g>
</svg>
