<?xml version="1.0" encoding="utf-8"?>
<!-- Generator: Adobe Illustrator 19.1.0, SVG Export Plug-In . SVG Version: 6.00 Build 0)  -->
<svg version="1.1" id="Layer_1" xmlns="http://www.w3.org/2000/svg" xmlns:xlink="http://www.w3.org/1999/xlink" x="0px" y="0px"
	 viewBox="0 0 84.5 108.9" style="enable-background:new 0 0 84.5 108.9;" xml:space="preserve">
<style type="text/css">
	.st0{fill:#8C8C8C;}
</style>
<g>
	<path class="st0" d="M14.8,40.7c0,0,0.8-0.9,2.7-1.1c-1.3-3.1-0.8-9,0.8-14c0.5-1.5,1.4-3.5,2.5-5.4c-1.4-0.9-4.6-1.8-5.8-5.7
		C13,8.2,20.8,1.8,23.5,7c1,2.8,0.5,6.1,2.1,7.5c0.3-0.2,0.6-0.4,1-0.6c0.2-0.1,0.4-0.2,0.6-0.3c-1.1-2-0.9-4.9-0.9-4.9
		c-0.3-4.3-1.7-7.5-4.2-8.5C16.8-1.8,8.6,6.5,3.6,18.7s-4.9,24.2,0.4,26C7.9,46,11.5,44.3,14.8,40.7z M16.5,103.7l5.2-11.1
		c0.6,0,1.2-0.4,1.4-1c0.3-0.7-0.1-1.6-0.9-1.8c-0.7-0.3-1.6,0.1-1.8,0.9c-0.2,0.5,0,1.1,0.3,1.4l-5.2,11.1c-0.1,0-0.1,0-0.2,0
		c-1.6-0.3-3.1,0.8-3.3,2.3c-0.3,1.6,0.8,3.1,2.3,3.3c1.6,0.3,3-0.8,3.3-2.3C17.8,105.4,17.4,104.3,16.5,103.7z M16.4,107.5
		c-0.1,0.4-0.5,0.7-0.9,0.7c-0.4-0.1-0.7-0.5-0.7-0.9c0.1-0.4,0.5-0.7,0.9-0.7C16.2,106.7,16.5,107.1,16.4,107.5z M13.1,70.3
		L13.1,70.3C13,70.3,13,70.3,13.1,70.3C13,70.3,13,70.3,13.1,70.3L13.1,70.3z M13,70.3C13,70.3,13,70.3,13,70.3
		C13,70.3,13,70.3,13,70.3z M82.6,52.7c-0.7,0-1.4,0.3-1.7,1c-0.2-0.1-0.4-0.1-0.7-0.1h-0.5c0.2-4.4-0.6-7.2-7.4-11.3
		c-0.7-0.4-2.3-1.4-4.4-2.8c0.2-0.2,0.2-0.5-0.1-0.8c-0.3-0.3-0.7-0.3-1.1-0.2c-0.1,0-0.2,0.1-0.3,0.1C55.8,32,34.7,18.6,28.7,15.4
		c-0.1,0-0.1-0.1-0.2-0.1c-0.3-0.2-0.5-0.4-0.8-0.6c-1.3,0.4-3.1,2.2-3.5,2.7c-2,2.2-4,5.4-4.9,8.6c-1.8,5.8-1.8,11.4-0.6,13.7
		c0.4,0,0.9,0.1,1.4,0.2c0,0,0.1,0,0.1,0c3.4,0.7,29,5.7,42.3,8.4c0,0.1,0.1,0.2,0.2,0.3c0.2,0.2,0.4,0.4,0.6,0.4
		c0.3,0.1,0.6-0.1,0.7-0.4c2.8,0.6,4.9,1,5.9,1.3c1.7,0.4,4.2,1.5,4.5,3.6l0,0.2c-2.9,0.1-2.9,4.4,0,4.5l0,1.6c0,1-0.8,1.9-1.9,1.9
		L57.7,61c-0.1-0.4-0.3-0.5-2.1-0.6l-9.7-0.6c-0.4,0-0.7-0.4-0.9-0.7c-1.1-1.6-3-2.7-5.1-2.7c-3.4,0-6.2,2.8-6.2,6.2
		c0,0.6,0.1,1.2,0.2,1.7c-10.3,0.4-18.1,2.3-18.1,4.5c0,0.5,0.4,1,1.2,1.5h-3.7H13l-0.1,0c-0.3,0-0.4,0.2-0.5,0.3L9,76.5l-0.3,0.5
		c-0.1,0.2-0.1,0.5,0,0.7c0,0,0.2,0.2,0.3,0.3l2.8,2.9v12l-3,5.6c-0.2,0.2-0.1,0.6,0,0.8c0,0,3.3,2.6,3.3,2.6
		c0.1,0.1,0.2,0.1,0.3,0.1h3.1l1.7-3.7h-7.1l1.6-3V96c0,0.3,0.3,0.6,0.6,0.6H18l1-2.2h-3.5c-0.6,0-0.1-1.2-1.3-1.2
		c-0.2,0-0.3-0.2-0.3-0.3V84c0-0.2,0.2-0.3,0.3-0.3c0.5,0,0.9-0.4,0.9-0.9c0-0.2,0.2-0.3,0.3-0.3l45.6-0.1c0.3,0,0.3,0.2,0.3,0.4
		c0,0.5,0.4,0.9,0.9,0.9c0.2,0,0.3,0.2,0.3,0.3l0,8.8c0,0.2-0.2,0.3-0.3,0.3c-1.1,0-0.7,1.2-1.3,1.2H24.4c0.2-0.2,0.4-0.4,0.6-0.7
		h35.9c0.1-0.6,0.6-1.1,1.2-1.2l0-8.2c-0.7-0.1-1.2-0.7-1.2-1.3l-45,0.1c-0.1,0.6-0.6,1.1-1.2,1.2v8.2c0.6,0.1,1.1,0.6,1.2,1.2h2.6
		c0.2,0.2,0.4,0.4,0.6,0.6l0.5-1.1c-0.8-0.8-1.1-2-0.7-3.1c0.5-1.6,2.3-2.4,3.9-1.9c1.6,0.5,2.4,2.3,1.9,3.9c-0.5,1.3-1.7,2.1-3,2
		l-1.1,2.4h44c0.3,0,0.6-0.3,0.6-0.6v-1.2l1.8,3.4H19.7l-1.7,3.7h46.5c0.2,0,0.3-0.1,0.3-0.1c0,0,3.2-2.6,3.2-2.6
		c0,0,0.1-0.1,0.1-0.1c0.1-0.1,0.1-0.3,0.1-0.4c0-0.1-2.3-4.3-3-5.6c11.2-2.3,12.2-11.5,12.2-14.4c0-5.3,7-4.7,7-9.9v-14
		C84.5,53.3,83.6,52.7,82.6,52.7z M23.1,87.3c-1.6-0.5-3.3-0.1-4.4,1.1c0-0.2,0.1-0.4,0.1-0.5c0.5-1.6,2.3-2.4,3.9-1.9
		c1.1,0.4,1.9,1.3,2,2.4C24.3,87.8,23.8,87.5,23.1,87.3z M63.8,42.4c-12.4-6.8-32-16.6-41.3-21.3c1.4-2.3,3.1-4.6,4.6-5.4
		c3.2,1.8,11.7,6.9,20.4,12.4c6.7,4.2,13.4,8.5,18.1,11.4c-0.4,0.4-0.8,1-1.1,1.6C64.3,41.5,64,41.9,63.8,42.4z M64.8,42.9
		c0.2-0.5,0.5-0.9,0.7-1.3c0.4-0.6,0.7-1.2,1-1.5l0.1-0.1c2.1,1.3,3.6,2.3,4.4,2.7c6.3,3.8,6.6,6,6.4,9.8v1.1H76l0-1.6l0-0.1
		c-0.2-1.1-0.7-2-1.3-2.7C74.2,48.3,70.3,46,64.8,42.9z M74.1,55.7c-0.7,0-0.7-1.1,0-1.1H80c0.7,0,0.7,1.1,0,1.1H74.1z M57.7,62.6
		l14.5,0.6c2.1,0,3.8-1.4,3.8-3.5l0-1.6h1.4v1.6c0,2.9-2.4,5.2-5.2,5.2l-14.5-0.6L57.7,62.6z M56.7,61c0.7,0.1,0.7,0.3,0.7,0.7
		l0,1.1c0-0.4-0.1-0.6-0.8-0.7l-1.2,0c-0.4-0.3-1-0.4-1.5-0.4c-0.5,0-1,0.1-1.4,0.3l-6.6-0.2c-0.1-0.5-0.2-0.9-0.4-1.4L56.7,61z
		 M52.3,63.8c0.3-0.6,0.9-1,1.7-1c1,0,1.9,0.8,1.9,1.9c0,0.1,0,0.2,0,0.3L52.3,63.8z M55.6,65.6c-0.3,0.6-0.9,1-1.6,1
		c-1,0-1.9-0.8-1.9-1.9c0-0.1,0-0.2,0-0.3L55.6,65.6z M45.1,66.5l0.6,0c3.7,0.5,6.1,1.3,6.1,2.3c0,1.5-6.1,2.7-13.5,2.7
		s-13.5-1.2-13.5-2.7c0-1.3,4.2-2.3,9.9-2.6c-5.1,0.3-8.8,1.4-8.8,2.6c0,1.5,5.6,2.7,12.4,2.7s12.4-1.2,12.4-2.7
		c0-1-2.3-1.8-5.7-2.3C45,66.5,45,66.5,45.1,66.5z M49.8,68.8c0,1.3-5.2,2.3-11.5,2.3s-11.5-1-11.5-2.3c0-1.1,3.4-1.9,8.2-2.2
		c-4.2,0.3-7.3,1.2-7.3,2.2c0,1.3,4.7,2.3,10.6,2.3c5.9,0,10.6-1,10.6-2.3c0-0.8-1.8-1.5-4.6-1.9l0.1-0.1
		C47.6,67.2,49.8,67.9,49.8,68.8z M36.8,70.3c-3.7-0.1-6.5-0.8-6.5-1.6c0-0.7,2.2-1.3,5.3-1.5c-2.7,0.2-4.7,0.8-4.7,1.5
		C31,69.5,33.5,70.2,36.8,70.3z M29.5,68.8c0,1,3.4,1.8,7.8,1.9c-4.8-0.1-8.5-0.9-8.5-1.9c0-0.8,2.7-1.6,6.5-1.8
		C31.9,67.2,29.5,67.9,29.5,68.8z M37.4,69l0.3-0.8c-0.1-0.1-0.1-0.3-0.1-0.5l1.2-3.8c0.3,0.2,0.6,0.3,1,0.3l0.1,0L38.6,68
		c-0.1,0.2-0.2,0.3-0.4,0.4L38,69.1c0,0.1-0.1,0.2-0.2,0.2l-0.2,0.6c-0.1,0.2-0.4,0.1-0.3-0.1l0.2-0.6C37.4,69.2,37.4,69.1,37.4,69z
		 M43.4,67.7L43.4,67.7c1.7,0.2,2.7,0.6,2.7,1.1c0,0.9-3.5,1.6-7.8,1.6c4,0,7.2-0.7,7.2-1.6C45.5,68.3,44.7,67.9,43.4,67.7z
		 M43.9,67.3L43.9,67.3c2.4,0.3,3.9,0.8,3.9,1.5c0,1.1-4.2,1.9-9.5,1.9c-0.2,0-0.5,0-0.7,0l0,0c0.2,0,0.5,0,0.7,0
		c4.8,0,8.7-0.9,8.7-1.9C47,68.2,45.8,67.7,43.9,67.3z M39.8,57.5c2.8,0,5.1,2.3,5.1,5.1c0,2.8-2.3,5.1-5.1,5.1c-0.1,0-0.3,0-0.4,0
		l1.2-3.7c0.5-0.3,0.9-0.8,0.9-1.4c0-0.9-0.7-1.6-1.6-1.6c-0.9,0-1.6,0.7-1.6,1.6c0,0.3,0.1,0.5,0.2,0.7L37.1,67
		c-1.5-0.9-2.5-2.5-2.5-4.4C34.6,59.8,36.9,57.5,39.8,57.5z M23.7,68.8c0,1.8,6.5,3.2,14.5,3.2s14.5-1.4,14.5-3.2
		c0-0.8-1.5-1.6-4-2.2l1.1,0c2.6,0.6,4.1,1.3,4.1,2.2C54,70.5,47,72,38.3,72s-15.8-1.4-15.8-3.2c0-1.5,5-2.7,11.9-3.1
		C28.2,66.1,23.7,67.3,23.7,68.8z M21.4,68.8c0,2,7.6,3.7,16.9,3.7c9.3,0,16.9-1.7,16.9-3.7c0-0.4-0.3-0.8-0.8-1.1
		c0.3,0,0.6-0.1,0.9-0.3c0.9,0.4,1.4,0.9,1.4,1.4c0,2-8.2,3.7-18.4,3.7c-10.1,0-18.4-1.7-18.4-3.7c0-1.8,6-3.2,14.2-3.6
		C26.8,65.6,21.4,67,21.4,68.8z M33.9,64.7C25.4,65.1,19,66.8,19,68.8c0,2.3,8.6,4.2,19.2,4.2c10.6,0,19.2-1.9,19.2-4.2
		c0-0.6-0.6-1.2-1.7-1.7c0.1-0.1,0.2-0.2,0.3-0.2c0.2,0,0.4,0,0.6,0c1.6,0.6,2.5,1.3,2.5,2c0,2.3-9.4,4.2-20.9,4.2
		c-11.5,0-20.9-1.9-20.9-4.2C17.4,66.7,24.4,65.1,33.9,64.7z M59.5,70.4l0,1.9c0,2-9.4,3.6-21,3.6s-21-1.6-21-3.6l0-1.6
		c3.5,1.6,11.5,2.7,20.8,2.7C48,73.3,56.3,72.1,59.5,70.4z M64.2,80.1H12.6l-2.2-2.3h55.8L64.2,80.1z M76.7,68.9c-0.2,0-0.4,0-0.6,0
		c-2,0.2-4,1-4,5.6c0,2.2,0.2,5.4-0.8,7.5c-0.9,1.8-2.7,2.9-6.3,3.5v-0.7c2.1-0.4,4.7-1.1,5.7-3.2c0.2-0.4,0.4-1,0.5-1.5
		c-0.7,1.4-2.4,2.5-6.2,3.1v-2.4l3-3.3l0-0.1c0-0.1,0.1-0.2,0.1-0.3c0,0,0,0,0-0.1c0-0.1,0-0.3-0.1-0.4c0-0.1-0.1-0.2-0.2-0.3
		l-3.5-5.9l0-0.1l-0.1-0.1c0-0.1-0.1-0.1-0.2-0.2c-0.1,0-0.2-0.1-0.3-0.1h-0.1h0h-4.1c0.8-0.5,1.2-1,1.2-1.5c0-0.9-1.2-1.7-3.4-2.4
		l0-0.1l14.9,0.6c0.4,0,0.8,0,1.2-0.1l3.1,0.1L76.7,68.9z M80.6,66.9c0,1.9-1.8,2-3.4,2l0.1-2l0.8,0l0.1-2.9
		c0.9-1.2,1.5-2.7,1.5-4.3v-1.6h0.5c0.2,0,0.3,0,0.5,0V66.9z"/>
</g>
</svg>
