<?xml version="1.0" encoding="utf-8"?>
<!-- Generator: Adobe Illustrator 19.1.0, SVG Export Plug-In . SVG Version: 6.00 Build 0)  -->
<svg version="1.1" id="Layer_1" xmlns="http://www.w3.org/2000/svg" xmlns:xlink="http://www.w3.org/1999/xlink" x="0px" y="0px"
	 viewBox="0 0 36.9 20" style="enable-background:new 0 0 36.9 20;" xml:space="preserve">
<style type="text/css">
	.st0{fill:#FFFFFF;}
</style>
<path class="st0" d="M35.4,0c-0.3,0-0.7,0.1-1.1,0.4L19,15.8l-0.5,0.5l-0.5-0.5L2.6,0.4C2.2,0.1,1.8,0,1.5,0C1.1,0,0.8,0.2,0.5,0.4
	C0.3,0.6,0,1,0,1.5c0,0.4,0.2,0.8,0.4,1.1l16.9,16.9c0.3,0.3,0.7,0.5,1.1,0.5s0.8-0.2,1.1-0.5L36.4,2.6c0.3-0.3,0.4-0.7,0.4-1.1
	C36.9,0.6,36.1,0,35.4,0z"/>
</svg>
