<?xml version="1.0" encoding="utf-8"?>
<!-- Generator: Adobe Illustrator 19.1.0, SVG Export Plug-In . SVG Version: 6.00 Build 0)  -->
<svg version="1.1" id="Layer_1" xmlns="http://www.w3.org/2000/svg" xmlns:xlink="http://www.w3.org/1999/xlink" x="0px" y="0px"
	 viewBox="-2506 1349.7 114.9 146" style="enable-background:new -2506 1349.7 114.9 146;" xml:space="preserve">
<style type="text/css">
	.st0{fill:#39A4DD;}
</style>
<g>
	<g>
		<path class="st0" d="M-2461.5,1432.8c-1.9,0-2.3-0.5-2.2-2.3c0.1-1,0.8-1.3,1.4-1.3c1.3,0.1,1.9,1.6,1.7,3.5
			c1.1-1.3,2.3-2.4,2.9-4c2.9-5.2,4.3-10.7,2.9-16.9c-0.2-0.2,0.1-0.8,0.3-1c0.3,0.2,0.9,0.1,0.8,0.5c0.3,0.7,0.4,1.3,0.7,2
			c0.1,0.5,0.1,1,0.2,1.6c0.9-0.7,1.8-1.4,2.6-2c0.8-0.5,0.6-1.2,0-1.6c-1.6-1-2-2.4-1.8-4.3c0.2-2-1.6-4.9-3.2-5.5
			c-0.2,0-0.5-0.2-0.9-0.1c-1.6,0.7-3.1,1.5-4.6,2.3c0.8,0.7,1.7,1.3,2.6,1.7c0.7-1.7,1.5-2.3,2.6-2c0.9,0.3,1.6,0.8,1.5,2
			c-0.2,1.9-1.5,1.6-2.5,1.7c0.1,0.8,0.4,1.5,0.5,2.1c-0.2,0-0.2,0.2-0.4,0.1c-2.1-1.6-4.1-3.4-6.4-5c-0.2,0.8-0.5,1.4-0.9,2
			c-1.6,2.9-4,3.6-7,3.5c-2.7-0.1-4.8-1.4-6.7-3.5c-0.6-0.7-1.6-1.4-2.4-2.1c-0.5-0.5-0.9-0.3-1.2,0.2c-0.4,0.8-0.8,1.3-1.5,2.1
			c-1.7,1.9-4.1,1.7-5.7-0.2c-0.6-0.7-1.1-0.7-1.7-0.2c-1.1,1.2-2.2,2-3.1,3.4c-0.6,1.2-0.8,2.8-1.2,4.2c0,0.2,0.5,0.5,0.6,0.7
			c1.2,0.9,2.4,1.9,3.4,3c0.8,0.9,0.4,1.6-0.7,2c-0.1,1.2,0.1,2.7-1.4,2.7c-0.5-0.1-1.3-0.7-1.6-1.4c-0.4-1.3-0.1-2.3,1.2-2.7
			c0-0.2-0.2-0.2-0.1-0.5c-0.3,0-0.9-0.1-1.3,0c-0.2,0-0.4,0.3-0.6,0.6c-0.7,2-0.8,2.6,0.9,3.6c2.8,1.5,5.8,2.9,8.8,4.5
			c0.8,0.5,1.7-0.2,1.4-1.3c-0.2-1.3-0.5-2.3,1.1-2.8c0.4-0.1,0.6-1.4,1.2-2.3c0.4,0.9,1.4,1.6,1.5,2.4c-0.1,0.8-0.8,1.5-1.6,2.4
			c0,0,0.1,0.5,0.3,0.8c0.7,1.7,0.1,3-1.8,3.7c-0.4,0.1-0.8,0.5-1.1,0.9c-1.3,2.1-2.8,4.4-4,6.5c-0.2,0.3-0.3,1.2-0.3,1.6
			c-0.1,3.5-0.5,7.1-1.9,10.2c-0.9,2.1-2.2,4.2-3.2,6.4c-0.7,1.5-1.5,3.3-2,5.1c-0.2,0.6-0.1,1.2,0,1.9c0.1,0.6,0.4,1.3,0.7,2
			c1.4,3.4,0.3,6.4-1.8,9c-0.2,0.2-0.8,0.5-1.2,0.5c-1.3-0.3-1.9,0.2-2.5,1.2c-0.6,0.9-1.6,1.4-2.7,1.3c-1.8-0.2-3.3-2.4-3.5-4.9
			c-0.2-3.5,0.6-6.6,2.2-9.5c2.1-3.6,2.9-7.6,3.5-11.8c0.7-6,2.1-12,4.1-17.7c0.9-2.3,1.3-5,1.7-7.6c0-0.3-0.3-0.8-0.6-1
			c-1.7-2.2-2-4,0-6.3c0.4-0.3,0.4-0.9,0.1-1.6c-0.3-0.7-0.4-1.3-0.5-2.1c-0.1-0.8-0.4-1.9-0.3-2.9c0.1-0.6,0.3-1.4,0.7-1.7
			c1.5-1.5,3.1-2.7,4.6-4.2c1.4-1.3,3.3-1,4.4,0.3c0.6,0.9,1.4,0.8,2.2-0.1c0.4-0.8,0.8-1.3,1.5-2.1c1.1-1.2,2.2-1.4,3.6-1
			c0.9,0.3,1.2-0.1,1.3-1c0.2-2.4,0.3-4.9-0.6-7.2c-0.1-0.5,0.1-1.2,0.2-1.9c0.5,0.2,1.3,0.3,1.8,0.6c0.2,0,0.2,0.2,0.2,0.2
			c1.4,3.6,1.9,7.3,0.2,11.1c1.3,2.2,6,4.5,9.2,3.5c0.5-0.1,0.9-0.5,1.4-0.8c0.2-0.3,0.3-1,0.3-1.4c-0.4-1.6-0.8-3.1-1.3-4.7
			c0-0.2-0.1-0.6-0.1-0.8c0.2-0.6,0.4-0.9,0.7-1.5c0.3,0.5,1.1,0.9,1.2,1.5c0.3,1,0.2,2.1,0.4,3.4c2.5-1.4,4.6-2.3,7-3.5
			c1.4-0.7,2.6-0.3,3.9,0.5c3.2,2,4.8,5.1,4.8,9.2c0,0.2,0.1,0.6,0.3,0.8c0,0.2,0.2,0.2,0.3,0.2c2,2.3,2.1,3.5-0.3,5.5
			c-0.2,0.2-0.4,0.3-0.4,0.3c0.9,2.1,2,4.3,2.3,6.4c0.6,2.9,0.9,6,1.4,9c0.2,1.6,0.4,3.4,1.1,4.8c0.3,0.8,1.5,1.6,2.2,1.7
			c2.2,0.7,3.2,1.7,3.5,4.3c0.1,1.3,0.3,2.4,0.5,3.7c0.2,1.5-0.2,2.4-1.1,3.6c-0.2,0.3-0.4,0.9-0.3,1.2c0.2,0.2,0.7,0.5,1.1,0.6
			c7.7-0.7,15.2,0.7,22.5,2.6c2.7,0.7,5.3,1.4,7.9,2.1c1.1,0.3,2,0.2,2.8-0.5c1.1-0.9,2-1.9,3.1-2.7c0.4-0.3,0.6-0.9,0.8-1.5
			c0.8-2.6,2.3-4.4,4.1-5.8c0.4-0.3,1.2-0.5,1.5-0.2c0.3,0,0.4,1,0.4,1.5c-0.8,6.4-1.6,12.7-4.7,18.5c-1.2,2.1-1.8,2.9-4.3,2.2
			c-4-1-8.2-1.7-12.2-1.6c-4.6,0.2-9.3,0.3-13.9,0.2c-2.2,0-4.4-0.7-6.3-1.5c-2.8-1.2-5.7-1-8.4-0.8c-2.2,0.1-4.6,0.1-7,0.6
			c-2.2,0.3-4.3,1.2-6.6,1.6c0,0.2,0,0.2,0,0.3c0.9,0.3,2,0.8,2.8,1.2c3.4,1.4,7,2.9,10.3,4.4c1.8,0.8,3.5,2.2,5.3,2.9
			c5.2,2,10.5,3.8,15.7,6.2c3.6,1.4,6.3-0.2,8.8-2.9c2-2,3.9-4.4,6-6.5c0.6-0.6,1.8-0.8,2.4-0.6c0.9,0.3,0.7,1.5,0.5,2.3
			c-1.7,4.3-3.5,8.8-5.2,13.1c-0.5,1.2-1.2,2.3-1.7,3.7c-1.3,3.1-3.9,4.1-6.6,3.1c-2.1-0.8-4.3-0.9-6.7-0.9c-4-0.2-7.9-0.5-11.9-1.2
			c-4.4-0.7-8.4-2.8-12.5-5.1c-1.6-0.8-3.4-1.4-5.1-1.4c-4.2-0.2-8.4-1.2-12.3-2.7c-1.1-0.3-2.2-0.7-3.1-0.9
			c-0.9-0.3-1.2,0.2-1.2,0.9c-0.3,1.2-0.8,1.3-1.8,1.4c-3.4,0-6.1-1.5-9.2-3.1c-3.6-1.9-6.8-3.6-9.2-7.2c-0.2-0.2-0.5-0.5-0.6-0.9
			c-0.1-0.6-0.1-1.3-0.2-1.6c0.5,0.1,1.1,0.1,1.5,0.6c1.1,0.7,2,1.9,3.1,2.6c4,2.7,8.2,5.5,12.9,6.6c1.1,0.3,1.9,0,2.3-0.9
			c1.3-2.1,2.6-4.4,4.1-6.5c3.2-4.5,7.3-7.9,12.3-9.2c5.2-1.4,9.3-4.2,12.5-8.8c0.6-0.9,1.5-1.6,2.3-2.8c-0.3,0-0.9-0.3-0.9-0.1
			c-0.6,0.9-1.2,0.5-1.7,0c-0.6-0.9-1.5-1.6-2-2.7c-1.8-4.3-4.6-7.3-8.5-9.4c-1.4-0.8-2.7-2-4-2.7c-1.9,1-3.7,2-5.8,2.6
			c-2.3,0.8-4.5,1.2-7,1.3c-2.8,0.2-5.6,0-8.2-1.4c-0.8-0.5-1.8-1-2.6-1.5c-1.4-0.8-1.7-2.2-1.5-3.8c0.1-1.2,0.8-0.9,1.6-0.7
			c1.1,0.6,1.9,1,2.8,1.5c6.2,2.3,12.2,1.9,18.1-1.4C-2461.5,1433-2461.5,1433-2461.5,1432.8z M-2424.9,1490.8
			c0.5,0.1,1.1,0.1,1.7,0.2c1.3,0.1,3.1-1.5,3.3-2.9c0.1-1,0.2-1.9,0.3-2.8c0.1-0.8-0.2-1.3-0.9-1.4c-1.5-0.1-2.9-0.3-4.2-0.9
			c-3.6-1-7.1-2.2-10.6-3.5c-3.1-1.2-6.3-2.2-8.8-4.3c-0.8-0.7-1.9-1.4-2.7-2c-3.2-1.4-6.6-2.4-9.6-4.2s-5.1-1.2-7.5,0.9
			c-2.8,2.6-2.9,7.2-0.7,10.1c0.2,0.2,0.3,0.2,0.7,0.2c3.1,0.6,6.2,0.9,9.5,1.7c1.8,0.5,3.5,0.6,5.3,1.3c2,0.8,3.7,2.1,5.7,2.9
			C-2438.1,1489-2431.5,1489.9-2424.9,1490.8z M-2404.8,1464.5c-0.4-1.6-0.8-3.1-1.4-4.7c-0.1-0.5-0.8-0.9-1.2-0.9
			c-1.5-0.6-3.1-0.9-4.5-1.4c-2.5-0.9-5-2-7.6-2.6c-5.7-0.8-11.4-1.3-17.1-2c-2.7-0.3-5,1.5-5.6,4.4c-0.3,1.4,1.2,3.4,2.4,3.7
			c1.7,0.2,3.3,0.6,4.8,1.2c2.5,0.7,4.8,1.7,7.7,1.5C-2419.8,1463.1-2412.5,1463-2404.8,1464.5z M-2492.6,1425.7
			c-0.2,0.6-0.5,1.4-0.5,2c-0.7,3.4-1.2,6.9-2.2,10c-0.5,1.4-1.1,2.9-1.4,4.3c-0.9,5.1-1.8,10.1-2.6,14.9c-0.1,0.6-0.3,1.4-0.5,2
			c-1.2,2.7-2.5,5.6-3.8,8.4c-0.6,1.4-0.4,3-0.2,4.4c0.3,1,1.3,2,1.9,1.6c1.4-1,2.9-1.9,2.9-4.2c0-0.3,0.1-0.8,0.1-1
			c0.3-1,0.8-1.2,1.4-0.5c0.3,0.7,0.6,1.3,0.7,2.1c0.2-0.2,0.2-0.3,0.2-0.6c0.7-2,0.5-3.8,0-5.6c-0.5-1.9-0.9-3.6-0.2-5.6
			c0.9-2.6,2.1-4.9,3.1-7.2c0.9-2.3,2.1-4.4,2.7-7.1c0.6-2.6,0.6-5.2,1.2-7.8c0-0.3,0.1-1.2,0.3-1.4c1.8-1,2-3,2.6-4.7
			c0.2-0.8,0.1-1.2-0.7-1.7C-2489.2,1427.5-2490.9,1426.5-2492.6,1425.7z M-2455.6,1431.4c-1.1,0.9-1.7,1.6-2.4,2.3
			c-0.2,0.2-0.4,0.6-0.6,0.7c0.3,0.2,0.5,0.5,0.8,0.7c1.6,0.8,3.2,1.4,4.8,2.2c3.6,1.9,6.4,4.9,7.7,9.1c0.3,1,1.2,1.4,2.3,1.5
			c-0.6-1.3-1.1-2.2-1.6-3.3c-0.2-0.2-0.3-0.7-0.1-0.8c0.2-0.2,0.6-0.3,0.8-0.5c1.2-0.1,1.8,0.6,2.1,1.6c0.3,1,0.3,2.1,0.6,3.1
			c0.9-0.5,1.4-1,1.2-2.6c-0.3-1-0.5-2.3-0.6-3.4c-0.1-1-0.6-1.7-1.7-1.9c-2-0.6-3.3-2.2-4.2-4.2c-1.1-2.3-0.8-5-1.2-7.4
			c-0.3-4-1.2-7.7-3.3-10.8c-0.2-0.2-0.7-0.5-0.8-0.5c-0.2,0-0.4,0.6-0.4,0.9c-0.1,1.4-0.3,2.8-0.5,4.1c-0.5,2.2-1.4,4.5-1.9,6.5
			c0.6,0.9,1.4,1.6,1.6,2.4c0.3,0.8,0.2,2.1,0.2,3.1c0,1-0.3,1.2-1.1,1.2c-1.1-0.1-1.4-1.2-1.7-2.2
			C-2455.1,1432.6-2455.3,1432.3-2455.6,1431.4z M-2402.9,1461.8c2-2,2.9-5.2,1.9-6.7c-0.8,0.7-1.6,1.3-2.4,2
			c-0.2,0.2-0.4,0.3-0.4,0.6C-2403.4,1458.9-2403.1,1460.4-2402.9,1461.8z M-2415.3,1481.3c-0.8,0.5-1.6,0.8-2.1,1.2
			c0.2,1.3,0.3,2.3,0.6,3.4C-2414.9,1484.2-2414.6,1483.6-2415.3,1481.3z"/>
		<path class="st0" d="M-2463.2,1368c-1.6-1.9-3.1-3.3-5.3-4c-2.8-0.7-6-0.7-8.3,1.3c-1.8,1.6-3.8,2.1-5.9,3
			c-1.6,0.7-2.6,2.2-3.5,3.7c-1.4,2.3-2.6,4.7-3.8,7c-0.2,0.6-0.5,1.2-0.7,1.7c1.3,0.7,2.4,0.2,3.5,0c0.5-0.1,0.9-0.1,1.5-0.2
			c-0.1,0.6,0.1,1.3,0,2.1c0,0.2-0.2,0.6-0.2,0.8c0.9-0.1,1.9-0.3,2.6-0.1c1.3,0.6-0.3,1.7,0.1,2.7c0.7-0.3,1.6-0.7,2.5-1.2
			c-0.1,0.6-0.1,1,0,1.4c2,0,3.2-1.9,2.6-4.2c-0.4-1.5-1.3-2.4-2.5-3.1c-1.3-0.6-2.5-1.2-3.6-1.9c-0.3-0.2-0.8-0.9-0.6-1
			c0.6-0.9,0.2-1.9,0.1-2.9c0.1-0.6,0.5-1.6,1.1-1.7c0.6-0.3,1.7-0.5,2.2-0.1c1.3,0.7,0.4,1.5-0.2,2.2c0.5,0.5,1.1,0.7,1.6,1.2
			c0,0.2,0.1,0.5,0.1,0.5c-0.6,0.3-1.4,0.5-1.9,0.8c0.2,0.2,0.2,0.2,0.3,0.5c0.2,0,0.2,0.2,0.3,0.2c1.6-1.3,3.2-2.4,4.4-4.2
			c0.6-0.9,0.8-2.6,1.2-4c0-0.3,0.2-0.8,0.5-1.2c0.3,0.2,0.7,0.5,0.8,0.7c1.7,2.2,1.7,3.7-0.2,5.7c-1.3,1.5-2.8,2.6-4.3,4
			c1.6,1,2.7,2.8,3.3,5.1c0.6,2.8-0.5,5.7-2.3,7.1c-2.6,2.2-5.4,1.4-8,0.1c-1.4-0.8-2.8-1.5-4.2-2.6c-4.2-2.8-3.8-8.6-0.9-10.9
			c1.4-1.3,2.4-2.6,2.8-4.8c0.9-3.8,3.7-5.5,6.7-6.7c0.4-0.1,0.6-0.7,1.1-1.2c0.6-0.6,1.1-1.3,1.7-1.9c6-3.5,12.9-1.6,16.3,2.6
			c1.1,1.2,2.2,1.7,3.5,2.4c1.3,0.7,2.2,2.6,1.9,4c0,0.2-0.4,0.8-0.6,0.7c-4.3,1.2-8.6,1.4-12.7-0.8c-1.3-0.7-2.2-1.9-3.3-2.8
			c-0.2-0.2-0.1-0.6-0.3-1c0.3,0,0.7-0.1,1.2-0.1c0.5,0.2,1.1,0.7,1.6,1C-2469.1,1370.5-2465.1,1370.2-2463.2,1368z"/>
		<path class="st0" d="M-2472.2,1393.4c0.5,0.2,0.9,0.3,1.5,0.6c2.9,1.7,6,1.5,8.7-0.5c1.4-1,2.1-2.8,2.6-4.7
			c0.5-2.2,0.7-4.4,0.9-6.6c-0.6,1.4-1.5,1.5-2.5,0.7c-0.3-0.2-0.7-0.1-1.1-0.1s-0.7-0.2-0.8-0.5c-0.2-0.2,0.1-0.6,0.1-0.8
			c1.1-1.7,2.7-1.7,3.9-0.3c0,0,0.2,0.2,0.7,0.5c-0.2-2.1-0.3-4-0.5-5.8c-0.1-0.6-0.3-1-0.2-1.6c0-0.3,0.2-0.8,0.5-1.2
			c0.3,0.2,0.9,0.3,1.1,0.7c0.4,1.3,0.8,2.8,1.1,4.2c0.1,0.8,0.4,1.5,1.2,1.7c1.3,0.6,1.5,1.9,1.6,3.3c0.1,2.3-0.9,4-2.7,5
			c-0.4,0.1-0.6,0.7-0.6,1.2c-0.5,2.2-1.4,4.3-2.9,6c-0.4,0.3-1.1,0.9-1.4,1c-2.8,1-5.7,1.2-8.5,0c-0.8-0.5-1.7-1.6-2.3-2.6
			C-2472.4,1393.9-2472.4,1393.7-2472.2,1393.4z"/>
		<path class="st0" d="M-2403.3,1475.7c-0.6,4.2-2.4,7.9-3.9,11.6c-0.7,1.5-1.6,3.3-2.3,4.9c-0.2,0.2-0.2,0.6-0.2,0.8
			c-0.2,2-2.3,3-4.1,2.6c-0.7-0.2-1.1-0.7-0.4-1.5c3.4-4.8,6.1-9.9,7.5-15.9c0.3-1.6,0.8-3,1.4-4.5c0.2-0.3,0.6-0.9,1.1-0.9
			c0.3,0,0.8,0.5,1.1,0.9C-2403.3,1474.1-2403.4,1474.9-2403.3,1475.7z"/>
		<path class="st0" d="M-2391.2,1449.3c-0.8,2.6-1.5,5.4-2.2,7.9c-0.3,1.4-0.8,2.8-1.2,4c-0.4,2.4-1.6,4.5-2.6,6.6
			c-0.2,0.3-0.4,0.8-0.8,0.7c-0.5,0.1-1.2,0.1-1.7,0.2c0.1-0.6-0.1-1.3,0.2-1.9c2-3,2.6-6.6,3.9-10.2c0.5-1.2,0.8-2.6,1.1-3.7
			c0.5-2.2,0.7-4.2,0.4-6.5c-0.1-1,0.3-1.7,1.1-1.7c0.5,0.1,1.3,0.7,1.6,1.2C-2391.1,1447.1-2391.2,1448.1-2391.2,1449.3z"/>
		<path class="st0" d="M-2485.5,1440c-0.6,0.3-0.9,0.7-1.4,0.8c-0.2,0.2-0.6,0.3-0.7,0.1c-0.1-0.2-0.5-0.7-0.3-0.8
			c0.1-0.6,0.3-1.2,0.5-1.6c0.6-0.7,1.3-1.5,2.1-2.2c0.2-0.2,0.9-0.1,1.1,0.1c0.3,0.8,0.2,1.6,0.3,2.3c-0.2,0-0.2,0-0.4,0.1
			c0.5,0.5,1.1,0.9,1.6,1.4c0.3,0.5,0.4,1.3,0.4,1.5c-0.2,0.6-1.1,0.9-1.6,1.3c-0.2,0-0.8-0.5-1.1-1.2
			C-2485.3,1441.7-2485.3,1440.9-2485.5,1440z"/>
		<path class="st0" d="M-2460.2,1419.4c0.1-1.2,0.7-2,2-1.9c1.3,0.1,2.1,1,2,2.3c-0.1,1.2-0.9,2.6-1.9,2.4
			C-2459.6,1422.2-2460.3,1420.9-2460.2,1419.4z"/>
		<path class="st0" d="M-2459,1456.1c-0.1,1.2-1.2,2.3-2.2,2.2c-1.1-0.1-2.2-1.7-2.1-2.9c0.1-0.6,1.5-1.6,2.2-1.6
			C-2460.3,1454.1-2459,1455.3-2459,1456.1z"/>
		<path class="st0" d="M-2482.9,1448.5c-0.1,1.2-1.4,2.6-2.3,2.4c-1.1-0.1-1.9-1.6-1.9-3.1c0.1-1,1.1-1.7,2.2-1.6
			C-2483.7,1446.4-2482.8,1447.3-2482.9,1448.5z"/>
		<path class="st0" d="M-2490.8,1457.2c0.3,0.2,1.3,0.7,1.9,1.6c0.6,0.9,0.3,2.1-0.4,2.6c-0.9,0.7-2.1,0.6-2.7-0.5
			c-0.3-0.7-0.4-1.3-0.5-2.1C-2492.9,1457.8-2492.5,1457.1-2490.8,1457.2z"/>
		<path class="st0" d="M-2458,1442.8c-0.1,1.4-0.7,2.3-1.9,2.2c-1.1-0.1-2.3-1.5-2.2-2.6c0.1-0.8,1.7-2.4,2.3-2.4
			C-2458.8,1440.2-2457.9,1441.6-2458,1442.8z"/>
		<path class="st0" d="M-2463.8,1449.5c0.1-1.4,0.9-2.1,2.2-2c1.1,0.1,1.8,0.8,1.7,2c-0.1,1.4-1.4,2.6-2.4,2.3
			C-2463.1,1451.8-2463.8,1450.8-2463.8,1449.5z"/>
		<path class="st0" d="M-2454.1,1460.1c-1.1-0.1-2.2-1.7-2.1-2.7c0.1-1,1.5-1.9,2.5-1.5c0.9,0.3,1.8,0.5,1.5,1.9
			C-2452.2,1459.6-2452.8,1460.4-2454.1,1460.1z"/>
		<path class="st0" d="M-2451.7,1444.4c-0.1,1.2-1.2,2.1-2.2,2c-1.1-0.1-2.3-1.5-2.1-2.7c0.1-0.8,1.3-1.5,2.3-1.4
			C-2452.6,1442.4-2451.5,1443.3-2451.7,1444.4z"/>
		<path class="st0" d="M-2467.6,1459.8c0.8,1.2,1.5,1.6,1.8,2.4c0.3,1-1.6,2.7-2.4,2.6c-0.7-0.1-1.9-1.6-1.6-2.8
			C-2469.6,1460.9-2468.5,1460.4-2467.6,1459.8z"/>
		<path class="st0" d="M-2487.2,1452.9c2,0.2,2.8,1.4,2.7,2.6c-0.1,1-1.3,2.1-2.2,2c-1.1-0.1-2-1.9-1.5-3.5
			C-2488.1,1453.5-2487.3,1453.1-2487.2,1452.9z"/>
		<path class="st0" d="M-2480.7,1409.7c0.6-0.9,1.1-1.5,1.5-2.1c0.2-0.2,0.6-0.3,0.9-0.1c1.1,0.3,1.9,3.5,1.1,4.2
			c-0.6,0.6-1.6,0.8-2.1,0.6C-2479.9,1411.6-2480.3,1410.5-2480.7,1409.7z"/>
		<path class="st0" d="M-2468.1,1457.2c-1.3-0.1-2.3-1.5-1.8-2.9c0.2-0.8,1.3-1.3,2-1.6c0.7-0.1,1.9,1.6,1.8,2.7
			C-2466.2,1456.8-2466.9,1457.3-2468.1,1457.2z"/>
		<path class="st0" d="M-2490.4,1464.4c2,0.5,2.8,1.5,2.6,3c-0.1,0.8-1.5,1.6-2.2,1.6c-0.9-0.1-1.8-2.1-1.5-3.5
			C-2491.2,1464.8-2490.6,1464.6-2490.4,1464.4z"/>
		<path class="st0" d="M-2485.2,1411c0.1-1.4,0.7-2.3,1.7-2.2s1.6,1.4,1.4,2.7c-0.1,1.2-0.9,2.6-1.9,2.4
			C-2484.5,1413.6-2485.2,1412.4-2485.2,1411z"/>
		<path class="st0" d="M-2468.8,1427.9c-0.1,1.4-1.2,2.6-2.2,2.2c-1.1-0.1-1.6-1.2-1.4-3.3c0.1-1,1.1-1.2,1.8-1
			C-2469.6,1426.1-2468.7,1426.8-2468.8,1427.9z"/>
		<path class="st0" d="M-2476.2,1460.8c-0.1,1.2-1.2,2.3-2.3,2.4c-0.7-0.1-1.5-1.6-1.6-3c0.1-0.8,1.1-1.5,2-1.4
			C-2476.9,1458.8-2475.9,1459.8-2476.2,1460.8z"/>
		<path class="st0" d="M-2453.4,1450.3c-0.1,1.2-1.4,2.3-2.2,2.2c-1.1-0.1-2.1-1.5-1.8-2.7c0.1-0.8,1.3-1.5,2.2-1.4
			C-2454.1,1448.6-2453.4,1449.3-2453.4,1450.3z"/>
		<path class="st0" d="M-2476.4,1447.9c1.7,0.2,2.8,1.5,2.7,2.8c-0.1,1-0.9,1.7-2,1.6c-1.1-0.1-2.1-1.6-1.7-3.3
			C-2477.4,1448.3-2476.6,1448-2476.4,1447.9z"/>
		<path class="st0" d="M-2476.1,1432.5c-0.1-1.3,0.7-1.5,1.7-1.6c0.9-0.1,1.9,1.6,1.8,2.7c-0.1,0.8-1.2,2.1-1.9,2
			S-2476.2,1433.9-2476.1,1432.5z"/>
		<path class="st0" d="M-2462,1423.9c1.5,0.1,2.3,1,2.2,2.1c-0.1,1.2-1.2,2.1-2.2,2c-0.9-0.1-1.6-1.4-1.4-3
			C-2463.2,1424.2-2462.5,1423.9-2462,1423.9z"/>
		<path class="st0" d="M-2474.7,1470.6c-0.1,1.2-0.9,2.1-2,2c-0.9-0.1-1.9-1.6-1.8-3c0.1-1.2,1.1-1.2,1.8-1
			C-2475.5,1468.6-2474.6,1469.5-2474.7,1470.6z"/>
		<path class="st0" d="M-2482.5,1462.9c-0.1,1-1.3,1.7-2.2,1.6s-1.6-1.4-1.4-2.8c0.1-1.4,1.1-1.2,1.9-1
			C-2483.2,1460.6-2482.4,1461.8-2482.5,1462.9z"/>
		<path class="st0" d="M-2487.3,1411.2c-0.2,1.9-0.7,2.3-1.9,2.2c-1.3-0.1-1.8-0.8-1.7-2c0.1-0.8,1.9-2.2,2.6-2.2
			C-2487.3,1409.4-2487.2,1410.2-2487.3,1411.2z"/>
		<path class="st0" d="M-2472.7,1465.2c-0.1,1-1.3,1.9-2.2,1.7c-1.1-0.1-1.6-1.2-1.4-2.7c0.1-1,0.8-1.3,1.8-1.4
			C-2473.5,1463.1-2472.4,1464.3-2472.7,1465.2z"/>
		<path class="st0" d="M-2471.4,1382.5c1.2-2.1,2.6-2.6,4.4-1.3c0.7,0.5,0.8,1.2,0.4,1.9c-0.2,0.3-1.2,0.9-1.4,0.8
			c-0.8-0.7-1.8-1-2.7-0.7C-2470.8,1383.2-2471,1382.7-2471.4,1382.5z"/>
		<path class="st0" d="M-2466.9,1441.4c1.5,0.1,2.8,1.7,2.7,2.8c-0.1,0.8-1.3,1.7-2.2,1.6s-1.7-1.4-1.4-2.8
			C-2468,1442.3-2467.3,1441.7-2466.9,1441.4z"/>
		<path class="st0" d="M-2467.8,1448.8c-0.1,1-1.4,2.3-2.2,2.2s-1.8-1-1.7-2c0.1-1,1.3-1.9,2.4-1.7
			C-2468.4,1447.3-2467.8,1448-2467.8,1448.8z"/>
		<path class="st0" d="M-2480.5,1417.3c-0.1,1-1.2,2.1-1.9,2c-0.9-0.1-1.7-1.6-1.6-2.7c0.1-1.2,0.7-1.7,1.8-1.6
			C-2481.1,1415.2-2480.4,1416-2480.5,1417.3z"/>
		<path class="st0" d="M-2466.3,1421c1.1,0.1,1.9,1,1.8,2.1s-1.5,2.3-2.2,2.2c-0.7-0.1-1.4-1.4-1.3-2.6
			C-2468,1421.4-2467.3,1420.9-2466.3,1421z"/>
		<path class="st0" d="M-2463.9,1411c0.1-1.4,0.7-1.7,1.8-1.6c0.9,0.1,1.7,1.3,1.7,2c-0.1,1.2-1.2,2.1-2.1,2.2
			C-2463.6,1413.6-2464,1412.6-2463.9,1411z"/>
		<path class="st0" d="M-2474.9,1473.4c1.5,0.3,2.8,1.5,2.3,2.6c-0.4,0.8-1.3,1.5-2,1.9c-0.7,0.3-2-2.1-1.7-3.3
			C-2476.1,1473.8-2475.4,1473.7-2474.9,1473.4z"/>
		<path class="st0" d="M-2465.6,1389.9c0,0,0-0.2,0-0.3c0.4-0.6,3.4-0.6,3.4,0c-0.1,0.8-0.3,1.7-0.8,2.6c-0.2,0.3-0.9,0.7-1.4,0.5
			c-0.5-0.2-1.1-1.2-1.4-1.6C-2465.7,1390.8-2465.6,1390.3-2465.6,1389.9z"/>
		<path class="st0" d="M-2476,1423.3c0.1-1,0.6-1.4,1.5-1.5c1.1,0.1,2.1,1,2,2.1c-0.1,1-1.2,2.1-2.2,2
			C-2475.5,1426-2476.1,1424.7-2476,1423.3z"/>
		<path class="st0" d="M-2474.2,1457.9c-1.1-0.1-1.6-1-1.3-2.8c0.1-1.2,1.3-1,1.9-1c0.9,0.1,1.6,1,1.5,2
			C-2472.2,1457-2473.1,1458-2474.2,1457.9z"/>
		<path class="st0" d="M-2467.3,1429.9c1.5,0.1,2.8,1.4,2.4,2.1c-0.4,0.7-1.5,1.5-2.2,1.7c-0.6,0.3-1.5-1.6-1.3-2.8
			C-2468.3,1430.5-2467.6,1430.1-2467.3,1429.9z"/>
		<path class="st0" d="M-2459.4,1413.8c0.1-1.4,0.9-2.3,1.9-2c0.7,0.2,1.8,0.5,1.7,1.6c-0.1,1-1.7,2.2-2.6,2.2
			C-2459.2,1415.2-2460,1415-2459.4,1413.8z"/>
		<path class="st0" d="M-2486,1423.5c-1.1-0.1-1.6-1-1.4-2.8c0.1-1.2,0.8-1.3,1.6-1.3c1.2-0.1,1.8,0.8,1.7,2.2
			C-2484.4,1422.8-2485,1423.5-2486,1423.5z"/>
		<path class="st0" d="M-2450.4,1454.7c-0.9-0.1-2.1-1.6-1.7-2.2c0.4-0.8,1.4-1,2.3-1.4c0.5-0.1,1.4,1.2,1.3,2.2
			C-2448.5,1454.2-2449.4,1454.9-2450.4,1454.7z"/>
		<path class="st0" d="M-2480.2,1452.9c1.8,0.2,2.6,1.2,2.5,2.3c-0.1,1-1.1,1.7-2.2,1.6c-0.9-0.1-1.7-1.4-1.4-2.8
			C-2481,1453.5-2480.4,1452.9-2480.2,1452.9z"/>
		<path class="st0" d="M-2476.7,1429.7c-0.2,0.2-0.8,0.9-1.4,1c-0.7,0.1-1.7-1.6-1.6-2.8c0.1-1,0.6-1.4,1.6-1.4
			C-2477.4,1426.8-2476.6,1428.2-2476.7,1429.7z"/>
		<path class="st0" d="M-2471.2,1467.7c1.1,0.1,1.9,1.3,1.7,2.2c-0.1,1-0.5,1.7-1.7,1.6c-0.9-0.1-1.7-1.4-1.6-2.7
			C-2472.8,1468.1-2472,1467.8-2471.2,1467.7z"/>
		<path class="st0" d="M-2479.4,1447.3c-0.7-0.1-1.4-1.4-1.3-2.4c0.1-1,0.8-1.3,1.6-1.3c0.9,0.1,1.8,0.6,1.7,1.9
			C-2477.4,1446.3-2478.4,1447.4-2479.4,1447.3z"/>
		<path class="st0" d="M-2462.4,1417.3c-0.1,0.8-0.6,1.4-1.6,1.3c-1.1-0.1-1.6-1-1.6-2.7c0.1-0.8,0.5-1.4,1.3-1.3
			C-2463.2,1414.6-2462.3,1415.9-2462.4,1417.3z"/>
		<path class="st0" d="M-2470.9,1421c-0.9-0.1-1.7-1.4-1.4-2.8c0-0.3,0.8-1.2,1.3-1c0.7-0.1,2.1,1.5,2,2.3
			C-2469.1,1420.2-2470,1421.1-2470.9,1421z"/>
		<path class="st0" d="M-2485.6,1415.9c-0.1,1-1.2,2.1-2,2c-0.9-0.1-1.3-0.7-1.2-1.7c0.1-1.2,0.9-2.1,1.9-2
			C-2486.4,1414.1-2485.6,1415.1-2485.6,1415.9z"/>
		<path class="st0" d="M-2477.7,1420.4c-0.9-0.1-1.6-1.2-1.4-2.7c0.1-0.8,0.5-1.2,1.4-1.3c0.9,0.1,1.9,1.3,1.8,2.2
			C-2476,1419.8-2476.9,1420.5-2477.7,1420.4z"/>
		<path class="st0" d="M-2483.3,1471.2c-0.1,1-0.9,1.7-1.8,1.6s-1.9-1.9-1.6-2.8c0-0.3,0.8-0.9,1.4-0.8
			C-2484.3,1468.8-2483.2,1470.2-2483.3,1471.2z"/>
		<path class="st0" d="M-2472.9,1442.8c1.7,0.2,2.6,1.3,2.5,2.3c-0.1,0.8-1.1,1.5-2,1.4c-0.9-0.1-1.7-1.6-1.4-2.8
			C-2473.6,1443-2472.9,1442.8-2472.9,1442.8z"/>
		<path class="st0" d="M-2481.1,1464.9c1.3,0.1,2.3,1.3,2,2.1c-0.1,1-1.1,1.7-1.8,1.6c-0.9-0.1-1.6-1.2-1.3-2.6
			C-2482.2,1465.6-2481.5,1465.2-2481.1,1464.9z"/>
		<path class="st0" d="M-2467.5,1411.6c0.1,0.5,0.8,0.9,0.7,1.7c0.1,1-1.2,2.1-2,2c-1.1-0.1-1.2-0.9-1.2-2
			C-2469.5,1412.1-2468.9,1411.5-2467.5,1411.6z"/>
		<path class="st0" d="M-2474.5,1416.4c-1.1-0.1-1.4-0.8-1.3-2.6c0.1-1,0.8-1.2,1.6-1.3c0.7-0.1,1.6,1.4,1.5,2.2
			C-2472.8,1415.9-2473.5,1416.5-2474.5,1416.4z"/>
		<path class="st0" d="M-2478.4,1476c-0.4,0.1-0.8,0.7-1.4,0.8c-0.9,0.1-1.9-1.4-1.6-2.8c0-0.3,0.6-0.7,1.1-0.9
			C-2479.4,1473.1-2478.4,1474.4-2478.4,1476z"/>
		<path class="st0" d="M-2448.1,1447.9c-0.1,1.2-0.5,2-1.5,1.9s-1.6-1.2-1.5-2.2c0.1-0.8,1.2-1.9,1.8-1.6
			C-2448.3,1446.4-2448,1447.1-2448.1,1447.9z"/>
		<path class="st0" d="M-2461.2,1460c1.1,0.6,2.2,0.7,2.2,2.1c-0.1,0.8-1.1,1.7-2,1.4c-0.9-0.1-1.7-1.4-1.5-2.2
			C-2462.3,1460.7-2461.7,1460.3-2461.2,1460z"/>
		<path class="st0" d="M-2444.5,1453.1c-0.8,0.5-1.4,1-1.8,0.8c-0.5-0.2-0.8-0.9-1.2-1.5c0.6-0.3,1.1-0.9,1.6-0.8
			C-2445.4,1451.6-2445.1,1452.3-2444.5,1453.1z"/>
		<path class="st0" d="M-2460.8,1379.2c-0.6-0.7-0.9-1.4-1.5-1.9c0.4-0.3,1.1-0.9,1.4-0.8c0.5,0.2,0.8,0.9,1.2,1.4
			C-2459.6,1378-2460.2,1378.5-2460.8,1379.2z"/>
		<path class="st0" d="M-2467.8,1378.7c-1.1-0.1-1.8-0.2-1.9-1.4c0-0.2,0.6-0.7,0.8-0.5c0.7,0.2,1.2,0.9,1.9,1.4
			C-2467.5,1378.3-2467.7,1378.4-2467.8,1378.7z"/>
		<path class="st0" d="M-2465.1,1387.4c0.6-0.6,1.1-1.5,2.1-0.6c0.2,0.2,0.2,1.3-0.1,1.4
			C-2463.8,1388.5-2464.5,1388.4-2465.1,1387.4z"/>
	</g>
</g>
</svg>
