<?xml version="1.0" encoding="utf-8"?>
<!-- Generator: Adobe Illustrator 19.1.0, SVG Export Plug-In . SVG Version: 6.00 Build 0)  -->
<svg version="1.1" id="Layer_1" xmlns="http://www.w3.org/2000/svg" xmlns:xlink="http://www.w3.org/1999/xlink" x="0px" y="0px"
	 viewBox="-2510 1354.6 97.3 121" style="enable-background:new -2510 1354.6 97.3 121;" xml:space="preserve">
<style type="text/css">
	.st0{fill:#7A5649;}
</style>
<path class="st0" d="M-2464.3,1433.7c-0.5,0.2-0.8,0.3-1.2,0.6c-2,1.2-3.2,4.2-3.6,8.4c-0.4,4.2,0.2,9.3,1.5,14.3
	c3.2,11.6,9.8,19.8,14.9,18.5c1.8-0.5,3.2-2.3,4.1-5c1.4-4.5,1.2-11.4-0.8-18.3s-5.3-13.1-8.9-16.2c-0.5-0.5-0.9-0.8-1.4-1.1
	c-1.4-0.9-2.6-1.4-3.6-1.4c-0.3,0-0.5,0-0.6,0C-2464,1433.7-2464.1,1433.7-2464.3,1433.7z"/>
<path class="st0" d="M-2502.5,1447.1c-2.6,6.3-3.2,12.6-1.7,16.1c0.5,1.2,1.1,1.8,2,2.1c1.5,0.6,3.3-0.3,4.5-1.2
	c3.2-2.3,6.2-6.8,8.4-12c1.7-4.1,2.6-8.3,2.4-11.6c-1.2-0.8-2.3-1.5-3-2.4c-1.2-1.2-1.8-2.7-1.8-4.2v-0.2
	C-2495.3,1434.6-2499.8,1440-2502.5,1447.1z"/>
<path class="st0" d="M-2461.6,1409.9c-2,2.1-3.6,4.8-4.8,8c-1.1,2.7-1.7,5.4-1.7,8c0,3.3,0.8,6,2.3,7.7c0.3-0.2,0.8-0.3,1.2-0.5
	c0.2,0,0.3,0,0.5-0.2c0.3,0,0.6,0,0.8,0c1.2,0,2.6,0.5,3.9,1.4c0.5-0.2,0.9-0.5,1.4-0.8c0.8-0.5,1.5-1.1,2.1-1.8
	c2.1-2.1,3.9-5,5.1-8.1l0,0c1.1-3,1.7-6,1.7-8.7c-3.3-0.9-5.6-2.6-6.5-5c-0.3-0.8-0.5-1.5-0.5-2.3c0-0.3,0-0.8,0.2-1.1
	C-2457.7,1406.9-2459.6,1408.1-2461.6,1409.9z"/>
<path class="st0" d="M-2466.4,1433.9c-1.7-1.7-2.4-4.4-2.4-7.8c-1.8-0.3-3.8-0.6-5.7-0.6c-3.5,0-6.9,0.6-9.8,1.7
	c-3.8,1.5-6.2,3.8-6.6,6.2v0.2c0,0.2,0,0.3,0,0.5c0,1.2,0.5,2.4,1.5,3.6c0.8,0.9,1.8,1.7,3,2.3c1.2,0.6,2.6,1.2,4.1,1.7
	c3.8,1.1,8.3,1.4,12.3,0.6C-2469.5,1438.2-2468.2,1435.4-2466.4,1433.9z"/>
<path class="st0" d="M-2456.8,1376.3c-1.2-0.9-2.5-1.4-3.9-1.4c-5.6,0-9.9,7.8-9.9,17.3c0,8.6,3.6,15.9,8.6,17.1
	c2-2.1,4.2-3.3,6.3-3.6c0.2-0.6,0.5-1.4,0.8-2c0.8-1.5,1.8-2.9,3.3-4.2c0.6-2.3,0.9-4.8,0.9-7.4
	C-2450.6,1385.3-2453,1379-2456.8,1376.3z"/>
<path class="st0" d="M-2421.6,1399.4c-0.8,0-1.4-0.5-1.5-0.9c-0.2-0.5,0.2-1.1,0.8-1.5c-1.7-2.6-5.4-3.9-10.1-3.9
	c-2.9,0-6,0.6-9.3,1.7c-0.5,0.2-1.1,0.3-1.5,0.6c-3,1.2-5.7,2.9-7.8,4.8c-1.4,1.4-2.6,2.7-3.2,4.1c-0.3,0.8-0.6,1.4-0.8,2.1
	c-0.2,0.5-0.2,0.9-0.2,1.5c0,0.8,0.2,1.4,0.3,2c0.8,2.1,3,3.8,6.2,4.5c3.9,0.9,8.9,0.5,13.7-1.2l0,0
	C-2426.7,1410-2421.2,1404.3-2421.6,1399.4z"/>
<path class="st0" d="M-2486,1441.1c0,3.5-0.9,7.5-2.6,11.4c-2.1,5.3-5.3,9.9-8.4,12.2c0.5,1.5,1.5,3.3,3.2,3.6
	c1.8,0.5,3.9-0.8,5.9-3.3c2.1-2.6,3.8-6.3,4.8-10.5l0,0c1.1-4.5,1.2-8.9,0.5-12.2C-2483.9,1442-2485,1441.5-2486,1441.1z"/>
<path class="st0" d="M-2443.7,1388.7c-0.6-3.8-2.1-7.2-4.2-9.6c-2.1-2.4-4.7-3.4-7.1-3.1c-0.2,0-0.3,0-0.6,0.2
	c3.5,3.2,5.7,9.3,5.7,16.1c0,2.3-0.3,4.4-0.8,6.5c2-1.5,4.2-2.9,6.8-3.9C-2443.4,1392.8-2443.4,1390.7-2443.7,1388.7z"/>
<path class="st0" d="M-2440.8,1472L-2440.8,1472c2.1-1.1,3.2-4.1,2.9-8.7c-0.3-4.7-2.1-10.2-4.8-15.8c-3.6-6.9-8.3-12.6-12.6-15.3
	c-0.6,0.6-1.4,1.2-2,1.7c-0.3,0.2-0.6,0.5-1.1,0.6c0.3,0.2,0.6,0.5,0.8,0.8c3.8,3.3,7.2,9.6,9.2,16.7c2,6.9,2.3,13.7,0.9,18.5
	C-2445.1,1472.3-2442.6,1472.9-2440.8,1472z"/>
<path class="st0" d="M-2491.6,1433c0.6-2.6,3-4.8,6.8-6.3c-0.3-2.4-1.4-5-2.7-7.4c-3.3-5.6-8.3-9-11.4-8.1l-0.3,0.2l-3.8-8.3
	c0-0.2-0.2-0.3-0.3-0.3h-0.1c-0.2,0-0.2,0-0.3,0c-0.2,0.2-0.3,0.3-0.3,0.6c0,0.2,0,0.2,0,0.2l3.9,8.6l-0.2,0.2
	c-2.1,2.4-1.4,8.1,1.7,13.4C-2496.8,1428.9-2494.1,1431.6-2491.6,1433z"/>
<path class="st0" d="M-2415.2,1395.8c0.5,1.2,1.2,2.3,2.1,2.4c0.5-0.6,0.5-1.7,0.2-2.7c-0.5-1.2-1.2-2.3-2.1-2.4
	C-2415.5,1393.8-2415.5,1394.7-2415.2,1395.8z"/>
<path class="st0" d="M-2418.5,1396.1c-0.5,0-0.9,0.5-1.1,1.1v0.2c0,0.3,0.2,0.6,0.3,0.8c0.2,0.3,0.5,0.5,0.8,0.5
	c0.6,0,1.1-0.6,1.1-1.2C-2417.4,1396.5-2417.9,1396.1-2418.5,1396.1z"/>
<path class="st0" d="M-2416.2,1393.8c-0.3,0.8-0.5,1.7-0.2,2.7c0.3,1.1,0.9,1.8,1.7,2.1c0.3,0.2,0.6,0.3,0.9,0.2
	c-0.9-0.5-1.8-1.4-2.1-2.7c-0.3-0.9-0.3-1.8-0.2-2.6C-2416.2,1393.5-2416.2,1393.7-2416.2,1393.8z"/>
<path class="st0" d="M-2420.1,1398.2c-0.2-0.3-0.2-0.6-0.2-0.9c-0.2,0-0.2,0-0.3,0c-0.2,0-0.5,0-0.6,0s-0.3,0.2-0.5,0.2
	c-0.5,0.3-0.8,0.6-0.6,0.8c0,0.2,0.5,0.3,1.1,0.3c0.2,0,0.3,0,0.5,0C-2420.6,1398.5-2420.3,1398.3-2420.1,1398.2z"/>
</svg>
