<?xml version="1.0" encoding="utf-8"?>
<!-- Generator: Adobe Illustrator 19.1.0, SVG Export Plug-In . SVG Version: 6.00 Build 0)  -->
<svg version="1.1" id="Layer_1" xmlns="http://www.w3.org/2000/svg" xmlns:xlink="http://www.w3.org/1999/xlink" x="0px" y="0px"
	 viewBox="0 0 95.9 122.8" style="enable-background:new 0 0 95.9 122.8;" xml:space="preserve">
<style type="text/css">
	.st0{fill:#8C8C8C;}
</style>
<g>
	<path class="st0" d="M49.8,122.8c-8.1,0-24.2-11.1-28.2-14.8c-1.9-1.8-4.5-5.8-5.5-11.3L16,96.3c-1.2-6.9-4.3-13.9-3.9-17.2
		c0.1-0.6-0.3-2.1-0.7-3.5c-0.4-1.7-0.9-3.7-1.2-5.8c-0.4-3.4-0.7-8.6,1.1-13.7c6.9-19.6,35-27.8,45-27.8
		c10.8,0,29.4,21.2,30.7,26.4c1.2,4.3,1.2,10,1.3,16.7c0,1.4,0,2.9,0.1,4.4c0.1,5.8-2.3,8.7-3.2,13.1c-0.3,1.6-0.7,3.3-1,5.1
		c-0.1,0.9-0.2,1.7-0.3,2.5c-0.3,3-0.6,6-3.5,10.2C76.9,111.9,57.8,122.8,49.8,122.8z M56.4,30.6c-9.2,0-36.4,8.1-42.8,26.3
		c-1.6,4.6-1.3,9.4-1,12.6c0.2,1.9,0.7,3.8,1.1,5.5c0.5,2,0.8,3.4,0.7,4.4c-0.4,2.9,2.7,10.1,3.8,16.5l0.1,0.4
		c0.9,4.9,3.1,8.4,4.7,9.9c4.4,4,19.6,14.2,26.7,14.2c7.2,0,25.6-10.5,28.8-15.2c2.6-3.7,2.8-6.2,3.1-9.1c0.1-0.8,0.2-1.7,0.3-2.6
		c0.3-1.8,0.6-3.5,1-5.1c0.9-4.4,3.3-7,3.2-12.6c0-1.5-0.1-3-0.1-4.4c-0.1-6.5-0.2-12-1.3-16.1C83.6,50.2,65.5,30.6,56.4,30.6z"/>
	<path class="st0" d="M12.6,85C-6.1,56,0,29.6,5.7,22.1C10.1,16.1,16.6,13,22.8,10c2.3-1.1,4.6-2.2,6.8-3.5c8.5-4.8,13-5.6,22-6.4
		c9.7-0.9,29.9,12.5,36.1,19.6c0.4,0.4,0.4,1.1,0,1.5s-1,0.6-1.5,0.3c-0.2-0.1-17.4-10-30.1-8.2c-10.2,1.4-15.8,9.6-21.2,17.5
		c-3.5,5.2-6.9,10.1-11.3,12.4l-1.1-2.1c3.9-2.1,7.1-6.7,10.4-11.7c5.4-8,11.6-17,22.8-18.5c8.1-1.1,17.7,2,24.2,4.8
		C71.4,9.1,58.2,1.8,51.8,2.4c-8.9,0.8-13,1.5-21.1,6.1c-2.3,1.3-4.6,2.5-6.9,3.6c-6.2,3-12.1,5.9-16.2,11.4
		c-5.4,7.1-11,32.2,7,60.2L12.6,85z"/>
	<path class="st0" d="M29.9,80.7c-7.9,0-14.3-6.4-14.3-14.3c0-7.9,6.4-14.3,14.3-14.3c7.9,0,14.3,6.4,14.3,14.3
		C44.2,74.3,37.8,80.7,29.9,80.7z M29.9,54.5c-6.6,0-11.9,5.3-11.9,11.9c0,6.6,5.3,11.9,11.9,11.9S41.8,73,41.8,66.5
		C41.8,59.9,36.5,54.5,29.9,54.5z"/>
	<path class="st0" d="M66.8,80.7c-7.9,0-14.3-6.4-14.3-14.3c0-7.9,6.4-14.3,14.3-14.3S81,58.6,81,66.5C81,74.3,74.6,80.7,66.8,80.7z
		 M66.8,54.5c-6.6,0-11.9,5.3-11.9,11.9c0,6.6,5.3,11.9,11.9,11.9S78.7,73,78.7,66.5C78.7,59.9,73.3,54.5,66.8,54.5z"/>
	<path class="st0" d="M49,94c-2,0-3.3-1.1-4.1-1.9c-0.1-0.1-0.3-0.2-0.4-0.4c0,0,0,0,0,0c-0.5,0.4-1.6,1.3-3.3,0.6
		c-2.4-1-3.6-4.3-2.6-6.8l2.2,0.9c-0.5,1.3,0.1,3.2,1.3,3.8c0.4,0.2,0.5,0.1,0.9-0.2c0.4-0.3,1-0.8,1.9-0.6c0.6,0.1,1.1,0.6,1.6,1
		c0.7,0.6,1.5,1.3,2.6,1.3L49,94L49,94z"/>
	<path class="st0" d="M48.7,94v-2.4c1.1,0,1.9-0.7,2.6-1.3c0.5-0.5,1-0.9,1.6-1c0.9-0.2,1.5,0.3,1.9,0.6c0.4,0.4,0.5,0.4,0.9,0.2
		c1.2-0.5,1.9-2.4,1.3-3.8l2.2-0.9c1,2.5-0.2,5.8-2.6,6.8c-1.7,0.8-2.8-0.1-3.3-0.6c0,0,0,0,0,0c-0.1,0.1-0.3,0.2-0.4,0.4
		C52,92.8,50.7,94,48.7,94z"/>
	<path class="st0" d="M36.2,102.4l-1.2-0.5c0.2-0.1,5.1-2.9,8.4-3.7c2.1-0.5,4,0.2,5.3,0.7c0.3,0.1,0.7,0.3,0.8,0.3l0,2.4
		c-0.5,0-1-0.2-1.6-0.4c-1-0.4-2.5-0.9-3.9-0.6C41.1,101.3,36.3,102.4,36.2,102.4z"/>
	<path class="st0" d="M49.6,105.1c-0.9,0-2.6-0.3-4.6-0.6c-0.7-0.1-1.4-0.2-2.1-0.4c-2.3-0.4-6.6-1.6-6.7-1.6l-0.2-0.8
		c0.2,0,4.7-0.4,7.2,0c0.7,0.1,1.4,0.2,2.2,0.4c1.7,0.3,3.5,0.6,4.2,0.6L49.6,105.1L49.6,105.1z"/>
	<path class="st0" d="M49.8,108.9c-5.5,0-14.3-7-14.7-7.2l1.1,0.3c0.1,0,8.7,4.5,13.6,4.5V108.9z"/>
	<path class="st0" d="M62.5,102.4c0,0-4.8-1.2-7.8-1.9c-1.4-0.3-2.8,0.2-3.9,0.6c-0.6,0.2-1.1,0.4-1.6,0.4v-2.4
		c0.1,0,0.5-0.2,0.8-0.3c1.3-0.5,3.2-1.2,5.3-0.7c3.3,0.8,8.2,3.6,8.4,3.7L62.5,102.4z"/>
	<path class="st0" d="M49.2,105.1v-2.4c0.7,0,2.5-0.3,4.2-0.6c0.7-0.1,1.5-0.3,2.2-0.4c2.6-0.4,7.1,0,7.2,0l-0.2,0.8
		c0,0-4.4,1.2-6.7,1.6c-0.7,0.1-1.4,0.2-2.1,0.4C51.8,104.8,50.1,105.1,49.2,105.1z"/>
	<path class="st0" d="M49,108.9v-2.4c6.9,0,13.4-4.4,13.5-4.5l1.3-0.4C63.5,101.9,56.6,108.9,49,108.9z"/>
	<path class="st0" d="M27.8,65.1c0,0-5.2-1.3-3.7-2.9C25.7,60.7,27.8,65.1,27.8,65.1z"/>
	<path class="st0" d="M29.2,66.3l-1.6-0.4c-1.2-0.3-4.1-1.2-4.5-2.7c-0.1-0.3-0.1-0.9,0.5-1.5c0.5-0.5,1-0.6,1.3-0.6
		c1.8,0,3.2,2.8,3.6,3.7L29.2,66.3z M24.6,62.9c0.1,0.2,0.7,0.5,1.4,0.9c-0.4-0.6-0.9-1-1.2-1C24.9,62.7,24.8,62.7,24.6,62.9
		C24.7,62.8,24.7,62.9,24.6,62.9z"/>
	<path class="st0" d="M28.2,67.4c0,0-3.7,3.9-4.3,1.7C23.3,67,28.2,67.4,28.2,67.4z"/>
	<path class="st0" d="M24.6,70.5c-0.7,0-1.3-0.5-1.5-1.2c-0.2-0.7,0-1.3,0.3-1.6c0.6-0.8,1.9-1.2,3.9-1.2c0.6,0,1,0,1,0l1.6,0.1
		l-1.1,1.2C28.1,68.5,26.1,70.5,24.6,70.5z M26.1,68.2c-0.9,0.1-1.3,0.3-1.4,0.5c0,0-0.1,0.1,0,0.2c0,0,0,0,0,0.1
		C24.9,69,25.5,68.6,26.1,68.2z"/>
	<path class="st0" d="M30.3,68.5c0,0,2.4,4.8,0.1,4.7C28.3,72.9,30.3,68.5,30.3,68.5z"/>
	<path class="st0" d="M30.6,73.9c-0.1,0-0.1,0-0.2,0c-0.8-0.1-1.2-0.5-1.4-0.9c-0.9-1.5,0.4-4.3,0.6-4.9l0.7-1.5l0.7,1.5
		c0.5,1.1,1.7,3.8,0.9,5.1C31.7,73.7,31.2,73.9,30.6,73.9z M30.4,70.7c-0.2,0.7-0.2,1.3,0,1.5c0,0,0,0.1,0.2,0.1l0.1,0c0,0,0,0,0,0
		C30.7,72.1,30.6,71.5,30.4,70.7z"/>
	<path class="st0" d="M32,66.2c0,0,4.8-2.4,4.7-0.1C36.5,68.3,32,66.2,32,66.2z"/>
	<path class="st0" d="M35.3,67.9c-1.5,0-3.5-0.9-3.6-0.9l-1.5-0.7l1.5-0.7c0.2-0.1,2.5-1.2,4-1.2c0.6,0,1.1,0.2,1.4,0.5
		c0.2,0.2,0.4,0.6,0.4,1.3C37.4,67.2,36.6,67.9,35.3,67.9z M34.3,66.1c0.4,0.1,0.7,0.1,1,0.1c0.6,0,0.6-0.2,0.6-0.3c0,0,0,0,0-0.1
		c0,0-0.1,0-0.3,0C35.3,65.9,34.8,66,34.3,66.1z"/>
	<path class="st0" d="M31,64.2c0,0,0.4-5.4,2.2-4.1C35,61.4,31,64.2,31,64.2z"/>
	<path class="st0" d="M30.1,65.8l0.1-1.7c0.1-1.5,0.6-5,2.4-5c0.3,0,0.7,0.1,1,0.3c0.7,0.5,0.8,1.1,0.8,1.5c0,1.7-2.5,3.6-3,3.9
		L30.1,65.8z M32.6,60.7c-0.2,0.2-0.4,0.8-0.6,1.5c0.5-0.5,0.8-1,0.8-1.3C32.8,60.9,32.8,60.9,32.6,60.7
		C32.7,60.8,32.7,60.7,32.6,60.7z"/>
	<path class="st0" d="M68.8,65.1c0,0,5.2-1.3,3.7-2.9C70.9,60.7,68.8,65.1,68.8,65.1z"/>
	<path class="st0" d="M67.4,66.3l0.7-1.5c0.4-0.9,1.9-3.7,3.6-3.7c0.3,0,0.8,0.1,1.3,0.6c0.6,0.6,0.6,1.2,0.5,1.5
		c-0.4,1.5-3.3,2.3-4.5,2.7L67.4,66.3z M71.7,62.7c-0.3,0-0.7,0.4-1.2,1c0.7-0.3,1.3-0.6,1.4-0.9c0,0,0,0,0-0.1
		C71.8,62.7,71.7,62.7,71.7,62.7z"/>
	<path class="st0" d="M68.4,67.4c0,0,3.7,3.9,4.3,1.7C73.3,67,68.4,67.4,68.4,67.4z"/>
	<path class="st0" d="M72,70.5L72,70.5c-1.5,0-3.5-2-4.1-2.6l-1.1-1.2l1.6-0.1c0,0,0.4,0,1,0c2,0,3.3,0.4,3.9,1.2
		c0.2,0.3,0.5,0.8,0.3,1.6C73.3,70.1,72.7,70.5,72,70.5z M70.5,68.2c0.6,0.4,1.1,0.8,1.4,0.8c0,0,0,0,0-0.1c0-0.2,0-0.2,0-0.2
		C71.8,68.5,71.4,68.3,70.5,68.2z"/>
	<path class="st0" d="M66.2,68.5c0,0-2.4,4.8-0.1,4.7C68.3,72.9,66.2,68.5,66.2,68.5z"/>
	<path class="st0" d="M66,73.9L66,73.9c-0.6,0-1-0.2-1.3-0.7c-0.8-1.3,0.4-4,0.9-5.1l0.7-1.5l0.7,1.5c0.3,0.6,1.5,3.4,0.6,4.9
		c-0.2,0.4-0.6,0.8-1.4,0.9C66.1,73.9,66,73.9,66,73.9z M66,72.3L66,72.3L66,72.3c0.2,0,0.3-0.1,0.3-0.1c0.2-0.3,0.1-0.8,0-1.5
		C66,71.5,65.9,72.1,66,72.3z"/>
	<path class="st0" d="M64.5,66.2c0,0-4.8-2.4-4.7-0.1C60.1,68.3,64.5,66.2,64.5,66.2z"/>
	<path class="st0" d="M61.3,67.9L61.3,67.9c-1.3,0-2.1-0.6-2.2-1.7c-0.1-0.6,0.2-1,0.4-1.3c0.3-0.4,0.8-0.5,1.4-0.5
		c1.5,0,3.7,1.1,4,1.2l1.5,0.7l-1.5,0.7C64.8,66.9,62.8,67.9,61.3,67.9z M60.7,65.9C60.7,65.9,60.7,65.9,60.7,65.9
		c0,0.2,0,0.4,0.6,0.4c0.3,0,0.6-0.1,1-0.1c-0.5-0.2-1-0.3-1.4-0.3C60.8,65.9,60.7,65.9,60.7,65.9z"/>
	<path class="st0" d="M65.6,64.2c0,0-0.4-5.4-2.2-4.1C61.6,61.4,65.6,64.2,65.6,64.2z"/>
	<path class="st0" d="M66.5,65.8l-1.4-1c-0.5-0.4-3-2.2-3-3.9c0-0.4,0.1-1,0.8-1.5c0.3-0.2,0.6-0.3,1-0.3c1.9,0,2.3,3.5,2.4,5
		L66.5,65.8z M63.9,60.7C63.9,60.7,63.9,60.8,63.9,60.7c-0.2,0.1-0.2,0.2-0.2,0.2c0,0.3,0.3,0.8,0.8,1.3
		C64.4,61.5,64.1,60.9,63.9,60.7z"/>
	<path class="st0" d="M88.5,69.1l-1.9-1.4c5.4-7.6,7.1-10.3,6.9-18.4c-0.3-8.2-4.9-25.5-7.5-28.1l1.7-1.7c3.3,3.3,8,21.2,8.2,29.7
		C96.1,58.1,94.2,61.3,88.5,69.1z"/>
</g>
</svg>
