<?xml version="1.0" encoding="utf-8"?>
<!-- Generator: Adobe Illustrator 19.1.0, SVG Export Plug-In . SVG Version: 6.00 Build 0)  -->
<svg version="1.1" id="Layer_1" xmlns="http://www.w3.org/2000/svg" xmlns:xlink="http://www.w3.org/1999/xlink" x="0px" y="0px"
	 viewBox="-2502 1349.2 99 120.4" style="enable-background:new -2502 1349.2 99 120.4;" xml:space="preserve">
<style type="text/css">
	.st0{fill:#8C8C8C;}
</style>
<g>
	<path class="st0" d="M-2454,1398.9c0.6-3.8,0.6-7.5,0.2-11.3c-0.2-1.7-0.4-3.3-0.6-5c0-0.3-0.1-0.7-0.2-1c-0.2-0.8-0.1-1.7,0.7-2.1
		c0.8-0.5,1.7-0.5,2.5,0c1.1,0.7,1.8,1.7,2.2,2.9c0.3,1.1,0.6,2.2,0.9,3.3c0.2,0.7,0.4,1.3,0.7,2c0.9-0.3,1-0.9,0.9-1.5
		c-0.1-1.2-0.1-2.5-0.3-3.7c-0.3-3.2,0-6.4,0.5-9.5c0.2-1.4,0.4-2.8,0.7-4.2c0.2-1,0.8-1.7,1.9-2c1.6-0.4,2.7,0.1,3.1,1.6
		c0.5,1.9,0.7,3.8,1,5.7c0.1,0.7,0.1,1.4,0.1,2c0.9,0.3,1.3-0.3,1.8-0.5c1.6-0.6,2.6-0.1,2.9,1.6c0.1,0.5,0,1.1,0.1,1.6
		c0,0.5,0,1,0,1.9c1-0.7,0.9-1.6,1.1-2.4c0.5-1.9,0.9-3.8,1.4-5.7c0.4-1.3,0.9-2.6,1.4-3.8c0.5-1.3,1.9-2,3-1.7s2,1.2,1.9,2.5
		c-0.1,2-0.4,4-0.9,6c-0.5,2.2-0.8,4.4-0.8,6.6c0,1.4,0,1.4,1.8,2.4c0.3-0.3,0.8-0.6,1.1-1.1c2-2.9,3.9-5.9,5.8-8.8
		c0.3-0.5,0.6-1.1,1-1.5c0.9-1,2-1.4,3.4-0.9c1.2,0.4,1.9,1.5,1.9,2.9c0,1.3-0.3,2.6-0.8,3.9c-0.6,1.5-1.2,2.9-1.8,4.6
		c0.4-0.1,0.6-0.2,0.8-0.2c2.1-0.7,3.4-0.1,4.3,1.9c0.6,1.5,0.7,2.9,0.1,4.4c-0.8,2.1-1.7,4.3-3.2,6.1c-1.2,1.4-2.3,2.9-3.4,4.4
		c-0.2,0.2-0.3,0.5-0.9,1.3c1.2-0.6,1.8-0.9,2.4-1.3c1.7-0.9,3.4-1.9,5.2-2.7c0.6-0.3,1.3-0.6,2-0.7c1-0.2,2,0.5,2.1,1.6
		c0.1,0.6,0,1.2-0.2,1.8c-0.3,1-1,1.8-1.8,2.6c-0.7,0.6-1.4,1.3-2.1,2c0.5,0.7,1.2,0.4,1.8,0.5c1,0.2,2.1,0.1,3.2,0.4
		c1.2,0.3,2.1,1,2.4,2.3c0.3,1.1-0.4,2.4-1.5,3.1c-0.6,0.4-1.2,0.8-1.9,0.8c-2.2,0.2-4.3,1-6.4,1.7c-4.2,1.3-8.3,3-12.3,4.9
		c-0.2,0.1-0.4,0.3-0.8,0.6c0,2.8-0.1,5.7,0.2,8.6c0.4,3.9,0.3,7.8-0.1,11.7c-0.5,4.7-2.4,9-4.8,13.1c-0.8,1.3-1.7,2.5-2.5,3.7
		c-1.7,2.4-3.8,4.4-6.4,5.9c-3,1.8-6.2,3.4-9.5,4.7c-2.8,1.1-5.8,1.5-8.8,1.8c-4.9,0.5-9.7,0.4-14.6,0.4c-2,0-3.9-0.3-5.6-1.3
		c-0.4-0.3-1-0.4-1.5-0.5c-1.7-0.2-3.3-0.4-5-0.6c-1.3-0.1-2.5,0.1-3.6,0.6c-1.5,0.6-2.9,1.2-4.4,1.8c-0.7,0.3-1.5,0.5-2.3,0.8
		c-2.7,0.8-5-0.4-6.8-2.5c-0.4-0.5-0.3-1.3,0.3-1.6c0.8-0.5,1.7-1.1,2.6-1.2c2-0.2,3.5-1,4.9-2.4c1.2-1.2,2.4-2.5,4.3-1.9
		c0.3-1.2-0.4-1.8-0.7-2.5c-0.9-2.3-2-4.5-2.9-6.8c-0.7-2-1-4.1-0.9-6.3c-0.3-3.6-0.3-6.7-0.2-9.9c0.1-4.8,1.2-9.3,3.4-13.5
		c1.9-3.5,4.1-6.8,7.4-9.3c2.9-2.2,5.7-4.4,9-6.1c3.7-1.9,7.6-2.9,11.5-4c2.2-0.6,4.4-1.1,6.5-2.2
		C-2455.5,1399.3-2454.8,1399.2-2454,1398.9z M-2451.5,1385.1c0.1-0.2,0.2-0.5,0.2-0.7c0-0.1-0.2-0.2-0.3-0.3c0,0.1-0.1,0.2-0.1,0.2
		C-2451.6,1384.6-2451.5,1384.8-2451.5,1385.1c0.1,0.6,0,1.2,0.1,1.8c0.4,3.8,0.5,7.6,0.2,11.4c0,0.2,0.1,0.5,0.2,0.9
		c0.9,0.2,1.7,1,2.9,1c0.1-0.4,0.2-0.7,0.1-0.9c-0.9-4.6-1.9-9.1-2.9-13.7C-2450.9,1385.3-2451.3,1385.2-2451.5,1385.1z
		 M-2475.9,1465.4c0.9,0.5,2.1,0.6,3.4,0.7c4.6,0.3,9.2,0,13.8-0.3c4.6-0.2,8.9-1.4,12.9-3.7c1.7-1,3.4-1.8,5.1-2.8
		c0.8-0.4,1.5-1,2.2-1.5c1.8-1.3,2.9-3.1,4.1-4.8c2-2.8,3.6-5.9,4.6-9.2c0.7-2.4,1-4.8,1.1-7.3c0.1-3,0.1-6-0.1-9
		c-0.1-0.9-0.3-1.7-0.8-2.5c-0.9-1.3-1.8-2.6-3.1-3.6c-0.8-0.6-1-1.4-0.6-1.8c0.4-0.4,1.3-0.4,2,0c0.4,0.3,0.8,0.7,1.2,1
		c0.3,0.2,0.6,0.4,1,0.6c0.4-1.6,0.1-2.9-0.9-4c-2.4-2.7-4.8-5.4-7.2-8.2c-0.9-1-1.7-1.7-3.1-1.8c-1.4-0.1-2.7-0.6-4-1.2
		c-2-0.8-3.7-2.1-5.5-3.2c-2-1.2-3.9-1.5-6-0.4c-1.8,0.8-3.6,1.3-5.5,1.8c-2.6,0.6-5.1,1.4-7.7,2.6c0.3,0.4,0.5,0.7,0.8,0.8
		c0.8,0.5,1.7,1,2.6,1.4c0.7,0.4,1.4,0.8,1.7,1.6c0.2,0.4,0,1-0.5,1.1s-1,0.2-1.5,0.1c-0.4-0.1-0.8-0.4-1.2-0.6
		c-1.3-0.6-2.5-1.3-3.8-1.9c-1.4-0.7-2.7-0.7-4,0.2c-0.7,0.5-1.5,0.9-2.2,1.4c-2.8,2-5.5,4.1-7.7,6.8c-2.3,2.8-3.8,6-5,9.3
		c-0.8,2.1-1.2,4.3-1.1,6.5c0,0.6,0.2,1.2,0.3,1.7c1.1,0.1,2.1,0.2,3.1,0.2c2.6,0,5.1,0.8,7.4,1.9c0.6,0.3,1.2,0.8,1.7,1.2
		c0.2,0.2,0.3,0.7,0.2,0.9c-0.2,0.3-0.7,0.7-1,0.6c-0.7-0.1-1.4-0.3-2-0.6c-1.4-0.5-2.8-1.1-4.2-1.5c-1.7-0.5-3.5-0.7-5.3,0.1
		c-0.1,0.6-0.2,1.2-0.2,1.8c-0.1,1.3-0.1,2.7-0.1,4c0,1.1,0.1,2.3,0.3,3.4c0.2,1.7,0.9,3.2,1.5,4.8c1,2.6,1.9,4.3,4,6.6
		c0.4,0.4-0.7,1.6-1,1.8c-1.1,0.9-1.4,1.6-2.9,1.8c-0.9,0.1-1.7,0.4-2.4,1c-3,2.5-3.1,2.5-6.5,3.2c0.3,0.1,0.5,0.3,0.7,0.3
		c1.8,0.3,3.3-0.2,4.8-1c3.3-1.8,6.8-2.5,10.5-1.8c0.9,0.2,1.9,0.2,2.9,0.1c0.3,0,0.7-0.5,0.9-0.8c0.1-0.2,0-0.7-0.2-0.9
		c-1-1-2.1-1.9-3.6-2.1c-0.8-0.1-1.3-0.4-1.7-1.1c-0.3-0.6-0.1-1.4,0.6-1.4c0.7,0,1.5,0,2.1,0.2c1.1,0.5,2.2,1.1,3.2,1.8
		c1.7,1.2,2.8,2.7,2,4.9C-2476.1,1465-2476,1465.1-2475.9,1465.4z M-2430.3,1409.7c0.6-0.3,0.9-0.4,1.1-0.6c2.2-1.8,4.1-3.8,6-6
		c2.5-3,5.3-5.7,7.5-8.9c0.9-1.4,1.8-2.8,2.6-4.3c0.4-0.8,0.5-1.7,0.6-2.5c0.1-0.5-0.3-1.4-1.2-1c-0.6,0.3-1,1.2-1.6,1.9
		c-1.4,1.7-2.7,3.5-4.2,5.1c-2.9,3.3-6.1,6.4-10,8.6C-2429.9,1404.4-2430.6,1406.9-2430.3,1409.7z M-2428,1396.6
		c0.1,0.1,0.2,0.2,0.4,0.3c0.4-0.3,0.8-0.6,1.1-1c1-1.3,2-2.7,2.9-4.1c2.1-3.1,4.2-6.3,5.9-9.7c1-1.9,1.7-3.9,2.1-6
		c0.1-0.4,0.2-0.9-0.5-1c-0.7,0.5-1.1,1.3-1.6,2.1c-1.9,3.4-4.1,6.6-6.8,9.5c-1.1,1.2-1.9,2.5-2.2,4.1
		C-2427.1,1392.6-2427.6,1394.6-2428,1396.6z M-2406.8,1408.5c0.4-0.1-0.1-0.7-0.5-0.7c-1.2,0-2.5,0-3.7,0.2c-3,0.3-5.9,1.1-8.8,2
		c-2.9,0.9-5.7,2-8.3,3.3c-0.4,0.2-0.7,0.5-1.2,0.8c0.4,0.5,0.6,1,1,1.3c0.3,0.3,0.7,0.6,1.2,1
		C-2420.7,1412.2-2417.7,1412.5-2406.8,1408.5z M-2443.3,1369.5c-1.7,0-1.6,16.9,0.1,21.1c1.5-1.9,1.7-2.8,1.4-4.7
		c-0.3-2.2-0.5-4.4-0.6-6.6c-0.1-2-0.1-4.1-0.1-6.1C-2442.5,1372.1-2441.7,1369.5-2443.3,1369.5z M-2433.6,1408.6
		c0.8-3.6,1.4-7,2.2-10.3c0.8-3.4,1.8-6.7,2.7-10.1c-0.6,0.4-1,0.9-1.3,1.4c-1.6,3.2-2.8,6.7-3.8,10.1c-0.5,1.8-1,3.6-1.4,5.4
		c-0.1,0.6-0.1,1.3,0,1.8C-2434.9,1407.6-2434.5,1408.3-2433.6,1408.6z M-2444.7,1402.5c4-5.7,6.3-12.1,7.6-18.9
		c0-0.1-0.2-0.3-0.4-0.3s-0.3,0.2-0.3,0.3c-1.2,5-3.2,9.7-5.8,14.2c-0.7,1.1-1.3,2.3-1.8,3.5
		C-2445.7,1401.9-2445.6,1402.4-2444.7,1402.5z M-2432.1,1386.2c0.3,0,0.4,0.1,0.4,0c1-0.6,1.4-1.5,1.3-2.7c0-3,0.3-6,1-8.9
		c1-3.8,0.9-4.2,0.5-4.3c-0.4-0.1-0.7,0.4-0.8,0.7c-0.5,1.9-1.2,4.9-1.6,6.8c-0.3,1.7-0.5,3.5-0.7,5.3
		C-2432,1384.2-2432,1385.2-2432.1,1386.2z M-2409.9,1400.5c0-0.1-0.1-0.3-0.2-0.3c-0.4-0.1-0.8,0.3-1.1,0.5
		c-2.6,1.7-5.2,3.4-7.7,5.1c-0.1,0.1-0.1,0.3-0.2,0.6c1.3-0.3,2.4-0.5,3.6-0.8c0.4-0.1,0.8-0.3,1.1-0.6
		C-2412.9,1403.5-2410.1,1402.6-2409.9,1400.5z M-2439.6,1399.4c0.3,1,0.6,1.9,1,2.8c0.1,0.3,0.4,0.6,0.7,1.1c0.5-1.5,0.8-2.8,1.3-4
		c0.6-1.3,0.4-2.4-0.9-3.1c-0.2,0.1-0.4,0.1-0.5,0.2C-2438.5,1397.4-2439.1,1398.4-2439.6,1399.4z M-2435.4,1388.1
		c-0.3,1.2-0.8,2.3-1,3.5c-0.3,1.2,0.2,2,1.5,2.7C-2434.7,1392.1-2435.3,1390.1-2435.4,1388.1z M-2445.9,1396.4
		c0.4-0.8,0.7-1.1,0.7-1.4c-0.1-1.1-0.2-2.2-1.2-3.2C-2446.8,1393.3-2446.4,1394.6-2445.9,1396.4z M-2438.6,1379.6
		c1.4-0.5,1.4-0.5,0.9-1.5C-2438.1,1378.7-2438.3,1379.1-2438.6,1379.6z M-2441.4,1403.2c-0.3,0.2-0.5,0.4-0.6,0.6
		c-0.1,0.3,0.2,0.8,0.5,0.7c0.2-0.1,0.4-0.3,0.4-0.5C-2441,1403.7-2441.2,1403.5-2441.4,1403.2z"/>
	<path class="st0" d="M-2483.6,1419.6c-0.5-1.3,0.6-1.6,1.7-1.5c1.7,0.2,3.3,0.5,5,0.9c1.6,0.4,3.2,0.8,4.7,1.6
		c1.2,0.6,2.4,1.1,3.6,1.6c2.1,0.9,3.9,2.4,5.7,3.7c0.4,0.3,0.6,0.8,0.8,1.3c0.2,0.5-0.4,1.2-0.9,1c-0.6-0.2-1.3-0.5-1.9-0.9
		c-2.2-1.7-4.6-3-7.1-4.1c-2.6-1.2-5.2-2.1-8-2.5C-2481.1,1420.5-2483.1,1420.8-2483.6,1419.6z"/>
	<path class="st0" d="M-2429.8,1434.1c-0.3,4.6-1.4,9.1-3.7,13.1c-0.4,0.8-1,1.5-1.5,2.1c-0.3,0.4-0.7,0.5-1.2,0.2
		c-0.5-0.3-0.5-0.7-0.3-1.1c0.2-0.4,0.3-0.8,0.5-1.2c1.9-3.6,2.7-7.5,3.4-11.4c0.3-1.6,0.2-3.2,0.2-4.8c0-0.4-0.1-0.9,0-1.3
		c0.1-0.4,0.3-0.9,0.8-0.9c0.3,0,0.7,0.2,0.9,0.4c0.2,0.2,0.4,0.6,0.5,0.9C-2430,1431.5-2429.7,1432.8-2429.8,1434.1z"/>
	<path class="st0" d="M-2440.4,1451.3c0.2,0.6-0.4,1-0.6,1.3c-1,1.1-1.9,2.3-3,3.3c-2.6,2.4-5.3,4.7-8.5,6.3
		c-0.8,0.4-1.6,0.6-2.5,0.9c-0.3,0.1-0.9-0.1-0.9-0.3c-0.1-0.4,0-0.9,0.2-1.2c0.4-0.4,1-0.8,1.5-1c2.3-1.1,4.2-2.5,6.2-4
		c1.8-1.4,3.5-2.9,5.1-4.6c0.4-0.4,0.9-0.9,1.4-1.1C-2441.2,1450.7-2440.5,1450.8-2440.4,1451.3z"/>
	<path class="st0" d="M-2461.4,1408.5c-0.2-0.9,1-1.1,1.6-0.9c2.5,0.7,4.9,1.7,7,3.1c1.8,1.2,3.5,2.7,5.2,4.1
		c0.5,0.4,0.8,0.9,1.1,1.5c0.1,0.2,0.1,0.8-0.1,0.9c-0.3,0.2-0.9,0.5-1.1,0.3c-0.5-0.2-1-0.7-1.4-1.1c-2.3-2.1-4.7-4-7.6-5.3
		c-0.6-0.3-1.3-0.5-2-0.8C-2460.1,1409.8-2461,1410.4-2461.4,1408.5z"/>
	<path class="st0" d="M-2456.8,1417.5c0.4-0.1,0.8,0.2,1.1,0.3c1.9,0.9,3.8,1.7,5.7,2.7c1.7,0.9,2.7,2.4,3.8,3.9
		c0.2,0.3,0.4,0.9-0.1,1.2c-0.2,0.2-0.7,0.3-1,0.2c-0.5-0.2-1-0.4-1.3-0.8c-2-2.3-4.7-3.7-7.4-5c-0.5-0.3-1.1-0.6-1.5-1
		c-0.2-0.2-0.2-0.7-0.1-1C-2457.4,1417.9-2457.1,1417.6-2456.8,1417.5z"/>
	<path class="st0" d="M-2485.8,1441.1c2.7,0.2,4.7,1.2,6.7,2.1c0.5,0.2,0.7,0.9,0.5,1.3c-0.3,0.5-0.7,0.8-1.3,0.6
		c-0.7-0.2-1.3-0.5-2-0.7c-2-0.7-4-1.2-6.2-0.6c-0.3,0.1-0.7,0.2-1,0.1c-0.4-0.1-0.8-0.5-0.9-0.8s0.1-1,0.4-1.1
		c0.7-0.4,1.5-0.6,2.2-0.8C-2486.8,1441.1-2486.1,1441.1-2485.8,1441.1z"/>
	<path class="st0" d="M-2466.9,1451.1c0.4-0.1,0.6,0.2,0.9,0.4c2.7,1.8,4.8,4.2,5.4,7.5c0,0.2,0.1,0.3,0.1,0.5
		c0.1,0.7-0.3,1.3-1,1.3c-0.6,0.1-1-0.3-1.2-0.8c-0.8-2.9-2.6-5.1-5.1-6.9c-0.4-0.3-0.6-0.7-0.3-1.1
		C-2467.8,1451.6-2467.4,1451.1-2466.9,1451.1z"/>
	<path class="st0" d="M-2482.8,1453c2.9,0,5,1.8,6.7,4c0.1,0.1,0.2,0.3,0.2,0.5c0,0.3,0,0.8-0.2,1c-0.2,0.2-0.7,0.2-0.9,0.1
		c-0.4-0.1-0.8-0.4-1.1-0.7c-1.6-1.5-3.4-2.5-5.6-2.8c-0.2,0-0.4-0.1-0.5-0.2c-0.2-0.3-0.5-0.6-0.5-0.8c0-0.3,0.2-0.7,0.5-0.8
		C-2483.7,1453.1-2483.2,1453-2482.8,1453z"/>
	<path class="st0" d="M-2444.7,1410.2c0.3-0.1,0.5,0.1,0.7,0.2c2.2,0.9,3.8,2.4,5.1,4.4c0.1,0.1,0.2,0.3,0.2,0.5
		c-0.1,0.4-0.1,0.9-0.4,1.1c-0.2,0.2-0.7,0.2-1,0.1c-0.3-0.1-0.7-0.3-0.9-0.5c-1.2-1.4-2.6-2.6-4.2-3.5c-0.5-0.3-0.8-0.8-0.5-1.3
		C-2445.4,1410.8-2445,1410.3-2444.7,1410.2z"/>
	<path class="st0" d="M-2435.6,1429.5c-0.1,0.2-0.3,0.5-0.6,0.7c-0.5,0.3-0.8-0.1-1.1-0.5c-0.6-0.9-1-1.8-1.6-2.7
		c-0.5-0.7-1.1-1.4-1.7-2c-0.3-0.4-0.5-0.8,0-1.2c0.3-0.2,0.8-0.4,1.2-0.4c0.4,0.1,0.8,0.4,1.1,0.7c1.4,1.3,2.2,2.9,2.7,4.8
		C-2435.6,1429-2435.5,1429.2-2435.6,1429.5z"/>
	<path class="st0" d="M-2435.3,1441c0.3,2.3-1.8,4-3.5,5.4c-0.2,0.2-0.9,0.2-1.2,0c-0.3-0.2-0.3-0.8-0.4-1.2c0-0.2,0.2-0.5,0.3-0.7
		c0.8-1.2,1.5-2.4,2.3-3.5c0.1-0.2,0.3-0.4,0.5-0.6c0.3-0.4,0.8-0.5,1.2-0.2C-2435.7,1440.2-2435.4,1440.6-2435.3,1441z"/>
	<path class="st0" d="M-2484.2,1429c1.4,0.4,2.9,0.8,4.4,1.2c0.3,0.1,0.7,0.3,0.9,0.5c0.2,0.2,0.3,0.7,0.2,1
		c-0.1,0.3-0.5,0.5-0.8,0.6c-0.2,0.1-0.5,0.1-0.8,0c-1.7-0.4-3.4-0.9-5.1-1.3c-0.2,0-0.4-0.1-0.5-0.2c-0.2-0.3-0.5-0.6-0.4-0.9
		c0-0.3,0.3-0.7,0.6-0.8C-2485.3,1429-2484.8,1429-2484.2,1429z"/>
	<path class="st0" d="M-2455.7,1436.8c-0.2,0.2-0.5,0.5-0.8,0.7c-0.2,0.1-0.6,0-0.7-0.1c-1.2-1-2.4-2-3.6-3.1
		c-0.2-0.2-0.3-0.8-0.1-0.9c0.2-0.3,0.8-0.7,1.1-0.6c1.9,0.6,3.4,1.8,4.3,3.7C-2455.7,1436.4-2455.7,1436.5-2455.7,1436.8z"/>
	<path class="st0" d="M-2457.6,1443.8c0.3-0.1,0.5,0.1,0.6,0.2c1.2,0.8,2.3,1.6,3,2.8c0.3,0.5,0.2,1-0.2,1.4
		c-0.3,0.3-0.8,0.6-1.2,0.2c-1.1-1-2.1-2.1-3.1-3.2c-0.2-0.2-0.1-0.7,0.1-1C-2458.2,1444.1-2457.8,1443.8-2457.6,1443.8z"/>
	<path class="st0" d="M-2443.8,1434.7c0.2,0,0.4,0,0.5,0.1c0.8,0.8,1.7,1.5,2.4,2.4c0.3,0.3,0.2,1,0.1,1.5c-0.2,0.6-1.1,0.9-1.5,0.4
		c-0.9-1-1.7-2-2.5-3.1C-2445.2,1435.6-2444.5,1434.6-2443.8,1434.7z"/>
	<path class="st0" d="M-2469,1412.6c1.5-0.3,2.7,1,3.6,2.1c0.2,0.2,0.1,0.7,0,1c-0.1,0.5-0.6,0.8-1,0.5c-1.1-0.7-2.2-1.4-3.3-2.1
		c-0.2-0.1-0.2-0.7-0.1-0.9C-2469.6,1412.9-2469.3,1412.6-2469,1412.6z"/>
	<path class="st0" d="M-2455.2,1453.9c-0.1,0.4-0.5,0.7-0.9,1c-0.5,0.3-1.1,0.2-1.4-0.3c-0.4-0.8-0.7-1.6-0.9-2.4
		c-0.1-0.5,0.2-1.1,0.7-1.2c0.4-0.1,0.9,0.1,1.1,0.3C-2455.9,1451.9-2454.8,1452.8-2455.2,1453.9z"/>
	<path class="st0" d="M-2468,1437.4c0,0.7-0.8,1.3-1.3,1c-0.9-0.6-1.9-1.3-2.7-2c-0.2-0.2-0.2-0.9,0-1.2c0.2-0.3,0.8-0.5,1.1-0.4
		c1.1,0.3,2,1,2.7,1.9C-2468.1,1437-2468,1437.3-2468,1437.4z"/>
	<path class="st0" d="M-2473.4,1459.8c0.3-0.1,0.5,0.1,0.7,0.2c0.8,0.6,1.3,1.4,1.5,2.4c0.1,0.5-0.2,1.1-0.7,1.3
		c-0.5,0.2-0.9,0-1.1-0.4c-0.4-0.7-0.8-1.4-0.9-2.2C-2474,1460.6-2473.8,1459.9-2473.4,1459.8z"/>
</g>
</svg>
