<?xml version="1.0" encoding="utf-8"?>
<!-- Generator: Adobe Illustrator 19.1.0, SVG Export Plug-In . SVG Version: 6.00 Build 0)  -->
<svg version="1.1" id="Layer_1" xmlns="http://www.w3.org/2000/svg" xmlns:xlink="http://www.w3.org/1999/xlink" x="0px" y="0px"
	 viewBox="0 0 108.1 137.6" style="enable-background:new 0 0 108.1 137.6;" xml:space="preserve">
<style type="text/css">
	.st0{fill:#41BB96;}
</style>
<path class="st0" d="M106.1,132.2c-0.5-0.1-1.2-0.3-1.9-0.4c-1.8-0.4-4-0.9-5-1.3c-6-2.8-6.2-7.9-6.5-14.3l0-0.4
	c-0.1-1.9-0.1-3.8-0.1-5.6c0-3,0-6.1-0.3-9.1c-0.5-4.1-1.6-6.6-6.1-7.9c-1.7-0.5-3.5-1.2-5.2-1.8c-3-1.1-6.2-2.3-9.4-2.8
	c-1.1-0.2-2.2-0.4-2.9-0.8c0.6-1.1,1.4-3.7,2.8-9.6l0.1-0.2c2-8.7,3.1-19.9-3.6-23.7c-2.7-1.5-3.7-2.8-5.4-5.4
	c-0.3-0.5-0.6-0.9-0.8-1.2c-0.8-1.2-1-1.4-1.1-3.4c-0.8-11-5.2-20.5-9.5-29.8c-0.6-1.3-0.7-3-0.2-5.3C51,7.7,51.2,5.6,51,4.4
	c-0.1-0.7-1.2-2.3-1.7-2.6c-0.2-0.1-0.4-0.3-0.7-0.5C47.8,0.7,46.8,0,45.9,0c-0.4,0-0.8,0.1-1.1,0.4c-1.1-0.1-1.8,0.2-2.3,0.7
	c-0.7,0.9-0.2,2.2,0.2,3.4c0.1,0.3,0.2,0.7,0.3,0.9c0.2,0.8-0.1,1.6-0.4,2.5c-0.3,0.8-0.6,1.7-0.4,2.7c0.3,2.1,1.2,3.3,2.4,4.7
	c1,1.1,1.5,2.6,2,4.1l0.2,0.6c0.6,1.8,1,3.7,1.4,5.6c0.5,2.4,1,5,2.1,7.3c0.9,2,1.1,3.9,1.3,6.1c0,0.1,0,0.1,0,0.2
	c0-0.1-0.1-0.1-0.1-0.2c-0.3-0.4-0.6-1.1-1.5-1.1l-0.3,0c-0.4,0.1-0.8,0.4-1.2,0.8c-0.8,0.7-1.9,1.9-4.2,2c-4.4,0.3-5.1,3.8-5.8,7.1
	c-0.8,3.6,0.4,6.9,3.4,9.9c0.3,0.3,0.5,0.5,0.8,0.7c-0.1,0.2-0.1,0.5-0.1,0.7c-0.1,1.8,1.6,3.4,3.7,3.4c2,0.1,3.6-1.2,3.9-2.8
	c0.4,0.1,0.8,0.2,1.3,0.4c0.5,0.2,0.9,0.8,1.2,1.4c0.1,0.2,0.2,0.4,0.2,0.4c0.6,1.4,0.8,3.3,1,5c0.2,1.3,0.3,2.5,0.6,3.3
	c1.2,3.8,0.9,8.7-2.4,10.9c-1,0.7-2,1.2-2.9,1.7c-2.9,1.6-5.1,2.8-6.5,7.1c-1.1,3.4-4,6.3-6.9,9.1c-1.1,1-2,2-3,3
	c-2,2.2-3.4,3.8-6.1,4.9c-4.8,1.9-9.9,4.2-13.5,8.1c-1.3,1.4-2.4,3-3.4,4.5c-0.8,1.2-1.7,2.5-2.7,3.7c-0.6,0.7-1.4,1.5-2.3,2.2
	c-2,1.8-4.3,3.8-4.7,6.4c-0.2,1,0,1.9,0.6,2.7c1.3,1.7,4.3,1.9,6.4,2.1c0.4,0,0.8,0.1,1.2,0.1l0.5,0.1c0.9,0.1,2.3,0.3,3.7,0.4
	c2.3,0.1,3.7-0.3,4.3-1.1c0.3-0.4,0.5-1,0.3-1.9c-0.5-1.7-2.3-2.1-3.9-2.4c-1-0.2-2.1-0.4-2.5-1c-0.2-0.3-0.2-0.7-0.1-1.3
	c0.6-2.5,3.4-4,6-5.4c0.9-0.5,1.8-0.9,2.5-1.4c1.2-0.8,2.3-1.8,3.4-2.8c1.5-1.4,3.1-2.9,4.9-3.6c1.2-0.5,2.5-0.8,3.7-1.1
	c1.7-0.4,3.4-0.9,5.1-1.7c5.1-2.5,9.4-6,13.2-9.3l0.7-0.6c2.4-2.1,4.8-4.1,7.7-3.4l1.3,0.3c6.1,1.5,11.8,2.9,18.2,3
	c4.6,0,4.6,0.6,4.7,3.4c0,0.9,0.1,1.9,0.3,3.2c0.4,2.7,1.3,5.3,2.2,7.9c1,3,2.1,6.1,2.3,9.4c0,0.5,0,1.2-0.1,1.9
	c-0.2,1.9-0.3,4.3,1.1,5.7c0.7,0.6,1.7,1,3,1c1.1,0,2.4-0.1,3.5-0.3c0.7-0.1,1.3-0.2,1.8-0.2c1.7-0.1,3.4,0.1,5,0.3
	c1.5,0.2,3.2,0.4,4.7,0.4c1.4,0,2-0.8,2.1-1.6C108.2,133.6,107.1,132.3,106.1,132.2z M67.5,87.3c-0.1,0-0.2-0.1-0.2-0.1
	c0.1,0,0.2-0.1,0.3-0.1L67.5,87.3z M69.9,77.9c-1.6,7.2-2.5,8.9-2.7,9.2c-1.8-0.9-6.7-3.3-8.7-5.2c-1.4-1.4-2.3-2.1-2.9-2.4
	c1.3-2.7,1.2-6.2,0.4-9.1c1.5,0.1,4.8,0.3,8.9,0.9c3.4,0.5,5.3,0.2,6.3-0.1c-0.3,2.4-0.7,4.6-1.2,6.5L69.9,77.9z M55.9,98.8
	c-0.1,0-0.1,0-0.2,0L55.9,98.8L55.9,98.8z M51.6,32.2c-1-2.2-1.5-4.5-2-7c-0.4-1.9-0.8-3.9-1.4-5.8l-0.2-0.5
	c-0.5-1.6-1.1-3.2-2.3-4.6c-1.1-1.3-1.8-2.2-2.1-3.9c-0.1-0.6,0.1-1.2,0.4-2c0.3-1,0.7-2,0.4-3.3c-0.1-0.3-0.2-0.7-0.3-1.1
	c-0.2-0.5-0.6-1.7-0.4-2c0,0,0.4-0.2,1.2-0.1L45.4,2l0.3-0.4c0.1-0.1,0.1-0.1,0.2-0.1c0.5,0,1.3,0.6,2,1.1C48,2.8,48.3,3,48.5,3.1
	c0.2,0.2,0.9,1.2,1,1.4c0.1,1.1,0,3-0.3,4.3c-0.5,2.6-0.4,4.7,0.4,6.2c4.2,9.1,8.6,18.6,9.4,29.3c0.2,2.4,0.5,2.9,1.4,4.2
	c0.2,0.3,0.5,0.7,0.8,1.2c1.2,1.9,2.2,3.2,3.5,4.3c0,0.9,0.1,2.4,0,3.7c-0.1,2.3-1.5,4.5-4.1,6c-1.9,1.1-4.4,1.3-5.6,1.3
	c-0.2-1.3-0.5-2.6-0.9-3.7l0,0c0,0,0,0,0,0C54,61.3,54,61.1,53.9,61c-0.2-0.6-0.6-1.9-0.8-3.8c-0.1-2.1,0.1-5.2,0.2-7.7
	c0.1-1.1,0.1-2.1,0.2-2.9c0.1-1.6-0.1-3.8-0.3-5.3l0,0l0-0.1c0-0.3-0.1-0.6-0.1-0.8c-0.1-0.5-0.1-1-0.1-1.5
	C52.8,36.6,52.7,34.5,51.6,32.2z M49.5,39.9c0.1-0.1,0.3-0.3,0.3-0.4c0.1,0.1,0.2,0.2,0.2,0.3c0.3,0.4,0.7,1.1,1.7,1.3
	c0.1,1.4,0.3,3.7,0.3,5.3c0,0.8-0.1,1.8-0.2,2.9c0,0.5-0.1,1-0.1,1.6c-0.7,0-1.7-0.1-2.5-0.4c-1.4-0.6-1.6-0.4-1.5-1.6
	c0-1.2,0.3-1.5,0.9-2c0.6-0.5,1.6-1.2,0-1.4c-1.6-0.2-2.7-0.6-3.1-1.2c-0.2-0.4-0.5-1.3-0.7-2C47.3,41.9,48.7,40.6,49.5,39.9z
	 M35.6,112.4c-1.6,0.8-3.2,1.2-4.8,1.6c-1.3,0.3-2.5,0.7-3.9,1.2c-2,0.8-3.7,2.4-5.4,3.9c-1.1,1-2.1,1.9-3.2,2.6
	c-0.7,0.5-1.5,0.9-2.4,1.4c-2.8,1.5-6,3.2-6.8,6.4c-0.2,1-0.1,1.9,0.3,2.5c0.7,1.1,2.1,1.4,3.5,1.7c1.5,0.3,2.5,0.6,2.7,1.3
	c0.1,0.3,0,0.4,0,0.5c-0.1,0.1-0.6,0.6-3,0.5c-1.3,0-2.7-0.2-3.5-0.4l-0.6-0.1c-0.4,0-0.8-0.1-1.2-0.1c-1.8-0.1-4.4-0.4-5.3-1.5
	c-0.3-0.4-0.4-0.9-0.3-1.5c0.3-2,2.3-3.8,4.1-5.4c0.9-0.8,1.8-1.6,2.5-2.4c1-1.2,1.9-2.5,2.8-3.8c1-1.5,2-3,3.3-4.3
	c3.4-3.7,8.2-5.8,12.9-7.7c3.1-1.2,4.7-3,6.7-5.4c0.8-1,1.8-1.9,2.9-2.9c0.5-0.5,1-1,1.5-1.5c1.1,0.8,3.5,2.3,5.7,3.3
	c1.8,0.8,2.9,1.4,3.5,1.8C44,107.2,40.2,110.2,35.6,112.4z M106.1,134.9c-1.5,0-3-0.2-4.5-0.4c-1.7-0.2-3.5-0.4-5.3-0.4
	c-0.6,0-1.3,0.1-2,0.2c-1,0.1-2.2,0.3-3.2,0.3c-0.9,0-1.6-0.2-2-0.6c-0.9-0.8-0.8-2.7-0.6-4.4c0.1-0.8,0.1-1.5,0.1-2.2
	c-0.2-3.5-1.4-6.7-2.4-9.8c-0.9-2.5-1.7-5-2.1-7.6c-0.2-1.1-0.2-2.1-0.2-3c-0.1-3.3-0.4-4.9-6.3-5c-3.1,0-6.1-0.4-9.1-1
	c1-0.7,2.6-2.1,3.9-4.1c1.5-2.3,2.5-4.8,2.9-6.1c1.8,0.5,3.6,1.2,5.3,1.8c1.7,0.6,3.5,1.3,5.3,1.8c3.4,1,4.5,2.5,5,6.6
	c0.3,2.9,0.3,6,0.3,8.9c0,1.9,0,3.8,0.1,5.7l0,0.4c0.3,6.4,0.5,12.5,7.4,15.7c1.2,0.6,3.4,1,5.4,1.4c0.7,0.1,1.3,0.3,2,0.4
	c0.1,0,0.4,0.2,0.6,0.6c0.2,0.3,0.2,0.5,0.1,0.5C106.6,134.8,106.5,134.9,106.1,134.9z"/>
</svg>
