<?xml version="1.0" encoding="utf-8"?>
<!-- Generator: Adobe Illustrator 19.1.0, SVG Export Plug-In . SVG Version: 6.00 Build 0)  -->
<svg version="1.1" id="Layer_1" xmlns="http://www.w3.org/2000/svg" xmlns:xlink="http://www.w3.org/1999/xlink" x="0px" y="0px"
	 viewBox="-2495.2 1373.2 88.3 56.7" style="enable-background:new -2495.2 1373.2 88.3 56.7;" xml:space="preserve">
<style type="text/css">
	.st0{fill:#FFFFFF;}
</style>
<g>
	<g>
		<path class="st0" d="M-2478.2,1428.6C-2478.2,1428.6-2478.2,1428.6-2478.2,1428.6c0.1,0.1,0.1,0.2,0.2,0.3
			C-2478.1,1428.8-2478.1,1428.7-2478.2,1428.6z"/>
	</g>
	<g>
		<path class="st0" d="M-2408.1,1381.9c-1-0.6-2.3-0.5-3.1,0.4l-22.5,23.4l-15.1-31.1c-0.4-0.9-1.3-1.4-2.2-1.4
			c-0.9,0-1.8,0.6-2.2,1.4l-15.1,31.1l-22.5-23.4c-0.8-0.9-2.1-1-3.1-0.4c-1,0.6-1.4,1.9-1,3l16.6,43.3c0,0.1,0.1,0.2,0.2,0.4
			c0.1,0.1,0.1,0.2,0.2,0.3c0.1,0.1,0.2,0.2,0.2,0.3c0.1,0.1,0.2,0.2,0.3,0.2c0.1,0.1,0.2,0.1,0.3,0.2c0,0,0.1,0,0.1,0
			c0.1,0,0.2,0.1,0.3,0.1c0.1,0,0.2,0.1,0.3,0.1c0.1,0,0.3,0,0.4,0h50.1c0.1,0,0.2,0,0.4,0c0.2,0,0.5-0.1,0.7-0.2
			c0.3-0.1,0.5-0.3,0.7-0.6c0.1-0.1,0.1-0.1,0.1-0.2c0.2-0.2,0.3-0.4,0.4-0.6l0.1-0.2l16.5-43.1
			C-2406.6,1383.8-2407.1,1382.5-2408.1,1381.9z M-2485.9,1394.6l15.2,15.8l-5.1,10.6L-2485.9,1394.6z M-2472.1,1424.8l5.1-10.5
			l10.1,10.5H-2472.1z M-2464.7,1409.5l13.6-28.1l13.6,28.1l-13.6,14.2L-2464.7,1409.5z M-2445.2,1424.8l10.1-10.5l5.1,10.5H-2445.2
			z M-2426.3,1421l-5.1-10.6l15.2-15.8L-2426.3,1421z"/>
	</g>
</g>
</svg>
