<?xml version="1.0" encoding="utf-8"?>
<!-- Generator: Adobe Illustrator 19.1.0, SVG Export Plug-In . SVG Version: 6.00 Build 0)  -->
<svg version="1.1" id="Layer_1" xmlns="http://www.w3.org/2000/svg" xmlns:xlink="http://www.w3.org/1999/xlink" x="0px" y="0px"
	 viewBox="0 0 83.4 117.4" style="enable-background:new 0 0 83.4 117.4;" xml:space="preserve">
<style type="text/css">
	.st0{fill:#664A9E;}
</style>
<path class="st0" d="M82.5,54.3c-0.6-1.6-1.3-3.1-2-4.6c-1.8-4-3.6-7.7-3.8-11.9l-1.2-22.4c0.4-0.1,0.7-0.2,1.1-0.6
	c0.4-0.4,0.5-1,0.5-1.4l-0.8-5.6C76,7,75.3,6.2,74.4,6.2H63.7c-0.8,0-1.7,0.7-1.8,1.6l-0.7,5.6c-0.1,0.5,0.1,1.1,0.5,1.4
	c0.2,0.2,0.5,0.5,0.8,0.6L61.3,38c-0.2,4.1-1.9,7.9-3.8,11.9c-0.5,1-0.8,1.8-1.3,2.8c-0.6-1.3-1.1-2.5-1.7-3.8
	c-2-4.4-4-8.6-4.3-13.3L48.8,10c0.5,0,1-0.2,1.2-0.6c0.4-0.4,0.5-1,0.5-1.4l-0.8-6.4C49.5,0.7,48.8,0,47.9,0h-12
	c-0.8,0-1.7,0.7-1.8,1.6l-0.8,6.4c-0.1,0.5,0.1,1.1,0.5,1.4c0.2,0.4,0.6,0.5,1.1,0.6l-1.3,25.4c-0.2,4.7-2.2,8.9-4.3,13.3
	c-0.6,1.2-1.2,2.5-1.7,3.8c-0.4-1-0.8-1.9-1.3-2.8c-1.8-4-3.6-7.7-3.8-11.9l-1.2-22.4c0.4-0.1,0.7-0.2,1.1-0.6
	c0.4-0.4,0.5-1,0.5-1.4l-0.8-5.6C21.7,7,21,6.2,20,6.2H9.4C8.5,6.2,7.7,7,7.6,7.8l-0.8,5.6c-0.1,0.5,0.1,1.1,0.5,1.4
	c0.2,0.2,0.5,0.5,0.8,0.6L6.8,38C6.6,42.1,4.9,45.9,3,49.9c-0.7,1.4-1.4,3-2,4.6c-0.6,1.7-1,3.5-1,5.5v45.3c0,3.4,2.6,6,6,6h17.2
	c0.8,0,1.7-0.2,2.4-0.5v0.1c0,3.6,2.9,6.5,6.5,6.5h19.3c3.6,0,6.5-2.9,6.5-6.5v-0.1c0.7,0.4,1.6,0.5,2.4,0.5h17.2c3.4,0,6-2.6,6-6
	V60C83.6,57.9,83.2,56.1,82.5,54.3z M80,95.5c-3.8-1-6.7-4.4-6.7-8.6v-8.6c0-4.2,2.9-7.7,6.7-8.6V95.5z M66.1,14h5.8l0.5,8.6h-6.6
	L66.1,14z M72.8,9.8l0.2,1.8h-8l0.2-1.8H72.8z M57.9,60c0-1.4,0.2-2.9,0.8-4.3c0.6-1.4,1.3-3,1.9-4.4c1.9-4.1,3.8-8.3,4.1-13.2
	l0.7-13h6.8L73,38c0.2,4.8,2.2,9.1,4.1,13.2c0.7,1.4,1.3,2.9,1.9,4.4c0.6,1.3,0.8,2.8,0.8,4.3V67c-5.2,1.1-9.1,5.6-9.1,11.2v8.6
	c0,5.5,4,10.1,9.1,11.2v5.6H57.9V60.1V60z M38.4,8.8h6.8l0.6,10.4h-7.9L38.4,8.8z M46.3,3.7l0.4,2.8h-9.6l0.4-2.8L46.3,3.7z
	 M32.4,50.3c2.2-4.6,4.3-9.4,4.6-14.6l0.7-14h8.2l0.7,13.9c0.2,5.4,2.5,10.1,4.6,14.6c0.7,1.6,1.6,3.2,2.2,4.9c0.6,1.6,1,3.1,1,4.9
	v45.2v4.4H29.3v-4.4V60.1c0-1.7,0.4-3.4,1-4.9C30.8,53.5,31.5,51.9,32.4,50.3z M11.8,14h5.8l0.5,8.6h-6.6L11.8,14z M18.5,9.8
	l0.2,1.8h-8l0.2-1.8H18.5z M4.4,55.7c0.6-1.4,1.3-3,1.9-4.4c1.9-4.1,3.8-8.3,4.1-13.2l0.7-13H18l0.7,13c0.2,4.8,2.2,9.1,4.1,13.2
	c0.7,1.4,1.3,2.9,1.9,4.4c0.6,1.3,0.8,2.8,0.8,4.3v0.1v43.5H3.6v-5.5c5.4-0.8,9.6-5.5,9.6-11.2v-8.6c0-5.6-4.2-10.3-9.6-11.2V60
	C3.6,58.4,3.8,57,4.4,55.7z M3.6,69.4c4.1,0.8,7.2,4.4,7.2,8.8v8.6c0,4.3-3.1,7.9-7.2,8.8V69.4z M23.3,107.7H6c-1.1,0-2-0.7-2.3-1.7
	h21.8C25.2,107,24.3,107.7,23.3,107.7z M51.5,113.8H32.1c-1.2,0-2.2-0.7-2.6-1.7h24.6C53.6,113.1,52.7,113.8,51.5,113.8z
	 M77.6,107.7H60.3c-1.1,0-2-0.7-2.3-1.7h21.8C79.5,107,78.7,107.7,77.6,107.7z"/>
<path class="st0" d="M47.7,57v9.8c0,0.7,0.5,1.2,1.2,1.2c0.7,0,1.2-0.5,1.2-1.2V57c0-1.8-0.4-3.5-1-5.2c-0.2-0.6-1-1-1.6-0.7
	s-1,1-0.7,1.6C47.5,54.1,47.7,55.5,47.7,57z"/>
<path class="st0" d="M41.7,101.7c6.2,0,11.4-5,11.4-11.4v-8.6c0-6.2-5-11.4-11.4-11.4c-6.2,0-11.4,5-11.4,11.4v8.6
	C30.5,96.7,35.5,101.7,41.7,101.7z M32.9,81.7c0-4.9,4-9,9-9c4.9,0,9,4,9,9v8.6c0,4.9-4,9-9,9c-4.9,0-9-4-9-9V81.7z"/>
</svg>
