<?xml version="1.0" encoding="utf-8"?>
<!-- Generator: Adobe Illustrator 19.1.0, SVG Export Plug-In . SVG Version: 6.00 Build 0)  -->
<svg version="1.1" id="Layer_1" xmlns="http://www.w3.org/2000/svg" xmlns:xlink="http://www.w3.org/1999/xlink" x="0px" y="0px"
	 viewBox="0 0 125.3 110.1" style="enable-background:new 0 0 125.3 110.1;" xml:space="preserve">
<style type="text/css">
	.st0{fill:#FDC113;}
</style>
<path class="st0" d="M77.9,8.3C65.9,0.6,51.6-1.5,37.6,1C6.1,6.8,0.1,24,0,24.3l1.7,0.9c0,0,0.9-1.4,2.8-3.4
	C14.2,11.6,27.6,6,41.7,5.8C26.2,11,3.1,27.7,6.5,53.2l1.9,0.1c1-5.5,3.1-11.2,6.8-16.5c-1.9,5.7-3.4,12.1-3.9,17.3l1.9,0.4
	c0.6-2,1.3-4.1,2.2-6c-1.2,5.9-1.6,12.1-1.6,16.3l1.9,0.2c0.9-4.5,2.4-8.9,4.9-13.1C17.5,60.4,16.1,72,17,83.4l2,0
	c0.5-4.6,1.8-8.9,3.5-13.1l0.1,0.1c1.9,5.4,5.6,7.4,8.2,8l2.5,11.4c2.1,4.9,4.8,9.1,9.2,12.4c0.8,0.8,1.8,1.2,2.4,2.1
	c4.7,5.3,6.9,5.5,14.8,5.6h0.1h0.1c8-0.1,10.1-0.3,14.8-5.6c0.7-0.9,1.6-1.4,2.4-2.1c4.4-3.3,7.2-7.4,9.2-12.4l2.5-11.4
	c2.6-0.6,6.3-2.7,8.2-8c0.2-0.1,0.4-0.2,0.6-0.4c-0.1,1.8-0.3,3.6-0.5,5.3l1.8,0.7c5-7,7.7-17.7,8.2-25.7c1.4,2.8,2.4,5.8,3.1,8.8
	l1.9-0.3c-0.5-11.8-1.3-23.5-10.4-32.6c2.9,0.3,5.7,0.9,8.4,1.9l0.8-1.8c-5.8-3.4-11.9-6.6-18.4-8.3c19-2.3,31.1,16.1,31.2,16.2
	l1.8-0.8C120,12,97.9,0.7,77.9,8.3z M24.9,71.2l0.1,0c1.3,0,1.3-2,0-2c-0.3,0-0.6,0-1-0.2c-0.3,0-0.6-0.2-0.9-0.3
	c1.2-2.5,2.5-4.9,4-7.2c0,3.2,0.6,5.7,1.6,7.7c0.1,0.6,0.2,1.2,0.4,2l1.1,5C28.5,75.7,26.3,74.2,24.9,71.2z M84.5,89.3
	c-1.8,4.4-4.2,7.9-7.9,10.9c0.1-1.6,0-2.7-0.1-3.1c2-4.3,2.4-10.6,2.6-15.2c1.2-2.5,4.2-4.8,6.4-6.4c0.8-0.6,1.7-1.3,2.5-2.2
	L84.5,89.3z M94.4,69.2l-0.2,0c-1.3,0-1.4,1.9,0,2l0.2,0l0.2,0c-1.4,3-3.5,4.5-5.3,5.1l1.1-5c0.2-0.8,0.3-1.5,0.4-2.1
	c1.2-2.6,1.8-5.9,1.4-10.4c-0.2,0.4-0.6,0.7-1.1,0.8c0.6,8.5-2.9,12.4-6.3,14.9c-2.3,1.7-4.5,3.5-6,5.6c-0.1,0.2-0.4,0.6-0.6,1
	c-0.9-1.6-2-3.1-3.1-4.4c-0.6,0-1.2-0.1-1.7-0.2c1.6,1.5,3.2,3.5,4.2,5.7c0.1,0.3,0.3,0.6,0.4,0.8c-0.1,1.6-0.3,4.6-0.7,7.4
	c-0.6,4.1-1.8,6.4-1.8,6.4c0,0-0.1,0.3-0.1,0.4c0,0,0.2,1.5,0,4.1c-0.8,0.6-1.6,1.2-2.2,2.1c-0.4,0.4-0.8,0.9-1.1,1.2
	c-3.4,3.8-7.2,3.6-12.3,3.7c-4.9-0.1-7.5-0.5-9.2-1.2c-1.8-0.8-3-2.3-4.3-3.7c-0.6-0.9-1.5-1.5-2.4-2.2c0,0,0-0.1,0-0.1
	c-0.5-1.6-0.8-3.5-0.8-5.3c0.1,0,0.1,0,0.2,0c0.8,0.1,1-1,0.2-1.1c-1.2-0.2-2.3-1.4-2.3-2.6c0-0.8-1.1-0.8-1.2,0
	c0,1,0.4,1.9,1.2,2.6c0,0.1,0,0.3,0,0.5c0,1.3,0.1,2.6,0.4,3.9c-2.9-2.8-4.9-5.9-6.5-9.7l-3.5-16c0.8,0.8,1.6,1.5,2.5,2.2
	c2.3,1.7,4.3,3.4,5.7,5.3c1.1,1.5,1.4,2.6,1.4,5.5c0,0.8,1.1,0.8,1.2,0c0-3.1-0.4-4.5-1.6-6.2c-1.5-2-3.6-3.8-6-5.6
	c-3.4-2.5-6.8-6.4-6.3-14.7c0.3-0.4,0.6-0.8,0.9-1.2c0.7,0.2,1.9,0.7,1.9,2c0,1.9,0,2.2,0,2.2c0,7,5.7,12.7,12.7,12.7
	c2.3,0,4.4-0.6,6.3-1.7l0,0.2c0.3,1.3,1.1,2.4,2.7,2.4c0.7,0,1.2-0.2,1.8-0.7l0.2-0.1c0.3,0.1,0.6,0,0.9-0.2l0.2-0.1
	c0.2,0.2,0.4,0.4,0.5,0.5c1.4,2.2,5.3,2.2,6.7,0c0.2-0.2,0.4-0.3,0.5-0.5l0.2,0.2c0.3,0.3,0.6,0.3,0.9,0.2l0.2,0.1
	c0.6,0.5,1.2,0.7,1.8,0.7c1.6,0,2.4-1,2.7-2.4c0-0.1,0-0.1,0-0.2c1.9,1.1,4,1.7,6.3,1.7c7,0,12.7-5.7,12.7-12.7c0,0,0-0.3,0-2.2
	c0-1.7,2-2.1,2.3-2.2c0.3,0,0.6-0.3,0.6-0.6v-2.1c0-0.3-0.2-0.6-0.5-0.6l-1.8,0c0,0-1-0.1-2-0.7c-0.6-0.4-1.6-0.8-2.8-1.3
	c0.1-0.4,0.1-0.8,0.2-1.1L84.3,52c0.5-3.7,0.6-7.8,0.6-11.9c3.1,4.1,5.1,8.7,6.3,13.4l1.9-0.3c-0.4-4.5-1.5-10-3-15.2
	c5.3,8.8,7.5,18.9,7.4,29.1C96.8,68.4,95.6,69.2,94.4,69.2z M57.3,47.6c5.7-1.4,15-5.6,20.4-11c2.2,4.2,3.4,8.8,3.9,13.5
	c-1.8-0.9-4-1.5-6.3-1.7c-9.9-0.7-11.7,2.9-11.9,6.3l0.1,0c1.7-2.2,6.3-4,11-4.2c2.8-0.1,5.2,0.2,7.3,0.7c0,0.4,0,0.8,0,1.2
	c-2-0.5-4.4-0.8-7.3-0.7c-4.5,0.2-8.7,1.9-10.1,3.8c-1,1.3-1.1-0.5-4.6-0.5c-3.6,0-3.6,1.8-4.6,0.5c-1.4-1.8-5.5-3.6-10.1-3.8
	c-6-0.2-10.3,1.6-12.3,2.6C43.2,42.5,58,33.8,72,28.5c-3.3,7.9-9,13.5-15.4,17.3L57.3,47.6z M54.9,68.9c1-1.8,1.5-3.9,1.5-6.1v-3.6
	c0,0-0.2-1.8,3.3-1.8c3.5,0,3.3,1.8,3.3,1.8v3.6c0,2.2,0.6,4.2,1.5,6c-0.2,0.3-0.1,0.8,0.4,0.9c3,0.5,4.6,5.5,1.7,5.5
	c-0.4,0-0.7-0.1-1.1-0.4l-0.1-0.1c0-0.3-0.1-0.6-0.3-0.8c-0.3-0.3-0.8-0.8-1.6-0.9c-1.1-0.3-1.3,1.7-3.5,1.9c-0.1,0-0.2,0-0.2,0
	l-0.1,0l-0.1,0c-1,0-2.2-0.5-2.6-1.5c-0.2-0.5-0.8-0.5-1.1-0.4c-0.7,0.2-1.2,0.6-1.5,0.9C54,74.2,54,74.5,54,74.7l-0.1,0.1
	c-0.4,0.3-0.7,0.4-1.1,0.4c-2.9,0-1.2-5,1.7-5.5C54.9,69.7,55.1,69.2,54.9,68.9z M66,68.9c-1.1-1.7-1.7-3.8-1.7-6
	c0-6.3,5.1-9.6,11.4-9.6c2.1,0,4,0.4,5.7,1.1c0.2,0.1,0.6,0.3,1.1,0.6c2.8,1.6,4.6,4.3,4.6,8c0,6.3-5.1,11.4-11.4,11.4
	c-2.5,0-4.7-0.8-6.6-2.1C68.5,70.8,67.4,69.5,66,68.9z M43.8,53.2c6.3,0,11.4,3.4,11.4,9.6c0,2.2-0.6,4.3-1.7,6
	c-1.4,0.6-2.6,2-3.1,3.3c-1.9,1.3-4.1,2.1-6.5,2.1c-6.3,0-11.4-5.1-11.4-11.4C32.4,56.6,37.5,53.2,43.8,53.2z M87.2,17.3l0.2,1.9
	c5.3,0.7,11.1,3.1,15.9,5.5c-2.5-0.4-5.1-0.5-7.6-0.6c9.9,7.9,13,15.6,14,27.6c-1.6-3.8-3.8-7.5-6.8-10.7l-1.5,1.3
	c1.4,1.5,2.7,3.2,3.7,4.9l0,1c-0.1,6.6-2,16-5.7,23.2c0.9-11.7-1.3-20.9-4-27.5c-1.9-4.7-4.3-8.3-7.3-12.4l-1.7,0.9
	c1.3,3.6,2.5,7.7,3.4,11.7c-1.9-3.6-4.3-6.5-6.9-9.5c0.1,3.5,0.2,7,0,10.5c-0.9-4.3-2.6-8.1-4.7-11.8C74,38,69,41.1,63.3,43.5
	c6.2-5.2,9.3-10.6,12-18.2c-9.9,3.2-19.7,8.2-28.2,14c-11.5,7.9-23.6,19.5-28.4,35.6c0.3-12.4,3.2-23.8,7.9-30.1l0.3-0.4
	c2.7-2.4,5.9-4.6,9.7-6.5l-0.9-1.8c-10.3,4.9-16.2,12.2-19.5,20.1c0.5-5,1.5-10.4,3.3-14.8c5.3-6.9,13.6-12.5,26.6-14.8l-0.3-1.9
	C29.5,27.7,20.1,35.6,14.9,45c1-4,2.2-8,3.6-11.6l0.5-1.2c8.2-8.5,21.7-14.8,43.4-15l0-2C28.2,15.6,13.5,30.8,8.2,46.5
	c1.2-24.4,28.5-39.3,41-40.4l0-2c-10.5-1-20.8,0.5-29.9,4.7C25.4,5.9,32,4.1,38,3c14-2.6,27.8-0.3,39.7,7.5
	c16.8-6.2,37.3,0.2,44.2,18.7C113.1,19.4,100.9,13.3,87.2,17.3z M69.7,91.5c0,0-0.1,0.1-0.3,0.3c-0.8,0.6-1.8,0.9-2.8,0.9
	c0.1,0.6-0.3,1.3-1.2,1.1c-1.7-0.3-3.6-0.5-5.5-0.5c-1.9,0-3.8,0.2-5.5,0.5c-0.8,0.2-1.3-0.6-1.2-1.2c-1.2,0.1-2.6-0.3-3.5-1.2
	c-0.5-0.5,0.3-1.4,0.8-0.8c0,0,0.1,0.1,0.2,0.2c0.8,0.6,1.8,0.8,2.8,0.6c2-0.4,4.1-0.5,6.1-0.5c2,0,4.2,0.1,6.1,0.5
	c1,0.2,2.2,0,3-0.8C69.4,90.2,70.2,91,69.7,91.5z M37.8,57.6c3.9-2.5,10.1-2.5,14.4-0.1c1.3,0.8,0.2,2.8-1.1,2
	c-0.7-0.4-1.5-0.7-2.4-1c-0.4,1.2-1.5,2.1-2.9,2.1c-1.5,0-2.7-1.1-3-2.5c-1.4,0.2-2.7,0.7-3.8,1.4C37.8,60.4,36.5,58.4,37.8,57.6z
	 M70.8,58.5c-0.8,0.2-1.7,0.6-2.4,1c-1.3,0.8-2.5-1.2-1.1-2c4.3-2.4,10.5-2.4,14.4,0.1c1.3,0.8,0.1,2.8-1.2,1.9
	c-1.1-0.7-2.4-1.1-3.8-1.4c-0.3,1.4-1.5,2.5-3,2.5C72.3,60.6,71.2,59.7,70.8,58.5z M56.1,54.8L56.1,54.8c-1.8-2.2-6.4-4-11-4.2
	c-4.2-0.2-7.6,0.6-10,1.5c2.2-2,5.5-3.4,9.1-3.6C54.1,47.7,55.9,51.4,56.1,54.8z M70.2,88c-0.9-0.2-1.7-0.2-3.5-1
	c-2.2,0-4.6,0-6,0.1c-0.3,0.1-0.7,0.1-1,0.1c-0.3,0-0.7,0-1-0.1c-0.6,0-3.6-0.1-6.1-0.1c-1,0.3-2,0.7-2.7,0.8
	c-0.6,0.1-1,0.2-1.7,0.6c-1.1,0.7-2.1-1-1-1.7c1.1-0.7,8.3-2.7,9.2-2.7c0.8,0,1.3,0,1.9,0.6c0.4,0.4,1,0.6,1.6,0.6
	c0.6,0,1.2-0.3,1.6-0.7l0.2-0.2c0,0,0.1-0.1,0.5-0.2c1.6-0.4,4,0.5,5.4,1.1c1.7,0.7,2.5,0.7,3.3,0.9C72,86.5,71.5,88.3,70.2,88z"/>
</svg>
