<?xml version="1.0" encoding="utf-8"?>
<!-- Generator: Adobe Illustrator 19.1.0, SVG Export Plug-In . SVG Version: 6.00 Build 0)  -->
<svg version="1.1" id="Layer_1" xmlns="http://www.w3.org/2000/svg" xmlns:xlink="http://www.w3.org/1999/xlink" x="0px" y="0px"
	 viewBox="0 0 734 735.5" style="enable-background:new 0 0 734 735.5;" xml:space="preserve">
<style type="text/css">
	.st0{fill:#FFFFFF;}
</style>
<g>
	<g>
		<path class="st0" d="M7.4,498.7c0.4,1.5,1.4,2.4,2.9,2.6c-0.2-0.4-0.4-0.8-0.6-1.1c-0.2-0.3-0.1-0.7,0.3-1.1
			c1.7,1.5,3.7,3.2,5.8,5c2.2,1.8,4.1,3.6,5.8,5.3c6.2,6.2,10.3,11.8,12.1,16.8c1.8,5,2.7,9.5,2.7,13.6c0,4.1-0.4,7.9-1.1,11.3
			c-0.8,3.4-0.6,6.8,0.5,10c-0.4,1.3-0.6,5-0.6,11.1c0,6.1,0.2,13.5,0.5,22.1c0.3,8.6,0.9,17.7,1.6,27.3c0.8,9.6,1.6,18.5,2.6,26.8
			c1,8.3,2,15.2,3.2,20.8c1.2,5.6,2.4,8.6,3.7,9c0.4,0.6,0.4,1.2-0.2,1.8c-0.5,0.5-0.5,1.2,0.2,2.1c0.2,0,0.3-0.1,0.3-0.2
			c0-0.1,0.1-0.2,0.3-0.2c-0.4,0.4-0.4,1,0.2,1.8c0.5,0.8,0.5,1.3-0.2,1.8c0.6,0,1,0.4,1.1,1.3c0.1,0.9-0.1,1.6-0.5,2.3
			c0,0.2,0,0.3,0.2,0.3c0.1,0,0.2,0.1,0.2,0.3c0.4-0.2,0.5-0.3,0.3-0.3c-0.2,0-0.2-0.1,0-0.3c0.4,0.2,0.6,0.5,0.6,1
			c0,0.4-0.2,0.8-0.6,1c0.2-0.2,0.4-0.1,0.6,0.3c0.2,0.4,0.1,0.6-0.3,0.6c0.6,0.4,0.8,0.9,0.3,1.3l0.3,0.3c0.4-0.2,0.6-0.6,0.5-1.1
			c-0.1-0.5,0.1-0.7,0.5-0.5l8.1-53c0.2,0,0.3,0.1,0.3,0.2c0,0.1-0.1,0.2-0.3,0.2c0.2,0.2,0.4,0.2,0.5-0.2c0.1-0.3,0.3-0.4,0.5-0.2
			c0,0.6,0.2,0.7,0.5,0.2c0.3-0.5,0.2-1-0.5-1.5c0.2,0.4,0.3,0.8,0.3,1c-0.4-0.4-0.6-0.5-0.6-0.2c0,0.3-0.2,0.5-0.6,0.5l12.9-57.2
			h-0.6c-0.2-0.4-0.2-0.9,0-1.3c0.2-0.4,0.3-0.8,0.3-1c0.2-1.7,0.4-3.8,0.5-6.3c0.1-2.5,0.5-4.2,1.1-5.3v0.3c1.1-3.7,2.4-7.2,4-10.5
			c1.6-3.3,2.7-7.2,3.4-11.5h0.7c0.2-1.9,0.4-4.4,0.7-7.3c0.2-2.9,0.5-5.8,0.8-8.6c0.3-2.8,0.9-5.4,1.8-7.8c0.9-2.4,2.2-4.2,3.9-5.5
			c3,0.2,5.8,1.9,8.2,5c2.4,3.1,4.4,6.7,6,10.8c1.6,4.1,2.9,8.2,3.8,12.3c0.9,4.1,1.4,7.3,1.6,9.7l0.6,38.8c-0.2,0-0.4,0.1-0.5,0.3
			c-0.1,0.2-0.2,0.1-0.2-0.3c0.4,0.9,0.4,1.7,0,2.6c-0.4,0.9-0.4,1.5,0,1.9c-0.6,0.6-1,3.3-1.1,8.1c-0.1,4.7-0.1,9.8,0.2,15.2
			c0.2,6.5,0.4,13.6,0.6,21.3v0.3c0.2,0,0.3-0.1,0.3-0.2c0-0.1,0.1-0.2,0.3-0.2c-0.4,0.2-0.5,0.5-0.2,0.8c0.3,0.3,0.5,0.3,0.5-0.2
			c0.4,0.2,0.6,0.6,0.5,1.3c-0.1,0.6-0.2,1.2-0.2,1.6c0-0.2-0.1-0.3-0.3-0.3c-0.2,0.4-0.1,0.6,0.3,0.6c0.2,0.4,0.2,0.6-0.2,0.5
			c-0.3-0.1-0.5-0.1-0.5,0.2c-0.2,0.4-0.1,0.6,0.3,0.6c0.4,0,0.4,0.1,0,0.3h0.3c0.4,0,0.6,0.1,0.5,0.3c-0.1,0.2-0.1,0.3,0.2,0.3
			c0,0.2-0.2,0.3-0.6,0.3c0.2,0.2,0.5,0.3,1,0.3l-0.6,0.6c0.2,0.2,0.4,0.2,0.5,0c0.1-0.2,0.2-0.2,0.2,0c0,0.4-0.1,0.6-0.3,0.6
			c-0.2,0-0.3,0.1-0.3,0.3c0.2,0.2,0.4,0.3,0.6,0.2c0.2-0.1-0.1,0.3-1,1.1h0.6c0,9,0.2,15.2,0.6,18.6c0.4,3.3,1,4.8,1.8,4.4
			c0.8-0.4,1.5-2.2,2.3-5.2c0.8-3,1.5-6.3,2.1-9.9c0.6-3.6,1.2-6.8,1.6-9.7c0.4-2.9,0.6-4.5,0.6-4.7c0.2-0.2,0.4-0.2,0.5,0
			c0.1,0.2-0.1,0.1-0.5-0.3c1.5-4.7,2.7-8.9,3.7-12.4c1-3.6,2-7.4,3.2-11.6c1.2-4.2,2.3-8.1,3.2-11.8c1-3.7,1.8-6.8,2.4-9.4
			c0.6-2.6,1-4,1-4.2c0.4,0,0.6,0,0.6-0.2c0-0.1-0.2-0.2-0.6-0.2l19.4-85.6c0.4,0,0.6,0,0.6-0.2c0-0.1,0.2-0.1,0.6,0.2
			c-0.4-1.1-0.1-1.6,1-1.6c1.1,0,1.4,0.3,1,1c0.2-0.4,0.4-0.5,0.5-0.2c0.1,0.3,0.4,0.5,0.8,0.5c-0.2,0.4-0.3,0.7-0.2,0.8
			c0.1,0.1,0.2,0.3,0.2,0.5h0.6c-0.2,0.4-0.2,0.6,0,0.6c0.2,0,0.3,0.1,0.3,0.3c0,0.4-0.1,1.4-0.2,2.9c-0.1,1.5-0.3,3.1-0.5,4.8
			c-0.2,2.2-0.4,4.4-0.6,6.8c-0.2,0.2-0.4,0.2-0.6,0c0,0.4-0.2,1.1-0.5,1.9c-0.3,0.9-0.6,1.9-1,3.1c-0.3,1.2-0.6,2.3-0.8,3.4
			c-0.2,1.1-0.2,1.9,0,2.6c-1.7,6.5-3.1,11.8-4,16.2c-1,4.3-1.9,8.6-2.7,12.8c-0.9,4.2-1.3,7.2-1.3,8.9c-0.2,0-0.3-0.1-0.3-0.2
			c0-0.1-0.1-0.2-0.3-0.2c0.2,0.4,0.1,1.9-0.3,4.5c-0.4,2.6-1,5.4-1.6,8.4c-0.6,3-1.3,5.8-2.1,8.2c-0.8,2.5-1.2,3.8-1.5,4
			c0,0.2-0.2,0.9-0.5,2.1c-0.3,1.2-0.6,2.5-1,3.9c-0.3,1.4-0.5,2.7-0.6,3.9c-0.1,1.2-0.1,1.8,0.2,1.8c-0.2,0.2-0.4,0.4-0.6,0.5
			c-0.2,0.1-0.1,0.4,0.3,0.8c0,0.4-0.2,0.4-0.6,0c0.2,0.4,0.2,1.3-0.2,2.6c-0.3,1.3-0.7,2.6-1.1,4c-0.4,1.4-0.8,2.8-1.1,4.2
			c-0.3,1.4-0.5,2.2-0.5,2.4c-0.4-0.2-0.5-0.2-0.3,0c0.2,0.2,0.1,0.3-0.3,0.3c0.4,0.4,0.5,0.7,0.2,0.8c-0.3,0.1-0.5,0.4-0.5,0.8
			l0.3,0.3c0,0.2-0.2,1.4-0.6,3.6c-0.4,2.2-1,4.7-1.6,7.8c-0.6,3-1.3,6.2-2.1,9.7c-0.8,3.4-1.5,6.6-2.3,9.5
			c-0.8,2.9-1.4,5.3-1.9,7.3c-0.5,1.9-0.9,2.9-1.1,2.9c-1.1,9.7-3,17.4-5.7,23.3c-2.7,5.8-5.5,10.3-8.3,13.4
			c-2.8,3.1-5.3,5.1-7.3,5.8c-2.1,0.8-3,0.8-2.8,0.2c-0.4,0.4-0.7,0.8-0.7,1c-0.4,0-0.8-0.1-1-0.3c-0.2-0.2-0.5-0.4-1-0.6
			c0,0.2,0.1,0.4,0.3,0.6c0.2,0.2,0.3,0.4,0.3,0.6c-0.7,0-1.4,0.1-2.3,0.2c-0.9,0.1-1.5,0.4-2,0.8c-1.1,0.2-2.1,0.1-2.9-0.5
			c-0.9-0.5-1.3-1.2-1.3-2.1c-0.2,0-0.3,0.1-0.3,0.2c0,0.1-0.1,0.2-0.3,0.2c0-0.4,0.2-0.6,0.5-0.5c0.3,0.1,0.5,0,0.5-0.5
			c-0.7-2.2-1.5-4.1-2.4-6c-1-1.8-1.6-3.8-1.8-6h0.7c-0.4-0.9-0.9-2.6-1.3-5.2c-0.4-2.6-0.8-5.2-1.1-7.9c-0.3-2.7-0.5-5.1-0.7-7.1
			c-0.1-2-0.1-3.1,0.2-3.1c-0.7,0-0.8-0.4-0.3-1.3c0,0.2,0.1,0.2,0.3,0c-0.4-0.2-0.8-2.2-1-5.8c-0.2-3.7-0.4-7.7-0.7-12.1
			c-0.2-4.4-0.4-8.6-0.7-12.4c-0.2-3.9-0.4-6-0.7-6.5c0.4-0.4,0.6-0.6,0.6-0.5c0,0.1-0.2,0.1-0.6-0.2l0.6-0.3c0,0.2-0.2,0.1-0.6-0.3
			v-0.3l0.6-0.3l-1-21.3h1c0-0.2-0.1-0.3-0.2-0.3c-0.1,0-0.2,0.1-0.2,0.3c0-0.4-0.1-1.5-0.2-3.2c-0.1-1.7-0.2-3.6-0.2-5.5
			c0-1.9,0.1-3.7,0.2-5.3c0.1-1.6,0.4-2.5,0.8-2.7c-0.2,0-0.3-1-0.3-3.1c0-2,0.1-4.2,0.3-6.5c0.2-2.3,0.4-5.4,0.6-9.5
			c-0.2,0.2-0.3,0.4-0.3,0.6c-0.2,0.2-0.3,0.1-0.3-0.3c-0.2,1.1-0.8,4.1-1.6,9c-0.9,5-1.8,10.2-2.7,15.7c-1,5.5-1.9,10.2-2.7,14.2
			c-0.9,4-1.4,5.4-1.6,4.4c0,0.4,0.1,1,0.2,1.6c0.1,0.6-0.1,1.1-0.5,1.3l0.3,0.3c-0.2,0-0.4,0.2-0.5,0.5c-0.1,0.3,0.1,0.5,0.5,0.5
			c-0.2,0-0.4,0.5-0.6,1.6c-0.2,1.1-0.4,2.3-0.5,3.6c-0.1,1.3-0.2,2.5-0.3,3.6c-0.1,1.1-0.2,1.7-0.2,1.9c-0.4,0-0.7,0.2-0.8,0.6
			c-0.1,0.4,0.1,0.4,0.5,0c-1.3,5.8-2.4,11.2-3.2,16.2c-0.9,4.3-1.6,8.3-2.1,12c-0.5,3.7-0.8,6-0.8,7.1c-0.4-0.4-0.6-0.5-0.6-0.2
			c0,0.3,0.2,0.6,0.6,0.8h-0.6c0,0.4,0,0.6,0.2,0.6c0.1,0,0.2,0.2,0.2,0.6c-0.6,0-0.8,0.6-0.3,1.9c-0.2,0-0.5,0.8-0.8,2.3
			c-0.3,1.5-0.7,3.2-1.1,5c-0.4,1.8-0.9,3.5-1.5,5c-0.5,1.5-0.9,2.4-1.1,2.6c0.2,1.7,0.1,3.3-0.3,4.8c-0.4,1.5-0.9,2.9-1.3,4.2
			c-0.2,0-0.3,0.1-0.3,0.3c0,0.2-0.1,0.3-0.3,0.3c0,0.4-0.1,0.8-0.2,1.1c-0.1,0.3-0.2,0.7-0.2,1.1c0,0.9-0.2,1.7-0.5,2.6
			c-0.3,0.9-0.6,1.7-0.8,2.6c-0.2,0.9-0.3,1.7-0.3,2.4c0,0.8,0.4,1.3,1.3,1.8c-0.4,0.4-0.5,0.6-0.3,0.6c0,0.2,0.2,0.3,0.6,0.3
			c-0.2,0-0.3,0.1-0.3,0.3c0,0.2,0.2,0.2,0.6,0c1.1,1.1,1.7,2.5,1.9,4.2c0.2,1.7,0.2,3.4-0.2,5.2c-0.3,1.7-0.7,3.2-1.1,4.4
			c-0.4,1.2-0.6,1.9-0.6,2.1c-3,1.5-6,2.7-9,3.6c-2.6,0.9-5.4,1.4-8.6,1.6c-3.1,0.2-6.2-0.2-9.2-1.3l0.3-0.3c-1.7,0.4-3.4-1.3-5-5.3
			c-1.6-4-3.2-9-4.8-15.2c-1.6-6.1-3.1-12.9-4.5-20.4c-1.4-7.4-2.6-14.3-3.6-20.7c-1-6.3-1.8-11.7-2.4-16.2c-0.6-4.4-1-6.7-1-6.9
			H7.1L1,601.4c0.4-1.1,0.6-2.9,0.6-5.5c0-2.6-0.1-5.4-0.3-8.4c-0.2-3.4-0.4-7.2-0.6-11.3c0.2,0,0-0.3-0.6-1l0.3-26.8
			c-0.2,0.4-0.3-0.9-0.3-4c0-3.1,0-6.6,0.2-10.5c0.1-3.9,0.3-7.6,0.5-11.1c0.2-3.6,0.6-5.8,1.3-6.6c-0.4-0.6-0.4-1.9,0-3.9
			c0.4-1.9,0.8-3.8,1-5.5c0-1.3,0-2.6,0-3.9c0-1.3-0.2-2.4-0.6-3.2c0.9-1.1,1.5-1.1,1.9-0.2c0.4,1,1.2,1.2,2.3,0.8
			c-0.2-0.4-0.2-0.8,0.2-1c0.3-0.2,0.6-0.5,0.8-1V498.7z M27.8,732.3c-0.2-0.2-0.4-0.3-0.5-0.2c-0.1,0.1-0.3,0.1-0.5-0.2l-0.3,0.3
			c0.2-0.2,0.4-0.2,0.6,0.2C27.3,732.7,27.6,732.7,27.8,732.3z M27.1,700.3h-0.3v0.3c0.4,0,0.5,0.1,0.2,0.3
			c-0.3,0.2-0.3,0.4,0.2,0.6c-0.2-0.4-0.2-0.7,0-0.8C27.3,700.7,27.3,700.5,27.1,700.3z M36.5,611.8c0-0.2,0.1-0.3,0.2-0.3
			c0.1,0,0.2-0.1,0.2-0.3l-0.6-0.6C35.7,610.7,35.9,611.1,36.5,611.8z"/>
		<path class="st0" d="M293,656c-0.2,0-0.4,0.7-0.5,2.1c-0.1,1.4-0.4,3-0.8,4.7c-0.4,2.2-0.9,4.4-1.3,6.8c-0.2,0.9-0.3,1.7-0.3,2.4
			c0,0.8-0.1,1.3-0.3,1.8c0,0.4-0.3,1.6-1,3.6c-0.6,1.9-1.5,4.4-2.6,7.3c-1.1,2.9-2.3,6-3.7,9.2c-1.4,3.2-2.9,6.2-4.4,9
			c-1.5,2.4-3.2,4.3-5,5.7c-1.8,1.4-3.8,2.2-5.8,2.4c-2,0.2-4.3-0.4-6.6-1.8c-2.4-1.4-4.8-3.8-7.4-7.3c-3-3.7-4.9-8.3-5.7-14.1
			c-0.8-5.7-1-11-0.8-16c0.2-4.5,0.5-9.2,0.8-14.1c0.3-4.8,0.9-9.4,1.8-13.7c0.6-3.9,1-8.2,1-12.9c0-1.3-0.1-2.5-0.2-3.7
			c-0.1-1.2-0.2-2.3-0.2-3.4c-0.4-2.4-1.2-4.4-2.4-6c-1.2-1.6-3-2.4-5.3-2.4c-0.9,0-1.7,0.2-2.6,0.6c-0.9,0.4-1.7,0.8-2.6,1
			c-0.4,0.2-0.9,0.3-1.3,0.3c-0.4,0-0.9,0.1-1.3,0.3c-1.5,0.9-2.6,2.1-3.2,3.7c-0.6,1.6-1.7,2.6-3.2,3.1c0,1.1-0.4,1.9-1.1,2.6
			c-0.8,0.6-1.3,1.3-1.8,1.9c-3,8.8-5.3,15.7-6.8,20.5c-1.5,4.8-2.6,8.7-3.2,11.5c-0.6,2.8-1.1,5-1.3,6.6c-0.2,1.6-0.4,3.4-0.6,5.3
			c0,0.2-0.1,0.3-0.3,0.3c-0.2,0-0.3,0.1-0.3,0.3c0.2,2.4,0.2,4.4-0.2,6c-0.3,1.6-0.3,3.3,0.2,5c-0.6,0.6-0.9,1.4-0.6,2.3
			c-0.4,0.2-0.5,0.6-0.3,1.1c0.2,0.5,0.1,0.7-0.3,0.5c0.4,0.9,0.5,1.8,0.2,2.7c-0.3,1-0.5,2-0.5,3.1c0,0.2-0.1,0.3-0.3,0.2
			c-0.2-0.1-0.3,0-0.3,0.2c0.4,1.9,0.3,3.4-0.3,4.5c0.4,1.1,0.6,2.2,0.5,3.2c-0.1,1.1-0.2,2.5-0.2,4.2c-0.2,2.2-0.4,3.9-0.5,5.3
			c-0.1,1.4-0.1,2.9,0,4.4c0.1,1.5,0.3,2.6,0.5,3.2c-0.9,1.1-1.1,2.9-0.6,5.5c-1.1,1.3-1.3,2.9-0.6,4.8c-0.4-0.4-0.8-0.6-1-0.6
			c-0.4,0.6-0.9,1.2-1.3,1.6c-0.4,0.4-0.9,1-1.3,1.6c-0.4,0.4-1.6,0.9-3.6,1.3c-1.7,0.4-4.3,0.8-7.6,1c-3.3,0.2-8,0.3-14.1,0.3
			c-0.2-0.6-0.5-1.1-1-1.5c-0.4-0.3-1-0.7-1.6-1.1c0-0.4-0.1-1.4-0.2-2.9c-0.1-1.5-0.3-3.1-0.6-4.8c-0.3-1.7-0.7-3.3-1.1-4.7
			c-0.4-1.4-0.9-2.2-1.3-2.4c0.2-0.4,0.4-0.8,0.6-1c0.2-0.2,0.1-0.6-0.3-1.3c0.2-0.2,0.4-0.3,0.6-0.3c0.2,0,0.3-0.2,0.3-0.6
			c-0.2,0-0.3,0.2-0.3,0.6c-0.2-0.2-0.3-0.7-0.2-1.5c0.1-0.8-0.1-1-0.5-0.8c0.2-26.7,0.5-51.5,1-74.3c0.2-9.7,0.4-19.3,0.5-28.9
			c0.1-9.6,0.2-18.6,0.3-27c0.1-8.4,0.2-15.7,0.3-22c0.1-6.2,0.2-10.8,0.2-13.6c0-5.4-0.1-10.6-0.3-15.7c-0.2-5.1-0.6-10.3-1.3-15.7
			c-0.4-1.9-0.5-4.4-0.3-7.3c0.2-2.9-0.3-5.2-1.6-6.9c-0.4-0.4-0.9-0.8-1.5-1.1c-0.5-0.3-0.9-0.8-1.1-1.5c-0.4,0-1.1-0.2-1.9-0.6
			c0.9,0,1.7,0,2.6,0c0.9,0,1.8,0.1,2.9,0.3c0.4,0.2,0.9,0.4,1.3,0.6c0.4,0.2,0.9,0.4,1.3,0.6h1.9c0.2,0.2,0.3,0.4,0.3,0.5
			c0,0.1,0.1,0.3,0.3,0.5c1.1,0.4,1.9,0.8,2.6,1c0.6,0.2,1.4,0.6,2.3,1.3l0.3,0.3v0.3c0.4,0.4,0.8,0.6,1.1,0.6
			c0.3,0,0.6,0.1,0.8,0.3l0.3,0.3v0.3c0.6,0.4,1.2,0.8,1.8,1.1c0.5,0.3,0.9,0.9,1.1,1.8c0.4,0,0.6,0.1,0.6,0.2
			c0,0.1,0.1,0.2,0.3,0.2c2.4,3.2,4.6,8.5,6.8,15.7c2.2,7.2,4.1,15.2,5.8,24.1c1.7,8.8,3.2,18,4.4,27.5c1.2,9.5,2.1,18.1,2.7,25.8
			c0.6,7.8,1,14.2,1,19.2c0,5.1-0.3,7.6-1,7.6c0.9,0.4,1,1,0.3,1.6c1.1,1.1,1.5,2.3,1.3,3.6c-0.2,1.3-0.3,2.7-0.3,4.2h-0.6
			c0.6,1.1,0.9,2.2,0.8,3.4c-0.1,1.2,0,2.3,0.5,3.4c0.6-2.8,1.5-5.4,2.4-7.9c1-2.5,1.8-5.1,2.4-7.9c1.3-2.6,3.1-5.1,5.3-7.6
			c2.3-2.5,4.7-4.6,7.4-6.3c2.7-1.7,5.7-2.9,9-3.6c3.3-0.6,6.8-0.5,10.5,0.3c1.5,1.1,3,2.2,4.5,3.4c1.5,1.2,2.8,2.5,3.9,4v1.6
			c2.4,3,3.5,6.2,3.4,9.7c-0.1,3.4,0,7,0.5,10.7v0.3l-0.3,0.6c0.4,1.9,0.4,3.8-0.2,5.7c-0.5,1.8-1,3.6-1.5,5.3
			c0,0.2,0.1,0.4,0.2,0.5c0.1,0.1,0.2,0.4,0.2,0.8c0,0.2-0.2,0.8-0.6,1.6c0.4,1.5,0.4,3-0.2,4.4c-0.5,1.4-0.9,3-1.1,4.7
			c-0.2,1.5-0.3,3-0.2,4.4c0.1,1.4,0.1,3-0.2,4.7c-0.2,1.3-0.4,2.5-0.5,3.7c-0.1,1.2-0.3,2.5-0.5,4v6.5c0,1.3,0.1,2.9,0.3,4.8
			c0.2,1.9,0.6,3.8,1.3,5.5c0.6,1.7,1.6,3.1,2.9,4.2c1.3,1.1,2.9,1.4,4.8,1c1.7-0.4,3.7-1.3,5.8-2.6c2.2-1.3,4-3.1,5.5-5.5
			c0.6-0.6,1.3-2.1,2.1-4.4c0.8-2.3,1.6-4.7,2.4-7.4c0.9-2.7,1.6-5.2,2.3-7.6c0.6-2.4,1-3.9,1-4.5c0.6-2.6,1.1-4.3,1.3-5.2l2.6-7.8
			c0.9-2.4,1.6-5,2.3-7.8c0.4-0.2,0.7-0.9,0.8-1.9c0.1-1.1,0.3-1.7,0.5-1.9c0.2,0.6,0.5,1.8,1,3.6c-0.2,0.2-0.4,1-0.5,2.4
			C293.4,654.7,293.2,655.6,293,656z M175.7,714.2c0-0.2,0.1-0.2,0.3,0c0.2,0.2,0.3,0.1,0.3-0.3c-0.6,0-1,0.1-1,0.2
			C175.4,714.1,175.5,714.2,175.7,714.2z"/>
		<path class="st0" d="M388,590.8c-0.2,1.3-0.4,2.6-0.6,3.9c-0.2,1.3-0.5,2.6-1,3.9c-0.4,0.6-0.7,1.3-0.8,1.9
			c-0.1,0.6-0.4,1.1-0.8,1.3c-0.2,2.4-0.9,4.2-2.1,5.5c-1.2,1.3-2.5,2.5-4,3.7c-1.5,1.2-3,2.3-4.4,3.4c-1.4,1.1-2.4,2.4-3.1,3.9
			c-2.2,0.9-3.2,2-3.2,3.6c-1.1,0.4-1.8,0.9-2.3,1.3c0,0.4-0.9,2-2.7,4.7c-1.8,2.7-3.9,5.5-6.3,8.6c-2.4,3-4.6,5.8-6.8,8.2
			c-2.2,2.5-3.7,3.7-4.5,3.7c-4.5,2.2-7.2,3.4-8.1,3.9c-0.9,0.4-1.3,0.7-1.3,0.8c0,0.1-0.2,0.5-0.6,1.1c-0.4,0.6-2.3,2.3-5.5,4.8
			c-3,1.3-5.9,2.7-8.6,4.2c-2.7,1.5-5.7,2.3-8.9,2.3c-2.2-0.2-4.1-0.5-6-0.8c-1.8-0.3-3.8-0.6-6-0.8c-5-3-9.4-6.6-13.2-10.7
			c-3.9-4.1-6.4-9.2-7.4-15.2c-0.2-0.9-0.3-1.7-0.3-2.4c0-0.8-0.1-1.6-0.3-2.4v-0.3v-0.3v-0.3c-0.6-5.2-0.5-10.2,0.5-15.2
			c1-5,2.3-9.5,3.9-13.6c1.6-4.1,3.2-7.5,4.8-10.3c1.6-2.8,2.7-4.4,3.4-4.8l0.3-0.6c0.2-0.4,0.9-1.2,1.9-2.3
			c0.4-0.6,0.9-1.3,1.5-1.9c0.5-0.6,1.1-1.2,1.8-1.6c1.7-2.6,4.3-5.1,7.8-7.4c3.4-2.4,6.8-4.3,10-5.8c0.9-0.4,1.8-0.4,2.9,0l0.6,0.6
			c0.2,0.2,0.4,0.2,0.6,0c0.4,0.4,0.8,0.8,1.1,1c0.3,0.2,0.7,0.4,1.1,0.6c0.4,0.9,1.2,1.4,2.3,1.6c0,0.9,0.3,1.3,1,1.3
			c0.6,0,1.2,0.1,1.6,0.3c0.6,0.2,1.5,0.8,2.6,1.6c1.1,0.9,1.8,1.6,2.3,2.3l-0.3,0.3l0.6,0.3c1.3,1.3,1.7,3.4,1.3,6.3
			c-0.4,2.9-1.2,5.9-2.4,8.9c-1.2,3-2.4,5.7-3.7,8.1c-1.3,2.4-1.9,3.7-1.9,3.9c-0.2,0-0.3,0-0.3-0.2c0-0.1-0.1-0.2-0.3-0.2
			c-0.2,0.9-0.6,1.7-1.1,2.4c-0.5,0.8-1.1,1.6-1.8,2.4c-0.9,0.9-1.6,1.7-2.3,2.6c-1.1,1.3-2,2.4-2.9,3.2c-0.4,0.4-0.8,0.8-1,1.1
			c-0.2,0.3-0.5,0.7-1,1.1c-0.4,0.4-0.8,0.9-1,1.3h-0.3c0,0.2-0.1,0.3-0.2,0.3c-0.1,0-0.2,0.1-0.2,0.3c-0.4,0.4-0.8,0.8-1,1.1
			c-0.2,0.3-0.5,0.7-1,1.1c-0.2,0-0.3,0.1-0.3,0.2c0,0.1-0.1,0.2-0.3,0.2l-0.6,0.6c-0.6,0.4-1.3,0.9-2.1,1.5
			c-0.8,0.5-1.1,0.9-1.1,1.1c0.2,0.2,0.2,0.4,0,0.5c-0.2,0.1-0.4,0.1-0.6-0.2c-0.4,0.6-1,1-1.6,1c-0.6,0-1.2,0.5-1.6,1.6
			c0-0.2-0.1-0.3-0.2-0.2c-0.1,0.1-0.2,0.1-0.2-0.2c-0.2,0.2-0.4,1-0.5,2.4c-0.1,1.4-0.3,3-0.5,4.7c-0.2,1.7-0.3,3.4-0.3,5
			c0,1.6,0.1,2.5,0.3,2.7h-0.3c0.2,0.6,0.3,1.1,0.2,1.3c-0.1,0.2-0.1,0.6,0,1.1c0.1,0.5,0.4,1.3,1,2.3c0.5,1,1.7,2.4,3.4,4.4
			c1.7,0.4,3.3,0.9,4.7,1.3c1.4,0.4,2.9,0.4,4.4,0c1.7-0.2,3.5-0.6,5.3-1.3c1.8-0.6,3.6-1.3,5.3-1.9c1.7-1.1,3.4-2.2,5-3.2
			c1.6-1.1,3-2.2,4-3.2c1.3-1.1,2.6-2.4,3.9-3.9c0.2,0,0.4-0.1,0.6-0.3c0.2-0.2,0.4-0.4,0.6-0.5c0.2-0.1,0.4-0.3,0.6-0.5
			c1.1-0.9,2.4-2,4-3.4c1.6-1.4,2.9-2.4,3.7-3.1c1.1-0.9,2-1.6,2.7-2.3c0.8-0.6,1.6-1.4,2.4-2.3c1.9-1.7,3.9-3.5,5.8-5.3
			c1.9-1.8,3.8-3.7,5.5-5.7c1.9-1.9,3.9-3.8,5.8-5.7c1.9-1.8,3.9-3.7,5.8-5.7c0.2-0.4,0.2-0.6,0-0.6c-0.2,0-0.2-0.2,0-0.6
			c1.7-1.1,3.3-2.5,4.7-4.4c1.4-1.8,3-3.4,4.7-4.7c0-0.6-0.1-1.1-0.3-1.3C386.2,592.7,387.3,591.6,388,590.8z M312.7,597.9
			c0.2,0.4,0.3,0.6,0.2,0.6c-0.1,0-0.2,0.2-0.2,0.6c-1.3,1.1-2.2,2.3-2.7,3.7c-0.5,1.4-1.3,2.9-2.4,4.4v1.3h-0.6
			c-0.6,0.9-1,1.7-1,2.6c0,0.9-0.4,1.6-1.3,2.3v0.6c-0.2,1.1-0.5,2.1-1,3.1c-0.4,1-0.6,2-0.6,3.1c0.4-1.1,1-2,1.6-2.7
			c0.6-0.8,1.2-1.7,1.6-2.7c0.9-0.9,1.6-1.7,2.3-2.6c0.6-0.9,1.2-1.7,1.6-2.6c0-0.2,0.2-0.5,0.6-1c0.6-0.6,1.3-1.4,1.9-2.3
			c0.6-0.9,1.2-1.7,1.6-2.6c0.4-0.9,0.9-1.3,1.3-1.3c0-0.4,0.1-0.6,0.2-0.6c0.1,0,0.2-0.1,0.2-0.3c1.1-1.1,1.9-2.2,2.4-3.2
			c0.5-1.1,1.2-2.2,2.1-3.2c1.3-1.7,2.4-3.6,3.4-5.7c1-2,1.6-4.5,1.8-7.3v-0.3c-0.9-0.2-1.5-0.6-1.8-1.1c-0.3-0.5-1-0.7-2.1-0.5
			L312.7,597.9z"/>
		<path class="st0" d="M378.9,562.3h0.6c-0.2-4.1,0.6-9,2.6-14.9c1.7,1.1,3.3,2.2,4.8,3.2c0,0.2-0.1,0.3-0.2,0.3
			c-0.1,0-0.2,0.1-0.2,0.3c0.2-0.2,0.3-0.1,0.3,0.3l0.6-0.6c1.5,1.1,2.6,2.3,3.2,3.6c0.2,0,0.3-0.3,0.3-1c0.2,0.2,0.4,0.3,0.6,0.3
			c-0.2,0.2-0.1,0.4,0.3,0.6c0.2,1.1,0.7,1.9,1.5,2.6c0.8,0.6,1.5,1.3,2.1,1.9c0.9,2.6,1.3,5.4,1.3,8.4c0.4,1.9,0.9,3.9,1.3,6
			c0.4,2,0.8,4.1,1,6.3c0,1.1,0,2.1,0.2,3.1c0.1,1,0.3,2,0.5,3.1c0.4,1.1,0.8,2.2,1.1,3.2c0.3,1.1,0.3,1.9-0.2,2.6v22.9
			c-0.2,0-0.8,0.2-1.6,0.6c0-0.2-0.1-0.3-0.2-0.3c-0.1,0-0.2-0.1-0.2-0.3c-0.2,0-0.3,0.1-0.2,0.3c0.1,0.2,0,0.4-0.2,0.6
			c0.2-0.4,0.3-0.5,0.3-0.3c0,0.2,0.1,0.2,0.3,0c0.2,0.2,0.2,0.4-0.2,0.6c-0.3,0.2-0.3,0.5,0.2,1v-0.3l-0.3-0.3h1
			c0.2,0.2,0.2,0.3,0,0.3c-0.2,0-0.2,0.1,0,0.3c0.4,0,0.6,0.1,0.6,0.3c1.7-2.4,3.2-4.8,4.4-7.4c1.2-2.6,2.9-4.8,5-6.8
			c0.2-1.5,1.2-2.7,2.9-3.6c1.7-0.9,2.3-2.3,1.6-4.2c0-0.2-0.1-0.2-0.2,0c-0.1,0.2-0.2,0.2-0.2,0c0.9-1.5,2.1-2,3.7-1.5
			c1.6,0.5,3.2,0.6,4.7,0.2c1.1,0.9,2.1,1.6,3.1,2.1c1,0.5,1.9,1.3,2.7,2.4c-0.4,1.7-0.5,4-0.2,6.8c0.3,2.8,0.1,5.2-0.8,7.1
			c0.2,0,0.3-0.1,0.3-0.3c0.4,1.3,0.5,2.5,0.2,3.6c-0.3,1.1-0.3,1.9,0.2,2.6c-0.4,1.5-0.5,3.2-0.3,5c0.2,1.8,0.5,3.6,1,5.3
			c0.4,2.2,0.9,4.2,1.3,6.1c0.4,0.4,0.6,0.8,0.6,1.1c0,0.3,0.3,0.7,1,1.1h-0.3c1.5,1.9,2.9,2.9,4.2,2.9c1.3,0,2.6-0.4,4-1.3
			c1.4-0.9,2.8-1.9,4.2-3.2c1.4-1.3,3.1-2.4,5-3.2c0.2-0.6,1-1.4,2.3-2.3c0.2-0.4,0.4-0.8,0.6-1c0.2-0.2,0.3-0.6,0.3-1.3
			c0.4,0.2,0.7,0.4,0.8,0.6c0.1,0.2,0.4,0.5,0.8,1c-0.2,0.4-0.5,0.8-0.8,1.1c-0.3,0.3-0.4,0.8-0.2,1.5c-0.2,0-0.4,0.1-0.6,0.3
			c-0.2,0.2-0.3,0.1-0.3-0.3c-0.4,0-0.5,0.2-0.2,0.5c0.3,0.3,0.6,0.4,0.8,0.2c0.2,0,0.2,0.1-0.2,0.2c-0.3,0.1-0.4,0.3-0.2,0.5
			c-0.4-0.4-0.6-0.5-0.6-0.2c0,0.3-0.2,0.5-0.6,0.5c0.2,0.2,0.4,0.2,0.5,0c0.1-0.2,0.3-0.2,0.5,0c-0.2,0-0.4,0.3-0.6,0.8
			c-0.2,0.5-0.5,0.6-1,0.2c-0.2,0-0.3,0.1-0.2,0.2c0.1,0.1,0.1,0.2-0.2,0.2l0.3,0.3c0,0.4-0.1,0.6-0.3,0.6c-0.2,0-0.4,0.2-0.6,0.6
			c-0.4,0-0.6-0.1-0.5-0.3c0.1-0.2-0.1-0.4-0.5-0.6c0,0.6,0.2,1.1,0.6,1.3c-0.2,0.6-0.8,1.5-1.8,2.6c-1,1.1-2,2-3.1,2.9
			c-1.1,0.9-2.5,2-4.2,3.6l-8.7,1c-3-0.4-5.9-1.5-8.6-3.2c-2.7-1.7-4.6-3.7-5.7-5.8c-1.1-1.1-2.1-2.4-3.1-3.9
			c-1-1.5-1.7-2.9-2.1-4.2c-1.9-4.3-2.5-8.6-1.8-12.8c0.8-4.2,1.8-8.2,3.1-12.1c-1.1,0.6-1.8,1.6-2.3,2.9l-0.3-0.3
			c-0.4,1.3-1.1,3-2.1,5c-1,2-1.8,3.8-2.4,5.3h-0.6c0.4,0.4,0.5,1,0.2,1.8c-0.3,0.8-0.7,1.1-1.1,1.1c0.4,1.1,0.4,1.7-0.2,1.9
			c-0.5,0.2-0.9,0.5-1.1,1c-0.4,0.9-0.9,2-1.5,3.4c-0.5,1.4-0.9,2.6-1.1,3.7c0,0.4,0,1,0,1.8c0,0.8-0.2,1.2-0.6,1.5
			c0,0.9,0.1,1.4,0.3,1.6c-0.2-0.2-0.3-0.2-0.3,0.2c0,0.3-0.1,0.3-0.3-0.2c0,0.2,0.3,0.4,1,0.6h-0.3c-0.2,0-0.3,1.1-0.2,3.2
			c0.1,2.2,0.3,4.4,0.5,6.8c0.2,2.8,0.3,6,0.3,9.7c-0.4,0-0.6,0.1-0.6,0.3c0,0.2-0.1,0.1-0.3-0.3c0.2,1.7,0.3,3.2,0.3,4.5
			c0,1.1,0,2.2,0,3.2c0,1.1,0.1,1.7,0.3,1.9c-0.4-0.2-0.7-0.2-0.8,0.2c-0.1,0.3,0,0.6,0.5,0.8c-0.2,0.2-0.2,0.3,0,0.3h-0.3
			c0,0.4,0.1,0.6,0.3,0.6c-0.4,0.4-0.8,1.1-1,2.1c-0.2,1-0.4,2-0.6,3.1c-0.2,1.3-0.3,2.6-0.3,3.9l-0.3-0.3c-0.2,0.2-0.3,0.4-0.3,0.6
			c0,0.2-0.2,0.3-0.6,0.3c0-0.2,0.2-0.1,0.6,0.3c-0.2,0.2-0.4,0.3-0.6,0.2c-0.2-0.1-0.4-0.1-0.6,0.2c0,0.2,0.1,0.3,0.3,0.2
			c0.2-0.1,0.4,0,0.6,0.2c-0.2,0-0.3,0.1-0.3,0.3l-0.6-0.3c-3,3.2-5.3,5.4-6.8,6.5c-1.5,1.1-2.8,1.6-3.9,1.6c-1.1,0-2.2-0.3-3.2-0.8
			c-1.1-0.5-2.7-0.8-4.8-0.8c0-0.6-0.3-1-1-1c0.2,0.2,0.3,0.3,0.3,0.2c0-0.1,0.1,0,0.3,0.2c0,0.4-0.1,0.5-0.2,0.3
			c-0.1-0.2-0.4-0.3-0.8-0.3v-0.6h-0.6v-0.6c0-0.2,0.1-0.4,0.3-0.6c-0.4,0-0.6,0.2-0.6,0.6v0.3c-1.7-0.2-3.2-1.1-4.5-2.7
			c-1.3-1.6-2.4-3.2-3.2-4.7h0.6c-0.2,0-0.5-0.2-1-0.6c0.6-1.3,0.8-2.8,0.3-4.5c0.2,0.2,0.4,0.1,0.5-0.3c0.1-0.4,0.2-0.9,0.2-1.3
			h0.6c-0.2,0-0.3-0.6-0.3-1.9c0.4,0,0.5,0,0.3,0c-0.2,0-0.2,0.2,0,0.6c0-0.2,0.1-0.3,0.3-0.3c0-0.2-0.3-0.3-1-0.3
			c0.4-0.6,0.6-1.2,0.5-1.8c-0.1-0.5-0.1-1.2,0.2-2.1c0,0.4,0.1,0.5,0.3,0.2c0.2-0.3,0.1-0.5-0.3-0.5c0.2-0.2,0.4-0.2,0.5,0
			c0.1,0.2,0.3,0.2,0.5,0l-0.6-0.3c0.2-2.6,0.4-5.1,0.6-7.4c0.2-1.9,0.4-3.9,0.5-6c0.1-2,0.2-3.6,0.2-4.7l3.2-15.2
			c-0.4,0-0.6-0.2-0.6-0.5c0-0.3,0-0.4,0-0.2c0.2-1.7,0.4-3.3,0.6-4.8l0.6-5.2l2.6-25.8l-0.3,0.3c0-0.9,0.1-2.7,0.3-5.7
			c0.2-2.9,0.5-6,1-9.4c0.4-3.3,0.8-6.5,1-9.4C378.8,565.4,378.9,563.4,378.9,562.3z M381.2,674.8c0.4,0.2,0.6,0.2,0.6,0
			c0-0.2,0.1-0.3,0.3-0.3l-0.6-0.6c0,0.2-0.1,0.4-0.2,0.5C381.3,674.4,381.2,674.5,381.2,674.8z"/>
		<path class="st0" d="M560.2,590.8c-0.2,1.3-0.4,2.6-0.6,3.9c-0.2,1.3-0.5,2.6-1,3.9c-0.4,0.6-0.7,1.3-0.8,1.9
			c-0.1,0.6-0.4,1.1-0.8,1.3c-0.2,2.4-0.9,4.2-2.1,5.5c-1.2,1.3-2.5,2.5-4,3.7c-1.5,1.2-3,2.3-4.4,3.4c-1.4,1.1-2.4,2.4-3.1,3.9
			c-2.2,0.9-3.2,2-3.2,3.6c-1.1,0.4-1.8,0.9-2.3,1.3c0,0.4-0.9,2-2.7,4.7c-1.8,2.7-3.9,5.5-6.3,8.6c-2.4,3-4.6,5.8-6.8,8.2
			c-2.2,2.5-3.7,3.7-4.5,3.7c-4.5,2.2-7.2,3.4-8.1,3.9c-0.9,0.4-1.3,0.7-1.3,0.8c0,0.1-0.2,0.5-0.6,1.1c-0.4,0.6-2.3,2.3-5.5,4.8
			c-3,1.3-5.9,2.7-8.6,4.2c-2.7,1.5-5.7,2.3-8.9,2.3c-2.2-0.2-4.1-0.5-6-0.8c-1.8-0.3-3.8-0.6-6-0.8c-5-3-9.4-6.6-13.2-10.7
			c-3.9-4.1-6.4-9.2-7.4-15.2c-0.2-0.9-0.3-1.7-0.3-2.4c0-0.8-0.1-1.6-0.3-2.4v-0.3v-0.3v-0.3c-0.6-5.2-0.5-10.2,0.5-15.2
			c1-5,2.3-9.5,3.9-13.6c1.6-4.1,3.2-7.5,4.8-10.3c1.6-2.8,2.7-4.4,3.4-4.8l0.3-0.6c0.2-0.4,0.9-1.2,1.9-2.3
			c0.4-0.6,0.9-1.3,1.5-1.9c0.5-0.6,1.1-1.2,1.8-1.6c1.7-2.6,4.3-5.1,7.8-7.4c3.4-2.4,6.8-4.3,10-5.8c0.9-0.4,1.8-0.4,2.9,0l0.6,0.6
			c0.2,0.2,0.4,0.2,0.6,0c0.4,0.4,0.8,0.8,1.1,1c0.3,0.2,0.7,0.4,1.1,0.6c0.4,0.9,1.2,1.4,2.3,1.6c0,0.9,0.3,1.3,1,1.3
			s1.2,0.1,1.6,0.3c0.6,0.2,1.5,0.8,2.6,1.6c1.1,0.9,1.8,1.6,2.3,2.3l-0.3,0.3l0.6,0.3c1.3,1.3,1.7,3.4,1.3,6.3
			c-0.4,2.9-1.2,5.9-2.4,8.9c-1.2,3-2.4,5.7-3.7,8.1c-1.3,2.4-1.9,3.7-1.9,3.9c-0.2,0-0.3,0-0.3-0.2c0-0.1-0.1-0.2-0.3-0.2
			c-0.2,0.9-0.6,1.7-1.1,2.4c-0.5,0.8-1.1,1.6-1.8,2.4c-0.9,0.9-1.6,1.7-2.3,2.6c-1.1,1.3-2,2.4-2.9,3.2c-0.4,0.4-0.8,0.8-1,1.1
			c-0.2,0.3-0.5,0.7-1,1.1c-0.4,0.4-0.8,0.9-1,1.3h-0.3c0,0.2-0.1,0.3-0.2,0.3c-0.1,0-0.2,0.1-0.2,0.3c-0.4,0.4-0.8,0.8-1,1.1
			c-0.2,0.3-0.5,0.7-1,1.1c-0.2,0-0.3,0.1-0.3,0.2c0,0.1-0.1,0.2-0.3,0.2l-0.6,0.6c-0.6,0.4-1.3,0.9-2.1,1.5
			c-0.8,0.5-1.1,0.9-1.1,1.1c0.2,0.2,0.2,0.4,0,0.5c-0.2,0.1-0.4,0.1-0.6-0.2c-0.4,0.6-1,1-1.6,1c-0.6,0-1.2,0.5-1.6,1.6
			c0-0.2-0.1-0.3-0.2-0.2c-0.1,0.1-0.2,0.1-0.2-0.2c-0.2,0.2-0.4,1-0.5,2.4c-0.1,1.4-0.3,3-0.5,4.7c-0.2,1.7-0.3,3.4-0.3,5
			c0,1.6,0.1,2.5,0.3,2.7h-0.3c0.2,0.6,0.3,1.1,0.2,1.3c-0.1,0.2-0.1,0.6,0,1.1c0.1,0.5,0.4,1.3,1,2.3c0.5,1,1.7,2.4,3.4,4.4
			c1.7,0.4,3.3,0.9,4.7,1.3c1.4,0.4,2.9,0.4,4.4,0c1.7-0.2,3.5-0.6,5.3-1.3c1.8-0.6,3.6-1.3,5.3-1.9c1.7-1.1,3.4-2.2,5-3.2
			c1.6-1.1,3-2.2,4-3.2c1.3-1.1,2.6-2.4,3.9-3.9c0.2,0,0.4-0.1,0.6-0.3c0.2-0.2,0.4-0.4,0.6-0.5c0.2-0.1,0.4-0.3,0.6-0.5
			c1.1-0.9,2.4-2,4-3.4c1.6-1.4,2.9-2.4,3.7-3.1c1.1-0.9,2-1.6,2.7-2.3c0.8-0.6,1.6-1.4,2.4-2.3c1.9-1.7,3.9-3.5,5.8-5.3
			c1.9-1.8,3.8-3.7,5.5-5.7c1.9-1.9,3.9-3.8,5.8-5.7c1.9-1.8,3.9-3.7,5.8-5.7c0.2-0.4,0.2-0.6,0-0.6c-0.2,0-0.2-0.2,0-0.6
			c1.7-1.1,3.3-2.5,4.7-4.4c1.4-1.8,3-3.4,4.7-4.7c0-0.6-0.1-1.1-0.3-1.3C558.3,592.7,559.5,591.6,560.2,590.8z M484.9,597.9
			c0.2,0.4,0.3,0.6,0.2,0.6c-0.1,0-0.2,0.2-0.2,0.6c-1.3,1.1-2.2,2.3-2.7,3.7c-0.5,1.4-1.3,2.9-2.4,4.4v1.3h-0.6
			c-0.6,0.9-1,1.7-1,2.6c0,0.9-0.4,1.6-1.3,2.3v0.6c-0.2,1.1-0.5,2.1-1,3.1c-0.4,1-0.6,2-0.6,3.1c0.4-1.1,1-2,1.6-2.7
			c0.6-0.8,1.2-1.7,1.6-2.7c0.9-0.9,1.6-1.7,2.3-2.6c0.6-0.9,1.2-1.7,1.6-2.6c0-0.2,0.2-0.5,0.6-1c0.6-0.6,1.3-1.4,1.9-2.3
			c0.6-0.9,1.2-1.7,1.6-2.6c0.4-0.9,0.9-1.3,1.3-1.3c0-0.4,0.1-0.6,0.2-0.6c0.1,0,0.2-0.1,0.2-0.3c1.1-1.1,1.9-2.2,2.4-3.2
			c0.5-1.1,1.2-2.2,2.1-3.2c1.3-1.7,2.4-3.6,3.4-5.7c1-2,1.6-4.5,1.8-7.3v-0.3c-0.9-0.2-1.5-0.6-1.8-1.1c-0.3-0.5-1-0.7-2.1-0.5
			L484.9,597.9z"/>
		<path class="st0" d="M673.2,600.1c0.2,2.4,0,4.4-0.6,6c-0.6,1.6-1.5,3.1-2.6,4.4c-1.1,1.3-2.1,2.6-3.1,4c-1,1.4-1.6,2.9-1.8,4.4
			c-0.4,0.4-0.9,1-1.5,1.8c-0.5,0.8-0.7,1.6-0.5,2.4c-1.5,1.1-2.5,2.9-3.1,5.5c-0.5,2.6-1.6,4.4-3.1,5.5c-0.6,1.5-1.3,2.9-1.9,4.2
			c-1.1,2.4-1.9,4.6-2.6,6.8c-0.9,2.4-1.6,4.3-2.1,5.8c-0.5,1.5-1.5,2.8-2.7,3.9c-1.9,5.8-4.6,9.2-8.1,10.2c-3.4,1-6.6-0.8-9.5-5.3
			c-2.9-4.5-5.1-11.9-6.6-22.1c-1.5-10.2-1.4-23.6,0.3-40.2c0-0.6,0.1-1.1,0.3-1.3c-0.2,0.2-0.3-0.1-0.3-0.8c0-0.8,0.2-1.1,0.6-1.1
			c-0.2-0.2-0.3-0.3-0.2-0.3c0.1,0,0.1-0.1-0.2-0.3c0.2,0,0.3-0.1,0.3-0.3c-0.2-0.2-0.3-0.7-0.3-1.5c0-0.8,0.1-1.3,0.3-1.8
			c-0.2,0.4-0.2,0.4,0.2,0c0.3-0.4,0.3-0.4-0.2,0c0.2-3.7,0.9-7.3,1.9-10.8c1.1-3.6,1.8-7.2,2.3-10.8h0.6c0.9,0.9,1.7,1.2,2.6,1
			c0.4,0,0.8,0.2,1,0.5c0.2,0.3,0.4,0.4,0.6,0.2v0.3c0.2,0.2,0.3,0.2,0.3,0c0.6,0.4,1.3,0.9,2.1,1.3c0.8,0.4,1.3,1,1.8,1.6
			c1.1,0.4,2.3,1.7,3.6,3.9c1.3,2.2,2.2,3.6,2.6,4.2c0,0.2-0.1,2.4-0.2,6.6c-0.1,4.2-0.2,8.8-0.2,13.7c-0.2,5.8-0.3,12.6-0.3,20.4
			c-0.2,0-0.4,0.8-0.6,2.3c-0.2,1.5-0.5,3.2-0.8,5c-0.3,1.8-0.7,3.6-1.1,5.2c-0.4,1.6-0.8,2.5-1,2.7c0,0.2,0.2,0.3,0.6,0.3
			c-0.2,0.2-0.5,1.1-1,2.6c-0.4,1.5-0.7,2.9-0.8,4c-0.1,1.2,0.2,1.9,0.8,2.1c0.6,0.2,1.9-0.9,3.9-3.2c1.9-2.4,4.7-6.4,8.4-12.1
			c3.7-5.7,8.4-13.8,14.2-24.4c0.2-0.4,0.2-0.6,0-0.6c-0.2,0-0.3-0.2-0.3-0.6c1.5-1.5,2.6-3.2,3.4-5.2c0.8-1.9,1.7-3.8,2.7-5.5
			L671,593c1.1-1.1,1.9-2.3,2.6-3.6c0,0.4,0.1,1.2,0.2,2.3c0.1,1.1,0.2,2.2,0.2,3.4c0,1.2-0.1,2.3-0.2,3.2
			C673.6,599.3,673.5,599.9,673.2,600.1z M625.1,593c0.4,0,0.6,0.1,0.6,0.3c0.2,0.4,0.2,0.4,0-0.2
			C625.5,592.6,625.3,592.6,625.1,593z M630,552.3h0.3c-0.2-0.4-0.2-1,0-1.6c0.2-0.6,0.4-1.3,0.6-1.9c-0.4-0.2-0.5-0.4-0.3-0.5
			c0.2-0.1,0.1-0.3-0.3-0.5c0.2-0.2,0.4-0.2,0.6,0c0-0.4,0.1-0.6,0.3-0.6c-0.2-0.2-0.2-0.4,0-0.6l-0.6-0.3c0-0.4,0.1-0.7,0.3-0.8
			c0.2-0.1,0.2-0.4,0-0.8h0.3c0-0.9,0.1-1.4,0.3-1.6c0.9-2.4,1.6-5.2,2.3-8.4l0.3,0.3c0.6-0.2,1.5-0.2,2.6,0.2
			c1.1,0.3,2,0.7,2.9,1.1c1.5,1.1,3,2.4,4.5,3.9c1.5,1.5,2.7,3.1,3.6,4.8v1.3c0.9,4.5,0,7.7-2.6,9.5c-2.6,1.8-5.4,2.8-8.6,2.9
			c-3.1,0.1-5.6-0.4-7.4-1.5c-1.8-1.1-1.5-2.3,1.1-3.6C630.5,553.6,630.4,553.2,630,552.3z"/>
		<path class="st0" d="M665.8,655.4c1.1-0.6,1.4-1.8,1-3.6l27.8-33c-0.4-1.3-1.2-2.3-2.4-3.1c-1.2-0.8-2.3-1.5-3.4-2.1
			c-1.1-1.3-2.5-2.5-4.4-3.6c-1.8-1.1-3.8-2.2-5.8-3.4c-2-1.2-3.9-2.5-5.5-4c-1.6-1.5-2.6-3.3-3.1-5.5c-0.2-0.4-0.4-0.5-0.6-0.3
			c-0.2,0.2-0.3,0.1-0.3-0.3h0.6c-0.6-2.2-0.7-4.1-0.2-6c0.5-1.8,1.4-3.6,2.6-5.2c1.2-1.6,2.4-3.2,3.6-4.7c1.2-1.5,2.1-2.9,2.7-4.2
			c1.7-0.9,3-1.9,3.9-3.2c0.9-1.3,2.3-2.2,4.2-2.6c0.4-0.4,0.8-0.9,1-1.3c0.2-0.4,0.6-0.8,1.3-1c0.4,0,0.7,0.2,0.8,0.5
			c0.1,0.3,0.4,0.6,0.8,0.8c1.3-0.4,1.9-0.8,1.9-1c1.1,1.1,2.5,1.7,4.4,1.8c1.8,0.1,3.2,1,4,2.7c0,0.4-0.1,0.8-0.3,1
			c-0.2,0.2-0.2,0.6,0,1.3c-2.6,1.7-4.8,3.8-6.8,6.3c-1.9,2.5-4.4,4.6-7.4,6.3c-1.1,1.9-2.2,3.7-3.2,5.3c-1.1,1.6-1.8,3.3-2.3,5
			c0.2,1.9,1.1,3.6,2.7,4.8c1.6,1.3,3.4,2.4,5.3,3.4c1.9,1,3.9,2,5.8,3.1c1.9,1.1,3.6,2.3,4.8,3.6c0.9-1.1,2.5-2.9,4.8-5.5
			c2.4-2.6,4.8-5.4,7.3-8.4c2.5-3,4.8-5.9,6.9-8.6c2.2-2.7,3.6-4.7,4.2-6c0.9-0.2,1.4-0.6,1.6-1.1c0.2-0.5,0.6-0.9,1.3-1.1
			c1.1-1.9,2.4-3.7,4-5.2c1.6-1.5,3.1-3,4.4-4.5c0,1.1,0,2.2,0,3.2c0,1.1-0.1,2.2-0.3,3.2c-4.7,6.7-8.1,11.1-10,13.4
			c-1.9,2.3-3.6,4-5,5.3c-1.4,1.3-3.1,3-5.2,5.2c-2,2.2-5.4,6.5-10.2,12.9c1.1,0.9,2.2,1.8,3.2,2.7c1.1,1,2,1.9,2.9,2.7
			c-0.2,0.9-0.1,1.5,0.5,1.9c0.5,0.4,1,0.9,1.5,1.3c0.6,0.9,1.1,1.9,1.3,3.1c0.2,1.2,0.5,2.3,1,3.4c-0.2,0.2-0.3,0.4-0.3,0.6
			c0,0.2-0.1,0.4-0.3,0.6c0.4,2.6-0.1,5.6-1.6,9c-1.5,3.4-3.7,6.7-6.5,9.9c-2.8,3.1-6,5.9-9.5,8.2c-3.6,2.4-7.2,4-10.8,4.8
			c-3.7,0.9-7.2,0.6-10.5-0.6C670.7,662.8,668,659.9,665.8,655.4z M696.8,623.7l-0.3-0.3c-1.1,1.1-1.9,2.1-2.4,3.1
			c-0.5,1-1.7,1.9-3.4,2.7c-0.2,0.2-0.2,0.4,0,0.5c0.2,0.1,0.2,0.4,0,0.8l-16.5,23.3c0.2,0,0.3,0.2,0.3,0.6c-0.6,0.4-1,1.3-1,2.6
			c0.9,0.9,1.6,1,2.3,0.3c0.6-0.6,1.2-1.2,1.6-1.6c0.4-0.4,0.8-0.6,1-0.6c0.2,0,0.5-0.1,1-0.3c3.9-2.8,7.3-6,10.3-9.7
			c2.4-3,4.3-6.2,5.7-9.5C696.8,632.2,697.3,628.2,696.8,623.7z"/>
	</g>
	<g>
		<path class="st0" d="M374.4,516.6c0.3-5.7,0.2-5.2-6.6-19.3c-20.2-41.5-34.3-81.7-42.2-120.5c1.1-1.1-1-10.8-6.1-29.3
			c-8.2-44.6-14.6-84.8-19.1-120.5c-2.6-54.5-1.3-90.7,4.1-108.7c6.9-28.3,13.3-46.5,19.4-54.6c0.6-8.2,7.2-18.5,19.8-31
			c33-32.9,69.6-40.9,109.6-24.1c8.8,4.9,16.5,10.7,23.3,17.5l3.8,3.9c17.5,17.6,26.6,57.1,27.2,118.7
			c-6.3,45.2-22.4,103.2-48.2,173.9l-33.3,81.6 M455.3,33.8c-27.2-16.7-44-21.9-50.3-15.5c-1.7-1.7-6.6-0.1-14.8,4.7l-1.1,1.1
			c1.1,1.1,9.8,0.8,26.3-0.9c7.7-1.3,17.1,3.5,28.1,14.6l11.8,11.8c4.1,4.1,10.2,10.8,18.3,20.2c-4.2-14.5-9.4-24.9-15.6-31.1
			C458.8,38,457.9,36.3,455.3,33.8z M467.7,170.8l3.9-3.8l5-0.9c-3.7-38-14.1-72.3-31.1-103.1l-4.8-4.8c-7.7-5-11.9-7.9-12.7-8.6
			l-0.9,0.9c8.8,10.3,14.8,24.2,18.3,41.6l2,2c2.6-2.6,4.8-2.9,6.8-0.9l2.9,3c3.7,19.2,5.6,45.8,5.5,79.6c0.6,0.6,0.3,1.5-0.9,2.7
			l2,2C464.2,176.3,465.5,173.1,467.7,170.8z M403.7,62c-19.5-15.6-36-16.6-49.7-3l-4.8,2.9C327.2,84,317.4,137,320,221.1
			c4.9,41.3,10.3,73.4,16.2,96.2c-2.6,2.6-1.6,9.5,2.9,20.7c7,44.9,20.9,90,41.7,135.1l0.9,0.9c5.3-5.3,9.5-27.6,12.6-66.9
			c3.9-7.3,8.2-25.7,12.8-55.3c5.2-19,10.1-46,14.7-80.7c1.2-1.2,3.2-18,6-50.4c2.1-8.2,2.5-20.9,1-38.1
			C432.1,122.3,423.8,82.2,403.7,62z M445.1,292.6l-2.9-3c-3,3-4.3,9.4-3.9,19.3l0.9-0.9C441.3,299.5,443.2,294.4,445.1,292.6z"/>
	</g>
</g>
</svg>
