<?xml version="1.0" encoding="utf-8"?>
<!-- Generator: Adobe Illustrator 19.1.0, SVG Export Plug-In . SVG Version: 6.00 Build 0)  -->
<svg version="1.1"
	 id="Layer_1" xmlns:svg="http://www.w3.org/2000/svg" xmlns:dc="http://purl.org/dc/elements/1.1/" xmlns:rdf="http://www.w3.org/1999/02/22-rdf-syntax-ns#" xmlns:cc="http://creativecommons.org/ns#"
	 xmlns="http://www.w3.org/2000/svg" xmlns:xlink="http://www.w3.org/1999/xlink" x="0px" y="0px" viewBox="-2496 1344.3 90 112"
	 style="enable-background:new -2496 1344.3 90 112;" xml:space="preserve">
<style type="text/css">
	.st0{fill:#E91E63;}
</style>
<g>
	<path class="st0" d="M-2486.2,1376.1c-0.3,0-0.5,0.2-0.5,0.5c0,0,0,0.2,0,0.3c-0.1,1.3-1.1,11.5-1.2,16.5c0,0.1,0,0.1,0,0.2
		c0.1,3.8,2.3,4.6,5.7,4.7c0,2.2-0.2,4.7-0.9,5.2v0.1c-0.4,0.3-0.7,0.8-0.7,1.4l0.7,28.4c0,1,0.3,1.8,1.3,1.8h1.8
		c1,0,1.2-0.8,1.2-1.8l0.7-28.4c0-0.6-0.3-1.1-0.7-1.4v-0.1c-0.7-0.5-0.8-3-0.9-5.2c3.4-0.1,5.6-1,5.7-4.7c0-0.1,0-0.1,0-0.2
		c-0.2-5-1.1-15.2-1.2-16.5c0-0.1,0-0.3,0-0.3c0-0.3-0.2-0.5-0.5-0.5h-0.5c-0.3,0-0.5,0.2-0.5,0.5c0,0,0,0,0,0v0.1v16.6
		c0,0.1,0,0.2-0.1,0.3c0,0,0,0,0,0c-0.1,0.1-0.2,0.1-0.3,0.2c0,0,0,0,0,0c0,0,0,0-0.1,0h-0.7c-0.3,0-0.5-0.2-0.5-0.5
		c0-5.6,0-16.7,0-16.7c0-0.3-0.2-0.5-0.5-0.5h0h-0.4h0c-0.3,0-0.5,0.2-0.5,0.5c0,0,0,11.1,0,16.7c0,0.2-0.2,0.5-0.4,0.5
		c0,0-0.1,0-0.1,0h-0.9c0,0,0,0,0,0c0,0,0,0,0,0c0,0,0,0,0,0c0,0,0,0,0,0c0,0,0,0-0.1,0h-0.1c0,0,0,0-0.1,0c0,0,0,0,0,0
		c0,0,0,0-0.1,0c-0.1-0.1-0.2-0.2-0.2-0.4c0-5.6,0-16.7,0-16.7c0-0.3-0.2-0.5-0.5-0.5h0h-0.4h0c-0.3,0-0.5,0.2-0.5,0.5
		c0,0,0,11.1,0,16.7c0,0.1-0.1,0.3-0.2,0.4c-0.1,0.1-0.2,0.1-0.4,0.1h-0.7c0,0,0,0,0,0c0,0,0,0,0,0c0,0,0,0,0,0c0,0,0,0,0,0
		c0,0,0,0-0.1,0h0c0,0,0,0-0.1,0c0,0-0.1,0-0.1-0.1c0,0,0,0-0.1-0.1c-0.1-0.1-0.1-0.1-0.1-0.2c0,0,0-0.1,0-0.1c0,0,0,0,0,0
		c0,0,0,0,0-0.1v-16.6v-0.1v0c0-0.3-0.2-0.5-0.5-0.5H-2486.2z M-2461.3,1376.1c-3.7,2.1-6.4,12.5-6.4,24.6c0,1.4,0,2.9,0.1,4.3
		c0.8,0.8,1.4,2.3,1.4,4c0,0.7-0.1,1.5-0.3,2.1h5.2C-2461.3,1411.1-2461.3,1376.1-2461.3,1376.1z M-2451.9,1376.1
		c-1.6,2.8-2.5,12.3-2.5,15.8c0,10.3,7.9,18.7,18,19.6v21.1h-0.7c-1.1,0-12.9,1.1-12.9,2.4c0,0,0,0.1,0,0.1h30.9c0,0,0-0.1,0-0.1
		c0-1.3-11.8-2.4-12.9-2.4c0,0,0,0-0.1,0h-0.7v-21.1c10.1-0.9,18-9.3,18-19.6c0-3.5-0.9-12.9-2.5-15.8
		C-2417.5,1376.1-2451.9,1376.1-2451.9,1376.1z M-2418.7,1377.9c0.9,3,1.3,6.1,1.6,9.1h-31.9v0.1v0.1c-0.3,3.3-0.1,6.6,0.7,9.9
		c0.9,4.7,3.7,9.1,8,11.9c-3.3-1.1-6.3-3.2-8.5-6c-2.7-3.3-3.9-7.6-3.8-11.9c0.4-4.4,0.5-8.9,1.9-13.1c10.2,0,20.4,0,30.6,0
		C-2419.6,1377.9-2419.2,1377.9-2418.7,1377.9z M-2467,1411.8c-0.3,0-0.5,0.2-0.5,0.5v0.6c0.6,0.5,1,1.3,1,2.4
		c0,0.8-0.6,4.1-0.6,7.1c0,3.3,0.7,7.5,0.7,8.4c0,0.8-0.2,1.5-0.6,2c-0.6,0.3-0.9,0.8-0.9,1.2c0,0.3,0.2,0.6,0.5,0.9
		c0.1,0.2,0.3,0.4,0.5,0.4h2.1h3.3c0.3,0,0.5-0.2,0.5-0.5v-22.5c0-0.2-0.2-0.5-0.5-0.5C-2461.6,1411.8-2467,1411.8-2467,1411.8z"/>
</g>
</svg>
